<svg xmlns="http://www.w3.org/2000/svg" viewBox="0 0 266.4 156.32"><defs><style>.a{fill:#f2f2f2;}.b{fill:#212121;}.c{fill:#757575;}.d{fill:#c4692c;}.e{fill:#f58536;}.f{fill:#a0501a;}</style></defs><title>Asset 163</title><polygon class="a" points="133.2 0 0 78.16 133.2 156.32 266.4 78.16 133.2 0"/><polygon class="b" points="196.08 38.57 156.17 44.34 169.27 48.67 169.41 48.74 114.52 80.44 125.67 86.95 179.68 55.81 180.94 55.15 189.03 63.62 196.08 38.57"/><polygon class="c" points="193.68 37.15 153.76 42.91 166.87 47.25 167 47.32 112.11 79.02 123.27 85.53 177.27 54.39 178.53 53.73 186.63 62.2 193.68 37.15"/><polygon class="d" points="150.12 146.37 16.93 68.2 16.93 46.95 150.12 125.12 150.12 146.37"/><polygon class="e" points="150.12 146.41 177.25 130.65 177.25 109.36 150.12 125.12 150.12 146.41"/><polygon class="f" points="44.05 31.2 16.93 46.96 150.13 125.12 177.25 109.36 44.05 31.2"/></svg>