<svg xmlns="http://www.w3.org/2000/svg" viewBox="0 0 266.4 156.32">
    <defs>
        <style>.a{fill:#f2f2f2;}.b{fill:#c4692c;}.c{fill:#f58536;}.d{fill:#a0501a;}.e{fill:#fff;}.f{fill:#757575;}
        </style>
    </defs>
    <title>Asset 98</title>
    <polygon class="a" points="133.2 0 0 78.16 133.2 156.32 266.4 78.16 133.2 0"/>
    <polygon class="b" points="202.21 102.94 193.27 97.62 193.27 89.46 202.21 94.78 202.21 102.94"/>
    <polygon class="c" points="202.21 102.94 211.16 97.62 211.16 89.46 202.21 94.78 202.21 102.94"/>
    <polygon class="d" points="202.21 84.15 193.27 89.46 202.21 94.78 211.16 89.46 202.21 84.15"/>
    <path class="e"
          d="M194.46,95l6.33,3.75V95.48l-6.33-3.76Zm4.31-.06,1.52.9v2.1l-1.52-.9Zm-1.94-1.15,1.5.89v2.1l-1.5-.89Zm-1.9-1.13,1.48.88v2.1l-1.48-.88Z"/>
    <path d="M129.62,136.56l17.59-18.49-6.19.28c14.56-12.72,14-28.36-2-39.11h0l.37-.2c21.36,8.15,51.61,7.64,75.27-.9l.41,3.6L247.65,70l-34.57-5.88.39,3.47c-22.48-6.13-51.81-4.1-73.72,5.52a.61.61,0,0,0-.14-.07L139.5,73c17.57-12.06,20.18-27.81,7.36-39.5l6.39,0-12.58-18L119.84,33.31l7.2,0c-15.55,13-15.31,29.12,1.25,40.09l-.33.18c-21.4-8.25-51.85-7.73-75.66.93l-.13-4L18.75,81.71l34,6.56-.11-3.42c22.66,6.47,52.65,4.5,74.93-5.3l.25.13c-17.67,12.12-20.18,27.95-7.09,39.59l-7.18.33ZM214,73.17c-20.61,8.54-48.2,9.63-67.85,2.65C166.75,67.26,194.34,66.18,214,73.17ZM136.4,33.59c14.24,10.12,13.31,24.88-2.29,36.19C119.86,59.67,120.79,44.91,136.4,33.59ZM53,79.52c20.75-8.65,48.52-9.75,68.21-2.68C100.49,85.47,72.71,86.57,53,79.52Zm80.15,3.4c14,10.07,13.12,24.66-2.3,35.89h-.14C116.73,108.75,117.69,94.16,133.17,82.92Z"/>
    <path class="f"
          d="M126.81,136.13l17.59-18.49-6.19.28c14.55-12.72,14-28.36-2-39.11h0l.36-.2c21.37,8.15,51.61,7.64,75.28-.89l.4,3.59,32.59-11.71-34.56-5.88.39,3.47c-22.49-6.13-51.81-4.1-73.72,5.52l-.14-.07-.11-.06c17.57-12.06,20.18-27.81,7.36-39.5l6.39,0-12.58-18L117,32.88l7.21,0c-15.56,13-15.31,29.12,1.25,40.09l-.33.18c-21.4-8.25-51.86-7.73-75.67.94l-.13-4L15.94,81.29l34,6.55-.11-3.42c22.66,6.47,52.64,4.5,74.93-5.3l.25.13c-17.67,12.12-20.19,28-7.09,39.59l-7.18.33Zm84.35-63.39c-20.61,8.54-48.2,9.63-67.85,2.65C163.94,66.83,191.52,65.75,211.16,72.74ZM133.59,33.16C147.83,43.28,146.9,58,131.3,69.35,117.05,59.24,118,44.49,133.59,33.16ZM50.21,79.09c20.74-8.65,48.52-9.75,68.2-2.67C97.68,85,69.9,86.15,50.21,79.09Zm80.15,3.4c14,10.07,13.12,24.66-2.3,35.89h-.14C113.92,108.33,114.88,93.73,130.36,82.49Z"/>
</svg>