<svg xmlns="http://www.w3.org/2000/svg" viewBox="0 0 266.4 507.32"><defs><style>.a{fill:#c4692c;}.b{fill:#fff;}.c{fill:#f58536;}.d{fill:#a0501a;}</style></defs><title>Asset 44</title><polygon class="a" points="133.2 507.32 0 429.16 0 78.16 133.2 156.32 133.2 507.32"/><path class="b" d="M16.8,239.07,111,294.27V246.91L16.8,191.66Zm64.07-.83,22.68,13.31v30.82L80.87,269.06ZM52.12,221.37l22.33,13.1v30.82l-22.33-13.1ZM23.81,204.71l22,12.95v30.82l-22-12.91Z"/><polygon class="c" points="133.2 507.32 266.4 429.16 266.4 78.16 133.2 156.32 133.2 507.32"/><polygon class="d" points="133.2 0 0 78.16 133.2 156.32 266.4 78.16 133.2 0"/><path class="b" d="M17.8,179.81,112,235V187.65L17.8,132.41ZM81.88,179l22.67,13.3v30.82l-22.67-13.3ZM53.12,162.12l22.33,13.1V206l-22.33-13.1ZM24.81,145.45l22,13v30.82l-22-12.91Z"/></svg>