<svg xmlns="http://www.w3.org/2000/svg" viewBox="0 0 266.4 514.15"><defs><style>.a{fill:#c4692c;}.b{fill:#f58536;}.c{fill:#a0501a;}.d{fill:#fff;}.e{fill:#723710;}</style></defs><title>Asset 45</title><polygon class="a" points="133.2 514.15 0 435.99 0 84.99 133.2 163.15 133.2 514.15"/><polygon class="b" points="133.2 514.15 266.4 435.99 266.4 84.99 133.2 163.15 133.2 514.15"/><polygon class="c" points="133.2 6.83 0 84.99 133.2 163.15 266.4 84.99 133.2 6.83"/><path class="d" d="M249.6,162.31,155,217.51V170.15l94.62-55.24Zm-64.4-.82-22.78,13.3v30.82l22.78-13.3Zm28.9-16.87-22.44,13.1v30.82l22.44-13.1ZM242.55,128l-22.09,13v30.82l22.09-12.92Z"/><polygon class="a" points="135.31 142.34 87.69 114.4 87.69 71.5 135.31 99.44 135.31 142.34"/><polygon class="b" points="135.31 142.34 182.92 114.4 182.92 71.5 135.31 99.44 135.31 142.34"/><polygon class="a" points="135.31 98.78 87.69 70.84 87.69 27.94 135.31 55.88 135.31 98.78"/><polygon class="b" points="135.31 98.78 182.92 70.84 182.92 27.94 135.31 55.88 135.31 98.78"/><polygon class="e" points="135.31 0 87.69 27.94 135.31 55.88 182.92 27.94 135.31 0"/><path class="d" d="M168.54,56,139.16,73.22V58.45l29.38-17.24Zm-20-.26-7.07,4.15v9.62l7.07-4.15Zm9-5.26-7,4.09v9.61l7-4.09Zm8.84-5.2-6.86,4v9.62l6.86-4Z"/></svg>