<svg xmlns="http://www.w3.org/2000/svg" viewBox="0 0 266.4 199.47">
    <defs>
        <style>
            .a{
            fill:#c4692c; dark
            }
            .b{fill:#f58536; ligh
            }

            .c{fill:#a0501a;} darker
            </style>
    </defs>
    <title>Asset 39</title>
    <polygon class="c" points="133.2 199.47 0 121.31 0 92.87 133.2 171.03 133.2 199.47"/>
    <polygon class="b" points="133.2 199.47 266.4 121.31 266.4 92.87 133.2 171.03 133.2 199.47"/>
    <polygon class="c" points="133.2 14.71 0 92.87 133.2 171.03 266.4 92.87 133.2 14.71"/>
    <polygon class="a" points="133.17 115 72.33 79.3 72.33 35.7 133.17 71.4 133.17 115"/>
    <polygon class="b" points="133.17 115 194.01 79.3 194.01 35.7 133.17 71.4 133.17 115"/>
    <polygon class="c" points="133.17 0 72.33 35.7 133.17 71.4 194.01 35.7 133.17 0"/>
    <path class="d"
          d="M183.62,66.68,149.07,86.94V69.56l34.55-20.27Zm-23.51-.3-8.32,4.88V82.57l8.32-4.88Zm10.55-6.19L162.47,65V76.31l8.19-4.81Zm10.39-6.11L173,58.83V70.14l8.07-4.74Z"/>
</svg>