<svg xmlns="http://www.w3.org/2000/svg" viewBox="0 0 635.51 578.61"><defs><style>.a{fill:#c4692c;}.b{fill:#f58536;}.c{fill:#a0501a;}.d{fill:#fff;}.e{fill:#d1d1d1;}</style></defs><title>Asset 50</title><polygon class="a" points="105.41 424.17 0.2 362.48 0 157.16 105.41 263.85 105.41 424.17"/><polygon class="b" points="104.36 424.17 372.18 267.01 372.18 106.69 104.36 263.85 104.36 424.17"/><polygon class="c" points="267.82 0 0 157.16 105.41 263.87 373.24 106.71 267.82 0"/><path class="d" d="M196.38,272.89l-64.7,37.93V278.28l64.7-38Zm-44-.57-15.58,9.15v21.18l15.58-9.15Zm19.75-11.59-15.34,9v21.18l15.34-9Zm19.46-11.45-15.11,8.9v21.18l15.11-8.88Z"/><path class="d" d="M201.46,360.82l-64.69,37.94V366.21l64.69-38Zm-44-.56-15.58,9.14v21.18l15.58-9.14Zm19.76-11.6-15.34,9v21.18l15.34-9Zm19.46-11.45-15.11,8.9v21.18l15.11-8.87Z"/><path class="d" d="M291,314.87l-64.7,37.93V280.26l64.7-38Zm-4.82,1.6V251.26l-54.79,32.19v65.18Z"/><polygon class="e" points="405.93 287.01 138.1 444.17 199.14 480.39 466.96 323.24 405.93 287.01"/><polygon class="a" points="301.53 538.36 240.5 502.13 240.5 441.81 301.53 478.04 301.53 538.36"/><polygon class="b" points="301.53 538.36 569.36 381.2 569.36 320.88 301.53 478.04 301.53 538.36"/><polygon class="c" points="508.32 284.66 240.5 441.81 301.53 478.04 569.36 320.88 508.32 284.66"/><polygon class="a" points="504.81 341.78 467.08 319.64 467.08 285.65 504.81 307.79 504.81 341.78"/><polygon class="b" points="504.81 341.78 542.53 319.64 542.53 285.65 504.81 307.79 504.81 341.78"/><polygon class="c" points="504.81 263.51 467.08 285.65 504.81 307.79 542.53 285.65 504.81 263.51"/><path class="d" d="M472.12,308.49l26.67,15.64V310.72l-26.67-15.65Zm18.15-.23,6.42,3.77v8.73L490.27,317Zm-8.15-4.78,6.33,3.71v8.73l-6.33-3.71Zm-8-4.72,6.23,3.67v8.73l-6.23-3.66Z"/><polygon class="a" points="367.69 578.61 306.65 542.38 306.65 482.06 367.69 518.29 367.69 578.61"/><polygon class="b" points="367.69 578.61 635.51 421.45 635.51 361.13 367.69 518.29 367.69 578.61"/><polygon class="c" points="574.47 324.91 306.65 482.06 367.69 518.29 635.51 361.13 574.47 324.91"/></svg>