<svg xmlns="http://www.w3.org/2000/svg" viewBox="0 0 266.3 327.83"><defs><style>.a{fill:#c4692c;}.b{fill:#f58536;}.c{fill:#a0501a;}</style></defs><title>Asset 110</title><polygon class="a" points="134.81 327.83 3.31 250.66 3.31 212.2 134.81 289.36 134.81 327.83"/><polygon class="b" points="134.81 327.83 266.3 250.66 266.3 212.2 134.81 289.36 134.81 327.83"/><polygon class="c" points="134.81 135.04 3.31 212.2 134.81 289.36 266.3 212.2 134.81 135.04"/><polygon class="c" points="36.85 271.5 46.65 154.67 226.15 160.42 222.2 273.82 36.85 271.5"/><polygon class="b" points="36.85 247.41 46.65 130.57 226.15 136.32 222.2 249.73 36.85 247.41"/><polygon class="a" points="131.5 260.26 0 183.1 0 144.63 131.5 221.79 131.5 260.26"/><polygon class="b" points="131.5 260.26 263 183.1 263 144.63 131.5 221.79 131.5 260.26"/><polygon class="c" points="131.5 67.47 0 144.63 131.5 221.79 263 144.63 131.5 67.47"/><polygon class="a" points="196.63 152.67 123.05 109.52 122.96 15.3 196.55 58.45 196.63 152.67"/><polygon class="b" points="196.55 152.67 223.04 137.15 223.04 43.13 196.55 58.45 196.55 152.67"/><polygon class="c" points="149.45 0 122.96 15.3 196.55 58.45 223.04 43.15 149.45 0"/><polygon class="a" points="160.13 175.17 86.54 132.02 86.46 37.8 160.05 80.95 160.13 175.17"/><polygon class="b" points="160.05 175.17 186.54 159.65 186.54 65.63 160.05 80.95 160.05 175.17"/><polygon class="c" points="112.95 22.5 86.46 37.8 160.05 80.95 186.54 65.65 112.95 22.5"/><polygon class="a" points="119.64 200.45 46.05 157.3 45.96 63.08 119.55 106.23 119.64 200.45"/><polygon class="b" points="119.55 200.45 146.04 184.94 146.04 90.91 119.55 106.23 119.55 200.45"/><polygon class="c" points="72.45 47.78 45.96 63.08 119.55 106.23 146.04 90.93 72.45 47.78"/></svg>