<svg xmlns="http://www.w3.org/2000/svg" viewBox="0 0 266.4 156.32"><defs><style>.a{fill:#f2f2f2;}.b{fill:#212121;}.c{fill:#c4692c;}.d{fill:#f58536;}.e{fill:#a0501a;}.f{fill:#fff;}.g{fill:#757575;}.h{fill:#efefef;}</style></defs><title>Asset 73</title><polygon class="a" points="133.2 0 0 78.16 133.2 156.32 266.4 78.16 133.2 0"/><path class="b" d="M158.51,27.57l7.08-3.85-30.83-5.21,5.89,18.75L147,33.83c5.27,10.92-3.56,26.16-23.92,38S76.2,88.75,57.2,85.34l7.3-4.19L32,76.56l7.92,18.66,5.86-3.36c24.75,6.68,60.61,1.33,87.12-14.2C159.15,62.28,168.73,41.72,158.51,27.57Z"/><path class="b" d="M136,136.16l-8.53-18.69-7,4.19c-6.15-11,2.16-26.28,22.38-38.19s45.81-16.9,64.07-13.57l-5.75,3.67,31.24,4-8.6-18.42-6.43,4.11c-23.54-6.36-58.17-.93-84.4,14.45C106.41,93.19,97.49,114,109.4,128.21l-5.66,3.36Z"/><polygon class="c" points="180.87 54.8 171.92 49.49 171.92 41.33 180.87 46.65 180.87 54.8"/><polygon class="d" points="180.87 54.8 189.82 49.49 189.82 41.33 180.87 46.65 180.87 54.8"/><polygon class="e" points="180.87 36.02 171.92 41.33 180.87 46.65 189.82 41.33 180.87 36.02"/><path class="f" d="M173.12,46.81l6.32,3.76V47.35l-6.32-3.76Zm4.3-.05,1.52.9v2.1l-1.52-.91Zm-1.93-1.15,1.5.89v2.1l-1.5-.89Zm-1.9-1.13,1.47.88v2.09l-1.47-.87Z"/><path class="g" d="M156.64,26l7.08-3.85L132.88,17l5.89,18.75,6.33-3.43c5.27,10.92-3.55,26.16-23.91,38S74.33,87.21,55.33,83.79l7.29-4.18L30.15,75l7.92,18.66,5.86-3.36c24.74,6.68,60.6,1.32,87.12-14.2C157.28,60.74,166.85,40.18,156.64,26Z"/><path class="g" d="M134.11,134.62l-8.53-18.69-7,4.19c-6.15-11,2.16-26.28,22.39-38.19S186.72,65,205,68.36L199.24,72l31.23,4-8.59-18.42-6.43,4.11c-23.55-6.36-58.17-.93-84.4,14.45-26.52,15.52-35.43,36.33-23.52,50.55L101.87,130Z"/><polygon class="h" points="150.9 40.52 153.25 33.06 156.02 37.5 153.44 38.36 150.9 40.52"/><polygon class="h" points="146.16 53.17 151.38 47.35 152.07 52.53 149.36 52.25 146.16 53.17"/><polygon class="h" points="136.76 63.41 144.14 60.81 142.26 65.69 140.02 64.15 136.76 63.41"/><polygon class="h" points="63.54 92.18 56.78 87.07 62.31 85.86 62.26 88.81 63.54 92.18"/><polygon class="h" points="88.77 90.35 80.57 88.24 85.2 84.99 86.29 87.73 88.77 90.35"/><polygon class="h" points="114.54 82.67 106.08 82.3 109.94 78.16 111.57 80.62 114.54 82.67"/><polygon class="h" points="112.69 111.15 111.85 119.58 107.93 115.49 110.48 114 112.69 111.15"/><polygon class="h" points="117.93 98.19 111.16 103.28 111.51 97.63 114.33 98.49 117.93 98.19"/><polygon class="h" points="129.06 87.54 121.05 90.3 123.12 85.04 125.54 86.72 129.06 87.54"/><polygon class="h" points="198.03 60.85 202.61 65.24 198.39 65.66 198.69 63.47 198.03 60.85"/><polygon class="h" points="173.91 63.12 180.02 64.81 176.51 67.19 175.73 65.11 173.91 63.12"/><polygon class="h" points="148.25 71.25 154.57 71.77 151.56 74.75 150.41 72.87 148.25 71.25"/><polygon class="c" points="98.53 54.79 87.04 48.05 87.04 17.78 98.53 24.52 98.53 54.79"/><path class="f" d="M88.49,31.66l8.12,4.76V32.33l-8.12-4.76ZM94,31.58l2,1.15v2.66l-2-1.15Zm-2.48-1.45,1.92,1.13v2.66l-1.92-1.13ZM89.1,28.69,91,29.81v2.66L89.1,31.35Z"/><polygon class="d" points="98.53 54.79 110.02 48.05 110.02 17.78 98.53 24.52 98.53 54.79"/><polygon class="e" points="98.53 11.04 87.04 17.78 98.53 24.52 110.02 17.78 98.53 11.04"/><path class="f" d="M88.58,26.55l8.12,4.76V27.22l-8.12-4.76Zm5.53-.08,2,1.15v2.66l-2-1.15ZM91.63,25l1.92,1.13v2.66l-1.92-1.13Zm-2.45-1.44,1.9,1.12v2.66l-1.9-1.12Z"/><polygon class="c" points="84.63 63.1 73.14 56.36 73.14 26.09 84.63 32.83 84.63 63.1"/><path class="f" d="M74.59,40l8.12,4.76V40.64l-8.12-4.77Zm5.52-.07,2,1.15V43.7l-2-1.15Zm-2.48-1.45,1.93,1.13v2.65l-1.93-1.13ZM75.19,37l1.9,1.12v2.65l-1.9-1.11Z"/><polygon class="d" points="84.63 63.1 96.11 56.36 96.11 26.09 84.63 32.83 84.63 63.1"/><polygon class="e" points="84.63 19.34 73.14 26.09 84.63 32.83 96.11 26.09 84.63 19.34"/><path class="f" d="M74.67,34.85l8.12,4.76V35.53l-8.12-4.77Zm5.53-.07,2,1.15v2.66l-2-1.15Zm-2.48-1.45,1.92,1.13v2.65L77.72,36Zm-2.44-1.44L77.17,33v2.65l-1.89-1.11Z"/><polygon class="c" points="112.99 63.32 101.5 56.58 101.5 26.3 112.99 33.05 112.99 63.32"/><path class="f" d="M103,40.18l8.12,4.76V40.86L103,36.09Zm5.53-.07,2,1.15v2.66l-2-1.15ZM106,38.66l1.92,1.13v2.65L106,41.31Zm-2.44-1.44,1.89,1.12V41l-1.89-1.11Z"/><polygon class="d" points="112.99 63.32 124.48 56.58 124.48 26.3 112.99 33.05 112.99 63.32"/><polygon class="e" points="112.99 19.56 101.5 26.3 112.99 33.05 124.48 26.3 112.99 19.56"/><path class="f" d="M103,35.07l8.12,4.76V35.75L103,31Zm5.52-.07,2,1.15v2.66l-2-1.15Zm-2.48-1.45L108,34.68v2.65l-1.93-1.13Zm-2.44-1.44,1.9,1.12v2.65l-1.9-1.11Z"/><polygon class="c" points="99.08 71.62 87.6 64.88 87.6 34.61 99.08 41.35 99.08 71.62"/><path class="f" d="M89,48.49l8.12,4.76V49.16L89,44.4Zm5.53-.07,2,1.14v2.66l-2-1.14ZM92.09,47,94,48.09v2.66l-1.93-1.13Zm-2.44-1.43,1.9,1.11V49.3l-1.9-1.11Z"/><polygon class="d" points="99.08 71.62 110.57 64.88 110.57 34.61 99.08 41.35 99.08 71.62"/><polygon class="e" points="99.08 27.87 87.6 34.61 99.08 41.35 110.57 34.61 99.08 27.87"/><path class="f" d="M89.13,43.38l8.12,4.76V44.05l-8.12-4.76Zm5.53-.07,2,1.14v2.66l-2-1.14Zm-2.48-1.46L94.1,43v2.66l-1.92-1.13Zm-2.44-1.44,1.89,1.12v2.66l-1.89-1.11Z"/></svg>