<svg xmlns="http://www.w3.org/2000/svg" viewBox="0 0 266.4 156.32"><defs><style>.a{fill:#f2f2f2;}.b{fill:#c4692c;}.c{fill:#f58536;}.d{fill:#a0501a;}.e{fill:#fff;}</style></defs><title>Asset 97</title><polygon class="a" points="133.2 0 0 78.16 133.2 156.32 266.4 78.16 133.2 0"/><polygon class="b" points="50.21 86.88 37.43 79.3 37.43 66.67 50.21 74.25 50.21 86.88"/><polygon class="c" points="50.21 86.88 106.28 53.98 106.28 41.35 50.21 74.25 50.21 86.88"/><polygon class="d" points="93.5 33.76 37.43 66.67 50.21 74.25 106.28 41.35 93.5 33.76"/><polygon class="b" points="69.17 97.93 56.39 90.34 56.39 77.71 69.17 85.3 69.17 97.93"/><polygon class="c" points="69.17 97.93 125.25 65.02 125.25 52.39 69.17 85.3 69.17 97.93"/><polygon class="d" points="112.47 44.81 56.39 77.71 69.17 85.3 125.25 52.39 112.47 44.81"/><polygon class="b" points="87.84 109.07 75.06 101.49 75.06 88.86 87.84 96.44 87.84 109.07"/><polygon class="c" points="87.84 109.07 143.92 76.17 143.92 63.54 87.84 96.44 87.84 109.07"/><polygon class="d" points="131.14 55.95 75.06 88.86 87.84 96.44 143.92 63.54 131.14 55.95"/><polygon class="b" points="62.99 77.71 50.21 70.13 50.21 57.5 62.99 65.08 62.99 77.71"/><polygon class="c" points="62.99 77.71 119.06 44.81 119.06 32.18 62.99 65.08 62.99 77.71"/><polygon class="d" points="106.28 24.59 50.21 57.5 62.99 65.08 119.06 32.18 106.28 24.59"/><polygon class="b" points="81.5 88.86 68.72 81.27 68.72 68.64 81.5 76.23 81.5 88.86"/><polygon class="c" points="81.5 88.86 137.58 55.95 137.58 43.32 81.5 76.23 81.5 88.86"/><polygon class="d" points="124.8 35.74 68.72 68.64 81.5 76.23 137.58 43.32 124.8 35.74"/><polygon class="b" points="75.31 68.26 62.53 60.67 62.53 48.05 75.31 55.63 75.31 68.26"/><polygon class="c" points="75.31 68.26 131.39 35.35 131.39 22.73 75.31 55.63 75.31 68.26"/><polygon class="d" points="118.61 15.14 62.53 48.05 75.31 55.63 131.39 22.73 118.61 15.14"/><polygon class="b" points="115.88 118.47 106.93 113.15 106.93 105 115.88 110.31 115.88 118.47"/><polygon class="c" points="115.88 118.47 124.83 113.15 124.83 105 115.88 110.31 115.88 118.47"/><polygon class="d" points="115.88 99.68 106.93 105 115.88 110.31 124.83 105 115.88 99.68"/><path class="e" d="M108.13,110.48l6.32,3.75V111l-6.32-3.75Zm4.3-.06,1.53.91v2.09l-1.53-.9Zm-1.93-1.14,1.5.89v2.09l-1.5-.89Zm-1.9-1.14,1.48.88v2.1l-1.48-.88Z"/></svg>