<?xml version="1.0" encoding="utf-8" standalone="no"?>
<!DOCTYPE svg PUBLIC "-//W3C//DTD SVG 1.1//EN"
  "http://www.w3.org/Graphics/SVG/1.1/DTD/svg11.dtd">
<!-- Created with matplotlib (http://matplotlib.org/) -->
<svg height="576pt" version="1.1" viewBox="0 0 576 576" width="576pt" xmlns="http://www.w3.org/2000/svg" xmlns:xlink="http://www.w3.org/1999/xlink">
 <defs>
  <style type="text/css">
*{stroke-linecap:butt;stroke-linejoin:round;}
  </style>
 </defs>
 <g id="figure_1">
  <g id="patch_1">
   <path d="M 0 576 
L 576 576 
L 576 0 
L 0 0 
z
" style="fill:#ffffff;"/>
  </g>
  <g id="axes_1">
   <g id="patch_2">
    <path clip-path="url(#p35b05f6efe)" d="M 49.983471 288.013508 
Q 169.068322 288.013508 287.03514 288.013508 
" style="fill:none;stroke:#000000;stroke-linecap:round;stroke-opacity:0.9;"/>
    <path clip-path="url(#p35b05f6efe)" d="M 281.03514 285.013508 
L 287.03514 288.013508 
L 281.03514 291.013508 
L 281.03514 285.013508 
z
" style="fill-opacity:0.9;stroke:#000000;stroke-linecap:round;stroke-opacity:0.9;"/>
   </g>
   <g id="patch_3">
    <path clip-path="url(#p35b05f6efe)" d="M 303.96088 288.013508 
Q 337.244736 176.57313 370.208634 66.204026 
" style="fill:none;stroke:#000000;stroke-linecap:round;stroke-opacity:0.9;"/>
    <path clip-path="url(#p35b05f6efe)" d="M 365.617036 71.09455 
L 370.208634 66.204026 
L 371.366094 72.811619 
L 365.617036 71.09455 
z
" style="fill-opacity:0.9;stroke:#000000;stroke-linecap:round;stroke-opacity:0.9;"/>
   </g>
   <g id="patch_4">
    <path clip-path="url(#p35b05f6efe)" d="M 375.053221 526.016529 
Q 341.769366 414.588799 308.8055 304.232333 
" style="fill:none;stroke:#000000;stroke-linecap:round;stroke-opacity:0.9;"/>
    <path clip-path="url(#p35b05f6efe)" d="M 307.648246 310.839962 
L 308.8055 304.232333 
L 313.397251 309.122714 
L 307.648246 310.839962 
z
" style="fill-opacity:0.9;stroke:#000000;stroke-linecap:round;stroke-opacity:0.9;"/>
   </g>
   <g id="patch_5">
    <path clip-path="url(#p35b05f6efe)" d="M 446.137494 288.013508 
Q 382.956807 288.013508 320.894153 288.013508 
" style="fill:none;stroke:#000000;stroke-linecap:round;stroke-opacity:0.9;"/>
    <path clip-path="url(#p35b05f6efe)" d="M 326.894153 291.013508 
L 320.894153 288.013508 
L 326.894153 285.013508 
L 326.894153 291.013508 
z
" style="fill-opacity:0.9;stroke:#000000;stroke-linecap:round;stroke-opacity:0.9;"/>
   </g>
   <g id="patch_6">
    <path clip-path="url(#p35b05f6efe)" d="M 446.137494 288.013508 
Q 412.857416 399.441237 379.897295 509.797693 
" style="fill:none;stroke:#000000;stroke-linecap:round;stroke-opacity:0.9;"/>
    <path clip-path="url(#p35b05f6efe)" d="M 384.488893 504.90717 
L 379.897295 509.797693 
L 378.739835 503.1901 
L 384.488893 504.90717 
z
" style="fill-opacity:0.9;stroke:#000000;stroke-linecap:round;stroke-opacity:0.9;"/>
   </g>
   <g id="patch_7">
    <path clip-path="url(#p35b05f6efe)" d="M 375.053221 49.983471 
Q 408.333299 161.423849 441.293454 271.792943 
" style="fill:none;stroke:#000000;stroke-linecap:round;stroke-opacity:0.9;"/>
    <path clip-path="url(#p35b05f6efe)" d="M 442.45112 265.185386 
L 441.293454 271.792943 
L 436.702008 266.902276 
L 442.45112 265.185386 
z
" style="fill-opacity:0.9;stroke:#000000;stroke-linecap:round;stroke-opacity:0.9;"/>
   </g>
   <g id="patch_8">
    <path clip-path="url(#p35b05f6efe)" d="M 375.053221 49.983471 
Q 341.769366 161.423849 308.805467 271.792953 
" style="fill:none;stroke:#000000;stroke-linecap:round;stroke-opacity:0.9;"/>
    <path clip-path="url(#p35b05f6efe)" d="M 313.397065 266.902429 
L 308.805467 271.792953 
L 307.648007 265.18536 
L 313.397065 266.902429 
z
" style="fill-opacity:0.9;stroke:#000000;stroke-linecap:round;stroke-opacity:0.9;"/>
   </g>
   <g id="patch_9">
    <path clip-path="url(#p35b05f6efe)" d="M 187.982976 288.013508 
Q 238.066757 288.013508 287.032504 288.013508 
" style="fill:none;stroke:#000000;stroke-linecap:round;stroke-opacity:0.9;"/>
    <path clip-path="url(#p35b05f6efe)" d="M 281.032504 285.013508 
L 287.032504 288.013508 
L 281.032504 291.013508 
L 281.032504 285.013508 
z
" style="fill-opacity:0.9;stroke:#000000;stroke-linecap:round;stroke-opacity:0.9;"/>
   </g>
   <g id="patch_10">
    <path clip-path="url(#p35b05f6efe)" d="M 526.016529 288.013508 
Q 493.98252 288.013508 463.066545 288.013508 
" style="fill:none;stroke:#000000;stroke-linecap:round;stroke-opacity:0.9;"/>
    <path clip-path="url(#p35b05f6efe)" d="M 469.066545 291.013508 
L 463.066545 288.013508 
L 469.066545 285.013508 
L 469.066545 291.013508 
z
" style="fill-opacity:0.9;stroke:#000000;stroke-linecap:round;stroke-opacity:0.9;"/>
   </g>
   <g id="PathCollection_1">
    <defs>
     <path d="M -11.18034 11.18034 
L 11.18034 11.18034 
L 11.18034 -11.18034 
L -11.18034 -11.18034 
z
" id="m3a3791cd92" style="stroke:#782675;stroke-opacity:0.9;stroke-width:5;"/>
    </defs>
    <g clip-path="url(#p35b05f6efe)">
     <use style="fill:#782675;fill-opacity:0.9;stroke:#782675;stroke-opacity:0.9;stroke-width:5;" x="49.983471" xlink:href="#m3a3791cd92" y="288.013508"/>
     <use style="fill:#782675;fill-opacity:0.9;stroke:#782675;stroke-opacity:0.9;stroke-width:5;" x="303.96088" xlink:href="#m3a3791cd92" y="288.013508"/>
     <use style="fill:#782675;fill-opacity:0.9;stroke:#782675;stroke-opacity:0.9;stroke-width:5;" x="375.053221" xlink:href="#m3a3791cd92" y="526.016529"/>
     <use style="fill:#782675;fill-opacity:0.9;stroke:#782675;stroke-opacity:0.9;stroke-width:5;" x="446.137494" xlink:href="#m3a3791cd92" y="288.013508"/>
     <use style="fill:#782675;fill-opacity:0.9;stroke:#782675;stroke-opacity:0.9;stroke-width:5;" x="375.053221" xlink:href="#m3a3791cd92" y="49.983471"/>
     <use style="fill:#782675;fill-opacity:0.9;stroke:#782675;stroke-opacity:0.9;stroke-width:5;" x="187.982976" xlink:href="#m3a3791cd92" y="288.013508"/>
     <use style="fill:#782675;fill-opacity:0.9;stroke:#782675;stroke-opacity:0.9;stroke-width:5;" x="526.016529" xlink:href="#m3a3791cd92" y="288.013508"/>
    </g>
   </g>
   <g id="text_1">
    <g clip-path="url(#p35b05f6efe)">
     <!-- cdn2 -->
     <defs>
      <path d="M 52.59375 52.984375 
L 52.59375 38.71875 
Q 49.03125 41.15625 45.4375 42.328125 
Q 41.84375 43.5 37.984375 43.5 
Q 30.671875 43.5 26.59375 39.234375 
Q 22.515625 34.96875 22.515625 27.296875 
Q 22.515625 19.625 26.59375 15.34375 
Q 30.671875 11.078125 37.984375 11.078125 
Q 42.09375 11.078125 45.78125 12.296875 
Q 49.46875 13.53125 52.59375 15.921875 
L 52.59375 1.609375 
Q 48.484375 0.09375 44.265625 -0.65625 
Q 40.046875 -1.421875 35.796875 -1.421875 
Q 21 -1.421875 12.640625 6.171875 
Q 4.296875 13.765625 4.296875 27.296875 
Q 4.296875 40.828125 12.640625 48.40625 
Q 21 56 35.796875 56 
Q 40.09375 56 44.265625 55.25 
Q 48.4375 54.5 52.59375 52.984375 
z
" id="DejaVuSans-Bold-63"/>
      <path d="M 45.609375 46.6875 
L 45.609375 75.984375 
L 63.1875 75.984375 
L 63.1875 0 
L 45.609375 0 
L 45.609375 7.90625 
Q 42 3.078125 37.640625 0.828125 
Q 33.296875 -1.421875 27.59375 -1.421875 
Q 17.484375 -1.421875 10.984375 6.609375 
Q 4.5 14.65625 4.5 27.296875 
Q 4.5 39.9375 10.984375 47.96875 
Q 17.484375 56 27.59375 56 
Q 33.25 56 37.625 53.734375 
Q 42 51.46875 45.609375 46.6875 
z
M 34.078125 11.28125 
Q 39.703125 11.28125 42.65625 15.375 
Q 45.609375 19.484375 45.609375 27.296875 
Q 45.609375 35.109375 42.65625 39.203125 
Q 39.703125 43.3125 34.078125 43.3125 
Q 28.515625 43.3125 25.5625 39.203125 
Q 22.609375 35.109375 22.609375 27.296875 
Q 22.609375 19.484375 25.5625 15.375 
Q 28.515625 11.28125 34.078125 11.28125 
z
" id="DejaVuSans-Bold-64"/>
      <path d="M 63.375 33.296875 
L 63.375 0 
L 45.796875 0 
L 45.796875 5.421875 
L 45.796875 25.484375 
Q 45.796875 32.5625 45.484375 35.25 
Q 45.171875 37.9375 44.390625 39.203125 
Q 43.359375 40.921875 41.59375 41.875 
Q 39.84375 42.828125 37.59375 42.828125 
Q 32.125 42.828125 29 38.59375 
Q 25.875 34.375 25.875 26.90625 
L 25.875 0 
L 8.40625 0 
L 8.40625 54.6875 
L 25.875 54.6875 
L 25.875 46.6875 
Q 29.828125 51.46875 34.265625 53.734375 
Q 38.71875 56 44.09375 56 
Q 53.5625 56 58.46875 50.1875 
Q 63.375 44.390625 63.375 33.296875 
z
" id="DejaVuSans-Bold-6e"/>
      <path d="M 28.8125 13.8125 
L 60.890625 13.8125 
L 60.890625 0 
L 7.90625 0 
L 7.90625 13.8125 
L 34.515625 37.3125 
Q 38.09375 40.53125 39.796875 43.609375 
Q 41.5 46.6875 41.5 50 
Q 41.5 55.125 38.0625 58.25 
Q 34.625 61.375 28.90625 61.375 
Q 24.515625 61.375 19.28125 59.5 
Q 14.0625 57.625 8.109375 53.90625 
L 8.109375 69.921875 
Q 14.453125 72.015625 20.65625 73.109375 
Q 26.859375 74.21875 32.8125 74.21875 
Q 45.90625 74.21875 53.15625 68.453125 
Q 60.40625 62.703125 60.40625 52.390625 
Q 60.40625 46.4375 57.328125 41.28125 
Q 54.25 36.140625 44.390625 27.484375 
z
" id="DejaVuSans-Bold-32"/>
     </defs>
     <g transform="translate(33.685971 315.638347)scale(0.12 -0.12)">
      <use xlink:href="#DejaVuSans-Bold-63"/>
      <use x="59.277344" xlink:href="#DejaVuSans-Bold-64"/>
      <use x="130.859375" xlink:href="#DejaVuSans-Bold-6e"/>
      <use x="202.050781" xlink:href="#DejaVuSans-Bold-32"/>
     </g>
    </g>
   </g>
   <g id="text_2">
    <g clip-path="url(#p35b05f6efe)">
     <!-- app3 -->
     <defs>
      <path d="M 32.90625 24.609375 
Q 27.4375 24.609375 24.671875 22.75 
Q 21.921875 20.90625 21.921875 17.28125 
Q 21.921875 13.96875 24.140625 12.078125 
Q 26.375 10.203125 30.328125 10.203125 
Q 35.25 10.203125 38.625 13.734375 
Q 42 17.28125 42 22.609375 
L 42 24.609375 
z
M 59.625 31.203125 
L 59.625 0 
L 42 0 
L 42 8.109375 
Q 38.484375 3.125 34.078125 0.84375 
Q 29.6875 -1.421875 23.390625 -1.421875 
Q 14.890625 -1.421875 9.59375 3.53125 
Q 4.296875 8.5 4.296875 16.40625 
Q 4.296875 26.03125 10.90625 30.515625 
Q 17.53125 35.015625 31.6875 35.015625 
L 42 35.015625 
L 42 36.375 
Q 42 40.53125 38.71875 42.453125 
Q 35.453125 44.390625 28.515625 44.390625 
Q 22.90625 44.390625 18.0625 43.265625 
Q 13.234375 42.140625 9.078125 39.890625 
L 9.078125 53.21875 
Q 14.703125 54.59375 20.359375 55.296875 
Q 26.03125 56 31.6875 56 
Q 46.484375 56 53.046875 50.171875 
Q 59.625 44.34375 59.625 31.203125 
z
" id="DejaVuSans-Bold-61"/>
      <path d="M 25.875 7.90625 
L 25.875 -20.796875 
L 8.40625 -20.796875 
L 8.40625 54.6875 
L 25.875 54.6875 
L 25.875 46.6875 
Q 29.5 51.46875 33.890625 53.734375 
Q 38.28125 56 44 56 
Q 54.109375 56 60.59375 47.96875 
Q 67.09375 39.9375 67.09375 27.296875 
Q 67.09375 14.65625 60.59375 6.609375 
Q 54.109375 -1.421875 44 -1.421875 
Q 38.28125 -1.421875 33.890625 0.84375 
Q 29.5 3.125 25.875 7.90625 
z
M 37.5 43.3125 
Q 31.890625 43.3125 28.875 39.1875 
Q 25.875 35.0625 25.875 27.296875 
Q 25.875 19.53125 28.875 15.40625 
Q 31.890625 11.28125 37.5 11.28125 
Q 43.109375 11.28125 46.0625 15.375 
Q 49.03125 19.484375 49.03125 27.296875 
Q 49.03125 35.109375 46.0625 39.203125 
Q 43.109375 43.3125 37.5 43.3125 
z
" id="DejaVuSans-Bold-70"/>
      <path d="M 46.578125 39.3125 
Q 53.953125 37.40625 57.78125 32.6875 
Q 61.625 27.984375 61.625 20.703125 
Q 61.625 9.859375 53.3125 4.21875 
Q 45.015625 -1.421875 29.109375 -1.421875 
Q 23.484375 -1.421875 17.84375 -0.515625 
Q 12.203125 0.390625 6.6875 2.203125 
L 6.6875 16.703125 
Q 11.96875 14.0625 17.15625 12.71875 
Q 22.359375 11.375 27.390625 11.375 
Q 34.859375 11.375 38.84375 13.953125 
Q 42.828125 16.546875 42.828125 21.390625 
Q 42.828125 26.375 38.75 28.9375 
Q 34.671875 31.5 26.703125 31.5 
L 19.1875 31.5 
L 19.1875 43.609375 
L 27.09375 43.609375 
Q 34.1875 43.609375 37.640625 45.828125 
Q 41.109375 48.046875 41.109375 52.59375 
Q 41.109375 56.78125 37.734375 59.078125 
Q 34.375 61.375 28.21875 61.375 
Q 23.6875 61.375 19.046875 60.34375 
Q 14.40625 59.328125 9.8125 57.328125 
L 9.8125 71.09375 
Q 15.375 72.65625 20.84375 73.4375 
Q 26.3125 74.21875 31.59375 74.21875 
Q 45.796875 74.21875 52.84375 69.546875 
Q 59.90625 64.890625 59.90625 55.515625 
Q 59.90625 49.125 56.53125 45.046875 
Q 53.171875 40.96875 46.578125 39.3125 
z
" id="DejaVuSans-Bold-33"/>
     </defs>
     <g transform="translate(287.147755 315.638347)scale(0.12 -0.12)">
      <use xlink:href="#DejaVuSans-Bold-61"/>
      <use x="67.480469" xlink:href="#DejaVuSans-Bold-70"/>
      <use x="139.0625" xlink:href="#DejaVuSans-Bold-70"/>
      <use x="210.644531" xlink:href="#DejaVuSans-Bold-33"/>
     </g>
    </g>
   </g>
   <g id="text_3">
    <g clip-path="url(#p35b05f6efe)">
     <!-- app4 -->
     <defs>
      <path d="M 36.8125 57.421875 
L 16.21875 26.90625 
L 36.8125 26.90625 
z
M 33.6875 72.90625 
L 54.59375 72.90625 
L 54.59375 26.90625 
L 64.984375 26.90625 
L 64.984375 13.28125 
L 54.59375 13.28125 
L 54.59375 0 
L 36.8125 0 
L 36.8125 13.28125 
L 4.5 13.28125 
L 4.5 29.390625 
z
" id="DejaVuSans-Bold-34"/>
     </defs>
     <g transform="translate(358.240096 553.641368)scale(0.12 -0.12)">
      <use xlink:href="#DejaVuSans-Bold-61"/>
      <use x="67.480469" xlink:href="#DejaVuSans-Bold-70"/>
      <use x="139.0625" xlink:href="#DejaVuSans-Bold-70"/>
      <use x="210.644531" xlink:href="#DejaVuSans-Bold-34"/>
     </g>
    </g>
   </g>
   <g id="text_4">
    <g clip-path="url(#p35b05f6efe)">
     <!-- app2 -->
     <g transform="translate(429.324369 315.638347)scale(0.12 -0.12)">
      <use xlink:href="#DejaVuSans-Bold-61"/>
      <use x="67.480469" xlink:href="#DejaVuSans-Bold-70"/>
      <use x="139.0625" xlink:href="#DejaVuSans-Bold-70"/>
      <use x="210.644531" xlink:href="#DejaVuSans-Bold-32"/>
     </g>
    </g>
   </g>
   <g id="text_5">
    <g clip-path="url(#p35b05f6efe)">
     <!-- nodejs -->
     <defs>
      <path d="M 34.421875 43.5 
Q 28.609375 43.5 25.5625 39.328125 
Q 22.515625 35.15625 22.515625 27.296875 
Q 22.515625 19.4375 25.5625 15.25 
Q 28.609375 11.078125 34.421875 11.078125 
Q 40.140625 11.078125 43.15625 15.25 
Q 46.1875 19.4375 46.1875 27.296875 
Q 46.1875 35.15625 43.15625 39.328125 
Q 40.140625 43.5 34.421875 43.5 
z
M 34.421875 56 
Q 48.53125 56 56.46875 48.375 
Q 64.40625 40.765625 64.40625 27.296875 
Q 64.40625 13.8125 56.46875 6.1875 
Q 48.53125 -1.421875 34.421875 -1.421875 
Q 20.265625 -1.421875 12.28125 6.1875 
Q 4.296875 13.8125 4.296875 27.296875 
Q 4.296875 40.765625 12.28125 48.375 
Q 20.265625 56 34.421875 56 
z
" id="DejaVuSans-Bold-6f"/>
      <path d="M 62.984375 27.484375 
L 62.984375 22.515625 
L 22.125 22.515625 
Q 22.75 16.359375 26.5625 13.28125 
Q 30.375 10.203125 37.203125 10.203125 
Q 42.71875 10.203125 48.5 11.84375 
Q 54.296875 13.484375 60.40625 16.796875 
L 60.40625 3.328125 
Q 54.203125 0.984375 48 -0.21875 
Q 41.796875 -1.421875 35.59375 -1.421875 
Q 20.75 -1.421875 12.515625 6.125 
Q 4.296875 13.671875 4.296875 27.296875 
Q 4.296875 40.671875 12.375 48.328125 
Q 20.453125 56 34.625 56 
Q 47.515625 56 55.25 48.234375 
Q 62.984375 40.484375 62.984375 27.484375 
z
M 45.015625 33.296875 
Q 45.015625 38.28125 42.109375 41.328125 
Q 39.203125 44.390625 34.515625 44.390625 
Q 29.4375 44.390625 26.265625 41.53125 
Q 23.09375 38.671875 22.3125 33.296875 
z
" id="DejaVuSans-Bold-65"/>
      <path d="M 8.40625 54.6875 
L 25.875 54.6875 
L 25.875 0.984375 
Q 25.875 -10.015625 20.59375 -15.796875 
Q 15.328125 -21.578125 5.328125 -21.578125 
L -3.328125 -21.578125 
L -3.328125 -10.109375 
L -0.296875 -10.109375 
Q 4.6875 -10.109375 6.546875 -7.859375 
Q 8.40625 -5.609375 8.40625 0.984375 
z
M 8.40625 75.984375 
L 25.875 75.984375 
L 25.875 61.71875 
L 8.40625 61.71875 
z
" id="DejaVuSans-Bold-6a"/>
      <path d="M 51.125 52.984375 
L 51.125 39.703125 
Q 45.515625 42.046875 40.28125 43.21875 
Q 35.0625 44.390625 30.421875 44.390625 
Q 25.4375 44.390625 23.015625 43.140625 
Q 20.609375 41.890625 20.609375 39.3125 
Q 20.609375 37.203125 22.4375 36.078125 
Q 24.265625 34.96875 29 34.421875 
L 32.078125 33.984375 
Q 45.515625 32.28125 50.140625 28.375 
Q 54.78125 24.46875 54.78125 16.109375 
Q 54.78125 7.375 48.328125 2.96875 
Q 41.890625 -1.421875 29.109375 -1.421875 
Q 23.6875 -1.421875 17.890625 -0.5625 
Q 12.109375 0.296875 6 2 
L 6 15.28125 
Q 11.234375 12.75 16.71875 11.46875 
Q 22.21875 10.203125 27.875 10.203125 
Q 33.015625 10.203125 35.59375 11.609375 
Q 38.1875 13.03125 38.1875 15.828125 
Q 38.1875 18.171875 36.40625 19.3125 
Q 34.625 20.453125 29.296875 21.09375 
L 26.21875 21.484375 
Q 14.546875 22.953125 9.859375 26.90625 
Q 5.171875 30.859375 5.171875 38.921875 
Q 5.171875 47.609375 11.125 51.796875 
Q 17.09375 56 29.390625 56 
Q 34.234375 56 39.546875 55.265625 
Q 44.875 54.546875 51.125 52.984375 
z
" id="DejaVuSans-Bold-73"/>
     </defs>
     <g transform="translate(352.667596 77.561435)scale(0.12 -0.12)">
      <use xlink:href="#DejaVuSans-Bold-6e"/>
      <use x="71.191406" xlink:href="#DejaVuSans-Bold-6f"/>
      <use x="139.892578" xlink:href="#DejaVuSans-Bold-64"/>
      <use x="211.474609" xlink:href="#DejaVuSans-Bold-65"/>
      <use x="279.296875" xlink:href="#DejaVuSans-Bold-6a"/>
      <use x="313.574219" xlink:href="#DejaVuSans-Bold-73"/>
     </g>
    </g>
   </g>
   <g id="text_6">
    <g clip-path="url(#p35b05f6efe)">
     <!-- service discovery -->
     <defs>
      <path d="M 49.03125 39.796875 
Q 46.734375 40.875 44.453125 41.375 
Q 42.1875 41.890625 39.890625 41.890625 
Q 33.15625 41.890625 29.515625 37.5625 
Q 25.875 33.25 25.875 25.203125 
L 25.875 0 
L 8.40625 0 
L 8.40625 54.6875 
L 25.875 54.6875 
L 25.875 45.703125 
Q 29.25 51.078125 33.609375 53.53125 
Q 37.984375 56 44.09375 56 
Q 44.96875 56 45.984375 55.921875 
Q 47.015625 55.859375 48.96875 55.609375 
z
" id="DejaVuSans-Bold-72"/>
      <path d="M 1.515625 54.6875 
L 19 54.6875 
L 32.625 16.890625 
L 46.1875 54.6875 
L 63.71875 54.6875 
L 42.1875 0 
L 23 0 
z
" id="DejaVuSans-Bold-76"/>
      <path d="M 8.40625 54.6875 
L 25.875 54.6875 
L 25.875 0 
L 8.40625 0 
z
M 8.40625 75.984375 
L 25.875 75.984375 
L 25.875 61.71875 
L 8.40625 61.71875 
z
" id="DejaVuSans-Bold-69"/>
      <path id="DejaVuSans-Bold-20"/>
      <path d="M 1.21875 54.6875 
L 18.703125 54.6875 
L 33.40625 17.578125 
L 45.90625 54.6875 
L 63.375 54.6875 
L 40.375 -5.171875 
Q 36.921875 -14.3125 32.296875 -17.9375 
Q 27.6875 -21.578125 20.125 -21.578125 
L 10.015625 -21.578125 
L 10.015625 -10.109375 
L 15.484375 -10.109375 
Q 19.921875 -10.109375 21.9375 -8.6875 
Q 23.96875 -7.28125 25.09375 -3.609375 
L 25.59375 -2.09375 
z
" id="DejaVuSans-Bold-79"/>
     </defs>
     <g transform="translate(129.247664 315.591472)scale(0.12 -0.12)">
      <use xlink:href="#DejaVuSans-Bold-73"/>
      <use x="59.521484" xlink:href="#DejaVuSans-Bold-65"/>
      <use x="127.34375" xlink:href="#DejaVuSans-Bold-72"/>
      <use x="176.660156" xlink:href="#DejaVuSans-Bold-76"/>
      <use x="241.845703" xlink:href="#DejaVuSans-Bold-69"/>
      <use x="276.123047" xlink:href="#DejaVuSans-Bold-63"/>
      <use x="335.400391" xlink:href="#DejaVuSans-Bold-65"/>
      <use x="403.222656" xlink:href="#DejaVuSans-Bold-20"/>
      <use x="438.037109" xlink:href="#DejaVuSans-Bold-64"/>
      <use x="509.619141" xlink:href="#DejaVuSans-Bold-69"/>
      <use x="543.896484" xlink:href="#DejaVuSans-Bold-73"/>
      <use x="603.417969" xlink:href="#DejaVuSans-Bold-63"/>
      <use x="662.695312" xlink:href="#DejaVuSans-Bold-6f"/>
      <use x="731.396484" xlink:href="#DejaVuSans-Bold-76"/>
      <use x="796.582031" xlink:href="#DejaVuSans-Bold-65"/>
      <use x="864.404297" xlink:href="#DejaVuSans-Bold-72"/>
      <use x="913.720703" xlink:href="#DejaVuSans-Bold-79"/>
     </g>
    </g>
   </g>
   <g id="text_7">
    <g clip-path="url(#p35b05f6efe)">
     <!-- root -->
     <defs>
      <path d="M 27.484375 70.21875 
L 27.484375 54.6875 
L 45.515625 54.6875 
L 45.515625 42.1875 
L 27.484375 42.1875 
L 27.484375 19 
Q 27.484375 15.1875 29 13.84375 
Q 30.515625 12.5 35.015625 12.5 
L 44 12.5 
L 44 0 
L 29 0 
Q 18.65625 0 14.328125 4.3125 
Q 10.015625 8.640625 10.015625 19 
L 10.015625 42.1875 
L 1.3125 42.1875 
L 1.3125 54.6875 
L 10.015625 54.6875 
L 10.015625 70.21875 
z
" id="DejaVuSans-Bold-74"/>
     </defs>
     <g transform="translate(511.945591 315.638347)scale(0.12 -0.12)">
      <use xlink:href="#DejaVuSans-Bold-72"/>
      <use x="49.316406" xlink:href="#DejaVuSans-Bold-6f"/>
      <use x="118.017578" xlink:href="#DejaVuSans-Bold-6f"/>
      <use x="186.71875" xlink:href="#DejaVuSans-Bold-74"/>
     </g>
    </g>
   </g>
  </g>
 </g>
 <defs>
  <clipPath id="p35b05f6efe">
   <rect height="576" width="576" x="0" y="0"/>
  </clipPath>
 </defs>
</svg>
