<svg xmlns="http://www.w3.org/2000/svg" viewBox="0 0 301.34 302.33"><defs><style>.a{fill:#ccc;}.b{fill:#c4692c;}.c{fill:#a0501a;}</style></defs><title>Asset 177</title><polygon class="a" points="150.67 125.5 0 213.91 150.67 302.32 301.34 213.91 150.67 125.5"/><path class="b" d="M82.43,183s-.12,18.11-.15,31c0,.48-.06.95-.06,1.43s0,.88.06,1.31c0,1,0,1.9,0,2.76h.31c3.53,19.9,32.65,35.42,68,35.42s64.51-15.52,68-35.42h.13s0-.36,0-1a22.27,22.27,0,0,0,.22-3.06,22.54,22.54,0,0,0-.16-2.6c.08-7.79.17-20.76.06-29.78"/><ellipse class="c" cx="150.62" cy="189" rx="68.4" ry="39.49"/><path class="b" d="M82.43,145.57s-.12,18.11-.15,31c0,.48-.06,1-.06,1.44s0,.87.06,1.31c0,1,0,1.89,0,2.76h.31c3.53,19.9,32.65,35.42,68,35.42s64.51-15.52,68-35.42h.13s0-.36,0-1a21.23,21.23,0,0,0,.06-5.65c.08-7.8.17-20.77.06-29.79"/><ellipse class="c" cx="150.62" cy="151.62" rx="68.4" ry="39.49"/><path class="b" d="M82.43,108.19s-.12,18.11-.15,31c0,.47-.06.95-.06,1.43s0,.88.06,1.31c0,1,0,1.9,0,2.76h.31c3.53,19.9,32.65,35.42,68,35.42s64.51-15.52,68-35.42h.13s0-.36,0-1a22.12,22.12,0,0,0,.22-3,22.54,22.54,0,0,0-.16-2.6c.08-7.79.17-20.77.06-29.79"/><ellipse class="c" cx="150.62" cy="114.24" rx="68.4" ry="39.49"/><path class="b" d="M82.43,70.82s-.12,18.11-.15,31c0,.48-.06,1-.06,1.43s0,.88.06,1.32c0,1,0,1.89,0,2.76h.31c3.53,19.89,32.65,35.42,68,35.42s64.51-15.53,68-35.42h.13s0-.37,0-1a22.27,22.27,0,0,0,.22-3.06,22.54,22.54,0,0,0-.16-2.6c.08-7.79.17-20.76.06-29.78"/><ellipse class="c" cx="150.62" cy="76.87" rx="68.4" ry="39.49"/><path class="b" d="M82.43,33.44s-.12,18.11-.15,31c0,.48-.06,1-.06,1.44s0,.87.06,1.31c0,1,0,1.9,0,2.76h.31c3.53,19.9,32.65,35.42,68,35.42s64.51-15.52,68-35.42h.13s0-.36,0-1a22.12,22.12,0,0,0,.22-3,22.4,22.4,0,0,0-.16-2.6c.08-7.79.17-20.77.06-29.79"/><ellipse class="c" cx="150.62" cy="39.49" rx="68.4" ry="39.49"/><path class="b" d="M111,19.86s-.07,10.73-.09,18.34c0,.28,0,.56,0,.85s0,.52,0,.78v1.63h.18c2.09,11.79,19.34,21,40.31,21s38.21-9.19,40.31-21h.07s0-.21,0-.6a13.65,13.65,0,0,0,.13-1.81,13.13,13.13,0,0,0-.1-1.54c.05-4.62.1-12.3,0-17.65"/><ellipse class="c" cx="151.43" cy="23.45" rx="40.52" ry="23.39"/></svg>