<svg xmlns="http://www.w3.org/2000/svg" viewBox="0 0 180.37 379.73"><defs><style>.a{fill:#c4692c;}.b{fill:#a0501a;}</style></defs><title>Asset 149</title><path class="a" d="M.28,285s-.16,23.88-.2,40.81C0,326.4,0,327,0,327.66s0,1.15.08,1.73c0,1.28,0,2.5,0,3.64H.48c4.65,26.23,43,46.7,89.71,46.7s85.05-20.47,89.7-46.7h.17s0-.48,0-1.34a31.72,31.72,0,0,0,.29-4,32.72,32.72,0,0,0-.21-3.43c.09-10.27.21-27.38.08-39.27"/><ellipse class="b" cx="90.19" cy="292.94" rx="90.19" ry="52.07"/><path class="a" d="M.28,236.77s-.16,23.88-.2,40.81c0,.63-.08,1.26-.08,1.89s0,1.16.08,1.73c0,1.28,0,2.5,0,3.64H.48c4.65,26.24,43,46.7,89.71,46.7s85.05-20.46,89.7-46.7h.17s0-.47,0-1.34a31.72,31.72,0,0,0,.29-4,32.37,32.37,0,0,0-.21-3.42c.09-10.28.21-27.38.08-39.28"/><ellipse class="b" cx="90.19" cy="244.75" rx="90.19" ry="52.07"/><path class="a" d="M.28,189.85s-.16,23.87-.2,40.81c0,.63-.08,1.25-.08,1.89s0,1.15.08,1.73c0,1.27,0,2.5,0,3.64H.48c4.65,26.23,43,46.69,89.71,46.69s85.05-20.46,89.7-46.69h.17s0-.48,0-1.35a31.7,31.7,0,0,0,.29-4,32.39,32.39,0,0,0-.21-3.43c.09-10.28.21-27.38.08-39.27"/><ellipse class="b" cx="90.19" cy="197.82" rx="90.19" ry="52.07"/><path class="a" d="M.28,141.66s-.16,23.88-.2,40.81c0,.63-.08,1.26-.08,1.89s0,1.15.08,1.73c0,1.28,0,2.5,0,3.64H.48c4.65,26.23,43,46.7,89.71,46.7s85.05-20.47,89.7-46.7h.17s0-.48,0-1.34a31.72,31.72,0,0,0,.29-4,32.72,32.72,0,0,0-.21-3.43c.09-10.27.21-27.38.08-39.27"/><ellipse class="b" cx="90.19" cy="149.64" rx="90.19" ry="52.07"/><path class="a" d="M.28,92.28s-.16,23.87-.2,40.81C0,133.71,0,134.34,0,135s0,1.15.08,1.73c0,1.27,0,2.5,0,3.64H.48C5.13,166.58,43.52,187,90.19,187s85.05-20.46,89.7-46.69h.17s0-.48,0-1.35a31.7,31.7,0,0,0,.29-4,32.39,32.39,0,0,0-.21-3.43c.09-10.28.21-27.38.08-39.27"/><ellipse class="b" cx="90.19" cy="100.25" rx="90.19" ry="52.07"/><path class="a" d="M.28,44.09S.12,68,.08,84.9C0,85.53,0,86.16,0,86.79s0,1.15.08,1.73c0,1.28,0,2.5,0,3.64H.48c4.65,26.23,43,46.7,89.71,46.7s85.05-20.47,89.7-46.7h.17s0-.48,0-1.34a31.72,31.72,0,0,0,.29-4,32.72,32.72,0,0,0-.21-3.43c.09-10.27.21-27.38.08-39.27"/><ellipse class="b" cx="90.19" cy="52.07" rx="90.19" ry="52.07"/><path class="a" d="M38.92,29.57s-.09,14.14-.11,24.17c0,.38-.05.75-.05,1.12s0,.69.05,1c0,.76,0,1.48,0,2.15H39c2.76,15.54,25.5,27.67,53.15,27.67S142.57,73.58,145.33,58h.1s0-.28,0-.79a18.93,18.93,0,0,0,.17-2.39,17.29,17.29,0,0,0-.13-2c.06-6.08.13-16.22.05-23.26"/><ellipse class="b" cx="92.19" cy="34.29" rx="53.42" ry="30.84"/></svg>