<svg xmlns="http://www.w3.org/2000/svg" viewBox="0 0 301.34 394.26"><defs><style>.a{fill:#ccc;}.b{fill:#c4692c;}.c{fill:#a0501a;}</style></defs><title>Asset 180</title><polygon class="a" points="150.67 217.44 0 305.85 150.67 394.26 301.34 305.85 150.67 217.44"/><path class="b" d="M82.77,274.88s-.12,18.11-.15,31c0,.47-.06,1-.06,1.43s0,.87,0,1.31v2.76h.31c3.53,19.9,32.64,35.42,68,35.42s64.51-15.52,68-35.42h.13s0-.36,0-1a23.8,23.8,0,0,0,.22-3.05,22.4,22.4,0,0,0-.16-2.6c.07-7.79.16-20.77.06-29.79"/><ellipse class="c" cx="150.96" cy="280.93" rx="68.4" ry="39.49"/><path class="b" d="M82.77,240.39s-.12,18.11-.15,30.95c0,.48-.06,1-.06,1.44s0,.87,0,1.31v2.76h.31c3.53,19.9,32.64,35.42,68,35.42s64.51-15.52,68-35.42h.13s0-.36,0-1a23.8,23.8,0,0,0,.22-3.05,22.4,22.4,0,0,0-.16-2.6c.07-7.8.16-20.77.06-29.79"/><ellipse class="c" cx="150.96" cy="246.44" rx="68.4" ry="39.49"/><path class="b" d="M82.77,205.9s-.12,18.11-.15,30.95c0,.48-.06,1-.06,1.44s0,.87,0,1.31v2.76h.31c3.53,19.9,32.64,35.42,68,35.42s64.51-15.52,68-35.42h.13s0-.36,0-1a23.93,23.93,0,0,0,.22-3.05,22.4,22.4,0,0,0-.16-2.6c.07-7.8.16-20.77.06-29.79"/><ellipse class="c" cx="150.96" cy="211.95" rx="68.4" ry="39.49"/><path class="b" d="M82.77,171.41s-.12,18.11-.15,31c0,.48-.06.95-.06,1.43s0,.88,0,1.32v2.76h.31c3.53,19.89,32.64,35.42,68,35.42s64.51-15.53,68-35.42h.13s0-.37,0-1a24,24,0,0,0,.22-3.06,22.68,22.68,0,0,0-.16-2.6c.07-7.79.16-20.76.06-29.78"/><ellipse class="c" cx="150.96" cy="177.46" rx="68.4" ry="39.49"/><path class="b" d="M82.77,136.92s-.12,18.11-.15,31c0,.48-.06.95-.06,1.43s0,.88,0,1.31v2.76h.31c3.53,19.9,32.64,35.42,68,35.42s64.51-15.52,68-35.42h.13s0-.36,0-1a24,24,0,0,0,.22-3.06,22.54,22.54,0,0,0-.16-2.6c.07-7.79.16-20.76.06-29.78"/><ellipse class="c" cx="150.96" cy="142.97" rx="68.4" ry="39.49"/><path class="b" d="M82.77,102.42s-.12,18.11-.15,31c0,.47-.06,1-.06,1.43s0,.88,0,1.31v2.76h.31c3.53,19.9,32.64,35.42,68,35.42s64.51-15.52,68-35.42h.13s0-.36,0-1a23.67,23.67,0,0,0,.22-3.05,22.54,22.54,0,0,0-.16-2.6c.07-7.79.16-20.76.06-29.79"/><ellipse class="c" cx="150.96" cy="108.48" rx="68.4" ry="39.49"/><path class="b" d="M82.77,67.93s-.12,18.11-.15,31c0,.47-.06,1-.06,1.43s0,.87,0,1.31v2.76h.31c3.53,19.9,32.64,35.42,68,35.42s64.51-15.52,68-35.42h.13s0-.36,0-1a23.8,23.8,0,0,0,.22-3.05,22.54,22.54,0,0,0-.16-2.6c.07-7.79.16-20.77.06-29.79"/><ellipse class="c" cx="150.96" cy="73.98" rx="68.4" ry="39.49"/><path class="b" d="M82.77,33.44s-.12,18.11-.15,31c0,.48-.06,1-.06,1.44s0,.87,0,1.31V69.9h.31c3.53,19.9,32.64,35.42,68,35.42S215.47,89.8,219,69.9h.13s0-.36,0-1a23.8,23.8,0,0,0,.22-3,22.4,22.4,0,0,0-.16-2.6c.07-7.79.16-20.77.06-29.79"/><ellipse class="c" cx="150.96" cy="39.49" rx="68.4" ry="39.49"/><path class="b" d="M111.46,19.81s-.07,10.73-.09,18.34c0,.28,0,.56,0,.85s0,.51,0,.77v1.64h.18c2.09,11.78,19.34,21,40.31,21s38.21-9.2,40.31-21h.07s0-.22,0-.61a13.5,13.5,0,0,0,.13-1.8,13.13,13.13,0,0,0-.1-1.54c.05-4.62.1-12.31,0-17.65"/><ellipse class="c" cx="151.86" cy="23.39" rx="40.52" ry="23.39"/></svg>