<svg xmlns="http://www.w3.org/2000/svg" viewBox="0 0 180.37 236.61"><defs><style>.a{fill:#c4692c;}.b{fill:#a0501a;}</style></defs><title>Asset 146</title><path class="a" d="M.28,141.84s-.16,23.88-.2,40.81c0,.63-.08,1.26-.08,1.89s0,1.16.08,1.73c0,1.28,0,2.5,0,3.64H.48c4.65,26.24,43,46.7,89.71,46.7s85.05-20.46,89.7-46.7h.17s0-.48,0-1.34a31.72,31.72,0,0,0,.29-4,32.37,32.37,0,0,0-.21-3.42c.09-10.28.21-27.38.08-39.28"/><ellipse class="b" cx="90.19" cy="149.82" rx="90.19" ry="52.07"/><path class="a" d="M.28,93.66s-.16,23.87-.2,40.81c0,.63-.08,1.25-.08,1.89s0,1.15.08,1.73c0,1.27,0,2.5,0,3.64H.48c4.65,26.23,43,46.7,89.71,46.7s85.05-20.47,89.7-46.7h.17s0-.48,0-1.35a31.7,31.7,0,0,0,.29-4,32.39,32.39,0,0,0-.21-3.43c.09-10.27.21-27.38.08-39.27"/><ellipse class="b" cx="90.19" cy="101.63" rx="90.19" ry="52.07"/><path class="a" d="M.28,44.09S.12,68,.08,84.9C0,85.53,0,86.16,0,86.79s0,1.15.08,1.73c0,1.28,0,2.5,0,3.64H.48c4.65,26.23,43,46.7,89.71,46.7s85.05-20.47,89.7-46.7h.17s0-.48,0-1.34a31.72,31.72,0,0,0,.29-4,32.72,32.72,0,0,0-.21-3.43c.09-10.27.21-27.38.08-39.27"/><ellipse class="b" cx="90.19" cy="52.07" rx="90.19" ry="52.07"/><path class="a" d="M37.92,29.08s-.09,14.14-.11,24.17c0,.38-.05.75-.05,1.12s0,.69.05,1c0,.76,0,1.48,0,2.15H38C40.8,73.1,63.54,85.22,91.19,85.22s50.38-12.12,53.14-27.67h.1s0-.28,0-.79a18.93,18.93,0,0,0,.17-2.39,17.29,17.29,0,0,0-.13-2c.06-6.08.13-16.21.05-23.26"/><ellipse class="b" cx="91.19" cy="33.81" rx="53.42" ry="30.84"/></svg>