<svg xmlns="http://www.w3.org/2000/svg" viewBox="0 0 301.34 261.95"><defs><style>.a{fill:#ccc;}.b{fill:#c4692c;}.c{fill:#a0501a;}</style></defs><title>Asset 176</title><polygon class="a" points="150.67 85.13 0 173.54 150.67 261.95 301.34 173.54 150.67 85.13"/><path class="b" d="M82.48,142.57s-.12,18.11-.15,31c0,.47-.06.95-.06,1.43s0,.88.06,1.31c0,1,0,1.9,0,2.76h.31c3.53,19.9,32.64,35.42,68,35.42s64.51-15.52,68-35.42h.13s0-.36,0-1a23.8,23.8,0,0,0,.22-3,22.54,22.54,0,0,0-.16-2.6c.07-7.79.16-20.76.06-29.79"/><ellipse class="c" cx="150.67" cy="148.62" rx="68.4" ry="39.49"/><path class="b" d="M82.48,106.2s-.12,18.11-.15,31c0,.48-.06.95-.06,1.43s0,.88.06,1.31c0,1,0,1.9,0,2.76h.31c3.53,19.9,32.64,35.42,68,35.42s64.51-15.52,68-35.42h.13s0-.36,0-1a24,24,0,0,0,.22-3.06,22.54,22.54,0,0,0-.16-2.6c.07-7.79.16-20.76.06-29.78"/><ellipse class="c" cx="150.67" cy="112.25" rx="68.4" ry="39.49"/><path class="b" d="M82.48,69.82s-.12,18.11-.15,31c0,.48-.06,1-.06,1.44s0,.87.06,1.31c0,1,0,1.89,0,2.76h.31c3.53,19.9,32.64,35.42,68,35.42s64.51-15.52,68-35.42h.13s0-.36,0-1a23.93,23.93,0,0,0,.22-3.05,22.4,22.4,0,0,0-.16-2.6c.07-7.8.16-20.77.06-29.79"/><ellipse class="c" cx="150.67" cy="75.87" rx="68.4" ry="39.49"/><path class="b" d="M82.48,33.44s-.12,18.11-.15,31c0,.48-.06,1-.06,1.44s0,.87.06,1.31c0,1,0,1.9,0,2.76h.31c3.53,19.9,32.64,35.42,68,35.42s64.51-15.52,68-35.42h.13s0-.36,0-1a23.8,23.8,0,0,0,.22-3,22.4,22.4,0,0,0-.16-2.6c.07-7.79.16-20.77.06-29.79"/><ellipse class="c" cx="150.67" cy="39.49" rx="68.4" ry="39.49"/><path class="b" d="M111,22.06s-.07,10.72-.09,18.33c0,.28,0,.57,0,.85s0,.52,0,.78v1.63h.18c2.09,11.79,19.34,21,40.31,21s38.21-9.2,40.31-21h.07s0-.21,0-.6a13.65,13.65,0,0,0,.13-1.81,13.13,13.13,0,0,0-.1-1.54c.05-4.62.1-12.3,0-17.64"/><ellipse class="c" cx="151.43" cy="25.64" rx="40.52" ry="23.39"/></svg>