<svg xmlns="http://www.w3.org/2000/svg" viewBox="0 0 180.37 187.04"><defs><style>.a{fill:#c4692c;}.b{fill:#a0501a;}</style></defs><title>Asset 145</title><path class="a" d="M.28,92.28s-.16,23.87-.2,40.81C0,133.71,0,134.34,0,135s0,1.15.08,1.73c0,1.27,0,2.5,0,3.64H.48C5.13,166.58,43.52,187,90.19,187s85.05-20.46,89.7-46.69h.17s0-.48,0-1.35a31.7,31.7,0,0,0,.29-4,32.39,32.39,0,0,0-.21-3.43c.09-10.28.21-27.38.08-39.27"/><ellipse class="b" cx="90.19" cy="100.25" rx="90.19" ry="52.07"/><path class="a" d="M.28,44.09S.12,68,.08,84.9C0,85.53,0,86.16,0,86.79s0,1.15.08,1.73c0,1.28,0,2.5,0,3.64H.48c4.65,26.23,43,46.7,89.71,46.7s85.05-20.47,89.7-46.7h.17s0-.48,0-1.34a31.72,31.72,0,0,0,.29-4,32.72,32.72,0,0,0-.21-3.43c.09-10.27.21-27.38.08-39.27"/><ellipse class="b" cx="90.19" cy="52.07" rx="90.19" ry="52.07"/></svg>