<svg xmlns="http://www.w3.org/2000/svg" viewBox="0 0 301.34 193.85"><defs><style>.a{fill:#ccc;}.b{fill:#c4692c;}.c{fill:#a0501a;}</style></defs><title>Asset 174</title><polygon class="a" points="150.67 17.03 0 105.44 150.67 193.85 301.34 105.44 150.67 17.03"/><path class="b" d="M78.63,73.94s-.13,19.13-.16,32.7c0,.51-.07,1-.07,1.52s0,.92.07,1.38c0,1,0,2,0,2.92h.33c3.73,21,34.48,37.42,71.88,37.42s68.16-16.4,71.88-37.42h.14s0-.38,0-1.08a24.66,24.66,0,0,0,.24-3.22,22.81,22.81,0,0,0-.18-2.75c.08-8.23.18-21.94.07-31.47"/><ellipse class="c" cx="150.67" cy="80.33" rx="72.27" ry="41.72"/><path class="b" d="M78.63,35.33S78.5,54.46,78.47,68c0,.5-.07,1-.07,1.52s0,.92.07,1.38c0,1,0,2,0,2.92h.33c3.73,21,34.48,37.42,71.88,37.42s68.16-16.4,71.88-37.42h.14s0-.38,0-1.08a24.66,24.66,0,0,0,.24-3.22,22.81,22.81,0,0,0-.18-2.75c.08-8.23.18-21.94.07-31.47"/><ellipse class="c" cx="150.67" cy="41.72" rx="72.27" ry="41.72"/></svg>