<svg xmlns="http://www.w3.org/2000/svg" viewBox="0 0 368.11 283.25">
    <defs>
        <style>.a{fill:none;stroke:#000;stroke-miterlimit:10;}.b{fill:#f58536;}.c{fill:#a0501a;}.d{fill:#c4692c;}
        </style>
    </defs>
    <title>Asset 109</title>
    <polygon class="a" points="184.05 67.83 0.99 175.25 184.05 282.67 367.12 175.25 184.05 67.83"/>
    <path class="b"
          d="M101.54,199.38s-.05,8.29-.07,14.17c0,.21,0,.43,0,.65s0,.4,0,.6v1.26h.14c1.61,9.11,14.94,16.21,31.13,16.21s29.52-7.1,31.14-16.21h.05s0-.16,0-.46a10.85,10.85,0,0,0,.1-1.4A11.87,11.87,0,0,0,164,213c0-3.56.07-9.5,0-13.63"/>
    <ellipse class="c" cx="132.74" cy="202.15" rx="31.3" ry="18.07"/>
    <polygon class="d" points="180.61 129.08 150.38 111.34 150.38 84.1 180.61 101.84 180.61 129.08"/>
    <polygon class="b" points="180.61 129.08 210.84 111.34 210.84 84.1 180.61 101.84 180.61 129.08"/>
    <polygon class="c" points="180.61 66.36 150.38 84.1 180.61 101.84 210.84 84.1 180.61 66.36"/>
    <polygon class="d" points="180.61 164.55 150.38 146.81 150.38 119.57 180.61 137.31 180.61 164.55"/>
    <polygon class="b" points="180.61 164.55 210.84 146.81 210.84 119.57 180.61 137.31 180.61 164.55"/>
    <polygon class="c" points="180.61 101.83 150.38 119.57 180.61 137.31 210.84 119.57 180.61 101.83"/>
    <polygon class="d" points="180.61 199.98 150.38 182.24 150.38 155.01 180.61 172.75 180.61 199.98"/>
    <polygon class="b" points="180.61 199.98 210.84 182.24 210.84 155.01 180.61 172.75 180.61 199.98"/>
    <polygon class="c" points="180.61 137.27 150.38 155.01 180.61 172.75 210.84 155.01 180.61 137.27"/>
    <polygon class="d" points="241.07 200.03 210.84 182.29 210.84 155.05 241.07 172.79 241.07 200.03"/>
    <polygon class="b" points="241.07 200.03 271.3 182.29 271.3 155.05 241.07 172.79 241.07 200.03"/>
    <polygon class="c" points="241.07 137.31 210.84 155.05 241.07 172.79 271.3 155.05 241.07 137.31"/>
    <polygon class="d" points="301.53 199.98 271.3 182.24 271.3 155.01 301.53 172.75 301.53 199.98"/>
    <polygon class="b" points="301.53 199.98 331.76 182.24 331.76 155.01 301.53 172.75 301.53 199.98"/>
    <polygon class="c" points="301.53 137.27 271.3 155.01 301.53 172.75 331.76 155.01 301.53 137.27"/>
    <path class="b"
          d="M101.89,183s0,8.29-.07,14.17c0,.22,0,.43,0,.65s0,.4,0,.6v1.27H102c1.61,9.1,14.94,16.2,31.13,16.2s29.52-7.1,31.14-16.2h.05s0-.17,0-.47a10.85,10.85,0,0,0,.1-1.4,11.87,11.87,0,0,0-.07-1.19c0-3.56.07-9.5,0-13.63"/>
    <ellipse class="c" cx="133.09" cy="185.81" rx="31.3" ry="18.07"/>
    <polygon class="d" points="180.96 96.84 150.72 79.1 150.72 51.87 180.96 69.6 180.96 96.84"/>
    <polygon class="b" points="180.96 96.84 211.19 79.1 211.19 51.87 180.96 69.6 180.96 96.84"/>
    <polygon class="c" points="180.96 34.13 150.72 51.87 180.96 69.6 211.19 51.87 180.96 34.13"/>
    <polygon class="d" points="180.96 132.31 150.72 114.57 150.72 87.33 180.96 105.07 180.96 132.31"/>
    <polygon class="b" points="180.96 132.31 211.19 114.57 211.19 87.33 180.96 105.07 180.96 132.31"/>
    <polygon class="c" points="180.96 69.59 150.72 87.33 180.96 105.07 211.19 87.33 180.96 69.59"/>
    <polygon class="d" points="180.96 167.74 150.72 150 150.72 122.77 180.96 140.51 180.96 167.74"/>
    <polygon class="b" points="180.96 167.74 211.19 150 211.19 122.77 180.96 140.51 180.96 167.74"/>
    <polygon class="c" points="180.96 105.03 150.72 122.77 180.96 140.51 211.19 122.77 180.96 105.03"/>
    <polygon class="d" points="241.42 167.79 211.19 150.05 211.19 122.81 241.42 140.55 241.42 167.79"/>
    <polygon class="b" points="241.42 167.79 271.65 150.05 271.65 122.81 241.42 140.55 241.42 167.79"/>
    <polygon class="c" points="241.42 105.07 211.19 122.81 241.42 140.55 271.65 122.81 241.42 105.07"/>
    <polygon class="d" points="301.88 167.74 271.65 150 271.65 122.77 301.88 140.51 301.88 167.74"/>
    <polygon class="b" points="301.88 167.74 332.11 150 332.11 122.77 301.88 140.51 301.88 167.74"/>
    <polygon class="c" points="301.88 105.03 271.65 122.77 301.88 140.51 332.11 122.77 301.88 105.03"/>
    <polygon class="d" points="180.96 62.71 150.72 44.97 150.72 17.74 180.96 35.48 180.96 62.71"/>
    <polygon class="b" points="180.96 62.71 211.19 44.97 211.19 17.74 180.96 35.48 180.96 62.71"/>
    <polygon class="c" points="180.96 0 150.72 17.74 180.96 35.48 211.19 17.74 180.96 0"/>
    <polygon class="d" points="180.96 98.18 150.72 80.44 150.72 53.21 180.96 70.95 180.96 98.18"/>
    <polygon class="b" points="180.96 98.18 211.19 80.44 211.19 53.21 180.96 70.95 180.96 98.18"/>
    <polygon class="c" points="180.96 35.47 150.72 53.21 180.96 70.95 211.19 53.21 180.96 35.47"/>
    <polygon class="d" points="180.96 133.62 150.72 115.88 150.72 88.64 180.96 106.38 180.96 133.62"/>
    <polygon class="b" points="180.96 133.62 211.19 115.88 211.19 88.64 180.96 106.38 180.96 133.62"/>
    <polygon class="c" points="180.96 70.9 150.72 88.64 180.96 106.38 211.19 88.64 180.96 70.9"/>
    <polygon class="d" points="241.42 133.66 211.19 115.92 211.19 88.69 241.42 106.43 241.42 133.66"/>
    <polygon class="b" points="241.42 133.66 271.65 115.92 271.65 88.69 241.42 106.43 241.42 133.66"/>
    <polygon class="c" points="241.42 70.95 211.19 88.69 241.42 106.43 271.65 88.69 241.42 70.95"/>
    <polygon class="d" points="301.88 133.62 271.65 115.88 271.65 88.64 301.88 106.38 301.88 133.62"/>
    <polygon class="b" points="301.88 133.62 332.11 115.88 332.11 88.64 301.88 106.38 301.88 133.62"/>
    <polygon class="c" points="301.88 70.9 271.65 88.64 301.88 106.38 332.11 88.64 301.88 70.9"/>
    <path class="b"
          d="M101.54,166.46s-.05,8.28-.07,14.16c0,.22,0,.44,0,.66s0,.4,0,.6v1.26h.14c1.61,9.1,14.94,16.21,31.13,16.21s29.52-7.11,31.14-16.21h.05s0-.17,0-.47a10.7,10.7,0,0,0,.1-1.39,11.7,11.7,0,0,0-.07-1.19c0-3.57.07-9.51,0-13.63"/>
    <ellipse class="c" cx="132.74" cy="169.23" rx="31.3" ry="18.07"/>
</svg>