<svg xmlns="http://www.w3.org/2000/svg" viewBox="0 0 265.58 184.52"><defs><style>.a{fill:#f2f2f2;}.b{fill:#757575;}.c{fill:#c4692c;}.d{fill:#f58536;}.e{fill:#a0501a;}.f{fill:#fff;}.g{fill:#efefef;}</style></defs><title>Asset 67</title><polygon class="a" points="132.79 28.68 0 106.6 132.79 184.52 265.58 106.6 132.79 28.68"/><polygon class="b" points="242.93 93.16 231.89 99.72 160 97.55 205.05 71.07 194.24 64.73 148.99 90.94 145.19 49.08 136.8 44.09 145.19 49.08 156.23 42.52 145.19 35.96 134.14 42.52 134.14 42.52 137.91 97.48 60.58 142.14 71.73 148.65 148.96 104.11 242.93 106.28 253.97 99.72 242.93 93.16"/><polygon class="c" points="143.83 49.08 134.88 43.76 134.88 35.6 143.83 40.92 143.83 49.08"/><polygon class="d" points="143.83 49.08 152.77 43.76 152.77 35.6 143.83 40.92 143.83 49.08"/><polygon class="e" points="143.83 30.29 134.88 35.6 143.83 40.92 152.77 35.6 143.83 30.29"/><path class="f" d="M136.07,41.09l6.33,3.75V41.62l-6.33-3.76Zm4.31-.06,1.52.91V44l-1.52-.9Zm-1.93-1.15,1.5.89v2.1l-1.5-.89Zm-1.91-1.13,1.48.88v2.1l-1.48-.88Z"/><polygon class="c" points="241.4 105.96 232.45 100.65 232.45 92.49 241.4 97.8 241.4 105.96"/><polygon class="d" points="241.4 105.96 250.35 100.65 250.35 92.49 241.4 97.8 241.4 105.96"/><polygon class="e" points="241.4 87.17 232.45 92.49 241.4 97.8 250.35 92.49 241.4 87.17"/><path class="f" d="M233.65,98l6.32,3.76V98.51l-6.32-3.76Zm4.3,0,1.53.9v2.1L238,100ZM236,96.77l1.5.89v2.1l-1.5-.89Zm-1.9-1.13,1.48.88v2.09l-1.48-.87Z"/><polygon class="c" points="193.61 77.18 184.66 71.87 184.66 63.71 193.61 69.02 193.61 77.18"/><polygon class="d" points="193.61 77.18 202.56 71.87 202.56 63.71 193.61 69.02 193.61 77.18"/><polygon class="e" points="193.61 58.39 184.66 63.71 193.61 69.02 202.56 63.71 193.61 58.39"/><path class="f" d="M185.86,69.19,192.18,73V69.73L185.86,66Zm4.3,0,1.53.9v2.1l-1.53-.91ZM188.23,68l1.5.89V71l-1.5-.9Zm-1.9-1.13,1.48.88v2.09L186.33,69Z"/><polygon class="g" points="69.46 139.32 80.61 137.11 76.89 143.73 73.98 141.05 69.46 139.32"/><polygon class="g" points="90.96 125.92 102.11 123.72 98.39 130.34 95.48 127.65 90.96 125.92"/><polygon class="g" points="111.13 115.04 122.27 112.83 118.56 119.45 115.65 116.77 111.13 115.04"/><polygon class="g" points="131.63 103.12 142.77 100.92 139.06 107.54 136.15 104.85 131.63 103.12"/><polygon class="g" points="154.96 89.38 166.11 87.17 162.39 93.8 159.49 91.11 154.96 89.38"/><polygon class="g" points="173.52 78.59 184.66 76.39 180.95 83 178.04 80.32 173.52 78.59"/><polygon class="g" points="140.08 87.89 142.47 81.65 145.47 86.53 142.99 86.64 140.08 87.89"/><polygon class="g" points="170.69 98.59 176.83 101.33 170.2 103.73 171.4 101.22 170.69 98.59"/><polygon class="g" points="193.76 99.22 199.9 101.95 193.27 104.36 194.46 101.84 193.76 99.22"/><polygon class="g" points="214.53 99.76 220.67 102.49 214.04 104.89 215.23 102.38 214.53 99.76"/><polygon class="g" points="138.44 71.46 140.83 65.22 143.83 70.1 141.35 70.21 138.44 71.46"/><polygon class="g" points="137.39 56.48 139.78 50.23 142.77 55.11 140.3 55.22 137.39 56.48"/><polygon class="c" points="91.6 92.97 73.81 82.53 73.81 35.66 91.6 46.09 91.6 92.97"/><path class="f" d="M76.05,57.15l12.58,7.37V58.19L76.05,50.81ZM84.61,57l3,1.77v4.12l-3-1.78Zm-3.84-2.26,3,1.75v4.12l-3-1.75ZM77,52.56l2.93,1.73V58.4L77,56.68Z"/><polygon class="d" points="91.6 92.97 109.38 82.53 109.38 35.66 91.6 46.09 91.6 92.97"/><polygon class="e" points="91.6 25.22 73.81 35.66 91.6 46.09 109.38 35.66 91.6 25.22"/><path class="f" d="M76.19,49.23,88.76,56.6V50.28L76.19,42.9Zm8.55-.11,3,1.78V55l-3-1.77ZM80.9,46.87l3,1.75v4.11L80.9,51Zm-3.78-2.23,2.94,1.73v4.12l-2.94-1.73Z"/><polygon class="c" points="91.6 41.72 81.5 35.79 81.5 9.19 91.6 15.12 91.6 41.72"/><polygon class="d" points="91.6 41.72 101.69 35.79 101.69 9.19 91.6 15.12 91.6 41.72"/><polygon class="e" points="91.6 3.27 81.5 9.19 91.6 15.12 101.69 9.19 91.6 3.27"/><path class="f" d="M82.85,16.9,90,21.08V17.49L82.85,13.3Zm4.86-.07,1.72,1v2.34l-1.72-1Zm-2.18-1.28,1.69,1v2.33l-1.69-1Zm-2.15-1.26,1.67,1v2.34l-1.67-1Z"/><polygon class="c" points="91.79 13.19 85.43 9.46 85.43 3.73 91.79 7.46 91.79 13.19"/><polygon class="d" points="91.79 13.19 98.15 9.46 98.15 3.73 91.79 7.46 91.79 13.19"/><polygon class="e" points="91.79 0 85.43 3.73 91.79 7.46 98.15 3.73 91.79 0"/><path class="f" d="M86.28,7.58l4.49,2.64V8L86.28,5.32Zm3.06,0,1.08.64V9.65L89.34,9ZM88,6.74,89,7.36V8.83L88,8.21Zm-1.35-.8,1,.62V8l-1-.62Z"/><polygon class="c" points="71.43 104.95 54.03 94.74 54.03 48.89 71.43 59.1 71.43 104.95"/><path class="f" d="M56.22,69.91l12.3,7.21V70.93l-12.3-7.21Zm8.38-.11,3,1.74v4l-3-1.73Zm-3.76-2.2,2.92,1.71v4l-2.92-1.71Zm-3.7-2.18L60,67.11v4l-2.87-1.69Z"/><polygon class="d" points="71.43 104.95 88.83 94.74 88.83 48.89 71.43 59.1 71.43 104.95"/><polygon class="e" points="71.43 38.68 54.03 48.89 71.43 59.1 88.83 48.89 71.43 38.68"/><path class="f" d="M56.36,62.17l12.29,7.21V63.19L56.36,56Zm8.37-.11,3,1.74v4l-3-1.73ZM61,59.86l2.92,1.71v4L61,63.88Zm-3.7-2.18,2.87,1.69v4l-2.87-1.69Z"/><polygon class="c" points="50.37 117.53 32.97 107.32 32.97 61.47 50.37 71.68 50.37 117.53"/><path class="f" d="M35.16,82.49l12.3,7.21V83.51L35.16,76.3Zm8.37-.11,3,1.74v4l-3-1.74Zm-3.75-2.2,2.91,1.71v4L39.78,84.2ZM36.08,78,39,79.69v4L36.08,82Z"/><polygon class="d" points="50.37 117.53 67.77 107.32 67.77 61.47 50.37 71.68 50.37 117.53"/><polygon class="e" points="50.37 51.26 32.97 61.47 50.37 71.68 67.77 61.47 50.37 51.26"/><path class="f" d="M35.29,74.75,47.59,82V75.77l-12.3-7.21Zm8.37-.11,3,1.74v4l-3-1.74Zm-3.75-2.2,2.91,1.71v4l-2.91-1.72Zm-3.7-2.18L39.08,72v4l-2.87-1.69Z"/><polygon class="c" points="147.3 120.58 138.35 115.26 138.35 107.1 147.3 112.42 147.3 120.58"/><polygon class="d" points="147.3 120.58 156.25 115.26 156.25 107.1 147.3 112.42 147.3 120.58"/><polygon class="e" points="147.3 101.79 138.35 107.1 147.3 112.42 156.25 107.1 147.3 101.79"/><path class="f" d="M139.55,112.58l6.32,3.76v-3.22l-6.32-3.76Zm4.3,0,1.53.9v2.1l-1.53-.91Zm-1.93-1.15,1.5.89v2.1l-1.5-.89Zm-1.9-1.13,1.48.88v2.09l-1.48-.87Z"/><polygon class="c" points="113.5 105.88 95.71 95.44 95.71 48.57 113.5 59.01 113.5 105.88"/><path class="f" d="M98,70.06l12.58,7.37V71.11L98,63.73Zm8.56-.11,3,1.78v4.11l-3-1.77Zm-3.84-2.25,3,1.75v4.11l-3-1.75Zm-3.78-2.23,2.94,1.73v4.12l-2.94-1.73Z"/><polygon class="d" points="113.5 105.88 131.28 95.44 131.28 48.57 113.5 59.01 113.5 105.88"/><polygon class="e" points="113.5 38.13 95.71 48.57 113.5 59.01 131.28 48.57 113.5 38.13"/><path class="f" d="M98.09,62.15l12.57,7.37V63.19L98.09,55.82Zm8.55-.11,3,1.77v4.12l-3-1.78Zm-3.84-2.26,3,1.75v4.12l-3-1.75ZM99,57.56,102,59.29V63.4L99,61.68Z"/><polygon class="c" points="113.5 54.63 103.4 48.71 103.4 22.11 113.5 28.03 113.5 54.63"/><polygon class="d" points="113.5 54.63 123.59 48.71 123.59 22.11 113.5 28.03 113.5 54.63"/><polygon class="e" points="113.5 16.18 103.4 22.11 113.5 28.03 123.59 22.11 113.5 16.18"/><path class="f" d="M104.75,29.81,111.89,34V30.4l-7.14-4.18Zm4.86-.06,1.72,1v2.33l-1.72-1Zm-2.18-1.28,1.69,1V31.8l-1.69-1Zm-2.15-1.26,1.67,1v2.33l-1.67-1Z"/><polygon class="c" points="113.69 26.11 107.33 22.38 107.33 16.65 113.69 20.38 113.69 26.11"/><polygon class="d" points="113.69 26.11 120.05 22.38 120.05 16.65 113.69 20.38 113.69 26.11"/><polygon class="e" points="113.69 12.91 107.33 16.65 113.69 20.38 120.05 16.65 113.69 12.91"/><path class="f" d="M108.18,20.5l4.49,2.63V20.87l-4.49-2.64Zm3.06,0,1.08.63v1.47l-1.08-.63Zm-1.37-.81,1.06.63v1.47l-1.06-.63Zm-1.36-.79,1,.61V21l-1-.62Z"/><polygon class="c" points="93.33 117.86 75.93 107.66 75.93 61.8 93.33 72.01 93.33 117.86"/><path class="f" d="M78.12,82.82,90.42,90V83.85l-12.3-7.22Zm8.38-.1,3,1.73v4l-3-1.74Zm-3.76-2.21,2.92,1.71v4l-2.92-1.71ZM79,78.33,81.91,80v4L79,82.37Z"/><polygon class="d" points="93.33 117.86 110.73 107.66 110.73 61.8 93.33 72.01 93.33 117.86"/><polygon class="e" points="93.33 51.59 75.93 61.8 93.33 72.01 110.73 61.8 93.33 51.59"/><path class="f" d="M78.26,75.08l12.29,7.21V76.11L78.26,68.89ZM86.63,75l3,1.74v4l-3-1.74Zm-3.76-2.2,2.92,1.71v4L82.87,76.8Zm-3.7-2.18L82,72.29v4l-2.87-1.69Z"/><polygon class="c" points="72.27 130.45 54.87 120.24 54.87 74.39 72.27 84.59 72.27 130.45"/><path class="f" d="M57.06,95.4l12.3,7.22V96.43l-12.3-7.22Zm8.37-.1,3,1.73v4l-3-1.74Zm-3.75-2.21,2.91,1.71v4l-2.91-1.71ZM58,90.92l2.87,1.69v4L58,95Z"/><polygon class="d" points="72.27 130.45 89.67 120.24 89.67 74.39 72.27 84.59 72.27 130.45"/><polygon class="e" points="72.27 64.17 54.87 74.39 72.27 84.59 89.67 74.39 72.27 64.17"/><path class="f" d="M57.19,87.66l12.3,7.21V88.69l-12.3-7.22Zm8.37-.1,3,1.73v4l-3-1.74Zm-3.75-2.21,2.91,1.71v4l-2.91-1.71Zm-3.7-2.17L61,84.87v4l-2.87-1.68Z"/></svg>