<svg xmlns="http://www.w3.org/2000/svg" viewBox="0 0 198.9 105.3"><defs><style>.a{fill:#a0501a;}.b{fill:#efefef;}.c{fill:#c4692c;}.d{fill:#f58536;}.e{fill:#fff;}</style></defs><title>Asset 58</title><polygon class="a" points="198.9 42.9 179.91 31.63 137.16 35.59 140.92 8.47 126.66 0 121.14 39.82 27.52 96.31 42.47 105.3 134.32 49.88 198.9 42.9"/><polygon class="b" points="34.48 93.27 53.59 89.49 47.22 100.83 42.23 96.23 34.48 93.27"/><polygon class="b" points="60.68 77.4 79.78 73.62 73.41 84.96 68.43 80.36 60.68 77.4"/><polygon class="b" points="87.48 61.93 106.59 58.15 100.22 69.5 95.23 64.89 87.48 61.93"/><polygon class="c" points="20.01 89.97 0 77.95 0 57.94 20.01 69.96 20.01 89.97"/><polygon class="d" points="20.01 89.97 107.82 37.83 107.82 17.81 20.01 69.96 20.01 89.97"/><polygon class="a" points="87.81 5.79 0 57.94 20.01 69.96 107.82 17.81 87.81 5.79"/><polygon class="b" points="109.78 48.14 128.88 44.36 122.52 55.7 117.53 51.1 109.78 48.14"/><polygon class="b" points="124.17 25.51 132.8 12.53 137.27 25.51 131.51 24.31 124.17 25.51"/><polygon class="b" points="150.81 35.77 164.91 40.06 151.13 47.09 153.04 41.3 150.81 35.77"/><polygon class="c" points="87.96 20.79 78.72 15.3 78.72 6.87 87.96 12.36 87.96 20.79"/><polygon class="d" points="87.96 20.79 97.21 15.3 97.21 6.87 87.96 12.36 87.96 20.79"/><polygon class="a" points="87.96 1.38 78.72 6.87 87.96 12.36 97.21 6.87 87.96 1.38"/><path class="e" d="M80,12.54l6.54,3.88V13.09L80,9.21Zm4.45-.06,1.57.93v2.17l-1.57-.94Zm-2-1.19,1.55.92v2.17l-1.55-.92Zm-2-1.17L82,11V13.2l-1.53-.91Z"/><polygon class="c" points="74.51 28.81 65.26 23.32 65.26 14.89 74.51 20.38 74.51 28.81"/><polygon class="d" points="74.51 28.81 83.75 23.32 83.75 14.89 74.51 20.38 74.51 28.81"/><polygon class="a" points="74.51 9.4 65.26 14.89 74.51 20.38 83.75 14.89 74.51 9.4"/><path class="e" d="M66.5,20.56,73,24.43V21.11L66.5,17.23Zm4.44-.06,1.58.93V23.6l-1.58-.94Zm-2-1.19,1.55.92V22.4L69,21.48Zm-2-1.17,1.53.91v2.17L67,20.31Z"/><polygon class="c" points="60.43 37.11 51.19 31.62 51.19 23.19 60.43 28.68 60.43 37.11"/><polygon class="d" points="60.43 37.11 69.67 31.62 69.67 23.19 60.43 28.68 60.43 37.11"/><polygon class="a" points="60.43 17.7 51.19 23.19 60.43 28.68 69.68 23.19 60.43 17.7"/><path class="e" d="M52.42,28.86,59,32.73V29.41l-6.54-3.88Zm4.45-.06,1.57.93V31.9L56.87,31Zm-2-1.19,1.55.92V30.7l-1.55-.92Zm-2-1.17,1.52.91v2.17l-1.52-.91Z"/></svg>