<svg xmlns="http://www.w3.org/2000/svg" viewBox="0 0 265.58 155.84"><defs><style>.a{fill:#f2f2f2;}.b{fill:#757575;}.c{fill:#c4692c;}.d{fill:#f58536;}.e{fill:#a0501a;}.f{fill:#fff;}.g{fill:#efefef;}</style></defs><title>Asset 64</title><polygon class="a" points="132.79 0 0 77.92 132.79 155.84 265.58 77.92 132.79 0"/><polygon class="b" points="242.93 64.48 231.89 71.04 160 68.88 205.05 42.4 194.24 36.06 148.99 62.27 145.19 20.4 136.8 15.42 145.19 20.4 156.23 13.84 145.19 7.29 134.14 13.84 134.14 13.84 137.91 68.8 60.58 113.47 71.73 119.98 148.96 75.44 242.93 77.6 253.97 71.04 242.93 64.48"/><polygon class="c" points="143.83 20.4 134.88 15.09 134.88 6.93 143.83 12.24 143.83 20.4"/><polygon class="d" points="143.83 20.4 152.77 15.09 152.77 6.93 143.83 12.24 143.83 20.4"/><polygon class="e" points="143.83 1.61 134.88 6.93 143.83 12.24 152.77 6.93 143.83 1.61"/><path class="f" d="M136.07,12.41l6.33,3.76V13l-6.33-3.76Zm4.31-.05,1.52.9v2.1l-1.52-.91Zm-1.93-1.15,1.5.89v2.1l-1.5-.9Zm-1.91-1.13L138,11v2.09l-1.48-.88Z"/><polygon class="c" points="241.4 77.29 232.45 71.97 232.45 63.81 241.4 69.13 241.4 77.29"/><polygon class="d" points="241.4 77.29 250.35 71.97 250.35 63.81 241.4 69.13 241.4 77.29"/><polygon class="e" points="241.4 58.5 232.45 63.81 241.4 69.13 250.35 63.81 241.4 58.5"/><path class="f" d="M233.65,69.3,240,73.05V69.83l-6.32-3.75Zm4.3-.06,1.53.91v2.09l-1.53-.9ZM236,68.1l1.5.89v2.09l-1.5-.89ZM234.12,67l1.48.88v2.1l-1.48-.88Z"/><polygon class="c" points="193.61 48.51 184.66 43.19 184.66 35.03 193.61 40.35 193.61 48.51"/><polygon class="d" points="193.61 48.51 202.56 43.19 202.56 35.03 193.61 40.35 193.61 48.51"/><polygon class="e" points="193.61 29.72 184.66 35.03 193.61 40.35 202.56 35.03 193.61 29.72"/><path class="f" d="M185.86,40.52l6.32,3.75V41.05l-6.32-3.76Zm4.3-.06,1.53.91v2.09l-1.53-.9Zm-1.93-1.15,1.5.89v2.1l-1.5-.89Zm-1.9-1.13,1.48.88v2.1l-1.48-.88Z"/><polygon class="g" points="69.46 110.64 80.61 108.44 76.89 115.06 73.98 112.37 69.46 110.64"/><polygon class="g" points="90.96 97.25 102.11 95.04 98.39 101.66 95.48 98.98 90.96 97.25"/><polygon class="g" points="111.13 86.36 122.27 84.16 118.56 90.78 115.65 88.09 111.13 86.36"/><polygon class="g" points="131.63 74.45 142.77 72.24 139.06 78.86 136.15 76.18 131.63 74.45"/><polygon class="g" points="154.96 60.71 166.11 58.5 162.39 65.12 159.49 62.43 154.96 60.71"/><polygon class="g" points="173.52 49.92 184.66 47.71 180.95 54.33 178.04 51.64 173.52 49.92"/><polygon class="g" points="140.08 59.22 142.47 52.98 145.47 57.86 142.99 57.96 140.08 59.22"/><polygon class="g" points="170.69 69.92 176.83 72.66 170.2 75.06 171.4 72.55 170.69 69.92"/><polygon class="g" points="193.76 70.54 199.9 73.28 193.27 75.68 194.46 73.17 193.76 70.54"/><polygon class="g" points="214.53 71.08 220.67 73.82 214.04 76.22 215.23 73.71 214.53 71.08"/><polygon class="g" points="138.44 42.79 140.83 36.55 143.83 41.43 141.35 41.53 138.44 42.79"/><polygon class="g" points="137.39 27.8 139.78 21.56 142.77 26.44 140.3 26.54 137.39 27.8"/><polygon class="c" points="115.39 78.71 97.99 68.5 97.99 22.65 115.39 32.86 115.39 78.71"/><path class="f" d="M100.19,43.67l12.3,7.21V44.69l-12.3-7.21Zm8.37-.11,3,1.74v4l-3-1.74Zm-3.76-2.2,2.92,1.71v4l-2.92-1.72Zm-3.7-2.18L104,40.87v4l-2.87-1.69Z"/><polygon class="d" points="115.39 78.71 132.79 68.5 132.79 22.65 115.39 32.86 115.39 78.71"/><polygon class="e" points="115.39 12.44 97.99 22.65 115.39 32.86 132.79 22.65 115.39 12.44"/><path class="f" d="M100.32,35.93l12.3,7.21V37l-12.3-7.21Zm8.37-.11,3,1.74v4l-3-1.73Zm-3.76-2.2,2.92,1.71v4l-2.92-1.71Zm-3.7-2.18,2.88,1.69v4l-2.88-1.69Z"/><polygon class="c" points="93.8 90.78 75.56 80.08 75.56 47.83 93.8 58.54 93.8 90.78"/><polygon class="d" points="93.8 90.78 112.04 80.08 112.04 47.83 93.8 58.54 93.8 90.78"/><polygon class="e" points="93.8 37.13 75.56 47.83 93.8 58.54 112.04 47.83 93.8 37.13"/><path class="f" d="M77.67,56.62,86.8,62V57.38L77.67,52Zm6.21-.08,2.2,1.29v3l-2.2-1.29ZM81.09,54.9l2.17,1.27v3l-2.17-1.27Zm-2.74-1.61,2.13,1.25v3l-2.13-1.25Z"/><polygon class="c" points="93.23 49.81 86.08 45.61 86.08 38.34 93.23 42.54 93.23 49.81"/><polygon class="d" points="93.23 49.81 100.38 45.61 100.38 38.34 93.23 42.54 93.23 49.81"/><polygon class="e" points="93.23 34.15 86.08 38.34 93.23 42.54 100.38 38.34 93.23 34.15"/><path class="f" d="M95.52,42.15l4.24-2.49v2.13l-4.24,2.49Zm2.89,0,1-.6V40.2l-1,.6Zm-1.3.76,1-.59V41l-1,.58Zm-1.27.75,1-.58V41.72l-1,.58Z"/><polygon class="c" points="62.94 109.57 53.99 104.25 53.99 96.09 62.94 101.41 62.94 109.57"/><polygon class="d" points="62.94 109.57 71.88 104.25 71.88 96.09 62.94 101.41 62.94 109.57"/><polygon class="e" points="62.94 90.78 53.99 96.09 62.94 101.41 71.88 96.09 62.94 90.78"/><path class="f" d="M55.18,101.58l6.33,3.75v-3.22l-6.33-3.76Zm4.31-.06,1.52.91v2.09l-1.52-.9Zm-1.93-1.15,1.5.89v2.1l-1.5-.89Zm-1.91-1.13,1.48.88v2.1l-1.48-.88Z"/></svg>