<svg xmlns="http://www.w3.org/2000/svg" viewBox="0 0 198.9 105.3"><defs><style>.a{fill:#a0501a;}.b{fill:#efefef;}.c{fill:#c4692c;}.d{fill:#f58536;}.e{fill:#fff;}</style></defs><title>Asset 56</title><polygon class="a" points="198.9 42.9 179.91 31.63 137.16 35.59 140.92 8.47 126.66 0 121.14 39.82 27.52 96.31 42.47 105.3 134.32 49.88 198.9 42.9"/><polygon class="b" points="34.48 93.27 53.59 89.49 47.22 100.83 42.23 96.23 34.48 93.27"/><polygon class="b" points="60.68 77.4 79.78 73.62 73.41 84.96 68.43 80.36 60.68 77.4"/><polygon class="b" points="87.48 61.93 106.59 58.15 100.22 69.5 95.23 64.89 87.48 61.93"/><polygon class="c" points="20.01 89.97 0 77.95 0 57.94 20.01 69.96 20.01 89.97"/><polygon class="d" points="20.01 89.97 107.82 37.83 107.82 17.81 20.01 69.96 20.01 89.97"/><polygon class="a" points="87.81 5.79 0 57.94 20.01 69.96 107.82 17.81 87.81 5.79"/><polygon class="b" points="109.78 48.14 128.88 44.36 122.52 55.7 117.53 51.1 109.78 48.14"/><polygon class="b" points="124.17 25.51 132.8 12.53 137.27 25.51 131.51 24.31 124.17 25.51"/><polygon class="b" points="150.81 35.77 164.91 40.06 151.13 47.09 153.04 41.3 150.81 35.77"/><polygon class="c" points="85.67 22.79 76.43 17.3 76.43 8.87 85.67 14.36 85.67 22.79"/><polygon class="d" points="85.67 22.79 94.92 17.3 94.92 8.87 85.67 14.36 85.67 22.79"/><polygon class="a" points="85.67 3.38 76.43 8.87 85.67 14.36 94.92 8.87 85.67 3.38"/><path class="e" d="M77.66,14.54l6.54,3.88V15.09l-6.54-3.88Zm4.45-.06,1.57.93v2.17l-1.57-.94Zm-2-1.19,1.55.92v2.17l-1.55-.92Zm-2-1.17,1.52.91V15.2l-1.52-.91Z"/></svg>