<svg xmlns="http://www.w3.org/2000/svg" viewBox="0 0 198.9 120.99"><defs><style>.a{fill:#a0501a;}.b{fill:#efefef;}.c{fill:#c4692c;}.d{fill:#f58536;}.e{fill:#fff;}</style></defs><title>Asset 57</title><polygon class="a" points="198.9 58.6 179.91 47.32 137.16 51.28 140.92 24.16 126.66 15.69 121.14 55.51 27.52 112 42.47 120.99 134.32 65.57 198.9 58.6"/><polygon class="b" points="34.48 108.96 53.59 105.18 47.22 116.53 42.23 111.92 34.48 108.96"/><polygon class="b" points="60.68 93.09 79.78 89.31 73.41 100.66 68.43 96.05 60.68 93.09"/><polygon class="b" points="87.48 77.62 106.59 73.84 100.22 85.19 95.23 80.58 87.48 77.62"/><polygon class="c" points="20.01 105.67 0 93.64 0 73.63 20.01 85.65 20.01 105.67"/><polygon class="d" points="20.01 105.67 107.82 53.52 107.82 33.5 20.01 85.65 20.01 105.67"/><polygon class="a" points="87.81 21.48 0 73.63 20.01 85.65 107.82 33.5 87.81 21.48"/><polygon class="b" points="109.78 63.83 128.88 60.05 122.52 71.4 117.53 66.79 109.78 63.83"/><polygon class="b" points="124.17 41.2 132.8 28.22 137.27 41.2 131.51 40 124.17 41.2"/><polygon class="b" points="150.81 51.47 164.91 55.76 151.13 62.78 153.04 56.99 150.81 51.47"/><polygon class="c" points="20.01 85.19 0 73.17 0 53.15 20.01 65.17 20.01 85.19"/><polygon class="d" points="20.01 85.19 107.82 33.04 107.82 13.02 20.01 65.17 20.01 85.19"/><polygon class="a" points="87.81 1 0 53.15 20.01 65.17 107.82 13.02 87.81 1"/><polygon class="c" points="88.47 19.41 79.23 13.92 79.23 5.49 88.47 10.98 88.47 19.41"/><polygon class="d" points="88.47 19.41 97.72 13.92 97.72 5.49 88.47 10.98 88.47 19.41"/><polygon class="a" points="88.47 0 79.23 5.49 88.47 10.98 97.72 5.49 88.47 0"/><path class="e" d="M80.46,11.16,87,15V11.71L80.46,7.83Zm4.45-.06,1.57.93V14.2l-1.57-.94Zm-2-1.19,1.55.92V13l-1.55-.92ZM81,8.74l1.53.91v2.17L81,10.91Z"/></svg>