<svg xmlns="http://www.w3.org/2000/svg" viewBox="0 0 266.4 206.15"><defs><style>.a{fill:#f2f2f2;}.b{fill:#c4692c;}.c{fill:#f58536;}.d{fill:#a0501a;}.e{fill:#fff;}</style></defs><title>Asset 102</title><polygon class="a" points="133.2 49.83 0 127.99 133.2 206.15 266.4 127.99 133.2 49.83"/><polygon class="b" points="165.6 117.12 109.14 84.02 109.08 11.74 165.53 44.84 165.6 117.12"/><polygon class="c" points="165.53 117.12 185.86 105.22 185.86 33.09 165.53 44.84 165.53 117.12"/><polygon class="d" points="129.4 0 109.08 11.74 165.53 44.84 185.86 33.1 129.4 0"/><polygon class="b" points="138.75 134.43 82.29 101.33 82.22 29.05 138.68 62.15 138.75 134.43"/><polygon class="c" points="138.68 134.43 159.01 122.53 159.01 50.4 138.68 62.15 138.68 134.43"/><polygon class="d" points="102.55 17.31 82.22 29.05 138.68 62.15 159.01 50.41 102.55 17.31"/><polygon class="b" points="109.19 152.67 52.73 119.56 52.66 47.28 109.12 80.39 109.19 152.67"/><polygon class="c" points="109.12 152.67 129.44 140.77 129.44 68.64 109.12 80.39 109.12 152.67"/><polygon class="d" points="72.99 35.55 52.66 47.28 109.12 80.38 129.44 68.65 72.99 35.55"/><polygon class="b" points="194.53 132.9 181.91 125.4 181.91 113.89 194.53 121.39 194.53 132.9"/><polygon class="c" points="194.53 132.9 207.15 125.4 207.15 113.89 194.53 121.39 194.53 132.9"/><polygon class="d" points="194.53 106.4 181.91 113.89 194.53 121.39 207.15 113.89 194.53 106.4"/><path class="e" d="M183.6,121.63l8.92,5.29v-4.54l-8.92-5.3Zm6.07-.08,2.15,1.27v3l-2.15-1.28ZM187,119.93l2.11,1.26v3L187,122.89Zm-2.69-1.6,2.09,1.24v3l-2.09-1.24Z"/></svg>