<svg xmlns="http://www.w3.org/2000/svg" viewBox="0 0 454.16 442.22"><defs><style>.a{fill:none;stroke:#000;stroke-miterlimit:10;}.b{fill:#c4692c;}.c{fill:#f58536;}.d{fill:#a0501a;}.e{fill:#fff;}</style></defs><title>Asset 168</title><polygon class="a" points="227.08 176.3 0.99 308.97 227.08 441.63 453.17 308.97 227.08 176.3"/><polygon class="b" points="240.18 396.63 71.47 297.62 71.47 108.76 240.18 207.76 240.18 396.63"/><polygon class="c" points="240.18 396.63 408.9 297.62 408.9 108.76 240.18 207.76 240.18 396.63"/><polygon class="d" points="240.18 9.76 71.47 108.76 240.18 207.76 408.9 108.76 240.18 9.76"/><polygon class="b" points="86.53 353.9 46.69 330.52 46.69 294.62 86.53 318 86.53 353.9"/><polygon class="c" points="86.53 353.9 126.38 330.52 126.38 294.62 86.53 318 86.53 353.9"/><polygon class="d" points="86.53 271.24 46.69 294.62 86.53 318 126.38 294.62 86.53 271.24"/><path class="e" d="M52,318.75l28.17,16.51V321.09L52,304.57Zm19.17-.25,6.78,4v9.22l-6.78-4Zm-8.6-5.05,6.68,3.92v9.22l-6.68-3.92Zm-8.47-5,6.58,3.87v9.22l-6.58-3.86Z"/><path class="e" d="M311.05,211.85l.89-.37.89-.36.87-.35.88-.34.86-.32.86-.31.85-.3.84-.28.84-.28.83-.26.82-.25.81-.23.8-.22.79-.21.78-.2.78-.18.76-.18.75-.15.74-.15.74-.13.72-.13.71-.1.69-.1.69-.09.67-.07.66-.06.65,0,.63,0,.62,0h1.78l.57,0,.55,0,.53.05.52.06.26,0,.25,0,.24.05.24,0,.24.06.24.05.23,0,.22.06.22.06.22.06.22.07.2.07.21.07.2.08.2.08.19.08.19.09.18.09.18.09.17.09.17.1.17.1.16.1.15.11.15.12.15.11.14.11.14.13.13.12.13.13.12.12.12.14.11.13.11.14.1.14.1.15.09.14.09.16.08.15.07.16.07.16.07.16.06.17.06.17.05.17,0,.18,0,.18,0,.18,0,.18,0,.2v.19l0,.19v.4l-.92,76.39v.41l0,.21,0,.22,0,.21,0,.22,0,.22,0,.22,0,.22-.05.23-.06.22-.07.24-.07.23-.07.23-.08.24-.09.24-.09.24-.09.24-.1.24-.11.25-.11.25-.12.25-.12.25-.12.25-.13.26-.13.25-.14.27-.15.25-.15.27-.15.26-.15.27-.17.26-.16.27-.18.27-.17.27-.18.27-.19.28-.19.27-.19.28-.2.28-.2.28-.2.28-.21.27-.21.29-.22.28-.23.29-.22.28-.23.29-.24.29-.24.29-.24.29-.24.29-.25.28-.26.3-.51.58-.54.59-.55.6-.56.59-.57.59-.59.6-.6.6-.62.6-.63.6-.64.6-.66.6-.66.61-.68.6-.69.6-.7.6-.71.6-.72.6-.74.59-.74.6-.75.59-.77.59L322,316l-.78.59-.79.58-.8.57-.8.57-.82.57-.82.56-.83.56-.84.55-.85.55-.85.54-.85.54-.87.53-.87.52-.87.51-.88.51-.89.49-.87.48-.87.48-.86.45-.86.44-.85.43-.84.41-.84.4-.83.38-.82.38-.81.35-.81.34-.8.33-.79.32-.77.29-.78.29-.76.27-.75.26-.74.24-.73.22-.72.21-.71.2-.69.18-.69.17-.68.16-.66.13-.65.13-.64.11-.63.09-.61.08-.6.07-.59.05-.57,0-.56,0h-1.07l-.51,0-.26,0-.24,0-.25,0-.24,0-.23,0-.23,0-.23,0-.23,0-.22-.05-.21-.05-.21-.06-.21,0-.21-.07-.19-.06-.2-.07-.19-.08-.19-.08-.18-.08-.18-.08-.17-.1-.17-.09-.17-.09-.15-.11-.16-.1-.15-.11-.15-.11-.14-.12-.13-.12-.14-.12-.12-.13-.13-.13-.11-.13-.11-.14-.11-.15-.11-.14-.1-.15-.09-.15-.09-.16-.08-.16-.08-.17-.07-.17-.07-.17-.06-.18-.06-.17-.05-.19,0-.19,0-.19,0-.19,0-.2,0-.2,0-.21,0-.21v-.43l.08-82.32V244l0-.22,0-.23,0-.23,0-.22,0-.24,0-.23.05-.23.05-.24.06-.24.06-.24.07-.24.07-.24L276,241l.09-.25.09-.25.09-.24.1-.25.11-.25.11-.26.11-.25.12-.25.13-.26.12-.25.14-.26.14-.26.14-.26.15-.26.15-.26.16-.27.16-.26.17-.26.17-.27.18-.27.18-.26.19-.27.19-.27.19-.27.2-.26.2-.27L280,234l.21-.27.22-.27.22-.27.22-.28.23-.27.23-.27.24-.27.24-.28.24-.27.25-.28.25-.27.26-.27.52-.55.54-.55.55-.55.57-.54.59-.55.59-.54.62-.55.62-.54.64-.54.65-.55.66-.53.68-.54.68-.53.7-.53.71-.53.73-.52.73-.52.74-.52.76-.51.76-.51.78-.5.78-.5.8-.49.8-.49.81-.48.82-.48.83-.47.84-.46.84-.46.86-.45.85-.45.87-.43.87-.43.88-.43.89-.41.89-.41.89-.4Zm-32.31,113v.34l0,.09,0,.09,0,.1,0,.09,0,.09,0,.09,0,.09,0,.08.05.09.06.08.06.08.06.08.06.08.07.08.08.08.08.07.08.07.18.14.19.14.21.13.22.12.24.11.26.1.27.11.28.09.3.08.32.07.33.07.35.05.36.05.37,0,.39,0,.41,0h1.76l.48,0,.49,0,.5-.06.52-.06.53-.07.54-.1.56-.09.57-.12.59-.12.6-.14.6-.15.63-.16.64-.18.65-.19.66-.2.67-.22.69-.23.7-.24.71-.26.73-.27.73-.29.75-.3.76-.32.77-.33.79-.35.79-.37.81-.37.82-.4.83-.41.84-.43.85-.44.87-.46.87-.48.89-.49.88-.51.88-.51.87-.51.86-.52.84-.53.83-.52.83-.53.81-.53.8-.53.79-.55.77-.53.77-.54.75-.54.74-.54.72-.54.72-.55.7-.53.7-.55.67-.53.67-.54.65-.54.64-.53.63-.54.61-.52.61-.53.58-.53.58-.52.56-.52.55-.51.53-.51.52-.51.51-.5.49-.49.48-.49.47-.49.45-.48.43-.46.43-.47.4-.46.39-.45.38-.44.37-.44.35-.43.33-.42.31-.41.31-.4.28-.39.28-.39.25-.37.25-.36.22-.36.21-.34.19-.33.18-.33.08-.15.08-.15.07-.15.07-.15.07-.14.06-.14.06-.14.05-.14,0-.13.05-.13,0-.13,0-.12,0-.12,0-.11,0-.11,0-.11,0-.11V291l.22-18.62-.27.39-.28.38-.29.4-.29.39-.3.39-.31.4-.33.4-.32.4-.34.4-.35.4-.35.41-.36.41-.37.41-.37.41-.39.41-.39.41-.4.42-.4.41-.42.42-.42.41-.43.42-.43.41-.44.42-.45.42-.45.42-.46.41-.47.42-.47.42-.48.42-.49.42-.49.41-.5.42-.5.42-.51.41-.52.41-.52.42-.52.41-.53.41-.54.41-.54.41-.55.41-.55.4-.56.41-.56.4-.57.4-.57.4-.57.39-.58.4-.58.39-.59.39-.59.39-.59.38-.6.38-.61.38-.6.38-.61.37-.62.37-.61.37-.62.36-.63.36-.62.35-.63.36-.63.35-1.27.68-.63.33-.63.32-.63.32-.62.31-.62.31-.62.29-.61.29-.61.29-.6.27-.61.27-.6.26-.59.25L301,302l-.58.24-.59.23-.58.23-.57.22-.57.21-.56.2-.56.2-.56.19-.55.18-.54.17-.54.17-.54.16-.53.15-.52.15-.52.13-.51.14-.51.12-.5.12-.5.1-.49.1-.48.1-.48.09-.47.07-.46.07-.46.07-.46.06-.44,0-.44.05-.43,0-.43,0-.42,0h-1.59l-.39,0-.37,0-.36,0-.36,0-.35,0-.35-.05-.33-.06-.32-.07-.32-.08-.31-.08-.3-.1-.29-.1-.29-.11-.27-.11-.26-.13Zm0-27.28v.34l0,.1,0,.09,0,.1,0,.09,0,.09,0,.09,0,.09,0,.08.05.09.06.08.06.09.06.08.06.09.08.07.07.08.08.08.08.07.18.15.19.14.21.13.23.13.24.12.26.11.27.11.29.1.3.09.31.08.34.08.35.06.36.06.37.05.39,0,.41,0,.42,0,.44,0h.91l.48,0,.49,0,.51,0,.52-.05.53-.06.55-.07.56-.09.57-.09.59-.11.6-.12.61-.13.63-.15.64-.16.65-.17.67-.18.67-.2.69-.21.7-.22.72-.24.73-.25.74-.27.75-.28.76-.29.77-.31.79-.33.8-.34.81-.35.83-.38.83-.38.84-.41.86-.41.87-.44.87-.45.89-.47.89-.48.89-.48.87-.5.86-.49.84-.5.84-.5.83-.51.81-.51.8-.51.8-.51.77-.52.77-.52.76-.51.74-.52.73-.52.72-.52.71-.52.69-.52.68-.52.67-.52.66-.52.64-.52.63-.51.62-.51.6-.51.59-.51.58-.51.56-.5.55-.5.54-.49.52-.49.51-.49.5-.48.47-.47.47-.47.46-.47.43-.46.43-.45.4-.45.4-.44.38-.43.37-.43L337,272l.34-.4.32-.41.3-.39.29-.38.27-.38.26-.36.24-.37.23-.34.21-.34.19-.33.18-.31.08-.15.08-.15.07-.15.07-.15.07-.14.06-.14.06-.14.06-.13.05-.13,0-.13,0-.12,0-.12,0-.12,0-.12,0-.11,0-.11v-.1l0-.11v-.19l.21-18.67-.27.38-.28.38L340,248l-.3.38-.3.39-.32.39-.32.39-.33.39-.34.39-.34.4-.36.4-.36.39-.37.4-.38.4-.38.4-.4.4-.4.4-.4.4-.42.41-.42.4-.43.41-.44.4-.44.41-.45.4-.46.4-.46.41-.47.4-.47.41-.48.4-.49.41-.5.4-.5.4-.5.4-.51.4-.52.4-.52.4-.53.4-.53.39-.54.4-.55.39-.55.39-.55.4-.56.38-.56.39-.57.38-.57.39-.58.37-.58.38-.58.37-.59.38-.6.37-.6.37-.6.36-.6.36-.61.36-.62.35-.61.36-.62.34-.62.35-.63.34-.63.34-.63.34-.63.33-1.28.64-.63.31-.63.31-.63.3-.63.3-.62.28-.62.28-.61.27-.61.27-.61.25-.61.25-.6.25-.59.23-.6.23-.58.23-.59.21-.58.21-.58.2-.57.2-.56.19-.57.18-.55.17L296,277l-.54.15-.54.15-.54.15-.53.14-.53.13-.52.12-.52.12-.51.11-.5.09-.5.1-.49.09-.48.08-.49.07-.47.06-.47.06-.46,0-.45.05-.45,0-.44,0-.43,0h-2.06l-.39,0-.39,0-.37,0-.37,0-.36-.05-.35-.06-.35-.07-.33-.07-.33-.08-.32-.09-.31-.09-.3-.11-.29-.1-.28-.12-.28-.12-.26-.13Zm0-27.34v.35l0,.09,0,.09,0,.1,0,.09,0,.09,0,.1,0,.09,0,.09.06.08.05.09.06.09.06.08.07.08.07.09.07.07.08.08.09.08.18.15.19.15.21.14.23.13.24.13.26.12.27.11.29.11.3.1.32.09.33.09.35.07.36.07.38.06.39.05.41,0,.43,0,.44,0,.45,0h.94l.5,0,.5,0,.53,0,.53,0,.55-.06.56-.07.58-.08.59-.09.6-.1.61-.11.63-.13.65-.14.65-.15.67-.17.68-.17.69-.2.71-.2.72-.21.73-.24.74-.24.75-.26.77-.27.78-.29.79-.31.8-.32.81-.32.83-.35.84-.37.85-.37.85-.4.88-.41.88-.43.89-.44.9-.45.88-.46.88-.47.86-.47.85-.47L315,264l.83-.48.82-.49.8-.48.8-.5.78-.49.77-.5.76-.49.75-.5.73-.5.72-.5.71-.5.7-.5.68-.5.67-.5.66-.5.65-.5.63-.49.62-.5.6-.49.6-.49.58-.49.56-.49.56-.48.53-.48.53-.47.51-.47.5-.47.48-.46.47-.46.45-.45.44-.45.43-.44.41-.44.39-.42.39-.43.36-.41.35-.41.34-.4.32-.39.3-.39.29-.37.28-.37.26-.36.24-.35.23-.34.21-.33.19-.32.18-.31.08-.15.08-.16.08-.14.07-.14.06-.14.07-.14.06-.14.05-.13.05-.13,0-.13,0-.12,0-.12,0-.12,0-.11,0-.11,0-.11,0-.1v-.3l.22-18.73-.27.37-.28.37-.29.37-.3.38-.3.38-.32.38-.32.38-.33.38-.34.38-.35.39-.36.38-.36.39-.37.39-.38.38-.39.39-.39.4-.4.38-.41.4-.42.39-.43.39-.43.39-.43.4-.45.39-.45.39-.46.39-.46.39-.47.39-.48.39-.48.39-.5.39-.49.39-.5.39-.51.39-.52.38-.52.39-.52.38-.53.38-.53.38-.54.38-.55.38-.55.37-.56.38-.56.37-.56.37-.58.37-.57.37-.58.36-.58.36-.59.36-.59.35-.6.36-.6.35-.6.34-.61.35-.61.34-.62.34-.62.33-.62.33-.62.33-.63.32-.63.32-.64.32-.63.31-.64.31-.64.3-.64.29-.63.29-.63.29-.63.27-.63.27-.62.26-.62.25-.61.25-.61.24-.61.23-.6.23-.6.22-.59.21-.59.21-.59.2-.59.19-.57.19-.58.17-.57.18-.56.16-.56.15-.56.15-.55.15-.54.13-.54.13-.53.12-.53.12-.52.11-.52.1-.51.09-.51.09-.5.08-.49.07-.49.07-.48.06-.48.05-.47,0-.46,0-.46,0-.44,0H285l-.4,0-.4,0-.39,0-.39,0-.38-.05-.36-.05-.37-.06-.35-.07-.34-.08-.34-.08-.33-.09-.32-.09-.31-.11-.3-.11-.29-.12-.29-.12-.28-.13-.26-.13Zm30.4-52.94-.89.41-.88.42-.87.42-.86.43-.85.44-.83.43-.83.44-.81.45-.8.45-.78.46-.78.45-.77.46-.75.47-.73.46-.73.47-.72.47-.7.47-.69.46-.67.48-.66.47-.65.47-.64.48-.62.47-.61.47-.6.47-.58.47-.57.47-.55.47-.54.46-.53.46-.51.46-.5.46-.48.45-.48.45-.45.44-.44.45-.43.43-.41.43-.39.43-.38.42-.37.42-.35.41-.34.4-.32.39-.3.39-.29.38-.27.37-.26.37-.24.36-.23.35-.21.33-.19.33-.18.32-.08.16-.08.15-.07.15-.07.15-.07.15-.06.14-.06.14-.05.14-.05.13-.05.13,0,.13,0,.13,0,.12,0,.12,0,.12,0,.11v.11l0,.11v.41l0,.09v.1l0,.09,0,.11,0,.09,0,.09,0,.09,0,.1,0,.09.05.08,0,.1.06.08.07.09.06.08.07.09.07.08.08.08.08.09.18.16.19.15.21.14.22.15.25.13.25.13.28.12.28.12.31.11.32.1.33.1.35.09.36.08.38.07.4.07.41,0,.42.05.44,0,.45,0,.47,0h1.49l.52,0,.54,0,.55,0,.57-.05.58-.06.59-.08.61-.08.61-.1.64-.1.64-.13.66-.12.67-.15.69-.16.7-.17.71-.18.72-.2.74-.21.74-.22.76-.24.78-.26.78-.26.8-.28.8-.29.82-.31.84-.33.84-.34.86-.35.86-.37.88-.39.89-.4.9-.42.9-.43.89-.44.88-.43.86-.45.86-.45.84-.46.83-.45.82-.46.81-.47.8-.47.78-.47.78-.47.76-.48.75-.47.74-.48.72-.48.71-.48.7-.48.69-.48.67-.48.67-.48.65-.48.63-.48.62-.48.61-.48.6-.47.58-.47.57-.47.55-.47.54-.46.53-.46.51-.46.5-.45.48-.45.48-.44.45-.44.44-.43.43-.43.41-.43.4-.41.38-.42.37-.4.35-.4.34-.39.32-.38.31-.38.29-.37.27-.36.26-.35.25-.34.23-.34.21-.32.19-.32.18-.3.08-.15.08-.15.08-.14.07-.14.07-.14.06-.14.06-.13.05-.13.05-.13,0-.12,0-.13,0-.12,0-.11,0-.11,0-.12,0-.1v-.11l0-.1v-.56l0-.08,0-.1,0-.08,0-.09,0-.08,0-.09,0-.08-.05-.08-.05-.09-.06-.08-.06-.08-.06-.07-.07-.08-.07-.08-.08-.07-.08-.08-.17-.14-.2-.14-.2-.13-.22-.13-.24-.13-.26-.11-.27-.11-.29-.11-.3-.09-.31-.09-.33-.09-.35-.08-.37-.06-.38-.07-.39-.06-.41,0-.42,0-.44,0-.45,0H333l-.51,0h-.53l-.53,0-.56,0-.56,0-.58.07-.6.07-.6.08-.62.09-.64.1-.64.12-.66.12-.68.13-.68.15-.7.16-.71.17-.73.19-.74.2-.74.2-.77.22-.77.24-.79.25-.8.26-.81.28-.82.29-.84.31-.84.32-.86.33-.87.35-.88.37-.89.37-.91.4Z"/><polygon class="b" points="135.62 382.29 95.78 358.91 95.78 323.01 135.62 346.39 135.62 382.29"/><polygon class="c" points="135.62 382.29 175.47 358.91 175.47 323.01 135.62 346.39 135.62 382.29"/><polygon class="d" points="135.62 299.63 95.78 323.01 135.62 346.39 175.47 323.01 135.62 299.63"/><path class="e" d="M101.1,347.14l28.17,16.51V349.48L101.1,333Zm19.17-.25,6.78,4v9.22l-6.78-4Zm-8.6-5.05,6.68,3.92V355l-6.68-3.92Zm-8.47-5,6.58,3.87V350l-6.58-3.86Z"/><polygon class="b" points="186.2 411.73 146.35 388.35 146.35 352.46 186.2 375.84 186.2 411.73"/><polygon class="c" points="186.2 411.73 226.04 388.35 226.04 352.46 186.2 375.84 186.2 411.73"/><polygon class="d" points="186.2 329.08 146.35 352.46 186.2 375.84 226.04 352.46 186.2 329.08"/><path class="e" d="M151.68,376.58l28.16,16.51V378.93L151.68,362.4Zm19.17-.24,6.78,4v9.22l-6.78-4Zm-8.61-5,6.68,3.92v9.22l-6.68-3.92Zm-8.47-5,6.58,3.88v9.22l-6.58-3.87Z"/><polygon class="b" points="396.43 192.02 365.75 174.02 365.74 146.38 396.43 164.38 396.43 192.02"/><polygon class="c" points="396.43 192.02 427.11 174.02 427.11 146.38 396.43 164.38 396.43 192.02"/><polygon class="d" points="396.43 128.37 365.74 146.38 396.43 164.38 427.11 146.38 396.43 128.37"/><polygon class="b" points="240.18 87.8 197.86 62.96 197.86 24.84 240.18 49.67 240.18 87.8"/><polygon class="c" points="240.18 87.8 282.51 62.96 282.51 24.84 240.18 49.67 240.18 87.8"/><polygon class="d" points="240.18 0 197.86 24.84 240.18 49.67 282.51 24.84 240.18 0"/></svg>