<svg xmlns="http://www.w3.org/2000/svg" viewBox="0 0 454.16 418.43"><defs><style>.a{fill:none;stroke:#000;stroke-miterlimit:10;}.b{fill:#c4692c;}.c{fill:#f58536;}.d{fill:#a0501a;}.e{fill:#fff;}</style></defs><title>Asset 165</title><polygon class="a" points="227.08 152.51 0.99 285.18 227.08 417.85 453.17 285.18 227.08 152.51"/><polygon class="b" points="229.08 392.81 60.37 293.81 60.36 104.94 229.08 203.94 229.08 392.81"/><polygon class="c" points="229.08 392.81 397.8 293.81 397.8 104.94 229.08 203.94 229.08 392.81"/><polygon class="d" points="229.08 5.94 60.36 104.94 229.08 203.94 397.8 104.94 229.08 5.94"/><path class="e" d="M320.93,189.41l.89-.37.88-.37.88-.35.87-.33.87-.33.86-.3.85-.31.84-.28.84-.27.83-.26.81-.25.81-.23.8-.23.8-.2.78-.2.77-.19.77-.17.75-.16.74-.14.73-.14.72-.12.71-.11.7-.1.68-.08.68-.07.66-.06.64,0,.64,0,.62,0h1.78l.56,0,.55,0,.54.05.52.07.25,0,.25,0,.25.05.24,0,.24.05.23.06.23.05.23.05.22.07.22.06.21.07.21.07.21.07.2.08.2.07.18.09.19.09.19.08.17.09.18.1.17.1.16.1.17.1.15.11.15.11.15.12.14.11.13.12.14.13.12.12.13.13.11.13.11.14.11.14.1.14.1.14.09.15.09.15.08.16.08.16.07.16.07.16.06.17.05.16.05.18.05.17,0,.18,0,.19,0,.18,0,.19,0,.2v.59l-.93,76.39v.41l0,.21,0,.21,0,.22,0,.21,0,.23-.05.22,0,.22-.06.22-.06.23-.06.23-.07.23-.08.24L353,270l-.08.24-.09.24-.1.24-.1.25-.1.24-.12.25-.11.26-.12.25-.12.25-.13.25-.14.26-.14.26-.14.26-.15.26-.15.27-.16.26-.16.27-.17.27-.17.27-.18.27-.18.27-.18.27-.19.28-.19.28-.2.27-.2.28L349,277l-.2.28-.22.28-.22.29-.22.28-.23.29-.23.28-.23.29-.24.29-.24.29-.25.29-.25.29-.25.29-.52.59-.53.59-.55.59-.56.59-.58.6-.59.6-.6.6-.62.6-.62.6-.64.6-.66.6-.66.6-.68.61-.69.59-.7.61-.72.6-.72.59-.73.6-.74.6-.76.59-.76.59-.77.58-.78.59-.79.57-.8.58-.81.57-.81.57L327,297l-.83.56-.84.55-.84.55-.85.54-.86.53-.86.53-.87.52-.88.52-.88.5-.88.5-.87.48-.87.47-.87.46-.86.44-.85.43-.84.4-.83.41-.83.38-.83.37-.81.36-.8.34-.8.33-.79.31-.78.3-.77.29-.76.27-.75.25-.74.24-.73.23-.72.21-.71.2-.7.18-.69.17-.67.15-.67.14-.64.12-.64.11-.63.1-.61.08-.6.06-.59,0-.57,0-.56,0H293l-.52,0-.25,0-.25,0-.24,0-.24,0-.24,0-.23,0-.23,0-.22,0-.22-.05-.22-.05-.21-.06-.21-.06-.2-.06-.2-.07-.19-.07-.19-.07-.19-.08-.18-.08-.18-.09-.18-.09-.16-.09-.17-.1-.16-.1-.15-.1-.15-.11-.15-.11-.14-.12-.14-.12-.13-.13-.13-.12-.12-.13-.12-.14-.11-.14-.11-.14-.1-.15-.1-.14-.09-.16-.09-.16-.08-.16-.08-.16-.07-.17-.07-.17-.06-.18-.06-.18,0-.18-.05-.19,0-.19,0-.2,0-.19,0-.21,0-.2v-.64l.08-82.32v-.66l0-.23,0-.23,0-.23,0-.23,0-.23,0-.24.06-.23.05-.24.07-.24.07-.24.07-.24.08-.25.08-.24.09-.25.1-.25.1-.25.1-.25.11-.25.12-.25.12-.26.12-.25L287,216l.14-.26.13-.26.15-.25.15-.26.15-.27.16-.26.16-.26.17-.27.17-.26.18-.27.18-.26.18-.27.19-.27.2-.27.2-.27.2-.27.21-.27.21-.27.21-.26.22-.28.22-.27.23-.27.24-.27.23-.28.24-.27.25-.27.25-.28.25-.27.25-.27.53-.55.54-.55.55-.55.57-.54.58-.55.6-.55.61-.54.62-.55.64-.54.65-.54.66-.53.68-.54.69-.54.7-.52.71-.53.72-.52.74-.52.74-.52.75-.51.77-.51.77-.5.79-.5.79-.5.81-.48.81-.49.82-.47.83-.47.84-.46.84-.46.85-.45.86-.45.87-.44.87-.43.88-.42.88-.41.89-.41.9-.4Zm-32.32,113v.34l0,.1,0,.09,0,.09,0,.1,0,.09,0,.09,0,.08.05.09.05.08.05.09.06.08.06.08.07.08.07.08.07.07.08.08.08.07.18.14.19.13.21.13.23.13.24.11.25.1.27.1.29.09.3.09.31.07.34.07.34.05.36.05.38,0,.39,0h1.71l.46,0,.47,0,.49,0,.51-.06.51-.07.53-.07.55-.09.56-.1.57-.11.58-.12.6-.15.61-.14.63-.17.63-.17.65-.19.67-.21.67-.21.69-.23.69-.25.72-.26.72-.27.74-.28.75-.31.76-.31.77-.34.78-.34.8-.37.81-.38.82-.39.83-.41.84-.43.85-.44.86-.46.88-.48.88-.49.89-.51.88-.51.87-.51.85-.52.85-.53.83-.53.82-.53.81-.53.8-.53.79-.54.77-.53.77-.54.75-.55.74-.54.73-.53.72-.55.7-.54.69-.54.68-.54.66-.53.66-.54.64-.54.63-.53.61-.53.6-.53.59-.52.58-.52.56-.52.55-.52.53-.5.52-.51.51-.5.49-.5.48-.48.46-.49.45-.48.44-.47.42-.46.41-.46.39-.45.38-.45.36-.43.35-.43.33-.42.32-.41.3-.41.29-.38.27-.39.26-.37.24-.37.23-.35.2-.34.2-.34.18-.32.08-.15.08-.16.07-.14.07-.15.06-.15.07-.14.06-.14.05-.13.05-.13,0-.13.05-.13,0-.12,0-.12,0-.11,0-.11,0-.12v-.1l0-.1v-.2l.21-18.61-.27.38-.27.39-.29.39-.29.4-.31.39-.31.4-.32.4-.33.4-.33.4-.35.4-.35.41-.36.41-.37.4-.38.42-.38.41-.39.41-.4.41-.41.42-.41.41-.42.42-.43.41-.43.42-.45.42-.44.42-.46.41-.46.42-.46.42-.48.42-.48.41-.49.42-.49.42L338,263l-.51.41-.51.42-.51.41-.52.41-.53.42-.53.41-.53.41-.55.41-.54.4-.56.41-.55.41-.56.4-.57.4-.57.4-.57.39-.58.39-.58.39-.59.39-.59.39-.6.39-.6.38-.6.38-.61.37-.61.38-.61.37-.62.36-.62.37L322,274l-.63.35-.63.35-.63.35-1.27.68-.63.33-.63.33-.62.32-.63.31-.62.31-.61.29-.61.29-.61.28-.61.28-.6.26-.6.27-.59.25-.59.24-.59.24-.58.24-.58.22-.57.22-.57.21-.57.21-.56.19-.55.19-.55.19-.55.17-.53.17-.54.15-.53.16-.52.14-.52.14-.52.13-.5.13-.5.11-.5.11-.49.1-.48.09-.48.09-.47.08-.47.07-.46.06-.45.06-.45.05-.44,0-.43,0-.42,0-.42,0h-1.6l-.38,0-.37,0-.37,0-.36,0-.35,0-.34-.05-.33-.07-.33-.06-.32-.09-.31-.08-.29-.09-.3-.1-.28-.11-.27-.12-.27-.12Zm0-27.28v.35l0,.09,0,.1,0,.09,0,.09,0,.09,0,.09,0,.09.05.09.05.09,0,.08.06.09.06.08.07.08.07.08.08.08.08.08.08.07.18.15.19.14.21.13.22.13.24.12.26.11.27.1.29.1.3.09.32.09.33.07.35.07.36.06.38.05.39,0,.41,0,.42,0H296l.47,0,.5,0,.5,0,.52-.05.53-.06.55-.08.56-.08.57-.09.59-.11.6-.12.62-.14.62-.14.64-.16.66-.17.66-.18.68-.2.69-.21.7-.22.72-.24.72-.25.74-.27.75-.28.77-.3.77-.3.79-.33.8-.34.81-.36.82-.37.83-.39.85-.4.85-.42.87-.43.88-.46.89-.46.89-.48.88-.49.87-.49.86-.49.85-.5.84-.5.83-.51.81-.51.8-.51.79-.51.78-.52.77-.52.75-.51.75-.52.73-.52.72-.52.7-.53.7-.52.68-.52.67-.52.65-.51.65-.52.63-.51.61-.52.6-.51.6-.51.58-.5.56-.5.55-.5.53-.49.53-.49.51-.49.49-.48.48-.48.47-.47.45-.46.44-.46.42-.45.41-.45.39-.44.38-.43.37-.43.35-.42.33-.41.32-.4.31-.39.28-.39.28-.37.26-.37.24-.36.22-.35.21-.33.2-.33.18-.31.08-.16.08-.15.07-.15L350,245l.07-.14.06-.14.06-.14,0-.13.05-.13.05-.13,0-.12,0-.13,0-.12,0-.11,0-.11,0-.11,0-.1V243l.22-18.67-.27.37-.28.38-.29.39-.29.38-.31.39-.31.38-.32.39-.33.4-.34.39-.35.4-.35.39-.37.4-.36.4-.38.4-.39.4-.39.4-.4.4-.41.4-.41.41-.43.4-.43.4-.43.41-.44.4-.45.41-.46.4-.46.41-.47.4-.48.4-.48.41-.49.41-.49.39-.5.41-.51.4-.51.4-.52.4-.52.4-.53.39-.53.4-.54.4-.54.39-.55.39-.56.39-.55.39-.57.39-.57.38-.57.38-.57.38-.59.38-.58.37-.59.37-.59.38-.6.36-.6.37-.61.36-.61.36-.61.35-.62.36-.61.34-.63.35-.62.34-.63.34-.63.33-.64.33-1.27.65-.63.31-.64.31-.62.3-.63.29-.62.29-.62.27-.62.28-.61.26-.61.26-.6.25-.6.24-.6.24-.59.23-.59.22-.58.22-.59.21-.57.2-.57.2-.57.18-.56.18-.56.18-.55.16-.55.16-.54.15-.54.15-.53.13-.53.14-.51.12-.52.11-.51.11-.5.1-.5.09-.49.1-.49.07-.48.07-.47.07-.47.06-.46,0-.46,0-.44,0-.44,0-.44,0-.42,0H294l-.39,0-.38,0-.38,0-.36-.05-.36,0-.36-.06-.34-.06-.33-.07-.33-.09-.32-.08-.31-.09-.3-.11-.29-.1-.29-.12-.27-.13-.27-.12Zm0-27.33v.34l0,.1,0,.09,0,.1,0,.09,0,.09,0,.09,0,.09.05.09,0,.09.06.09.05.08.07.08.06.09.07.08.08.08.08.08.08.08.18.15.19.15.21.13.23.14.24.12.26.13.27.11.29.11.31.1.31.09.34.08.35.08.36.07.38.06.39.05.41,0,.42,0,.44,0h1.4l.49,0,.51,0,.52,0,.54,0,.55-.06.56-.07.57-.08.59-.09.61-.1.61-.12.63-.12.64-.14.66-.16.67-.16.67-.18.7-.19.7-.2.72-.22.73-.23.75-.25.75-.26.76-.27.78-.29.8-.3.8-.32.81-.33.83-.35.83-.36.85-.38.86-.39.87-.41.88-.43.9-.44.89-.46.89-.45.87-.47.86-.47.86-.47.84-.49.83-.48.81-.48.81-.49.79-.49.78-.49.78-.5.76-.49.74-.5.73-.5.73-.5.71-.5.69-.5.69-.5.67-.5.66-.5.64-.5.64-.5.61-.49.61-.49.59-.5.59-.49.56-.48.55-.48.54-.48.53-.48.51-.47.49-.47.48-.46.48-.45.45-.46.44-.44.42-.44.41-.44.4-.42.38-.43.37-.41.35-.41.33-.4.32-.39.31-.39.29-.37.27-.37.26-.36.25-.35.22-.34.21-.34.2-.32L350,220l.08-.15.08-.15.07-.14.07-.14.07-.15.06-.13.06-.14.06-.13,0-.13.05-.13,0-.12,0-.12,0-.12,0-.11,0-.11,0-.11v-.11l0-.1v-.19l.21-18.73-.27.36-.28.38-.29.37-.29.38-.31.38-.31.37-.33.38-.33.39-.34.38-.35.39-.35.38-.37.39-.37.39-.37.38-.39.39-.4.39-.4.39-.41.39-.42.39-.42.4-.43.39-.44.39-.44.39-.45.39-.46.4-.47.39-.47.39-.48.39-.48.39-.49.39-.5.39-.5.39-.51.38-.51.39-.52.38-.52.39-.53.38-.54.38-.54.38-.55.38-.55.37-.55.38-.56.37-.57.37-.57.37-.58.36-.57.37-.59.36-.58.35-.6.36-.59.35-.6.35-.61.35-.6.35-.62.33-.61.34-.62.34-.62.33-.63.32-.63.33-.62.32-.64.32-.64.3-.64.31-.64.3-.63.3-.64.29-.63.28-.63.27-.62.27-.62.27-.62.25-.61.24-.61.25-.61.23-.61.23-.59.22-.6.21-.59.21-.59.19-.58.2-.58.18-.57.18-.57.17-.56.16-.56.16-.56.15-.55.15-.54.13-.54.13-.54.12-.53.12-.52.1-.52.11-.51.09-.5.08-.5.09-.5.07-.48.07-.49.05-.47.06-.47,0-.46,0-.46,0-.45,0-.44,0h-1.7l-.41,0-.4,0-.39,0-.38,0-.38,0-.37-.06-.36-.06-.35-.06-.35-.08-.33-.08-.33-.09-.32-.1-.31-.1-.31-.11-.29-.12-.29-.12-.27-.13-.27-.14Zm30.41-52.95-.89.42-.89.41-.87.43-.85.43-.85.43-.84.44-.82.44-.81.45-.8.45-.79.45-.78.46-.76.46-.75.46-.74.46-.73.48-.71.46-.7.47-.69.47-.67.47-.67.48-.65.47-.63.47-.63.48-.6.47-.6.47-.58.47-.57.47-.56.46-.54.46-.52.47-.52.46-.49.45-.49.46-.47.45-.46.44-.43.44-.43.44-.41.43-.4.43-.38.42-.37.41-.35.41-.33.4-.32.4-.31.39-.28.38-.28.37-.26.36-.24.36-.22.35-.21.34-.2.33-.18.32-.08.16-.08.15-.07.15-.07.15-.06.14-.07.15-.06.14,0,.14-.05.13,0,.13,0,.13,0,.13,0,.12,0,.12,0,.12,0,.11,0,.11v.61l0,.1,0,.09,0,.1,0,.1,0,.09,0,.09.05.09,0,.09.05.09,0,.09.06.09.06.08.07.09.07.09.07.08.08.08.08.08.17.16.2.16.21.14.22.14.24.14.26.13.27.12.29.12.3.11.32.1.33.1.35.08.37.08.38.08.39.06.41.06.43,0,.43,0,.46,0,.47,0h2l.53,0,.56,0,.56-.05.58-.07.6-.07.6-.08.62-.1.63-.11.65-.12.66-.13.67-.14.69-.16.69-.17.71-.19.73-.19.73-.21.75-.23.76-.23.77-.26.79-.26.79-.28.81-.29.82-.32.83-.32.85-.34.85-.35.87-.37.87-.4.89-.4.9-.41.9-.43.89-.44.88-.44.87-.44.85-.46.85-.45.83-.46.82-.46.81-.46.8-.47.78-.47.78-.47.76-.48.75-.48.73-.47.73-.49.71-.48.7-.48L335,209l.67-.48.66-.49.65-.48.64-.48.62-.47.6-.48.6-.47.59-.47.56-.47.56-.47.54-.46.52-.46.52-.46.5-.45.48-.45.47-.44.46-.44.44-.44.43-.43.41-.42.39-.42.39-.41.37-.41.35-.39.34-.39.32-.39.3-.37.29-.37.28-.36.26-.35.24-.35.23-.33.21-.32.2-.32.18-.31.08-.15.08-.14.07-.14.08-.15.06-.14.07-.13.06-.13.05-.14.05-.12,0-.13.05-.12,0-.12,0-.11,0-.12,0-.11,0-.1,0-.11v-.48l0-.09v-.09l0-.09,0-.09,0-.09,0-.08,0-.09,0-.08-.05-.09,0-.08-.05-.08-.06-.08-.06-.08-.07-.08-.07-.08-.07-.07-.08-.08-.07-.07-.18-.15-.19-.13-.21-.14-.22-.12-.24-.13-.25-.11-.27-.11-.29-.11-.3-.1-.32-.09-.33-.08-.35-.08-.36-.07-.38-.06-.39-.06-.41,0-.43,0-.43,0-.45,0-.47,0h-1.49l-.52,0-.54,0-.55,0-.56,0-.59.07-.59.07-.61.08-.62.09-.63.1-.65.11-.66.12-.67.14-.69.15-.7.16-.71.17-.73.18-.73.2-.75.21-.76.22-.78.24-.78.25-.8.26-.81.28-.82.29-.84.3-.85.33-.85.33-.87.34-.88.37-.9.38-.9.4Z"/><polygon class="b" points="229.08 87.8 186.76 62.96 186.76 24.84 229.08 49.67 229.08 87.8"/><polygon class="c" points="229.08 87.8 271.4 62.96 271.4 24.84 229.08 49.67 229.08 87.8"/><polygon class="d" points="229.08 0 186.76 24.84 229.08 49.67 271.4 24.84 229.08 0"/></svg>