<svg xmlns="http://www.w3.org/2000/svg" viewBox="0 0 454.16 444.97"><defs><style>.a{fill:none;stroke:#000;stroke-miterlimit:10;}.b{fill:#c4692c;}.c{fill:#f58536;}.d{fill:#a0501a;}.e{fill:#fff;}</style></defs><title>Asset 166</title><polygon class="a" points="227.08 179.05 0.99 311.72 227.08 444.39 453.17 311.72 227.08 179.05"/><polygon class="b" points="240.18 399.38 71.47 300.38 71.47 111.52 240.18 210.52 240.18 399.38"/><polygon class="c" points="240.18 399.38 408.9 300.38 408.9 111.52 240.18 210.52 240.18 399.38"/><polygon class="d" points="240.18 12.52 71.47 111.52 240.18 210.52 408.9 111.52 240.18 12.52"/><polygon class="b" points="86.53 356.65 46.69 333.27 46.69 297.38 86.53 320.76 86.53 356.65"/><polygon class="c" points="86.53 356.65 126.38 333.27 126.38 297.38 86.53 320.76 86.53 356.65"/><polygon class="d" points="86.53 274 46.69 297.38 86.53 320.76 126.38 297.38 86.53 274"/><path class="e" d="M52,321.5,80.18,338V323.85L52,307.32Zm19.17-.24,6.78,4v9.21l-6.78-4Zm-8.6-5.05,6.68,3.92v9.22l-6.68-3.92Zm-8.47-5,6.58,3.88v9.22l-6.58-3.87Z"/><path class="e" d="M311.05,214.61l.89-.37.89-.37.87-.35.88-.33.86-.33.86-.31.85-.3L318,212l.84-.27.83-.26.82-.25.81-.23.8-.23.79-.21.78-.19.78-.19.76-.17.75-.16.74-.14.74-.14.72-.12.71-.11.69-.1.69-.08.67-.07.66-.06.65-.05.63,0,.62,0h1.2l.58,0,.57,0,.55,0,.53.05.52.07.26,0,.25,0,.24,0,.24,0,.24.05.24.05.23.06.22.05.22.07.22.06.22.07.2.07.21.07.2.08.2.07.19.09.19.08.18.09.18.09.17.1.17.1.17.1.16.1.15.11.15.11.15.11.14.12.14.12.13.13.13.12.12.13.12.13.11.14.11.14.1.14.1.14.09.15.09.15.08.16.07.15.07.16.07.17.06.17.06.16.05.18,0,.17,0,.18,0,.19,0,.18,0,.19v.19l0,.2v.4l-.92,76.39v.41l0,.21,0,.21,0,.22,0,.21,0,.22,0,.22,0,.23-.05.22-.06.23-.07.23-.07.23-.07.23-.08.24-.09.24-.09.24-.09.24-.1.25-.11.24-.11.25-.12.25-.12.25-.12.26-.13.25-.13.26-.14.26-.15.26-.15.26-.15.26-.15.27-.17.27-.16.26-.18.27-.17.28-.18.27-.19.27-.19.28-.19.27-.2.28-.2.28-.2.28-.21.28-.21.28-.22.29-.23.28-.22.29-.23.28-.24.29-.24.29-.24.29-.24.29-.25.29-.26.29-.51.59-.54.59-.55.59-.56.59-.57.6-.59.6-.6.59-.62.61-.63.59-.64.61-.66.6-.66.6-.68.6-.69.6-.7.61-.71.59-.72.6-.74.6-.74.59-.75.6-.77.58-.77.59-.78.59-.79.57-.8.58-.8.57-.82.57-.82.56-.83.56-.84.55-.85.55-.85.54-.85.53-.87.53-.87.52-.87.52-.88.5-.89.5-.87.48-.87.47-.86.46-.86.44-.85.42-.84.41-.84.4-.83.39-.82.37-.81.35-.81.35-.8.33-.79.31-.77.3-.78.28-.76.28-.75.25-.74.24-.73.23-.72.21-.71.2-.69.18-.69.17-.68.15-.66.14-.65.12-.64.11-.63.1-.61.08-.6.06-.59.05-.57,0-.56,0h-1.07l-.51,0h-.26l-.24,0-.25,0-.24,0-.23,0-.23,0-.23,0-.23,0-.22-.05-.21-.06-.21,0-.21-.06-.21-.06-.19-.07-.2-.07-.19-.07-.19-.08-.18-.09-.18-.08-.17-.09-.17-.09-.17-.1-.15-.1-.16-.11-.15-.11-.15-.11-.14-.11-.13-.12-.14-.13-.12-.13-.13-.13-.11-.13-.11-.14-.11-.14-.11-.15-.1-.15-.09-.15-.09-.16-.08-.16-.08-.16-.07-.17-.07-.17-.06-.18-.06-.18-.05-.18,0-.19,0-.19,0-.2,0-.19,0-.21,0-.21,0-.21v-.43l.08-82.31v-.44l0-.23,0-.22,0-.23,0-.23,0-.23,0-.24.05-.23.05-.24.06-.23.06-.24.07-.24.07-.24.08-.25.09-.24.09-.25.09-.25.1-.25.11-.25.11-.25.11-.26.12-.25.13-.25.12-.26.14-.26.14-.26.14-.26.15-.26.15-.26.16-.26.16-.26.17-.27.17-.26.18-.27.18-.27.19-.26.19-.27.19-.27.2-.27.2-.27.21-.27.21-.27.22-.27.22-.27.22-.27.23-.27.23-.27.24-.28.24-.27.24-.28.25-.27.25-.27.26-.27.52-.56.54-.54.55-.55.57-.55.59-.54.59-.55.62-.54.62-.55.64-.54.65-.54.66-.54.68-.53.68-.54.7-.52.71-.53.73-.53.73-.51.74-.52.76-.51.76-.51.78-.5.78-.5.8-.5.8-.48.81-.49.82-.47.83-.47.84-.47.84-.46L304,218l.85-.44.87-.44.87-.43.88-.42.89-.42.89-.4.89-.4Zm-32.31,113V328l0,.1,0,.09,0,.09,0,.1,0,.08,0,.09,0,.09,0,.09.05.08.06.09.06.08.06.08.06.08.07.07.08.08.08.07.08.08.18.14.19.13.21.13.22.12.24.12.26.1.27.1.28.09.3.08.32.08.33.06.35.06.36.05.37,0,.39,0,.41,0h1.3l.46,0,.48,0,.49-.05.5,0,.52-.07.53-.07.54-.09.56-.1.57-.11.59-.13.6-.14.6-.14.63-.17.64-.17.65-.19.66-.21.67-.21.69-.23.7-.25.71-.26.73-.27.73-.29.75-.3.76-.31.77-.34.79-.35.79-.36.81-.38.82-.39.83-.41.84-.43.85-.44.87-.47.87-.47.89-.49.88-.51.88-.51.87-.52.86-.52.84-.52.83-.53.83-.53.81-.53.8-.53.79-.54.77-.53.77-.54.75-.55.74-.54.72-.53.72-.55.7-.54.7-.54.67-.54.67-.54.65-.53.64-.54.63-.53.61-.53.61-.53.58-.52.58-.53.56-.51.55-.52.53-.51.52-.5.51-.5.49-.5.48-.49.47-.48.45-.48.43-.47.43-.46.4-.46.39-.45.38-.45.37-.43.35-.43L337,300l.31-.41.31-.41.28-.39.28-.38.25-.38.25-.36.22-.35.21-.35.19-.33.18-.32.08-.15.08-.16.07-.15.07-.14.07-.15.06-.14.06-.14.05-.13,0-.14.05-.12,0-.13,0-.12,0-.12,0-.12,0-.11,0-.11,0-.1v-.3l.22-18.62-.27.39-.28.39-.29.39-.29.39-.3.4-.31.39-.33.4-.32.4-.34.41-.35.4-.35.41-.36.41-.37.4-.37.41-.39.41-.39.42-.4.41-.4.42-.42.41-.42.41-.43.42-.43.42-.44.42-.45.42-.45.41-.46.42-.47.42-.47.42-.48.41-.49.42-.49.42-.5.41-.5.42-.51.41-.52.42-.52.41-.52.42-.53.4-.54.41-.54.41-.55.41-.55.41-.56.4-.56.4-.57.41-.57.39-.57.4-.58.39-.58.39-.59.39-.59.39-.59.38-.6.39-.61.38-.6.37-.61.38-.62.37-.61.36-.62.36-.63.36-.62.36-.63.35-.63.35L309,301l-.63.33-.63.33-.63.32-.62.31-.62.3-.62.3-.61.29-.61.28-.6.27-.61.27-.6.26-.59.26-.59.24-.58.24-.59.24-.58.22-.57.22-.57.21-.56.21-.56.19-.56.19-.55.18-.54.18-.54.16-.54.16-.53.16-.52.14-.52.14-.51.13-.51.12-.5.12-.5.11-.49.1-.48.09-.48.09-.47.08-.46.07-.46.06-.46.06-.44,0-.44,0-.43,0-.43,0-.42,0h-1.59l-.39,0-.37,0-.36,0-.36,0-.35-.05-.35-.05-.33-.07-.32-.07-.32-.08-.31-.08-.3-.09-.29-.1-.29-.11-.27-.12-.26-.12Zm0-27.28v.35l0,.09,0,.1,0,.09,0,.09,0,.09,0,.09,0,.09,0,.09.05.09.06.08.06.09.06.08.06.08.08.08.07.07.08.08.08.08.18.14.19.15.21.13.23.12.24.12.26.12.27.1.29.1.3.09.31.09.34.07.35.07.36.06.37.05.39,0,.41,0,.42,0h1.83l.49,0,.51,0,.52-.05.53-.06.55-.08.56-.08.57-.09.59-.11.6-.12.61-.14.63-.14.64-.16.65-.17.67-.18.67-.2.69-.21.7-.22.72-.24.73-.26.74-.26.75-.28.76-.3.77-.31.79-.32.8-.34.81-.36.83-.37.83-.39.84-.4.86-.42.87-.43.87-.46.89-.47.89-.48.89-.48.87-.49.86-.5.84-.49.84-.51.83-.51.81-.5.8-.51.8-.52.77-.51.77-.52.76-.52.74-.52.73-.52.72-.52.71-.52.69-.52.68-.52.67-.52.66-.51.64-.52.63-.52.62-.51.6-.51.59-.51.58-.5.56-.51.55-.49.54-.5.52-.49.51-.48.5-.48.47-.48.47-.47.46-.46.43-.46.43-.46.4-.44.4-.44.38-.44.37-.42.34-.42.34-.41.32-.4.3-.39.29-.39.27-.38.26-.36.24-.36.23-.35.21-.33.19-.33.18-.31.08-.16.08-.15.07-.15.07-.14.07-.14.06-.15.06-.13.06-.13.05-.13,0-.14,0-.12,0-.12,0-.12,0-.11,0-.11,0-.11v-.1l0-.11v-.19l.21-18.67-.27.37-.28.38-.28.39-.3.38-.3.39-.32.38-.32.39-.33.4-.34.39-.34.39-.36.4-.36.4-.37.39-.38.41-.38.4-.4.4-.4.39-.4.41-.42.41-.42.4-.43.4-.44.41-.44.4-.45.4-.46.41-.46.41-.47.4-.47.4-.48.41-.49.4-.5.4-.5.4-.5.41-.51.4-.52.4-.52.4-.53.39-.53.4-.54.39-.55.4-.55.39-.55.39-.56.39-.56.38-.57.39-.57.38-.58.38-.58.38-.58.37-.59.37-.6.37-.6.37-.6.37-.6.36-.61.36-.62.35-.61.35-.62.35-.62.35-.63.34-.63.34-.63.33-.63.33-1.28.65-.63.31-.63.31-.63.3-.63.29L306,276l-.62.28-.61.27-.61.27-.61.26-.61.25-.6.24-.59.24-.6.23-.58.22-.59.22-.58.21-.58.2-.57.19-.56.19-.57.18-.55.17-.56.17-.54.16-.54.15-.54.14-.53.14-.53.13-.52.12-.52.12-.51.11-.5.1-.5.09-.49.09-.48.08-.49.07-.47.07-.47.06-.46.05-.45,0-.45,0-.44,0-.43,0h-2.06l-.39,0-.39,0-.37,0-.37,0-.36-.05-.35-.06-.35-.06-.33-.08-.33-.08-.32-.08-.31-.1-.3-.1-.29-.11-.28-.11-.28-.13-.26-.13Zm0-27.33v.34l0,.1,0,.09,0,.09,0,.1,0,.09,0,.09,0,.09,0,.09.06.09.05.08.06.09.06.08.07.09.07.08.07.08.08.08.09.08.18.15.19.14.21.14.23.14.24.12.26.13.27.11.29.1.3.1.32.1.33.08.35.08.36.06.38.07.39.05.41,0,.43,0,.44,0h1.39l.5,0,.5,0,.53,0,.53,0,.55-.06.56-.06.58-.08.59-.09.6-.1.61-.12.63-.12.65-.15.65-.15.67-.16.68-.18.69-.19.71-.2.72-.22.73-.23.74-.25.75-.26.77-.27.78-.29.79-.3.8-.32.81-.33.83-.35.84-.36.85-.38.85-.39.88-.41.88-.43.89-.44.9-.46.88-.46.88-.46.86-.47.85-.48.84-.48.83-.48.82-.48.8-.49.8-.49.78-.49.77-.5.76-.5.75-.49.73-.5.72-.5.71-.5.7-.5.68-.51.67-.49.66-.5.65-.5.63-.5.62-.49.6-.5.6-.49.58-.49.56-.48.56-.48.53-.48.53-.48.51-.47.5-.47.48-.46.47-.45.45-.46.44-.44.43-.44.41-.44.39-.43.39-.42.36-.42.35-.4.34-.4.32-.4.3-.38.29-.38.28-.37.26-.36.24-.35.23-.34.21-.33.19-.32.18-.31.08-.15.08-.15.08-.14.07-.15.06-.14.07-.14.06-.13.05-.13.05-.13,0-.13,0-.12,0-.12,0-.12,0-.11,0-.11,0-.11,0-.11v-.29l.22-18.74-.27.37-.28.37-.29.38-.3.37-.3.38-.32.38-.32.38-.33.39-.34.38-.35.38-.36.39-.36.38-.37.39-.38.39-.39.39-.39.39-.4.39-.41.39-.42.39-.43.4-.43.39-.43.39-.45.39-.45.39-.46.4-.46.39-.47.39-.48.39-.48.39-.5.39-.49.39-.5.38-.51.39-.52.39-.52.38-.52.39-.53.38-.53.38-.54.38-.55.38-.55.37-.56.37-.56.38-.56.37-.58.37-.57.36-.58.36-.58.37-.59.35-.59.36-.6.35-.6.35-.6.35-.61.34-.61.34-.62.34-.62.34-.62.32-.62.33-.63.33-.63.32-.64.31-.63.31-.64.31-.64.3-.64.3-.63.29-.63.28-.63.27-.63.27-.62.26-.62.26-.61.24-.61.25-.61.23-.6.23-.6.21-.59.22-.59.2-.59.2-.59.2-.57.18-.58.18-.57.17-.56.16-.56.16-.56.15-.55.15-.54.13-.54.13-.53.12-.53.12-.52.1-.52.11-.51.09-.51.08-.5.08-.49.08-.49.06-.48.06-.48.05-.47,0-.46,0-.46,0-.44,0H285l-.4,0-.4,0-.39,0-.39,0-.38,0-.36-.06-.37-.06-.35-.06-.34-.08-.34-.08-.33-.09-.32-.1-.31-.1-.3-.11-.29-.12-.29-.12-.28-.13-.26-.14Zm30.4-52.95-.89.42-.88.41-.87.42-.86.44-.85.43-.83.44-.83.44-.81.44-.8.46-.78.45-.78.46-.77.46-.75.46-.73.46-.73.47-.72.47-.7.47-.69.47-.67.47-.66.48-.65.47-.64.47-.62.48-.61.47-.6.47-.58.47-.57.46-.55.47-.54.46-.53.47-.51.46-.5.45-.48.45-.48.46-.45.44-.44.44-.43.44-.41.43-.39.42-.38.43-.37.41-.35.41-.34.4-.32.4-.3.38-.29.39L281,241l-.26.36-.24.36-.23.35-.21.34-.19.33-.18.32-.08.15-.08.16-.07.14-.07.16-.07.14-.06.15-.06.13-.05.14-.05.14-.05.13,0,.13,0,.13,0,.12,0,.12,0,.12,0,.11v.11l0,.11v.4l0,.1v.1l0,.09,0,.1,0,.09,0,.09,0,.1,0,.09,0,.09.05.09,0,.09.06.09.07.08.06.09.07.09.07.08.08.08.08.08.18.16.19.15.21.15.22.14.25.14.25.13.28.12.28.12.31.11.32.1.33.09.35.09.36.08.38.08.4.06.41.06.42,0,.44,0,.45,0,.47,0h2l.54,0,.55,0,.57,0,.58-.07.59-.07.61-.09.61-.09.64-.11.64-.12.66-.13.67-.14.69-.16.7-.18.71-.18.72-.19.74-.21.74-.23.76-.23.78-.26.78-.26.8-.28.8-.3.82-.31.84-.32.84-.35.86-.35.86-.37.88-.39.89-.4.9-.42.9-.42.89-.44.88-.44.86-.44.86-.46.84-.45.83-.46.82-.46.81-.46.8-.48.78-.46.78-.48.76-.47.75-.48.74-.47.72-.49.71-.48.7-.48.69-.48.67-.48.67-.48.65-.48.63-.48.62-.47.61-.48.6-.48.58-.46.57-.47.55-.47.54-.46.53-.47.51-.45.5-.45.48-.45.48-.45.45-.43.44-.44.43-.43L336,225l.4-.42.38-.41.37-.41.35-.4.34-.38.32-.39.31-.37.29-.37.27-.36.26-.35.25-.35.23-.33.21-.33.19-.31.18-.31.08-.15.08-.14.08-.14.07-.15.07-.14.06-.13.06-.14.05-.13.05-.12,0-.13,0-.12,0-.12,0-.12,0-.11,0-.11,0-.1v-.11l0-.1v-.56l0-.09,0-.09,0-.09,0-.08,0-.09,0-.08,0-.09L341,216l-.05-.08-.06-.08-.06-.08-.06-.08-.07-.08-.07-.07-.08-.08-.08-.07-.17-.15-.2-.14-.2-.13-.22-.13-.24-.12-.26-.11-.27-.12-.29-.1-.3-.1-.31-.09-.33-.08-.35-.08-.37-.07-.38-.06-.39-.06-.41-.05-.42,0-.44,0-.45,0-.47,0h-1.48l-.53,0-.53,0-.56,0-.56.05-.58.06-.6.07-.6.08-.62.09-.64.1-.64.12-.66.12-.68.14-.68.15-.7.16-.71.17-.73.18-.74.2-.74.21-.77.22-.77.24-.79.25-.8.26-.81.27-.82.3-.84.3-.84.32-.86.33-.87.35-.88.37-.89.38-.91.4Z"/><polygon class="b" points="396.43 194.78 365.75 176.77 365.74 149.13 396.43 167.13 396.43 194.78"/><polygon class="c" points="396.43 194.78 427.11 176.77 427.11 149.13 396.43 167.13 396.43 194.78"/><polygon class="d" points="396.43 131.13 365.74 149.13 396.43 167.13 427.11 149.13 396.43 131.13"/><polygon class="b" points="238.55 87.8 196.23 62.96 196.23 24.84 238.55 49.67 238.55 87.8"/><polygon class="c" points="238.55 87.8 280.87 62.96 280.87 24.84 238.55 49.67 238.55 87.8"/><polygon class="d" points="238.55 0 196.23 24.84 238.55 49.67 280.87 24.84 238.55 0"/></svg>