<svg xmlns="http://www.w3.org/2000/svg" viewBox="0 0 443.52 443.98"><defs><style>.a{fill:none;stroke:#000;stroke-miterlimit:10;}.b{fill:#c4692c;}.c{fill:#f58536;}.d{fill:#a0501a;}.e{fill:#fff;}</style></defs><title>Asset 130</title><polygon class="a" points="259.46 212.2 76.4 319.62 259.46 427.04 442.53 319.62 259.46 212.2"/><polygon class="b" points="258.3 279.81 210.22 251.61 210.22 208.3 258.3 236.51 258.3 279.81"/><polygon class="c" points="258.3 279.81 306.37 251.61 306.37 208.3 258.3 236.51 258.3 279.81"/><polygon class="d" points="258.3 180.09 210.22 208.3 258.3 236.51 306.37 208.3 258.3 180.09"/><polygon class="b" points="258.3 221.15 210.22 192.94 210.22 149.63 258.3 177.84 258.3 221.15"/><polygon class="c" points="258.3 221.15 306.37 192.94 306.37 149.63 258.3 177.84 258.3 221.15"/><polygon class="d" points="258.3 121.42 210.22 149.63 258.3 177.84 306.37 149.63 258.3 121.42"/><polygon class="b" points="258.3 157.18 210.22 128.97 210.22 85.66 258.3 113.87 258.3 157.18"/><polygon class="c" points="258.3 157.18 306.37 128.97 306.37 85.66 258.3 113.87 258.3 157.18"/><polygon class="d" points="258.3 57.45 210.22 85.66 258.3 113.87 306.37 85.66 258.3 57.45"/><polygon class="b" points="316.35 314.45 268.28 286.24 268.28 242.93 316.35 271.14 316.35 314.45"/><polygon class="c" points="316.35 314.45 364.42 286.24 364.42 242.93 316.35 271.14 316.35 314.45"/><polygon class="d" points="316.35 214.72 268.28 242.93 316.35 271.14 364.42 242.93 316.35 214.72"/><polygon class="b" points="316.35 255.78 268.28 227.58 268.28 184.27 316.35 212.48 316.35 255.78"/><polygon class="c" points="316.35 255.78 364.42 227.58 364.42 184.27 316.35 212.48 316.35 255.78"/><polygon class="d" points="316.35 156.06 268.28 184.27 316.35 212.48 364.42 184.27 316.35 156.06"/><polygon class="b" points="316.35 191.81 268.28 163.6 268.28 120.3 316.35 148.5 316.35 191.81"/><polygon class="c" points="316.35 191.81 364.42 163.6 364.42 120.3 316.35 148.5 316.35 191.81"/><polygon class="d" points="316.35 92.09 268.28 120.3 316.35 148.5 364.42 120.3 316.35 92.09"/><polygon class="b" points="375.63 350.21 327.56 322 327.56 278.69 375.63 306.9 375.63 350.21"/><polygon class="c" points="375.63 350.21 423.7 322 423.7 278.69 375.63 306.9 375.63 350.21"/><polygon class="d" points="375.63 250.48 327.56 278.69 375.63 306.9 423.7 278.69 375.63 250.48"/><polygon class="b" points="375.63 291.54 327.56 263.33 327.56 220.03 375.63 248.24 375.63 291.54"/><polygon class="c" points="375.63 291.54 423.7 263.33 423.7 220.03 375.63 248.24 375.63 291.54"/><polygon class="d" points="375.63 191.82 327.56 220.03 375.63 248.24 423.7 220.03 375.63 191.82"/><polygon class="b" points="375.63 227.57 327.56 199.36 327.56 156.05 375.63 184.26 375.63 227.57"/><polygon class="c" points="375.63 227.57 423.7 199.36 423.7 156.05 375.63 184.26 375.63 227.57"/><polygon class="d" points="375.63 127.84 327.56 156.05 375.63 184.26 423.7 156.05 375.63 127.84"/><polygon class="b" points="202.17 313.05 154.09 284.85 154.09 241.54 202.17 269.74 202.17 313.05"/><polygon class="c" points="202.17 313.05 250.24 284.85 250.24 241.54 202.17 269.74 202.17 313.05"/><polygon class="d" points="202.17 213.33 154.09 241.54 202.17 269.74 250.24 241.54 202.17 213.33"/><polygon class="b" points="202.17 254.39 154.09 226.18 154.09 182.87 202.17 211.08 202.17 254.39"/><polygon class="c" points="202.17 254.39 250.24 226.18 250.24 182.87 202.17 211.08 202.17 254.39"/><polygon class="d" points="202.17 154.66 154.09 182.87 202.17 211.08 250.24 182.87 202.17 154.66"/><polygon class="b" points="202.17 190.41 154.09 162.21 154.09 118.9 202.17 147.11 202.17 190.41"/><polygon class="c" points="202.17 190.41 250.24 162.21 250.24 118.9 202.17 147.11 202.17 190.41"/><polygon class="d" points="202.17 90.69 154.09 118.9 202.17 147.11 250.24 118.9 202.17 90.69"/><polygon class="b" points="260.22 347.69 212.15 319.48 212.15 276.17 260.22 304.38 260.22 347.69"/><polygon class="c" points="260.22 347.69 308.29 319.48 308.29 276.17 260.22 304.38 260.22 347.69"/><polygon class="d" points="260.22 247.96 212.15 276.17 260.22 304.38 308.29 276.17 260.22 247.96"/><polygon class="b" points="260.22 289.02 212.15 260.81 212.15 217.5 260.22 245.71 260.22 289.02"/><polygon class="c" points="260.22 289.02 308.29 260.81 308.29 217.5 260.22 245.71 260.22 289.02"/><polygon class="d" points="260.22 189.3 212.15 217.5 260.22 245.71 308.29 217.5 260.22 189.3"/><polygon class="b" points="260.22 225.05 212.15 196.84 212.15 153.53 260.22 181.74 260.22 225.05"/><polygon class="c" points="260.22 225.05 308.29 196.84 308.29 153.53 260.22 181.74 260.22 225.05"/><polygon class="d" points="260.22 125.33 212.15 153.53 260.22 181.74 308.29 153.53 260.22 125.33"/><polygon class="b" points="318.81 382.89 270.74 354.68 270.74 311.37 318.81 339.58 318.81 382.89"/><polygon class="c" points="318.81 382.89 366.89 354.68 366.89 311.37 318.81 339.58 318.81 382.89"/><polygon class="d" points="318.81 283.16 270.74 311.37 318.81 339.58 366.89 311.37 318.81 283.16"/><polygon class="b" points="319.5 324.78 271.43 296.57 271.43 253.26 319.5 281.47 319.5 324.78"/><polygon class="c" points="319.5 324.78 367.57 296.57 367.57 253.26 319.5 281.47 319.5 324.78"/><polygon class="d" points="319.5 225.06 271.43 253.26 319.5 281.47 367.57 253.26 319.5 225.06"/><polygon class="b" points="319.5 260.81 271.43 232.6 271.43 189.29 319.5 217.5 319.5 260.81"/><polygon class="c" points="319.5 260.81 367.57 232.6 367.57 189.29 319.5 217.5 319.5 260.81"/><polygon class="d" points="319.5 161.08 271.43 189.29 319.5 217.5 367.57 189.29 319.5 161.08"/><polygon class="b" points="142.81 346.29 94.74 318.08 94.74 274.77 142.81 302.98 142.81 346.29"/><polygon class="c" points="142.81 346.29 190.89 318.08 190.89 274.77 142.81 302.98 142.81 346.29"/><polygon class="d" points="142.81 246.56 94.74 274.77 142.81 302.98 190.89 274.77 142.81 246.56"/><polygon class="b" points="142.81 287.63 94.74 259.42 94.74 216.11 142.81 244.32 142.81 287.63"/><polygon class="c" points="142.81 287.63 190.89 259.42 190.89 216.11 142.81 244.32 142.81 287.63"/><polygon class="d" points="142.81 187.9 94.74 216.11 142.81 244.32 190.89 216.11 142.81 187.9"/><polygon class="b" points="142.81 223.65 94.74 195.44 94.74 152.13 142.81 180.34 142.81 223.65"/><polygon class="c" points="142.81 223.65 190.89 195.44 190.89 152.13 142.81 180.34 142.81 223.65"/><polygon class="d" points="142.81 123.93 94.74 152.13 142.81 180.34 190.89 152.13 142.81 123.93"/><polygon class="b" points="200.87 380.93 152.8 352.72 152.79 309.41 200.87 337.62 200.87 380.93"/><polygon class="c" points="200.87 380.93 248.94 352.72 248.94 309.41 200.87 337.62 200.87 380.93"/><polygon class="d" points="200.87 281.2 152.79 309.41 200.87 337.62 248.94 309.41 200.87 281.2"/><polygon class="b" points="200.87 322.26 152.8 294.05 152.79 250.74 200.87 278.95 200.87 322.26"/><polygon class="c" points="200.87 322.26 248.94 294.05 248.94 250.74 200.87 278.95 200.87 322.26"/><polygon class="d" points="200.87 222.53 152.79 250.74 200.87 278.95 248.94 250.74 200.87 222.53"/><polygon class="b" points="200.87 258.29 152.8 230.08 152.79 186.77 200.87 214.98 200.87 258.29"/><polygon class="c" points="200.87 258.29 248.94 230.08 248.94 186.77 200.87 214.98 200.87 258.29"/><polygon class="d" points="200.87 158.56 152.79 186.77 200.87 214.98 248.94 186.77 200.87 158.56"/><polygon class="b" points="260.15 416.69 212.07 388.48 212.07 345.17 260.15 373.38 260.15 416.69"/><polygon class="c" points="260.15 416.69 308.22 388.48 308.22 345.17 260.15 373.38 260.15 416.69"/><polygon class="d" points="260.15 316.96 212.07 345.17 260.15 373.38 308.22 345.17 260.15 316.96"/><polygon class="b" points="260.15 358.02 212.07 329.81 212.07 286.5 260.15 314.71 260.15 358.02"/><polygon class="c" points="260.15 358.02 308.22 329.81 308.22 286.5 260.15 314.71 260.15 358.02"/><polygon class="d" points="260.15 258.29 212.07 286.5 260.15 314.71 308.22 286.5 260.15 258.29"/><polygon class="b" points="260.15 294.05 212.07 265.84 212.07 222.53 260.15 250.74 260.15 294.05"/><polygon class="c" points="260.15 294.05 308.22 265.84 308.22 222.53 260.15 250.74 260.15 294.05"/><polygon class="d" points="260.15 194.32 212.07 222.53 260.15 250.74 308.22 222.53 260.15 194.32"/><polygon class="a" points="259.46 7.28 76.4 114.7 259.46 222.12 442.53 114.7 259.46 7.28"/><polygon class="a" points="259.46 427.04 76.4 319.62 76.4 114.7 259.46 222.12 259.46 427.04"/><polygon class="a" points="259.46 427.04 442.53 319.62 442.53 114.7 259.46 222.12 259.46 427.04"/><polygon class="b" points="253.66 99.73 205.59 71.52 205.59 28.21 253.66 56.42 253.66 99.73"/><polygon class="c" points="253.66 99.73 301.74 71.52 301.74 28.21 253.66 56.42 253.66 99.73"/><polygon class="d" points="253.66 0 205.59 28.21 253.66 56.42 301.74 28.21 253.66 0"/><polygon class="b" points="54.21 409.6 0 377.94 0 235.8 54.21 267.45 54.21 409.6"/><path class="e" d="M6.84,301l38.31,22.36V304.14L6.84,281.76Zm26.07-.33L42.14,306V318.5l-9.23-5.39Zm-11.7-6.83,9.09,5.3v12.48l-9.09-5.3ZM9.69,287.05l9,5.24v12.48l-9-5.23Z"/><polygon class="c" points="54.21 409.6 108.42 377.94 108.42 235.8 54.21 267.45 54.21 409.6"/><polygon class="d" points="54.21 204.15 0 235.8 54.21 267.45 108.42 235.8 54.21 204.15"/><path class="e" d="M7.24,277l38.32,22.35V280.14L7.24,257.77Zm26.08-.34L42.55,282V294.5l-9.23-5.39Zm-11.7-6.83,9.09,5.31v12.48l-9.09-5.31ZM10.1,263.05l9,5.25v12.48l-9-5.23Z"/><polygon class="b" points="109.57 443.98 66.34 418.61 66.34 379.66 109.57 405.03 109.57 443.98"/><polygon class="c" points="109.57 443.98 152.8 418.61 152.8 379.66 109.57 405.03 109.57 443.98"/><polygon class="d" points="109.57 354.29 66.34 379.66 109.57 405.03 152.8 379.66 109.57 354.29"/><path class="e" d="M72.11,405.84l30.56,17.92V408.38L72.11,390.45Zm20.8-.27,7.36,4.32v10l-7.36-4.31Zm-9.33-5.47,7.25,4.25v10l-7.25-4.25Zm-9.19-5.41,7.14,4.2v10l-7.14-4.19Z"/></svg>