<svg xmlns="http://www.w3.org/2000/svg" viewBox="0 0 440.86 447.69"><defs><style>.a{fill:none;stroke:#000;stroke-miterlimit:10;}.b{fill:#c4692c;}.c{fill:#f58536;}.d{fill:#a0501a;}.e{fill:#fff;}</style></defs><title>Asset 128</title><polygon class="a" points="256.81 212.2 73.74 319.62 256.81 427.04 439.87 319.62 256.81 212.2"/><polygon class="b" points="255.64 161.18 207.57 132.97 207.57 89.66 255.64 117.87 255.64 161.18"/><polygon class="c" points="255.64 161.18 303.71 132.97 303.71 89.66 255.64 117.87 255.64 161.18"/><polygon class="d" points="255.64 61.45 207.57 89.66 255.64 117.87 303.71 89.66 255.64 61.45"/><polygon class="b" points="313.69 255.78 265.62 227.58 265.62 184.27 313.69 212.48 313.69 255.78"/><polygon class="c" points="313.69 255.78 361.77 227.58 361.77 184.27 313.69 212.48 313.69 255.78"/><polygon class="d" points="313.69 156.06 265.62 184.27 313.69 212.48 361.77 184.27 313.69 156.06"/><polygon class="b" points="313.74 195.81 265.67 167.6 265.67 124.3 313.74 152.5 313.74 195.81"/><polygon class="c" points="313.74 195.81 361.81 167.6 361.81 124.3 313.74 152.5 313.74 195.81"/><polygon class="d" points="313.74 96.09 265.67 124.3 313.74 152.5 361.81 124.3 313.74 96.09"/><polygon class="b" points="372.97 350.21 324.9 322 324.9 278.69 372.97 306.9 372.97 350.21"/><polygon class="c" points="372.97 350.21 421.04 322 421.04 278.69 372.97 306.9 372.97 350.21"/><polygon class="d" points="372.97 250.48 324.9 278.69 372.97 306.9 421.05 278.69 372.97 250.48"/><polygon class="b" points="372.97 291.54 324.9 263.33 324.9 220.03 372.97 248.24 372.97 291.54"/><polygon class="c" points="372.97 291.54 421.04 263.33 421.04 220.03 372.97 248.24 372.97 291.54"/><polygon class="d" points="372.97 191.82 324.9 220.03 372.97 248.24 421.05 220.03 372.97 191.82"/><polygon class="b" points="199.55 194.41 151.48 166.21 151.48 122.9 199.55 151.11 199.55 194.41"/><polygon class="c" points="199.55 194.41 247.63 166.21 247.63 122.9 199.55 151.11 199.55 194.41"/><polygon class="d" points="199.55 94.69 151.48 122.9 199.55 151.11 247.63 122.9 199.55 94.69"/><polygon class="b" points="257.56 289.02 209.49 260.81 209.49 217.5 257.56 245.71 257.56 289.02"/><polygon class="c" points="257.56 289.02 305.64 260.81 305.64 217.5 257.56 245.71 257.56 289.02"/><polygon class="d" points="257.56 189.3 209.49 217.5 257.56 245.71 305.64 217.5 257.56 189.3"/><polygon class="b" points="257.61 229.05 209.54 200.84 209.54 157.53 257.61 185.74 257.61 229.05"/><polygon class="c" points="257.61 229.05 305.68 200.84 305.68 157.53 257.61 185.74 257.61 229.05"/><polygon class="d" points="257.61 129.32 209.54 157.53 257.61 185.74 305.68 157.53 257.61 129.32"/><polygon class="b" points="316.16 382.89 268.08 354.68 268.08 311.37 316.16 339.58 316.16 382.89"/><polygon class="c" points="316.16 382.89 364.23 354.68 364.23 311.37 316.16 339.58 316.16 382.89"/><polygon class="d" points="316.16 283.16 268.08 311.37 316.16 339.58 364.23 311.37 316.16 283.16"/><polygon class="b" points="316.84 324.78 268.77 296.57 268.77 253.26 316.84 281.47 316.84 324.78"/><polygon class="c" points="316.84 324.78 364.92 296.57 364.92 253.26 316.84 281.47 316.84 324.78"/><polygon class="d" points="316.84 225.06 268.77 253.26 316.84 281.47 364.92 253.26 316.84 225.06"/><polygon class="b" points="140.16 346.29 92.08 318.08 92.08 274.77 140.16 302.98 140.16 346.29"/><polygon class="c" points="140.16 346.29 188.23 318.08 188.23 274.77 140.16 302.98 140.16 346.29"/><polygon class="d" points="140.16 246.56 92.08 274.77 140.16 302.98 188.23 274.77 140.16 246.56"/><polygon class="b" points="140.16 287.63 92.08 259.42 92.08 216.11 140.16 244.32 140.16 287.63"/><polygon class="c" points="140.16 287.63 188.23 259.42 188.23 216.11 140.16 244.32 140.16 287.63"/><polygon class="d" points="140.16 187.9 92.08 216.11 140.16 244.32 188.23 216.11 140.16 187.9"/><polygon class="b" points="140.2 227.65 92.13 199.44 92.13 156.13 140.2 184.34 140.2 227.65"/><polygon class="c" points="140.2 227.65 188.28 199.44 188.28 156.13 140.2 184.34 140.2 227.65"/><polygon class="d" points="140.2 127.93 92.13 156.13 140.2 184.34 188.28 156.13 140.2 127.93"/><polygon class="b" points="198.21 380.93 150.14 352.72 150.14 309.41 198.21 337.62 198.21 380.93"/><polygon class="c" points="198.21 380.93 246.28 352.72 246.28 309.41 198.21 337.62 198.21 380.93"/><polygon class="d" points="198.21 281.2 150.14 309.41 198.21 337.62 246.29 309.41 198.21 281.2"/><polygon class="b" points="198.21 322.26 150.14 294.05 150.14 250.74 198.21 278.95 198.21 322.26"/><polygon class="c" points="198.21 322.26 246.28 294.05 246.28 250.74 198.21 278.95 198.21 322.26"/><polygon class="d" points="198.21 222.53 150.14 250.74 198.21 278.95 246.29 250.74 198.21 222.53"/><polygon class="b" points="198.26 262.29 150.18 234.08 150.18 190.77 198.26 218.98 198.26 262.29"/><polygon class="c" points="198.26 262.29 246.33 234.08 246.33 190.77 198.26 218.98 198.26 262.29"/><polygon class="d" points="198.26 162.56 150.18 190.77 198.26 218.98 246.33 190.77 198.26 162.56"/><polygon class="b" points="257.49 416.69 209.42 388.48 209.42 345.17 257.49 373.38 257.49 416.69"/><polygon class="c" points="257.49 416.69 305.56 388.48 305.56 345.17 257.49 373.38 257.49 416.69"/><polygon class="d" points="257.49 316.96 209.42 345.17 257.49 373.38 305.56 345.17 257.49 316.96"/><polygon class="b" points="257.49 358.02 209.42 329.81 209.42 286.5 257.49 314.71 257.49 358.02"/><polygon class="c" points="257.49 358.02 305.56 329.81 305.56 286.5 257.49 314.71 257.49 358.02"/><polygon class="d" points="257.49 258.29 209.42 286.5 257.49 314.71 305.56 286.5 257.49 258.29"/><polygon class="a" points="256.81 7.28 73.74 114.7 256.81 222.12 439.87 114.7 256.81 7.28"/><polygon class="a" points="256.81 427.04 73.75 319.62 73.74 114.7 256.81 222.12 256.81 427.04"/><polygon class="a" points="256.81 427.04 439.87 319.62 439.87 114.7 256.81 222.12 256.81 427.04"/><polygon class="b" points="251.01 99.73 202.93 71.52 202.93 28.21 251.01 56.42 251.01 99.73"/><polygon class="c" points="251.01 99.73 299.08 71.52 299.08 28.21 251.01 56.42 251.01 99.73"/><polygon class="d" points="251.01 0 202.93 28.21 251.01 56.42 299.08 28.21 251.01 0"/><polygon class="b" points="54.21 407.32 0 375.67 0 233.53 54.21 265.18 54.21 407.32"/><path class="e" d="M6.84,298.69,45.15,321V301.86L6.84,279.49Zm26.07-.33,9.23,5.38v12.48l-9.23-5.38Zm-11.7-6.84,9.09,5.31v12.48L21.21,304ZM9.69,284.77l9,5.25V302.5l-9-5.23Z"/><polygon class="c" points="54.21 407.32 108.42 375.67 108.42 233.53 54.21 265.18 54.21 407.32"/><polygon class="d" points="54.21 201.87 0 233.53 54.21 265.18 108.42 233.53 54.21 201.87"/><path class="e" d="M7.24,274.69l38.32,22.36V277.87L7.24,255.49Zm26.08-.33,9.23,5.39v12.48l-9.23-5.39Zm-11.7-6.83,9.09,5.3v12.48L21.62,280ZM10.1,260.78l9,5.24V278.5l-9-5.23Z"/><polygon class="b" points="114.72 447.69 71.49 422.32 71.49 383.38 114.72 408.74 114.72 447.69"/><polygon class="c" points="114.72 447.69 157.95 422.32 157.95 383.38 114.72 408.74 114.72 447.69"/><polygon class="d" points="114.72 358.01 71.49 383.38 114.72 408.74 157.95 383.38 114.72 358.01"/><path class="e" d="M77.27,409.55l30.55,17.92V412.1L77.27,394.17Zm20.79-.27,7.36,4.32v10l-7.36-4.32Zm-9.33-5.47L96,408.06v10l-7.25-4.25Zm-9.19-5.41,7.14,4.2v10l-7.14-4.19Z"/></svg>