<svg xmlns="http://www.w3.org/2000/svg" viewBox="0 0 420.41 427.91"><defs><style>.a{fill:none;stroke:#000;stroke-miterlimit:10;}.b{fill:#c4692c;}.c{fill:#f58536;}.d{fill:#a0501a;}.e{fill:#fff;}</style></defs><title>Asset 120</title><polygon class="a" points="236.36 212.2 53.3 319.62 236.36 427.04 419.43 319.62 236.36 212.2"/><polygon class="b" points="235.19 279.81 187.12 251.61 187.12 208.3 235.19 236.51 235.19 279.81"/><polygon class="c" points="235.19 279.81 283.26 251.61 283.26 208.3 235.19 236.51 235.19 279.81"/><polygon class="d" points="235.19 180.09 187.12 208.3 235.19 236.51 283.26 208.3 235.19 180.09"/><polygon class="b" points="293.25 314.45 245.17 286.24 245.17 242.93 293.25 271.14 293.25 314.45"/><polygon class="c" points="293.25 314.45 341.32 286.24 341.32 242.93 293.25 271.14 293.25 314.45"/><polygon class="d" points="293.25 214.72 245.17 242.93 293.25 271.14 341.32 242.93 293.25 214.72"/><polygon class="b" points="179.06 313.05 130.99 284.85 130.99 241.54 179.06 269.74 179.06 313.05"/><polygon class="c" points="179.06 313.05 227.13 284.85 227.13 241.54 179.06 269.74 179.06 313.05"/><polygon class="d" points="179.06 213.33 130.99 241.54 179.06 269.74 227.13 241.54 179.06 213.33"/><polygon class="a" points="236.36 7.28 53.3 114.7 236.36 222.12 419.43 114.7 236.36 7.28"/><polygon class="a" points="236.36 427.04 53.3 319.62 53.3 114.7 236.36 222.12 236.36 427.04"/><polygon class="a" points="236.36 427.04 419.42 319.62 419.42 114.7 236.36 222.12 236.36 427.04"/><polygon class="b" points="230.56 99.73 182.49 71.52 182.49 28.21 230.56 56.42 230.56 99.73"/><polygon class="c" points="230.56 99.73 278.63 71.52 278.63 28.21 230.56 56.42 230.56 99.73"/><polygon class="d" points="230.56 0 182.49 28.21 230.56 56.42 278.63 28.21 230.56 0"/><polygon class="b" points="43.23 406.64 0 381.28 0 342.33 43.23 367.7 43.23 406.64"/><polygon class="c" points="43.23 406.64 86.46 381.28 86.46 342.33 43.23 367.7 43.23 406.64"/><polygon class="d" points="43.23 316.96 0 342.33 43.23 367.7 86.46 342.33 43.23 316.96"/><path class="e" d="M5.78,368.51l30.56,17.91V371.05L5.78,353.12Zm20.79-.27,7.36,4.32v10l-7.36-4.32Zm-9.33-5.48L24.49,367v10l-7.25-4.25Zm-9.19-5.41,7.14,4.21v10l-7.14-4.19Z"/></svg>