<svg xmlns="http://www.w3.org/2000/svg" viewBox="0 0 420.41 427.91"><defs><style>.a{fill:none;stroke:#000;stroke-miterlimit:10;}.b{fill:#c4692c;}.c{fill:#f58536;}.d{fill:#a0501a;}.e{fill:#fff;}</style></defs><title>Asset 124</title><polygon class="a" points="236.36 212.2 53.3 319.62 236.36 427.04 419.43 319.62 236.36 212.2"/><polygon class="b" points="235.19 279.81 187.12 251.61 187.12 208.3 235.19 236.51 235.19 279.81"/><polygon class="c" points="235.19 279.81 283.26 251.61 283.26 208.3 235.19 236.51 235.19 279.81"/><polygon class="d" points="235.19 180.09 187.12 208.3 235.19 236.51 283.26 208.3 235.19 180.09"/><polygon class="b" points="235.19 221.15 187.12 192.94 187.12 149.63 235.19 177.84 235.19 221.15"/><polygon class="c" points="235.19 221.15 283.26 192.94 283.26 149.63 235.19 177.84 235.19 221.15"/><polygon class="d" points="235.19 121.42 187.12 149.63 235.19 177.84 283.26 149.63 235.19 121.42"/><polygon class="b" points="235.19 160.18 187.12 131.97 187.12 88.66 235.19 116.87 235.19 160.18"/><polygon class="c" points="235.19 160.18 283.26 131.97 283.26 88.66 235.19 116.87 235.19 160.18"/><polygon class="d" points="235.19 60.45 187.12 88.66 235.19 116.87 283.26 88.66 235.19 60.45"/><polygon class="b" points="293.25 314.45 245.17 286.24 245.17 242.93 293.25 271.14 293.25 314.45"/><polygon class="c" points="293.25 314.45 341.32 286.24 341.32 242.93 293.25 271.14 293.25 314.45"/><polygon class="d" points="293.25 214.72 245.17 242.93 293.25 271.14 341.32 242.93 293.25 214.72"/><polygon class="b" points="293.25 255.78 245.17 227.58 245.17 184.27 293.25 212.48 293.25 255.78"/><polygon class="c" points="293.25 255.78 341.32 227.58 341.32 184.27 293.25 212.48 293.25 255.78"/><polygon class="d" points="293.25 156.06 245.17 184.27 293.25 212.48 341.32 184.27 293.25 156.06"/><polygon class="b" points="293.25 194.81 245.17 166.6 245.17 123.3 293.25 151.5 293.25 194.81"/><polygon class="c" points="293.25 194.81 341.32 166.6 341.32 123.3 293.25 151.5 293.25 194.81"/><polygon class="d" points="293.25 95.09 245.17 123.3 293.25 151.5 341.32 123.3 293.25 95.09"/><polygon class="b" points="352.52 350.21 304.45 322 304.45 278.69 352.52 306.9 352.52 350.21"/><polygon class="c" points="352.52 350.21 400.6 322 400.6 278.69 352.52 306.9 352.52 350.21"/><polygon class="d" points="352.52 250.48 304.45 278.69 352.52 306.9 400.6 278.69 352.52 250.48"/><polygon class="b" points="179.06 313.05 130.99 284.85 130.99 241.54 179.06 269.74 179.06 313.05"/><polygon class="c" points="179.06 313.05 227.13 284.85 227.13 241.54 179.06 269.74 179.06 313.05"/><polygon class="d" points="179.06 213.33 130.99 241.54 179.06 269.74 227.13 241.54 179.06 213.33"/><polygon class="b" points="179.06 254.39 130.99 226.18 130.99 182.87 179.06 211.08 179.06 254.39"/><polygon class="c" points="179.06 254.39 227.13 226.18 227.13 182.87 179.06 211.08 179.06 254.39"/><polygon class="d" points="179.06 154.66 130.99 182.87 179.06 211.08 227.13 182.87 179.06 154.66"/><polygon class="b" points="179.06 193.41 130.99 165.21 130.99 121.9 179.06 150.11 179.06 193.41"/><polygon class="c" points="179.06 193.41 227.13 165.21 227.13 121.9 179.06 150.11 179.06 193.41"/><polygon class="d" points="179.06 93.69 130.99 121.9 179.06 150.11 227.13 121.9 179.06 93.69"/><polygon class="b" points="237.12 347.69 189.04 319.48 189.04 276.17 237.12 304.38 237.12 347.69"/><polygon class="c" points="237.12 347.69 285.19 319.48 285.19 276.17 237.12 304.38 237.12 347.69"/><polygon class="d" points="237.12 247.96 189.04 276.17 237.12 304.38 285.19 276.17 237.12 247.96"/><polygon class="b" points="119.71 346.29 71.64 318.08 71.64 274.77 119.71 302.98 119.71 346.29"/><polygon class="c" points="119.71 346.29 167.78 318.08 167.78 274.77 119.71 302.98 119.71 346.29"/><polygon class="d" points="119.71 246.56 71.64 274.77 119.71 302.98 167.78 274.77 119.71 246.56"/><polygon class="a" points="236.36 7.28 53.3 114.7 236.36 222.12 419.43 114.7 236.36 7.28"/><polygon class="a" points="236.36 427.04 53.3 319.62 53.3 114.7 236.36 222.12 236.36 427.04"/><polygon class="a" points="236.36 427.04 419.42 319.62 419.42 114.7 236.36 222.12 236.36 427.04"/><polygon class="b" points="230.56 99.73 182.49 71.52 182.49 28.21 230.56 56.42 230.56 99.73"/><polygon class="c" points="230.56 99.73 278.63 71.52 278.63 28.21 230.56 56.42 230.56 99.73"/><polygon class="d" points="230.56 0 182.49 28.21 230.56 56.42 278.63 28.21 230.56 0"/><polygon class="b" points="43.23 406.64 0 381.28 0 342.33 43.23 367.7 43.23 406.64"/><polygon class="c" points="43.23 406.64 86.46 381.28 86.46 342.33 43.23 367.7 43.23 406.64"/><polygon class="d" points="43.23 316.96 0 342.33 43.23 367.7 86.46 342.33 43.23 316.96"/><path class="e" d="M5.78,368.51l30.56,17.91V371.05L5.78,353.12Zm20.79-.27,7.36,4.32v10l-7.36-4.32Zm-9.33-5.48L24.49,367v10l-7.25-4.25Zm-9.19-5.41,7.14,4.21v10l-7.14-4.19Z"/></svg>