<svg xmlns="http://www.w3.org/2000/svg" viewBox="0 0 266.4 164.41"><defs><style>.a{fill:#f2f2f2;}.b{fill:#c4692c;}.c{fill:#f58536;}.d{fill:#a0501a;}.e{fill:#fff;}</style></defs><title>Asset 101</title><polygon class="a" points="133.2 8.09 0 86.25 133.2 164.41 266.4 86.25 133.2 8.09"/><polygon class="b" points="134.08 100.96 108.05 85.69 108.05 17.09 134.08 32.37 134.08 100.96"/><polygon class="c" points="134.08 100.96 160.11 85.69 160.11 17.09 134.08 32.37 134.08 100.96"/><polygon class="d" points="134.08 1.82 108.05 17.09 134.08 32.37 160.11 17.09 134.08 1.82"/><polygon class="b" points="98 60.79 88.24 55 88.24 45.36 98 51.15 98 60.79"/><polygon class="c" points="98 60.79 124.28 45.34 124.28 35.7 98 51.15 98 60.79"/><polygon class="d" points="114.52 29.9 88.24 45.36 98 51.15 124.28 35.7 114.52 29.9"/><polygon class="b" points="121.94 109.42 112.99 104.11 112.99 95.95 121.94 101.26 121.94 109.42"/><polygon class="c" points="121.94 109.42 130.89 104.11 130.89 95.95 121.94 101.26 121.94 109.42"/><polygon class="d" points="121.94 90.63 112.99 95.95 121.94 101.26 130.89 95.95 121.94 90.63"/><path class="e" d="M114.19,101.43l6.32,3.75V102l-6.32-3.75Zm4.3-.05,1.52.9v2.1l-1.52-.91Zm-1.93-1.15,1.5.89v2.09l-1.5-.89Zm-1.9-1.14,1.48.89v2.09l-1.48-.88Z"/><polygon class="b" points="134.08 18.79 125.13 13.47 125.13 5.31 134.08 10.63 134.08 18.79"/><polygon class="c" points="134.08 18.79 143.03 13.47 143.03 5.31 134.08 10.63 134.08 18.79"/><polygon class="d" points="134.08 0 125.13 5.31 134.08 10.63 143.03 5.31 134.08 0"/><path class="e" d="M126.33,10.8l6.32,3.75V11.33l-6.32-3.75Zm4.3-.06,1.52.91v2.09l-1.52-.9ZM128.7,9.6l1.5.89v2.09l-1.5-.89Zm-1.9-1.14,1.48.88v2.1l-1.48-.88Z"/><polygon class="b" points="178.81 80 178.69 91.34 170.35 96.18 170.47 84.83 178.81 80"/><polygon class="c" points="178.81 80 154.2 65.94 145.86 70.78 170.47 84.84 178.81 80"/><polygon class="d" points="145.75 82.2 170.35 96.18 170.47 84.83 145.86 70.78 145.75 82.2"/></svg>