<svg xmlns="http://www.w3.org/2000/svg" viewBox="0 0 266.4 349.46">
    <defs>
        <style>.a{fill:#f2f2f2;}.b{fill:#f58536;}.c{fill:#a0501a;}.d{fill:#c69710;}.e{fill:#ecba16;}</style>
    </defs>
    <title>Asset 106</title>
    <polygon class="a" points="133.2 193.14 0 271.3 133.2 349.46 266.4 271.3 133.2 193.14"/>
    <polygon class="b" points="131.19 202.07 96.33 292.58 160.96 295.08 131.19 202.07"/>
    <polygon class="c" points="161.28 257.14 131.19 202.07 160.96 295.08 161.28 257.14"/>
    <polygon class="c" points="100.34 254.47 131.19 202.07 96.33 292.58 100.34 254.47"/>
    <polygon class="d"
             points="234.1 145.81 216.29 131.13 242.07 88.66 221.47 72 187.63 139.03 203.02 151.78 173.66 215.2 234.1 145.81"/>
    <polygon class="e"
             points="230.23 144.94 212.42 130.27 238.2 87.8 217.6 71.14 183.76 138.17 199.15 150.92 169.79 214.33 230.23 144.94"/>
    <polygon class="d"
             points="46.06 141.91 61.34 127.52 40.21 84.65 57.88 68.32 85.43 135.86 72.23 148.37 96.06 212.24 46.06 141.91"/>
    <polygon class="e"
             points="49.34 141.11 64.62 126.72 43.49 83.84 61.16 67.52 88.72 135.06 75.51 147.57 99.34 211.43 49.34 141.11"/>
    <polygon class="d"
             points="155.78 94.15 137.96 76.81 144 19.41 123.38 0 119.25 89.71 134.7 105.09 133.88 192.34 155.78 94.15"/>
    <polygon class="e"
             points="151.87 94.78 134.05 77.43 140.09 20.04 119.46 0.63 115.34 90.33 130.79 105.72 129.96 192.96 151.87 94.78"/>
</svg>