<svg xmlns="http://www.w3.org/2000/svg" viewBox="0 0 266.4 278.91"><defs><style>.a{fill:#f2f2f2;}.b{fill:#f58536;}.c{fill:#a0501a;}.d{fill:#c69710;}.e{fill:#ecba16;}</style></defs><title>Asset 105</title><polygon class="a" points="133.2 122.59 0 200.75 133.2 278.91 266.4 200.75 133.2 122.59"/><polygon class="b" points="134.96 134.73 100.97 219.56 165.44 221.4 134.96 134.73"/><polygon class="c" points="165.44 185.95 134.96 134.73 165.44 221.4 165.44 185.95"/><polygon class="c" points="104.64 183.93 134.96 134.73 100.97 219.56 104.64 183.93"/><polygon class="d" points="163.92 62.63 146.16 51.63 154.66 12.28 134.1 0 126.24 61.16 141.64 70.97 137.22 130.02 163.92 62.63"/><polygon class="e" points="160.02 63.25 142.26 52.25 150.76 12.89 130.2 0.62 122.34 61.78 137.75 71.59 133.32 130.64 160.02 63.25"/><polygon class="b" points="134.96 134.73 100.97 219.56 165.44 221.4 134.96 134.73"/><polygon class="c" points="165.44 185.95 134.96 134.73 165.44 221.4 165.44 185.95"/><polygon class="c" points="104.64 183.93 134.96 134.73 100.97 219.56 104.64 183.93"/></svg>