<svg xmlns="http://www.w3.org/2000/svg" viewBox="0 0 62.81 67.7"><defs><style>.cls-1{isolation:isolate;}.cls-2{fill:#d87530;}.cls-3{fill:#e1e1e1;}.cls-4{fill:#924f20;}.cls-5{fill:#7f451c;}</style></defs><title>Asset 4</title><g id="Layer_2" data-name="Layer 2"><g id="Layer_1-2" data-name="Layer 1"><g class="cls-1"><path class="cls-2" d="M52.62,7.39,18.78.2A9.22,9.22,0,0,0,7.89,7.1L.23,40.53A8.85,8.85,0,0,0,7.09,51.18l33.84,7.19a9.21,9.21,0,0,0,10.89-6.89l7.67-33.43A8.87,8.87,0,0,0,52.62,7.39Z"/><polygon class="cls-2" points="24.9 22.88 27.24 12.66 19.46 11.01 17.12 21.23 24.9 22.88"/><polygon class="cls-2" points="34.9 25 37.24 14.78 29.46 13.13 27.12 23.35 34.9 25"/><polygon class="cls-2" points="44.89 27.13 47.24 16.9 39.46 15.25 37.11 25.47 44.89 27.13"/><polygon class="cls-2" points="20.21 43.32 22.56 33.09 14.78 31.44 12.43 41.67 20.21 43.32"/><polygon class="cls-2" points="30.21 45.44 32.55 35.22 24.77 33.57 22.43 43.79 30.21 45.44"/><polygon class="cls-2" points="40.21 47.56 42.55 37.34 34.77 35.69 32.43 45.91 40.21 47.56"/><path class="cls-3" d="M17.54,8,14.05,23.22l32.76,7,3.5-15.26Zm-.42,13.27L19.46,11l7.78,1.65L24.9,22.88Zm10,2.12,2.34-10.22,7.78,1.65L34.9,25Zm17.77,3.78-7.78-1.66,2.35-10.22,7.78,1.65Z"/><path class="cls-3" d="M9.36,43.66l32.77,7,3.5-15.26-32.77-7Zm33.19-6.32L40.21,47.56l-7.78-1.65,2.34-10.22Zm-10-2.12L30.21,45.44l-7.78-1.65,2.34-10.22Zm-10-2.12L20.21,43.32l-7.78-1.65,2.35-10.23Z"/><path class="cls-4" d="M62.79,25.72c0-.18,0-.35,0-.53s0-.23,0-.35a1.34,1.34,0,0,0,0-.2,7.21,7.21,0,0,0-.13-1,1.62,1.62,0,0,0,0-.19,8.64,8.64,0,0,0-.27-1l-3.1-9.14a9.17,9.17,0,0,1,.27,1,1.42,1.42,0,0,1,0,.2,7.07,7.07,0,0,1,.13,1,1.34,1.34,0,0,1,0,.2c0,.29,0,.58,0,.88,0,.1,0,.21,0,.31a9.31,9.31,0,0,1-.18,1.16L51.82,51.48l3.1,9.14,7.67-33.43v-.07A10.27,10.27,0,0,0,62.77,26C62.78,25.93,62.78,25.82,62.79,25.72Z"/><path class="cls-5" d="M51.82,51.48a7.84,7.84,0,0,1-.23.83c0,.09-.07.17-.1.26a4.87,4.87,0,0,1-.21.53c0,.1-.09.21-.14.31l-.24.45c-.06.1-.11.2-.18.3s-.16.26-.25.39-.18.25-.27.38l-.27.33-.3.35-.27.27a7.23,7.23,0,0,1-.59.53,1.54,1.54,0,0,1-.19.17,9.75,9.75,0,0,1-.84.59l-.21.11a6.94,6.94,0,0,1-.71.38l-.3.14q-.36.15-.72.27l-.28.1c-.33.1-.67.18-1,.25l-.16,0a8.65,8.65,0,0,1-.89.1h-.34a6.77,6.77,0,0,1-.78,0l-.32,0a10.19,10.19,0,0,1-1.09-.15L7.09,51.18A8.91,8.91,0,0,1,.46,45.34l3.1,9.14a8.93,8.93,0,0,0,6.63,5.84L44,67.5a8.19,8.19,0,0,0,1.09.16l.32,0a6.77,6.77,0,0,0,.78,0h.34c.3,0,.6-.06.89-.1l.16,0a8.72,8.72,0,0,0,1-.24l.28-.1q.36-.12.72-.27l.3-.14a6.94,6.94,0,0,0,.71-.38l.21-.11c.29-.19.57-.38.84-.59l.19-.17c.2-.17.4-.34.59-.53l.12-.11.15-.17.3-.34c.1-.11.18-.22.27-.34a3.18,3.18,0,0,0,.27-.37,2.31,2.31,0,0,0,.14-.19c0-.06.07-.13.12-.2L54,63l.24-.45c0-.11.1-.21.14-.31s0-.09.07-.14l.14-.39c0-.09.07-.17.1-.26a7.84,7.84,0,0,0,.23-.83Z"/></g></g></g></svg>