<svg xmlns="http://www.w3.org/2000/svg" viewBox="0 0 266.4 184.49"><defs><style>.a{fill:#f2f2f2;}.b{fill:#c4692c;}.c{fill:#f58536;}.d{fill:#a0501a;}.e{fill:#fff;}</style></defs><title>Asset 96</title><polygon class="a" points="133.2 28.17 0 106.33 133.2 184.49 266.4 106.33 133.2 28.17"/><polygon class="b" points="155.63 99.71 129.6 84.43 129.6 15.84 155.63 31.12 155.63 99.71"/><polygon class="c" points="155.63 99.71 181.66 84.43 181.66 15.84 155.63 31.12 155.63 99.71"/><polygon class="d" points="155.63 0.57 129.6 15.84 155.63 31.12 181.66 15.84 155.63 0.57"/><polygon class="b" points="155.04 18.79 146.09 13.47 146.09 5.31 155.04 10.63 155.04 18.79"/><polygon class="c" points="155.04 18.79 163.99 13.47 163.99 5.31 155.04 10.63 155.04 18.79"/><polygon class="d" points="155.04 0 146.09 5.31 155.04 10.63 163.99 5.31 155.04 0"/><path class="e" d="M147.29,10.8l6.32,3.75V11.33l-6.32-3.75Zm4.3-.06,1.53.91v2.09l-1.53-.9ZM149.66,9.6l1.5.89v2.09l-1.5-.89Zm-1.9-1.14,1.48.88v2.1l-1.48-.88Z"/><polygon class="b" points="210.56 94.39 210.44 105.73 202.1 110.57 202.22 99.22 210.56 94.39"/><polygon class="c" points="210.56 94.39 185.95 80.33 177.61 85.17 202.22 99.23 210.56 94.39"/><polygon class="d" points="177.49 96.59 202.1 110.57 202.22 99.22 177.61 85.17 177.49 96.59"/><polygon class="b" points="87.46 125.87 74.68 118.28 74.68 105.65 87.46 113.24 87.46 125.87"/><polygon class="c" points="87.46 125.87 143.54 92.96 143.54 80.33 87.46 113.24 87.46 125.87"/><polygon class="d" points="130.76 72.75 74.68 105.65 87.46 113.24 143.54 80.33 130.76 72.75"/><polygon class="b" points="87.46 111.59 74.68 104.01 74.68 91.38 87.46 98.96 87.46 111.59"/><polygon class="c" points="87.46 111.59 143.54 78.69 143.54 66.06 87.46 98.96 87.46 111.59"/><polygon class="d" points="130.76 58.47 74.68 91.38 87.46 98.96 143.54 66.06 130.76 58.47"/><polygon class="b" points="87.46 97.5 74.68 89.92 74.68 77.29 87.46 84.88 87.46 97.5"/><polygon class="c" points="87.46 97.5 143.54 64.6 143.54 51.97 87.46 84.88 87.46 97.5"/><polygon class="d" points="130.76 44.38 74.68 77.29 87.46 84.88 143.54 51.97 130.76 44.38"/><polygon class="b" points="87.46 83.23 74.68 75.65 74.68 63.02 87.46 70.6 87.46 83.23"/><polygon class="c" points="87.46 83.23 143.54 50.33 143.54 37.7 87.46 70.6 87.46 83.23"/><polygon class="d" points="130.76 30.11 74.68 63.02 87.46 70.6 143.54 37.7 130.76 30.11"/><polygon class="b" points="74.68 132.08 65.73 126.76 65.73 118.6 74.68 123.92 74.68 132.08"/><polygon class="c" points="74.68 132.08 83.63 126.76 83.63 118.6 74.68 123.92 74.68 132.08"/><polygon class="d" points="74.68 113.29 65.73 118.6 74.68 123.92 83.63 118.6 74.68 113.29"/><path class="e" d="M66.93,124.09l6.32,3.75v-3.22l-6.32-3.76Zm4.3-.06,1.52.9V127l-1.52-.9Zm-1.93-1.15,1.5.89v2.1L69.3,125Zm-1.9-1.13,1.48.88v2.1l-1.48-.88Z"/></svg>