<svg xmlns="http://www.w3.org/2000/svg" viewBox="0 0 266.4 259.12"><defs><style>.a{fill:#c4692c;}.b{fill:#f58536;}.c{fill:#a0501a;}.d{fill:#fff;}</style></defs><title>Asset 41</title><polygon class="a" points="133.2 259.12 0 180.96 0 85.52 133.2 163.68 133.2 259.12"/><polygon class="b" points="133.2 259.12 266.4 180.96 266.4 85.52 133.2 163.68 133.2 259.12"/><polygon class="c" points="133.2 7.36 0 85.52 133.2 163.68 266.4 85.52 133.2 7.36"/><path class="d" d="M51.15,163.52l70,41V169.35l-70-41Zm47.62-.61,16.85,9.89v22.9l-16.85-9.89ZM77.4,150.37,94,160.11V183l-16.6-9.73ZM56.36,138l16.34,9.62v22.91l-16.34-9.6Z"/><polygon class="a" points="133.2 99.81 80.39 68.82 80.39 30.99 133.2 61.97 133.2 99.81"/><polygon class="b" points="133.2 99.81 186.01 68.82 186.01 30.99 133.2 61.97 133.2 99.81"/><polygon class="c" points="133.2 0 80.39 30.99 133.2 61.97 186.01 30.99 133.2 0"/></svg>