<svg xmlns="http://www.w3.org/2000/svg" viewBox="0 0 266.4 291.76"><defs><style>.a{fill:#c4692c;}.b{fill:#f58536;}.c{fill:#a0501a;}.d{fill:#fff;}</style></defs><title>Asset 42</title><polygon class="a" points="133.2 291.76 0 213.6 0 78.16 133.2 156.32 133.2 291.76"/><polygon class="b" points="133.2 291.76 266.4 213.6 266.4 78.16 133.2 156.32 133.2 291.76"/><polygon class="c" points="133.2 0 0 78.16 133.2 156.32 266.4 78.16 133.2 0"/><path class="d" d="M14.24,142.62l75.41,44.22V148.9L14.24,104.65ZM65.56,142l18.16,10.65v24.69L65.56,166.65Zm-23-13.52L60.42,139v24.68L42.53,153.14ZM19.85,115.1l17.61,10.38v24.68L19.85,139.82Z"/><polygon class="a" points="103.31 111.32 50.51 80.33 50.5 42.49 103.31 73.48 103.31 111.32"/><polygon class="b" points="103.31 111.32 156.12 80.33 156.12 42.49 103.31 73.48 103.31 111.32"/><polygon class="c" points="103.31 11.51 50.5 42.49 103.31 73.48 156.12 42.49 103.31 11.51"/></svg>