<svg xmlns="http://www.w3.org/2000/svg" viewBox="0 0 266.4 768.25">
    <defs>
        <style>.a{fill:#c4692c;}.b{fill:#fff;}.c{fill:#f58536;}.d{fill:#a0501a;}</style>
    </defs>
    <title>Asset 19</title>
    <polygon class="a" points="133.2 768.25 0 691.25 0 341.41 133.2 417.25 133.2 768.25"/>
    <path class="b"
          d="M16.8,392l-.08,46.35,93.88,53.5.34-47.35Zm28.89,55.16L23.74,434.67l.07-31.08,22,12.3Zm28.6,16.24L52,450.72l.12-31.29,22.33,12.5Zm29,16.49L80.7,467l.17-31.5,22.67,12.69Z"/>
    <path class="b"
          d="M16.63,500l93.52,54.83.34-47L16.7,454Zm63.9-1.61,22.59,13-.22,31.42L80.36,529.65Zm-28.64-16.5,22.24,12.82L74,525.92,51.77,513ZM23.68,465.64l21.91,12.62-.11,31L23.62,496.5Z"/>
    <polygon class="c" points="133.2 768.25 266.4 691.25 266.4 341.41 133.2 417.25 133.2 768.25"/>
    <polygon class="d" points="133.2 263.25 0 341.41 133.2 417.25 266.4 341.41 133.2 263.25"/>
    <polygon class="a" points="134.2 397.14 42.34 344.04 42.34 102.77 134.2 155.07 134.2 397.14"/>
    <path class="b"
          d="M53.92,137.64l-.05,32,64.75,36.9.23-32.66Zm19.93,38-15.14-8.59,0-21.44,15.17,8.48Zm19.72,11.2L78.2,178.16l.08-21.58,15.4,8.61Zm20,11.38L98,189.4l.12-21.73,15.64,8.75Z"/>
    <path class="b"
          d="M53.8,212.14,118.3,250l.24-32.41L53.85,180.41ZM97.88,211l15.57,9-.15,21.67-15.54-9.08ZM78.12,199.65l15.34,8.84L93.36,230l-15.32-9ZM58.67,188.44l15.1,8.71-.07,21.38-15.07-8.81Z"/>
    <polygon class="c" points="134.2 397.14 226.06 344.04 226.06 102.77 134.2 155.07 134.2 397.14"/>
    <polygon class="d" points="134.2 48.86 42.34 102.77 134.2 155.07 226.06 102.77 134.2 48.86"/>
    <polygon class="a" points="134.2 139.13 71.38 102.82 71.38 36.86 134.2 72.63 134.2 139.13"/>
    <path class="b"
          d="M80.63,49.52l0,21.86,44.28,25.23L125,74.28Zm13.62,26L83.9,69.65l0-14.66,10.37,5.8Zm13.49,7.66-10.51-6,.06-14.76,10.53,5.9ZM121.44,91l-10.67-6.06.08-14.86,10.69,6Z"/>
    <polygon class="c" points="134.2 139.13 197.02 102.82 197.02 36.86 134.2 72.63 134.2 139.13"/>
    <polygon class="d" points="134.2 0 71.38 36.86 134.2 72.63 197.02 36.86 134.2 0"/>
</svg>