<svg xmlns="http://www.w3.org/2000/svg" viewBox="0 0 448.32 427.9"><defs><style>.a{fill:#c4692c;}.b{fill:#f58536;}.c{fill:#a0501a;}.d{fill:#fff;}</style></defs><title>Asset 26</title><polygon class="a" points="256.45 427.9 73.39 320.49 73.39 115.56 256.45 222.98 256.45 427.9"/><polygon class="b" points="256.45 427.9 439.51 320.49 439.51 115.56 256.45 222.98 256.45 427.9"/><polygon class="c" points="256.45 8.14 73.39 115.56 256.45 222.98 439.51 115.56 256.45 8.14"/><path class="d" d="M332.11,228.58l-64.7,37.93V234l64.7-38Zm-44-.57-15.57,9.14v21.18l15.57-9.14Zm19.76-11.59-15.34,9V246.6l15.34-9ZM327.29,205l-15.11,8.89V235l15.11-8.87Z"/><polygon class="a" points="81.6 421.63 0 373.75 0 300.23 81.6 348.11 81.6 421.63"/><polygon class="b" points="81.6 421.63 163.2 373.75 163.2 300.23 81.6 348.11 81.6 421.63"/><polygon class="c" points="81.6 252.35 0 300.23 81.6 348.11 163.2 300.23 81.6 252.35"/><path class="d" d="M10.9,349.64l57.68,33.82v-29L10.9,320.6Zm39.26-.5,13.89,8.15v18.88L50.16,368ZM32.55,338.8l13.67,8v18.88l-13.67-8ZM15.2,328.59l13.47,7.93v18.89L15.2,347.5Z"/><polygon class="a" points="415.03 217.16 381.74 197.63 381.74 167.63 415.03 187.17 415.03 217.16"/><polygon class="b" points="415.03 217.16 448.32 197.63 448.32 167.63 415.03 187.17 415.03 217.16"/><polygon class="c" points="415.03 148.1 381.74 167.63 415.03 187.17 448.32 167.63 415.03 148.1"/><polygon class="a" points="250.65 99.73 202.57 71.52 202.57 28.21 250.65 56.42 250.65 99.73"/><polygon class="b" points="250.65 99.73 298.72 71.52 298.72 28.21 250.65 56.42 250.65 99.73"/><polygon class="c" points="250.65 0 202.57 28.21 250.65 56.42 298.72 28.21 250.65 0"/></svg>