<svg xmlns="http://www.w3.org/2000/svg" viewBox="0 0 681.44 742.02">
    <defs>
        <style>.a{fill:#c4692c;}.b{fill:#f58536;}.c{fill:#a0501a;}.d{fill:#fff;}</style>
    </defs>
    <title>Asset 16</title>
    <polygon class="a" points="375.69 742.02 75.22 568.32 75.22 229.15 375.69 400.22 375.69 742.02"/>
    <polygon class="b" points="375.27 742.02 675.74 568.32 675.74 229.15 375.27 400.22 375.27 742.02"/>
    <polygon class="c" points="375.27 54.16 74.8 230.48 375.27 401.55 675.74 230.48 375.27 54.16"/>
    <polygon class="a" points="380.44 219.5 284.56 164.07 284.56 55.84 380.44 110.43 380.44 219.5"/>
    <polygon class="b" points="380.31 219.5 476.19 164.07 476.19 55.84 380.31 110.43 380.31 219.5"/>
    <polygon class="c" points="380.31 0 284.43 56.27 380.31 110.85 476.19 56.27 380.31 0"/>
    <path class="d"
          d="M502.87,370.38l.07,46.34-93.88,53.51-.34-47.36ZM474,425.53l21.94-12.46L495.86,382l-22,12.31Zm-28.61,16.25,22.29-12.66-.11-31.29-22.33,12.5Zm-29,16.49L439,445.42l-.17-31.5-22.67,12.69Z"/>
    <polygon class="a" points="126.61 736.94 0.18 663.85 0.18 521.14 126.61 593.12 126.61 736.94"/>
    <polygon class="b" points="126.43 736.94 252.87 663.85 252.87 521.14 126.43 593.12 126.43 736.94"/>
    <polygon class="c" points="126.43 447.5 0 521.7 126.43 593.68 252.87 521.7 126.43 447.5"/>
    <path class="d"
          d="M21.71,559.65,21.64,599l79.81,45.49.29-40.25Zm24.56,46.88L27.61,595.94l.05-26.43L46.36,580Zm24.31,13.81L51.64,609.58l.1-26.6,19,10.63Zm24.69,14L76,623.44l.15-26.78,19.27,10.79Z"/>
    <polygon class="a" points="625.75 408.89 569.98 376.65 569.98 313.7 625.75 345.45 625.75 408.89"/>
    <polygon class="b" points="625.67 408.89 681.44 376.65 681.44 313.7 625.67 345.45 625.67 408.89"/>
    <polygon class="c" points="625.67 281.22 569.9 313.94 625.67 345.7 681.44 313.94 625.67 281.22"/>
</svg>