<svg xmlns="http://www.w3.org/2000/svg" viewBox="0 0 270 503">
    <defs>
        <style>.a{fill:#f58536;}.b{fill:#c4692c;}.c{fill:#a0501a;}.d{fill:#fff;}</style>
    </defs>
    <title>Asset 7</title>
    <polygon class="a" points="270 425 134 503 134 153 268 77 270 425"/>
    <polygon class="b" points="135 503 0 426 1 77 134 153 135 503"/>
    <polygon class="c" points="134 153 1 77 134 0 268 77 134 153"/>
    <path class="d"
          d="M20.28,118.5l-.07,46.35,93.88,53.5.34-47.35Zm28.89,55.16L27.23,161.2l.06-31.09,22,12.3ZM77.78,189.9,55.49,177.25,55.61,146l22.33,12.49Zm29,16.49L84.19,193.54l.17-31.49L107,174.73Z"/>
    <path class="d"
          d="M20.11,226.52l93.52,54.84.34-47L20.18,180.52ZM84,224.92l22.58,13-.21,31.41L83.85,256.18ZM55.37,208.41l22.25,12.82-.16,31.21-22.2-13Zm-28.2-16.25,21.9,12.62-.1,31L27.11,223Z"/>
</svg>