<svg xmlns="http://www.w3.org/2000/svg" viewBox="0 0 266.4 505">
    <defs>
        <style>.a{fill:#c4692c;}.b{fill:#fff;}.c{fill:#f58536;}.d{fill:#a0501a;}</style>
    </defs>
    <title>Asset 12</title>
    <polygon class="a" points="133.2 505 0 428 0 78.16 133.2 154 133.2 505"/>
    
    <path class="b"
          d="M16.8,128.73l-.08,46.34,93.88,53.51.34-47.35Zm28.89,55.16L23.74,171.42l.07-31.08,22,12.3Zm28.6,16.24L52,187.47l.12-31.29,22.33,12.5Zm29,16.49L80.7,203.77l.17-31.5L103.54,185Z"/>
    <path class="b"
          d="M16.63,236.75l93.52,54.83.34-47L16.7,190.74Zm63.9-1.61,22.59,13-.22,31.42L80.36,266.4Zm-28.64-16.5,22.24,12.82L74,262.67l-22.21-13ZM23.68,202.39,45.59,215l-.11,31L23.62,233.25Z"/>
    
    <polygon class="c" points="133.2 505 266.4 428 266.4 78.16 133.2 154 133.2 505"/>
    
    <polygon class="d" points="133.2 0 0 78.16 133.2 154 266.4 78.16 133.2 0"/>
</svg>