<svg xmlns="http://www.w3.org/2000/svg" viewBox="0 0 474.69 586.13">
    <defs>
        <style>.a{fill:#c4692c;}.b{fill:#f58536;}.c{fill:#a0501a;}.d{fill:#fff;}</style>
    </defs>
    <title>Asset 17</title>
    <polygon class="a" points="237.68 586.13 0.33 448.92 0.33 181.01 237.68 316.14 237.68 586.13"/>
    <polygon class="b" points="237.35 586.13 474.69 448.92 474.69 181.01 237.35 316.14 237.35 586.13"/>
    <polygon class="c" points="237.35 42.78 0 182.06 237.35 317.19 474.69 182.06 237.35 42.78"/>
    <polygon class="a" points="241.43 173.38 165.69 129.6 165.69 44.11 241.43 87.23 241.43 173.38"/>
    <polygon class="b" points="241.32 173.38 317.06 129.6 317.06 44.11 241.32 87.23 241.32 173.38"/>
    <polygon class="c" points="241.32 0 165.59 44.44 241.32 87.56 317.06 44.44 241.32 0"/>
    <path class="d"
          d="M338.14,292.56l.06,36.61L264,371.44,263.77,334Zm-22.83,43.57,17.34-9.84,0-24.56-17.37,9.72ZM292.72,349l17.61-10-.1-24.71-17.63,9.87Zm-22.94,13,17.88-10.15L287.52,327l-17.91,10Z"/>
    <path class="d"
          d="M28.67,247.36,28.61,284l74.16,42.26.27-37.4Zm22.82,43.57-17.33-9.84.05-24.56,17.36,9.72Zm22.59,12.83-17.6-10,.09-24.71,17.64,9.87Zm22.94,13L79.15,306.64l.13-24.88,17.91,10Z"/>
</svg>