<svg xmlns="http://www.w3.org/2000/svg" viewBox="0 0 311.4 363.94"><defs><style>.a{fill:#c4692c;}.b{fill:#f58536;}.c{fill:#a0501a;}.d{fill:#fff;}</style></defs><title>Asset 27</title><polygon class="a" points="155.7 363.94 0 272.57 0 98.29 155.7 189.65 155.7 363.94"/><polygon class="b" points="155.7 363.94 311.39 272.57 311.39 98.29 155.7 189.65 155.7 363.94"/><polygon class="c" points="155.7 6.92 0 98.29 155.7 189.65 311.4 98.29 155.7 6.92"/><path class="d" d="M220.05,194.41l-55,32.26V199l55-32.29Zm-37.45-.49-13.25,7.78v18l13.25-7.77Zm16.8-9.86-13.05,7.66v18l13.05-7.65ZM216,174.33l-12.85,7.56v18L216,192.36Z"/><polygon class="a" points="150.76 84.82 109.88 60.83 109.88 23.99 150.76 47.98 150.76 84.82"/><polygon class="b" points="150.76 84.82 191.65 60.83 191.65 23.99 150.76 47.98 150.76 84.82"/><polygon class="c" points="150.76 0 109.88 23.99 150.76 47.98 191.65 23.99 150.76 0"/></svg>