<svg xmlns="http://www.w3.org/2000/svg" viewBox="0 0 270 345"><defs><style>.a{fill:#f58536;}.b{fill:#c4692c;}.c{fill:#a0501a;}.d{fill:#fff;}</style></defs><title>Asset 10</title><polygon class="a" points="270 267 134 345 135 186 269 68 270 267"/><polygon class="b" points="135 345 0 268 2 110 135 186 135 345"/><polygon class="c" points="135 186 2 110 130 0 269 68 135 186"/><path class="d" d="M20.51,146.07l-.07,46.35,93.88,53.5.34-47.35ZM49.4,201.23,27.46,188.77l.06-31.09,22,12.3ZM78,217.47,55.72,204.82l.11-31.29L78.16,186ZM107,234,84.42,221.11l.17-31.49,22.67,12.68Z"/></svg>