<svg xmlns="http://www.w3.org/2000/svg" viewBox="0 0 266.4 321.63">
    <defs>
        <style>.a{fill:#c4692c;}.b{fill:#f58536;}.c{fill:#a0501a;}.d{fill:#fff;}</style>
    </defs>
    <title>Asset 13</title>
    <polygon class="a" points="133.2 321.63 0 244.63 0 124.8 133.2 200.63 133.2 321.63"/>
    <polygon class="b" points="133.2 321.63 266.4 244.63 266.4 74.8 133.2 200.63 133.2 321.63"/>
    <polygon class="c" points="133.2 0 0 124.8 133.2 200.63 266.4 74.8 133.2 0"/>
    <path class="d"
          d="M19,156.27l-.07,46.34,93.88,53.51.34-47.35Zm28.9,55.15L25.9,199,26,167.87l22,12.31Zm28.6,16.25L54.16,215l.12-31.29,22.33,12.5Zm29,16.49L82.86,231.31l.17-31.5L105.7,212.5Z"/>
</svg>