<svg xmlns="http://www.w3.org/2000/svg" viewBox="0 0 368.11 248.25">
    <defs>
        <style>.a{fill:none;stroke:#000;stroke-miterlimit:10;}.b{fill:#f58536;}.c{fill:#a0501a;}.d{fill:#c4692c;}
        </style>
    </defs>
    <title>Asset 108</title>
    <polygon class="a" points="184.05 32.83 0.99 140.25 184.05 247.67 367.12 140.25 184.05 32.83"/>
    <path class="b"
          d="M101.54,164.38s-.05,8.29-.07,14.16c0,.22,0,.44,0,.66s0,.4,0,.6v1.26h.14c1.61,9.11,14.94,16.21,31.13,16.21s29.52-7.1,31.14-16.21h.05s0-.16,0-.47a10.7,10.7,0,0,0,.1-1.39A11.7,11.7,0,0,0,164,178c0-3.57.07-9.5,0-13.63"/>
    <ellipse class="c" cx="132.74" cy="167.15" rx="31.3" ry="18.07"/>
    <polygon class="d" points="180.61 94.08 150.38 76.34 150.38 49.1 180.61 66.84 180.61 94.08"/>
    <polygon class="b" points="180.61 94.08 210.84 76.34 210.84 49.1 180.61 66.84 180.61 94.08"/>
    <polygon class="c" points="180.61 31.36 150.38 49.1 180.61 66.84 210.84 49.1 180.61 31.36"/>
    <polygon class="d" points="180.61 129.54 150.38 111.81 150.38 84.57 180.61 102.31 180.61 129.54"/>
    <polygon class="b" points="180.61 129.54 210.84 111.81 210.84 84.57 180.61 102.31 180.61 129.54"/>
    <polygon class="c" points="180.61 66.83 150.38 84.57 180.61 102.31 210.84 84.57 180.61 66.83"/>
    <polygon class="d" points="180.61 164.98 150.38 147.24 150.38 120 180.61 137.74 180.61 164.98"/>
    <polygon class="b" points="180.61 164.98 210.84 147.24 210.84 120 180.61 137.74 180.61 164.98"/>
    <polygon class="c" points="180.61 102.27 150.38 120 180.61 137.74 210.84 120 180.61 102.27"/>
    <polygon class="d" points="241.07 165.02 210.84 147.28 210.84 120.05 241.07 137.79 241.07 165.02"/>
    <polygon class="b" points="241.07 165.02 271.3 147.28 271.3 120.05 241.07 137.79 241.07 165.02"/>
    <polygon class="c" points="241.07 102.31 210.84 120.05 241.07 137.79 271.3 120.05 241.07 102.31"/>
    <polygon class="d" points="301.53 164.98 271.3 147.24 271.3 120 301.53 137.74 301.53 164.98"/>
    <polygon class="b" points="301.53 164.98 331.76 147.24 331.76 120 301.53 137.74 301.53 164.98"/>
    <polygon class="c" points="301.53 102.27 271.3 120 301.53 137.74 331.76 120 301.53 102.27"/>
    <polygon class="d" points="180.61 62.71 150.38 44.97 150.38 17.74 180.61 35.48 180.61 62.71"/>
    <polygon class="b" points="180.61 62.71 210.84 44.97 210.84 17.74 180.61 35.48 180.61 62.71"/>
    <polygon class="c" points="180.61 0 150.38 17.74 180.61 35.48 210.84 17.74 180.61 0"/>
    <polygon class="d" points="180.61 98.18 150.38 80.44 150.38 53.21 180.61 70.95 180.61 98.18"/>
    <polygon class="b" points="180.61 98.18 210.84 80.44 210.84 53.21 180.61 70.95 180.61 98.18"/>
    <polygon class="c" points="180.61 35.47 150.38 53.21 180.61 70.95 210.84 53.21 180.61 35.47"/>
    <polygon class="d" points="180.61 133.62 150.38 115.88 150.38 88.64 180.61 106.38 180.61 133.62"/>
    <polygon class="b" points="180.61 133.62 210.84 115.88 210.84 88.64 180.61 106.38 180.61 133.62"/>
    <polygon class="c" points="180.61 70.9 150.38 88.64 180.61 106.38 210.84 88.64 180.61 70.9"/>
    <polygon class="d" points="241.07 133.66 210.84 115.92 210.84 88.69 241.07 106.43 241.07 133.66"/>
    <polygon class="b" points="241.07 133.66 271.3 115.92 271.3 88.69 241.07 106.43 241.07 133.66"/>
    <polygon class="c" points="241.07 70.95 210.84 88.69 241.07 106.43 271.3 88.69 241.07 70.95"/>
    <polygon class="d" points="301.53 133.62 271.3 115.88 271.3 88.64 301.53 106.38 301.53 133.62"/>
    <polygon class="b" points="301.53 133.62 331.76 115.88 331.76 88.64 301.53 106.38 301.53 133.62"/>
    <polygon class="c" points="301.53 70.9 271.3 88.64 301.53 106.38 331.76 88.64 301.53 70.9"/>
    <path class="b"
          d="M101.54,147.92s-.05,8.29-.07,14.16c0,.22,0,.44,0,.66s0,.4,0,.6v1.26h.14c1.61,9.11,14.94,16.21,31.13,16.21s29.52-7.1,31.14-16.21h.05s0-.16,0-.46a11,11,0,0,0,.1-1.4,11.7,11.7,0,0,0-.07-1.19c0-3.57.07-9.5,0-13.63"/>
    <ellipse class="c" cx="132.74" cy="150.69" rx="31.3" ry="18.07"/>
</svg>