<svg xmlns="http://www.w3.org/2000/svg" viewBox="0 0 368.11 216.89"><defs><style>.a{fill:none;stroke:#000;stroke-miterlimit:10;}.b{fill:#f58536;}.c{fill:#a0501a;}.d{fill:#c4692c;}</style></defs><title>Asset 107</title><polygon class="a" points="184.05 1.47 0.99 108.89 184.05 216.31 367.12 108.89 184.05 1.47"/><path class="b" d="M101.54,133s-.05,8.28-.07,14.16c0,.22,0,.44,0,.66s0,.4,0,.6v1.26h.14c1.61,9.1,14.94,16.21,31.13,16.21s29.52-7.11,31.14-16.21h.05s0-.17,0-.47a10.7,10.7,0,0,0,.1-1.39,11.7,11.7,0,0,0-.07-1.19c0-3.57.07-9.5,0-13.63"/><ellipse class="c" cx="132.74" cy="135.79" rx="31.3" ry="18.07"/><polygon class="d" points="180.61 62.71 150.38 44.97 150.38 17.74 180.61 35.48 180.61 62.71"/><polygon class="b" points="180.61 62.71 210.84 44.97 210.84 17.74 180.61 35.48 180.61 62.71"/><polygon class="c" points="180.61 0 150.38 17.74 180.61 35.48 210.84 17.74 180.61 0"/><polygon class="d" points="180.61 98.18 150.38 80.44 150.38 53.21 180.61 70.95 180.61 98.18"/><polygon class="b" points="180.61 98.18 210.84 80.44 210.84 53.21 180.61 70.95 180.61 98.18"/><polygon class="c" points="180.61 35.47 150.38 53.21 180.61 70.95 210.84 53.21 180.61 35.47"/><polygon class="d" points="180.61 133.62 150.38 115.88 150.38 88.64 180.61 106.38 180.61 133.62"/><polygon class="b" points="180.61 133.62 210.84 115.88 210.84 88.64 180.61 106.38 180.61 133.62"/><polygon class="c" points="180.61 70.9 150.38 88.64 180.61 106.38 210.84 88.64 180.61 70.9"/><polygon class="d" points="241.07 133.66 210.84 115.92 210.84 88.69 241.07 106.43 241.07 133.66"/><polygon class="b" points="241.07 133.66 271.3 115.92 271.3 88.69 241.07 106.43 241.07 133.66"/><polygon class="c" points="241.07 70.95 210.84 88.69 241.07 106.43 271.3 88.69 241.07 70.95"/><polygon class="d" points="301.53 133.62 271.3 115.88 271.3 88.64 301.53 106.38 301.53 133.62"/><polygon class="b" points="301.53 133.62 331.76 115.88 331.76 88.64 301.53 106.38 301.53 133.62"/><polygon class="c" points="301.53 70.9 271.3 88.64 301.53 106.38 331.76 88.64 301.53 70.9"/></svg>