<svg xmlns="http://www.w3.org/2000/svg" viewBox="0 0 266.4 160.99"><defs><style>.a{fill:#f2f2f2;}.b{fill:#c4692c;}.c{fill:#f58536;}.d{fill:#a0501a;}.e{fill:#212121;}.f{fill:#757575;}.g{fill:#fff;}</style></defs><title>Asset 100</title><polygon class="a" points="133.2 4.67 0 82.83 133.2 160.99 266.4 82.83 133.2 4.67"/><polygon class="b" points="211.24 115.17 78.04 37 78.04 15.75 211.24 93.92 211.24 115.17"/><polygon class="c" points="211.24 115.21 238.37 99.45 238.37 78.16 211.24 93.92 211.24 115.21"/><polygon class="d" points="105.17 0 78.04 15.76 211.24 93.92 238.37 78.16 105.17 0"/><polygon class="e" points="140.78 75.73 100.86 81.5 113.97 85.84 114.1 85.91 59.22 117.61 70.37 124.12 124.37 92.97 125.63 92.32 133.73 100.79 140.78 75.73"/><polygon class="f" points="138.37 74.31 98.46 80.08 111.56 84.42 111.69 84.49 56.81 116.19 67.96 122.7 121.97 91.55 123.22 90.89 131.32 99.36 138.37 74.31"/><path class="g" d="M127.28,64l34.29,20.35V66.91L127.28,46.55Zm23.34-.3,8.25,4.9V80l-8.25-4.91ZM140.15,57.5l8.13,4.83V73.69l-8.13-4.83Zm-10.32-6.14,8,4.77V67.49l-8-4.76Z"/></svg>