<svg xmlns="http://www.w3.org/2000/svg" viewBox="0 0 419.36 374.06"><defs><style>.a{fill:none;stroke:#000;stroke-miterlimit:10;}.b{fill:#c4692c;}.c{fill:#f58536;}.d{fill:#a0501a;}.e{fill:#fff;}</style></defs><title>Asset 117</title><polygon class="a" points="235.77 158.64 53.16 266.06 235.77 373.48 418.37 266.06 235.77 158.64"/><polygon class="b" points="43.12 353.08 0 327.71 0 288.76 43.12 314.13 43.12 353.08"/><polygon class="c" points="43.12 353.08 86.25 327.71 86.25 288.76 43.12 314.13 43.12 353.08"/><polygon class="d" points="43.12 263.4 0 288.76 43.12 314.13 86.25 288.76 43.12 263.4"/><path class="e" d="M5.76,314.94l30.48,17.92V317.49L5.76,299.55Zm20.75-.27L33.85,319v10l-7.34-4.31ZM17.2,309.2l7.23,4.25v10L17.2,319.2ZM8,303.79l7.12,4.2v10L8,313.8Z"/><polygon class="b" points="117.23 294.11 79.82 271.85 79.82 234.79 117.23 257.05 117.23 294.11"/><polygon class="c" points="117.23 294.11 281.38 197.55 281.38 160.49 117.23 257.05 117.23 294.11"/><polygon class="d" points="243.97 138.23 79.82 234.79 117.23 257.05 281.38 160.49 243.97 138.23"/><polygon class="b" points="170.31 325.99 132.9 303.73 132.9 266.67 170.31 288.92 170.31 325.99"/><polygon class="c" points="170.31 325.99 334.45 229.42 334.45 192.36 170.31 288.92 170.31 325.99"/><polygon class="d" points="297.04 170.1 132.9 266.67 170.31 288.92 334.45 192.36 297.04 170.1"/><polygon class="b" points="226.78 358.9 189.37 336.64 189.37 299.58 226.78 321.84 226.78 358.9"/><polygon class="c" points="226.78 358.9 390.93 262.34 390.93 225.28 226.78 321.84 226.78 358.9"/><polygon class="d" points="353.52 203.02 189.37 299.58 226.78 321.84 390.93 225.28 353.52 203.02"/><polygon class="b" points="116.25 233.63 78.84 211.37 78.84 174.31 116.25 196.57 116.25 233.63"/><polygon class="c" points="116.25 233.63 280.4 137.07 280.4 100 116.25 196.57 116.25 233.63"/><polygon class="d" points="242.99 77.75 78.84 174.31 116.25 196.57 280.4 100 242.99 77.75"/><polygon class="b" points="169.32 265.51 131.91 243.25 131.91 206.18 169.32 228.44 169.32 265.51"/><polygon class="c" points="169.32 265.51 333.47 168.94 333.47 131.88 169.32 228.44 169.32 265.51"/><polygon class="d" points="296.06 109.62 131.91 206.18 169.32 228.44 333.47 131.88 296.06 109.62"/><polygon class="b" points="225.79 298.42 188.38 276.16 188.38 239.1 225.79 261.36 225.79 298.42"/><polygon class="c" points="225.79 298.42 389.94 201.86 389.94 164.8 225.79 261.36 225.79 298.42"/><polygon class="d" points="352.53 142.54 188.38 239.1 225.79 261.36 389.94 164.8 352.53 142.54"/><polygon class="b" points="117.63 168.07 80.22 145.81 80.22 108.74 117.63 131 117.63 168.07"/><polygon class="c" points="117.63 168.07 281.77 71.5 281.77 34.44 117.63 131 117.63 168.07"/><polygon class="d" points="244.36 12.18 80.22 108.74 117.63 131 281.77 34.44 244.36 12.18"/><polygon class="b" points="170.7 199.94 133.29 177.68 133.29 140.62 170.7 162.88 170.7 199.94"/><polygon class="c" points="170.7 199.94 334.85 103.38 334.85 66.31 170.7 162.88 170.7 199.94"/><polygon class="d" points="297.44 44.06 133.29 140.62 170.7 162.88 334.85 66.31 297.44 44.06"/><polygon class="b" points="227.17 233.86 189.76 211.6 189.76 174.54 227.17 196.79 227.17 233.86"/><polygon class="c" points="227.17 233.86 391.32 137.29 391.32 100.23 227.17 196.79 227.17 233.86"/><polygon class="d" points="353.91 77.97 189.76 174.54 227.17 196.79 391.32 100.23 353.91 77.97"/><polygon class="b" points="244.2 48.09 221.08 34.49 221.08 13.6 244.2 27.2 244.2 48.09"/><polygon class="c" points="244.2 48.09 267.32 34.49 267.32 13.6 244.2 27.2 244.2 48.09"/><polygon class="d" points="244.2 0 221.08 13.6 244.2 27.2 267.32 13.6 244.2 0"/><path class="e" d="M224.17,27.64l16.34,9.61V29l-16.34-9.61Zm11.12-.14,3.94,2.31v5.36l-3.94-2.31Zm-5-2.94,3.88,2.28V32.2l-3.88-2.28Zm-4.92-2.9,3.82,2.25v5.37L225.38,27Z"/><polygon class="b" points="207.25 70.02 184.07 56.42 184.07 35.54 207.25 49.14 207.25 70.02"/><polygon class="c" points="207.25 70.02 230.43 56.42 230.43 35.54 207.25 49.14 207.25 70.02"/><polygon class="d" points="207.25 21.93 184.07 35.54 207.25 49.14 230.43 35.54 207.25 21.93"/><path class="e" d="M187.17,49.57l16.38,9.61V50.94l-16.38-9.62Zm11.15-.14,4,2.31v5.37l-4-2.32Zm-5-2.94,3.88,2.28v5.37l-3.88-2.28Zm-4.93-2.9,3.82,2.26v5.36L188.39,49Z"/><polygon class="b" points="170.56 91.49 147.38 77.89 147.38 57.01 170.56 70.61 170.56 91.49"/><polygon class="c" points="170.56 91.49 193.75 77.89 193.75 57.01 170.56 70.61 170.56 91.49"/><polygon class="d" points="170.56 43.4 147.38 57.01 170.56 70.61 193.75 57.01 170.56 43.4"/><path class="e" d="M150.48,71l16.39,9.61V72.41l-16.39-9.62Zm11.15-.14,4,2.31v5.37l-4-2.32Zm-5-2.94,3.88,2.28v5.37l-3.88-2.28Zm-4.93-2.9,3.83,2.26v5.36l-3.83-2.25Z"/><polygon class="b" points="132.35 111.64 109.17 98.04 109.17 77.15 132.35 90.76 132.35 111.64"/><polygon class="c" points="132.35 111.64 155.53 98.04 155.53 77.15 132.35 90.76 132.35 111.64"/><polygon class="d" points="132.35 63.55 109.17 77.15 132.35 90.76 155.53 77.15 132.35 63.55"/><path class="e" d="M112.26,91.19l16.39,9.61V92.55l-16.39-9.61Zm11.15-.14,4,2.31v5.37l-4-2.32Zm-5-2.94,3.89,2.28v5.36l-3.89-2.28Zm-4.93-2.9,3.83,2.25v5.37l-3.83-2.25Z"/><polygon class="b" points="296.76 81.33 273.58 67.72 273.58 46.84 296.76 60.44 296.76 81.33"/><polygon class="c" points="296.76 81.33 319.94 67.72 319.94 46.84 296.76 60.44 296.76 81.33"/><polygon class="d" points="296.76 33.24 273.58 46.84 296.76 60.44 319.94 46.84 296.76 33.24"/><path class="e" d="M276.68,60.88l16.39,9.6V62.24l-16.39-9.61Zm11.15-.15,3.95,2.32v5.36l-3.95-2.31Zm-5-2.93,3.88,2.28v5.36l-3.88-2.28Zm-4.93-2.9,3.83,2.25v5.36l-3.83-2.24Z"/><polygon class="b" points="260.21 102.21 237.03 88.61 237.03 67.72 260.21 81.33 260.21 102.21"/><polygon class="c" points="260.21 102.21 283.39 88.61 283.39 67.72 260.21 81.33 260.21 102.21"/><polygon class="d" points="260.21 54.12 237.03 67.72 260.21 81.33 283.39 67.72 260.21 54.12"/><path class="e" d="M240.13,81.76l16.38,9.61V83.12l-16.38-9.61Zm11.15-.14,3.94,2.31V89.3L251.28,87Zm-5-2.94L250.16,81v5.36L246.28,84Zm-4.93-2.9L245.17,78V83.4l-3.82-2.25Z"/><polygon class="b" points="223.52 123.68 200.34 110.08 200.34 89.19 223.52 102.8 223.52 123.68"/><polygon class="c" points="223.52 123.68 246.71 110.08 246.71 89.19 223.52 102.8 223.52 123.68"/><polygon class="d" points="223.52 75.59 200.34 89.19 223.52 102.8 246.71 89.19 223.52 75.59"/><path class="e" d="M203.44,103.23l16.39,9.61v-8.25L203.44,95Zm11.15-.14,3.95,2.31v5.36l-3.95-2.31Zm-5-2.94,3.88,2.28v5.36l-3.88-2.28Zm-4.93-2.9,3.83,2.25v5.37l-3.83-2.25Z"/><polygon class="b" points="185.31 143.83 162.12 130.22 162.12 109.34 185.31 122.94 185.31 143.83"/><polygon class="c" points="185.31 143.83 208.49 130.22 208.49 109.34 185.31 122.94 185.31 143.83"/><polygon class="d" points="185.31 95.74 162.12 109.34 185.31 122.94 208.49 109.34 185.31 95.74"/><path class="e" d="M165.22,123.38l16.39,9.6v-8.24l-16.39-9.61Zm11.15-.15,3.95,2.32v5.36l-3.95-2.31Zm-5-2.93,3.89,2.28v5.36l-3.89-2.28Zm-4.93-2.9,3.83,2.25V125l-3.83-2.24Z"/><polygon class="b" points="352.29 114.03 329.11 100.42 329.11 79.54 352.29 93.14 352.29 114.03"/><polygon class="c" points="352.29 114.03 375.48 100.42 375.48 79.54 352.29 93.14 352.29 114.03"/><polygon class="d" points="352.29 65.94 329.11 79.54 352.29 93.14 375.48 79.54 352.29 65.94"/><path class="e" d="M332.21,93.58l16.39,9.6V94.94l-16.39-9.61Zm11.15-.15,3.95,2.32v5.36l-3.95-2.31Zm-5-2.93,3.88,2.28v5.36l-3.88-2.28Zm-4.93-2.9,3.83,2.25v5.37L333.43,93Z"/><polygon class="b" points="315.74 134.91 292.56 121.31 292.56 100.42 315.74 114.03 315.74 134.91"/><polygon class="c" points="315.74 134.91 338.92 121.31 338.92 100.42 315.74 114.03 315.74 134.91"/><polygon class="d" points="315.74 86.82 292.56 100.42 315.74 114.03 338.92 100.42 315.74 86.82"/><path class="e" d="M295.66,114.46,312,124.07v-8.24l-16.38-9.62Zm11.15-.14,3.94,2.31V122l-3.94-2.32Zm-5-2.94,3.88,2.28V119l-3.88-2.28Zm-4.93-2.9,3.82,2.26v5.36l-3.82-2.25Z"/><polygon class="b" points="279.05 156.38 255.87 142.78 255.87 121.89 279.05 135.5 279.05 156.38"/><polygon class="c" points="279.05 156.38 302.24 142.78 302.24 121.89 279.05 135.5 279.05 156.38"/><polygon class="d" points="279.05 108.29 255.87 121.89 279.05 135.5 302.24 121.89 279.05 108.29"/><path class="e" d="M259,135.93l16.39,9.61v-8.25L259,127.68Zm11.15-.14,3.95,2.31v5.37l-3.95-2.32Zm-5-2.94,3.88,2.28v5.36l-3.88-2.28Zm-4.93-2.9L264,132.2v5.37l-3.83-2.25Z"/><polygon class="b" points="240.84 176.53 217.65 162.93 217.65 142.04 240.84 155.65 240.84 176.53"/><polygon class="c" points="240.84 176.53 264.02 162.93 264.02 142.04 240.84 155.65 240.84 176.53"/><polygon class="d" points="240.84 128.44 217.65 142.04 240.84 155.65 264.02 142.04 240.84 128.44"/><path class="e" d="M220.75,156.08l16.39,9.61v-8.25l-16.39-9.61Zm11.15-.14,3.95,2.31v5.36l-3.95-2.31Zm-5-2.94,3.89,2.28v5.36l-3.89-2.28ZM222,150.1l3.83,2.25v5.37L222,155.47Z"/></svg>