<svg xmlns="http://www.w3.org/2000/svg" viewBox="0 0 420.41 301.22"><defs><style>.a{fill:none;stroke:#000;stroke-miterlimit:10;}.b{fill:#c4692c;}.c{fill:#f58536;}.d{fill:#a0501a;}.e{fill:#fff;}</style></defs><title>Asset 114</title><polygon class="a" points="236.36 85.8 53.3 193.22 236.36 300.64 419.43 193.22 236.36 85.8"/><polygon class="b" points="43.23 280.25 0 254.88 0 215.93 43.23 241.3 43.23 280.25"/><polygon class="c" points="43.23 280.25 86.46 254.88 86.46 215.93 43.23 241.3 43.23 280.25"/><polygon class="d" points="43.23 190.56 0 215.93 43.23 241.3 86.46 215.93 43.23 190.56"/><path class="e" d="M5.78,242.11,36.34,260V244.65L5.78,226.72Zm20.79-.27,7.36,4.32v10l-7.36-4.32Zm-9.33-5.48,7.25,4.26v10l-7.25-4.25ZM8.05,231l7.14,4.2v10L8.05,241Z"/><polygon class="b" points="117.53 221.28 80.02 199.02 80.02 161.96 117.53 184.21 117.53 221.28"/><polygon class="c" points="117.53 221.28 282.09 124.71 282.09 87.65 117.53 184.21 117.53 221.28"/><polygon class="d" points="244.59 65.39 80.02 161.96 117.53 184.21 282.09 87.65 244.59 65.39"/><polygon class="b" points="170.73 253.15 133.23 230.89 133.23 193.83 170.73 216.09 170.73 253.15"/><polygon class="c" points="170.73 253.15 335.3 156.59 335.3 119.53 170.73 216.09 170.73 253.15"/><polygon class="d" points="297.79 97.27 133.23 193.83 170.73 216.09 335.3 119.53 297.79 97.27"/><polygon class="b" points="227.35 286.07 189.84 263.81 189.84 226.75 227.35 249.01 227.35 286.07"/><polygon class="c" points="227.35 286.07 391.91 189.51 391.91 152.44 227.35 249.01 227.35 286.07"/><polygon class="d" points="354.41 130.18 189.84 226.75 227.35 249.01 391.91 152.44 354.41 130.18"/><polygon class="b" points="116.54 160.8 79.04 138.54 79.04 101.47 116.54 123.73 116.54 160.8"/><polygon class="c" points="116.54 160.8 281.11 64.23 281.11 27.17 116.54 123.73 116.54 160.8"/><polygon class="d" points="243.6 4.91 79.04 101.47 116.54 123.73 281.11 27.17 243.6 4.91"/><polygon class="b" points="169.75 192.67 132.25 170.41 132.25 133.35 169.75 155.61 169.75 192.67"/><polygon class="c" points="169.75 192.67 334.31 96.11 334.31 59.05 169.75 155.61 169.75 192.67"/><polygon class="d" points="296.81 36.79 132.25 133.35 169.75 155.61 334.31 59.05 296.81 36.79"/><polygon class="b" points="226.36 225.59 188.86 203.33 188.86 166.27 226.36 188.53 226.36 225.59"/><polygon class="c" points="226.36 225.59 390.93 129.03 390.93 91.96 226.36 188.53 226.36 225.59"/><polygon class="d" points="353.42 69.7 188.86 166.27 226.36 188.53 390.93 91.96 353.42 69.7"/><polygon class="b" points="236.36 48.09 213.18 34.49 213.18 13.6 236.36 27.2 236.36 48.09"/><polygon class="c" points="236.36 48.09 259.54 34.49 259.54 13.6 236.36 27.2 236.36 48.09"/><polygon class="d" points="236.36 0 213.18 13.6 236.36 27.2 259.54 13.6 236.36 0"/><path class="e" d="M216.28,27.64l16.38,9.61V29l-16.38-9.61Zm11.15-.14,3.94,2.31v5.36l-3.94-2.31Zm-5-2.94,3.88,2.28V32.2l-3.88-2.28Zm-4.93-2.9,3.82,2.25v5.37L217.5,27Z"/><polygon class="b" points="199.81 68.97 176.63 55.37 176.63 34.49 199.81 48.09 199.81 68.97"/><polygon class="c" points="199.81 68.97 222.99 55.37 222.99 34.49 199.81 48.09 199.81 68.97"/><polygon class="d" points="199.81 20.88 176.63 34.49 199.81 48.09 222.99 34.49 199.81 20.88"/><path class="e" d="M179.73,48.52l16.38,9.61V49.89l-16.38-9.62Zm11.15-.14,3.94,2.31v5.37l-3.94-2.32Zm-5-2.94,3.89,2.28v5.37l-3.89-2.28Zm-4.93-2.9,3.83,2.26v5.36l-3.83-2.25Z"/><polygon class="b" points="163.12 90.44 139.94 76.84 139.94 55.96 163.12 69.56 163.12 90.44"/><polygon class="c" points="163.12 90.44 186.3 76.84 186.3 55.96 163.12 69.56 163.12 90.44"/><polygon class="d" points="163.12 42.35 139.94 55.96 163.12 69.56 186.3 55.96 163.12 42.35"/><path class="e" d="M143,70l16.38,9.61V71.36L143,61.74Zm11.15-.14,3.94,2.31v5.37l-3.94-2.32Zm-5-2.94,3.88,2.28v5.37l-3.88-2.28ZM144.26,64l3.82,2.26v5.36l-3.82-2.25Z"/><polygon class="b" points="124.9 110.59 101.72 96.99 101.72 76.1 124.9 89.71 124.9 110.59"/><polygon class="c" points="124.9 110.59 148.08 96.99 148.08 76.1 124.9 89.71 124.9 110.59"/><polygon class="d" points="124.9 62.5 101.72 76.1 124.9 89.71 148.08 76.1 124.9 62.5"/><path class="e" d="M104.82,90.14l16.38,9.61V91.5l-16.38-9.61ZM116,90l4,2.31v5.37l-4-2.32Zm-5-2.94,3.88,2.28V94.7L111,92.42ZM106,84.16l3.83,2.25v5.37L106,89.53Z"/><polygon class="b" points="289.32 80.28 266.14 66.67 266.14 45.79 289.32 59.39 289.32 80.28"/><polygon class="c" points="289.32 80.28 312.5 66.67 312.5 45.79 289.32 59.39 289.32 80.28"/><polygon class="d" points="289.32 32.19 266.14 45.79 289.32 59.39 312.5 45.79 289.32 32.19"/><path class="e" d="M269.24,59.83l16.38,9.6V61.19l-16.38-9.62Zm11.15-.15L284.33,62v5.36l-3.94-2.31Zm-5-2.93L279.27,59v5.36l-3.89-2.28Zm-4.92-2.9,3.82,2.25v5.36l-3.82-2.24Z"/><polygon class="b" points="252.77 101.16 229.59 87.56 229.59 66.67 252.77 80.28 252.77 101.16"/><polygon class="c" points="252.77 101.16 275.95 87.56 275.95 66.67 252.77 80.28 252.77 101.16"/><polygon class="d" points="252.77 53.07 229.59 66.67 252.77 80.28 275.95 66.67 252.77 53.07"/><path class="e" d="M232.68,80.71l16.39,9.61V82.07l-16.39-9.61Zm11.16-.14,3.94,2.31v5.36l-3.94-2.31Zm-5-2.94,3.89,2.28v5.36L238.83,83Zm-4.93-2.9L237.73,77v5.37L233.9,80.1Z"/><polygon class="b" points="216.08 122.63 192.9 109.03 192.9 88.14 216.08 101.74 216.08 122.63"/><polygon class="c" points="216.08 122.63 239.26 109.03 239.26 88.14 216.08 101.74 216.08 122.63"/><polygon class="d" points="216.08 74.54 192.9 88.14 216.08 101.74 239.26 88.14 216.08 74.54"/><path class="e" d="M196,102.18l16.38,9.6v-8.24L196,93.93Zm11.15-.15,3.94,2.32v5.36l-3.94-2.31Zm-5-2.93,3.89,2.28v5.36l-3.89-2.28Zm-4.92-2.9L201,98.45v5.37l-3.82-2.25Z"/><polygon class="b" points="177.86 142.78 154.68 129.17 154.68 108.29 177.86 121.89 177.86 142.78"/><polygon class="c" points="177.86 142.78 201.04 129.17 201.04 108.29 177.86 121.89 177.86 142.78"/><polygon class="d" points="177.86 94.69 154.68 108.29 177.86 121.89 201.04 108.29 177.86 94.69"/><path class="e" d="M157.78,122.33l16.38,9.6v-8.24l-16.38-9.61Zm11.15-.15,3.95,2.32v5.36l-3.95-2.31Zm-5-2.93,3.88,2.28v5.36l-3.88-2.28Zm-4.93-2.9,3.83,2.25V124L159,121.72Z"/><polygon class="b" points="344.85 112.98 321.67 99.37 321.67 78.49 344.85 92.09 344.85 112.98"/><polygon class="c" points="344.85 112.98 368.03 99.37 368.03 78.49 344.85 92.09 344.85 112.98"/><polygon class="d" points="344.85 64.89 321.67 78.49 344.85 92.09 368.03 78.49 344.85 64.89"/><path class="e" d="M324.77,92.53l16.38,9.6V93.89l-16.38-9.61Zm11.15-.15,3.94,2.32v5.36l-3.94-2.31Zm-5-2.93,3.89,2.28v5.36l-3.89-2.28ZM326,86.55l3.82,2.25v5.36L326,91.92Z"/><polygon class="b" points="308.3 133.86 285.12 120.26 285.12 99.37 308.3 112.98 308.3 133.86"/><polygon class="c" points="308.3 133.86 331.48 120.26 331.48 99.37 308.3 112.98 308.3 133.86"/><polygon class="d" points="308.3 85.77 285.12 99.37 308.3 112.98 331.48 99.37 308.3 85.77"/><path class="e" d="M288.21,113.41,304.6,123v-8.25l-16.39-9.61Zm11.16-.14,3.94,2.31V121l-3.94-2.32Zm-5-2.94,3.89,2.28V118l-3.89-2.29Zm-4.93-2.9,3.83,2.25v5.37l-3.83-2.25Z"/><polygon class="b" points="271.61 155.33 248.43 141.73 248.43 120.84 271.61 134.45 271.61 155.33"/><polygon class="c" points="271.61 155.33 294.79 141.73 294.79 120.84 271.61 134.45 271.61 155.33"/><polygon class="d" points="271.61 107.24 248.43 120.84 271.61 134.45 294.79 120.84 271.61 107.24"/><path class="e" d="M251.53,134.88l16.38,9.61v-8.25l-16.38-9.61Zm11.15-.14,3.94,2.31v5.37l-3.94-2.32Zm-5-2.94,3.89,2.28v5.36l-3.89-2.28Zm-4.92-2.9,3.82,2.25v5.37l-3.82-2.25Z"/><polygon class="b" points="233.39 175.48 210.21 161.88 210.21 140.99 233.39 154.59 233.39 175.48"/><polygon class="c" points="233.39 175.48 256.57 161.88 256.57 140.99 233.39 154.59 233.39 175.48"/><polygon class="d" points="233.39 127.39 210.21 140.99 233.39 154.59 256.57 140.99 233.39 127.39"/><path class="e" d="M213.31,155l16.38,9.6v-8.24l-16.38-9.61Zm11.15-.15,3.95,2.32v5.36l-3.95-2.31Zm-5-2.93,3.88,2.28v5.36l-3.88-2.28Zm-4.93-2.9,3.83,2.25v5.37l-3.83-2.25Z"/></svg>