<svg xmlns="http://www.w3.org/2000/svg" viewBox="0 0 420.41 245.67"><defs><style>.a{fill:none;stroke:#000;stroke-miterlimit:10;}.b{fill:#c4692c;}.c{fill:#f58536;}.d{fill:#a0501a;}.e{fill:#fff;}</style></defs><title>Asset 111</title><polygon class="a" points="236.36 30.25 53.3 137.67 236.36 245.09 419.43 137.67 236.36 30.25"/><polygon class="b" points="43.23 224.7 0 199.33 0 160.38 43.23 185.75 43.23 224.7"/><polygon class="c" points="43.23 224.7 86.46 199.33 86.46 160.38 43.23 185.75 43.23 224.7"/><polygon class="d" points="43.23 135.01 0 160.38 43.23 185.75 86.46 160.38 43.23 135.01"/><path class="e" d="M5.78,186.56l30.56,17.91V189.1L5.78,171.17Zm20.79-.27,7.36,4.32v10l-7.36-4.32Zm-9.33-5.47,7.25,4.25v10l-7.25-4.25Zm-9.19-5.41,7.14,4.2v10l-7.14-4.19Z"/><polygon class="b" points="117.53 165.73 80.02 143.47 80.02 106.41 117.53 128.67 117.53 165.73"/><polygon class="c" points="117.53 165.73 282.09 69.17 282.09 32.1 117.53 128.67 117.53 165.73"/><polygon class="d" points="244.59 9.84 80.02 106.41 117.53 128.67 282.09 32.1 244.59 9.84"/><polygon class="b" points="240.94 48.09 217.76 34.49 217.76 13.6 240.94 27.2 240.94 48.09"/><polygon class="c" points="240.94 48.09 264.12 34.49 264.12 13.6 240.94 27.2 240.94 48.09"/><polygon class="d" points="240.94 0 217.76 13.6 240.94 27.2 264.12 13.6 240.94 0"/><path class="e" d="M220.85,27.64l16.39,9.61V29l-16.39-9.61ZM232,27.5,236,29.81v5.36L232,32.86Zm-5-2.94,3.89,2.28V32.2L227,29.92Zm-4.93-2.9,3.83,2.25v5.37L222.07,27Z"/></svg>