<svg xmlns="http://www.w3.org/2000/svg" viewBox="0 0 368.11 427.91"><defs><style>.a{fill:none;stroke:#000;stroke-miterlimit:10;}.b{fill:#c4692c;}.c{fill:#f58536;}.d{fill:#a0501a;}</style></defs><title>Asset 153</title><polygon class="a" points="184.05 212.2 0.99 319.62 184.05 427.04 367.12 319.62 184.05 212.2"/><polygon class="b" points="182.88 279.81 134.81 251.61 134.81 208.3 182.88 236.51 182.88 279.81"/><polygon class="c" points="182.88 279.81 230.96 251.61 230.96 208.3 182.88 236.51 182.88 279.81"/><polygon class="d" points="182.88 180.09 134.81 208.3 182.88 236.51 230.96 208.3 182.88 180.09"/><polygon class="b" points="240.94 314.45 192.87 286.24 192.86 242.93 240.94 271.14 240.94 314.45"/><polygon class="c" points="240.94 314.45 289.01 286.24 289.01 242.93 240.94 271.14 240.94 314.45"/><polygon class="d" points="240.94 214.72 192.86 242.93 240.94 271.14 289.01 242.93 240.94 214.72"/><polygon class="b" points="126.75 313.05 78.68 284.85 78.68 241.54 126.75 269.74 126.75 313.05"/><polygon class="c" points="126.75 313.05 174.83 284.85 174.83 241.54 126.75 269.74 126.75 313.05"/><polygon class="d" points="126.75 213.33 78.68 241.54 126.75 269.74 174.83 241.54 126.75 213.33"/><polygon class="a" points="184.05 7.28 0.99 114.7 184.05 222.12 367.12 114.7 184.05 7.28"/><polygon class="a" points="184.05 427.04 0.99 319.62 0.99 114.7 184.05 222.12 184.05 427.04"/><polygon class="a" points="184.05 427.04 367.12 319.62 367.12 114.7 184.05 222.12 184.05 427.04"/><polygon class="b" points="178.25 99.73 130.18 71.52 130.18 28.21 178.25 56.42 178.25 99.73"/><polygon class="c" points="178.25 99.73 226.32 71.52 226.32 28.21 178.25 56.42 178.25 99.73"/><polygon class="d" points="178.25 0 130.18 28.21 178.25 56.42 226.32 28.21 178.25 0"/></svg>