<svg xmlns="http://www.w3.org/2000/svg" viewBox="0 0 368.11 427.91"><defs><style>.a{fill:none;stroke:#000;stroke-miterlimit:10;}.b{fill:#c4692c;}.c{fill:#f58536;}.d{fill:#a0501a;}</style></defs><title>Asset 157</title><polygon class="a" points="184.05 212.2 0.99 319.62 184.05 427.04 367.12 319.62 184.05 212.2"/><polygon class="b" points="182.88 279.81 134.81 251.61 134.81 208.3 182.88 236.51 182.88 279.81"/><polygon class="c" points="182.88 279.81 230.96 251.61 230.96 208.3 182.88 236.51 182.88 279.81"/><polygon class="d" points="182.88 180.09 134.81 208.3 182.88 236.51 230.96 208.3 182.88 180.09"/><polygon class="b" points="182.88 221.15 134.81 192.94 134.81 149.63 182.88 177.84 182.88 221.15"/><polygon class="c" points="182.88 221.15 230.96 192.94 230.96 149.63 182.88 177.84 182.88 221.15"/><polygon class="d" points="182.88 121.42 134.81 149.63 182.88 177.84 230.96 149.63 182.88 121.42"/><polygon class="b" points="182.88 161.18 134.81 132.97 134.81 89.66 182.88 117.87 182.88 161.18"/><polygon class="c" points="182.88 161.18 230.96 132.97 230.96 89.66 182.88 117.87 182.88 161.18"/><polygon class="d" points="182.88 61.45 134.81 89.66 182.88 117.87 230.96 89.66 182.88 61.45"/><polygon class="b" points="240.94 314.45 192.87 286.24 192.86 242.93 240.94 271.14 240.94 314.45"/><polygon class="c" points="240.94 314.45 289.01 286.24 289.01 242.93 240.94 271.14 240.94 314.45"/><polygon class="d" points="240.94 214.72 192.86 242.93 240.94 271.14 289.01 242.93 240.94 214.72"/><polygon class="b" points="240.94 255.78 192.87 227.58 192.86 184.27 240.94 212.48 240.94 255.78"/><polygon class="c" points="240.94 255.78 289.01 227.58 289.01 184.27 240.94 212.48 240.94 255.78"/><polygon class="d" points="240.94 156.06 192.86 184.27 240.94 212.48 289.01 184.27 240.94 156.06"/><polygon class="b" points="240.94 195.81 192.87 167.6 192.86 124.3 240.94 152.5 240.94 195.81"/><polygon class="c" points="240.94 195.81 289.01 167.6 289.01 124.3 240.94 152.5 240.94 195.81"/><polygon class="d" points="240.94 96.09 192.86 124.3 240.94 152.5 289.01 124.3 240.94 96.09"/><polygon class="b" points="300.21 350.21 252.14 322 252.14 278.69 300.21 306.9 300.21 350.21"/><polygon class="c" points="300.21 350.21 348.29 322 348.29 278.69 300.21 306.9 300.21 350.21"/><polygon class="d" points="300.21 250.48 252.14 278.69 300.21 306.9 348.29 278.69 300.21 250.48"/><polygon class="b" points="300.21 291.54 252.14 263.33 252.14 220.03 300.21 248.24 300.21 291.54"/><polygon class="c" points="300.21 291.54 348.29 263.33 348.29 220.03 300.21 248.24 300.21 291.54"/><polygon class="d" points="300.21 191.82 252.14 220.03 300.21 248.24 348.29 220.03 300.21 191.82"/><polygon class="b" points="126.75 313.05 78.68 284.85 78.68 241.54 126.75 269.74 126.75 313.05"/><polygon class="c" points="126.75 313.05 174.83 284.85 174.83 241.54 126.75 269.74 126.75 313.05"/><polygon class="d" points="126.75 213.33 78.68 241.54 126.75 269.74 174.83 241.54 126.75 213.33"/><polygon class="b" points="126.75 254.39 78.68 226.18 78.68 182.87 126.75 211.08 126.75 254.39"/><polygon class="c" points="126.75 254.39 174.83 226.18 174.83 182.87 126.75 211.08 126.75 254.39"/><polygon class="d" points="126.75 154.66 78.68 182.87 126.75 211.08 174.83 182.87 126.75 154.66"/><polygon class="b" points="126.75 194.41 78.68 166.21 78.68 122.9 126.75 151.11 126.75 194.41"/><polygon class="c" points="126.75 194.41 174.83 166.21 174.83 122.9 126.75 151.11 126.75 194.41"/><polygon class="d" points="126.75 94.69 78.68 122.9 126.75 151.11 174.83 122.9 126.75 94.69"/><polygon class="b" points="184.81 347.69 136.74 319.48 136.74 276.17 184.81 304.38 184.81 347.69"/><polygon class="c" points="184.81 347.69 232.88 319.48 232.88 276.17 184.81 304.38 184.81 347.69"/><polygon class="d" points="184.81 247.96 136.74 276.17 184.81 304.38 232.88 276.17 184.81 247.96"/><polygon class="b" points="243.4 382.89 195.33 354.68 195.33 311.37 243.4 339.58 243.4 382.89"/><polygon class="c" points="243.4 382.89 291.47 354.68 291.47 311.37 243.4 339.58 243.4 382.89"/><polygon class="d" points="243.4 283.16 195.33 311.37 243.4 339.58 291.47 311.37 243.4 283.16"/><polygon class="b" points="67.4 346.29 19.33 318.08 19.33 274.77 67.4 302.98 67.4 346.29"/><polygon class="c" points="67.4 346.29 115.47 318.08 115.47 274.77 67.4 302.98 67.4 346.29"/><polygon class="d" points="67.4 246.56 19.33 274.77 67.4 302.98 115.47 274.77 67.4 246.56"/><polygon class="b" points="67.4 287.63 19.33 259.42 19.33 216.11 67.4 244.32 67.4 287.63"/><polygon class="c" points="67.4 287.63 115.47 259.42 115.47 216.11 67.4 244.32 67.4 287.63"/><polygon class="d" points="67.4 187.9 19.33 216.11 67.4 244.32 115.47 216.11 67.4 187.9"/><polygon class="b" points="125.46 380.93 77.38 352.72 77.38 309.41 125.46 337.62 125.46 380.93"/><polygon class="c" points="125.46 380.93 173.53 352.72 173.53 309.41 125.46 337.62 125.46 380.93"/><polygon class="d" points="125.46 281.2 77.38 309.41 125.46 337.62 173.53 309.41 125.46 281.2"/><polygon class="a" points="184.05 7.28 0.99 114.7 184.05 222.12 367.12 114.7 184.05 7.28"/><polygon class="a" points="184.05 427.04 0.99 319.62 0.99 114.7 184.05 222.12 184.05 427.04"/><polygon class="a" points="184.05 427.04 367.12 319.62 367.12 114.7 184.05 222.12 184.05 427.04"/><polygon class="b" points="178.25 99.73 130.18 71.52 130.18 28.21 178.25 56.42 178.25 99.73"/><polygon class="c" points="178.25 99.73 226.32 71.52 226.32 28.21 178.25 56.42 178.25 99.73"/><polygon class="d" points="178.25 0 130.18 28.21 178.25 56.42 226.32 28.21 178.25 0"/></svg>