<?xml version="1.0" encoding="utf-8" ?>
<svg baseProfile="full" height="125.46338331717229" id="graph" version="1.1" viewBox="0,0,300.0,125.46338331717229" width="300.0" xmlns="http://www.w3.org/2000/svg" xmlns:ev="http://www.w3.org/2001/xml-events" xmlns:xlink="http://www.w3.org/1999/xlink"><defs><filter id="brightness"><feComponentTransfer in="SourceGraphic"><feFuncR slope="0.6" type="linear" /><feFuncG slope="0.6" type="linear" /><feFuncB slope="0.6" type="linear" /></feComponentTransfer></filter><filter id="darker"><feComponentTransfer in="SourceGraphic"><feFuncR slope="0.4" type="linear" /><feFuncG slope="0.4" type="linear" /><feFuncB slope="0.4" type="linear" /></feComponentTransfer></filter><marker id="markers.arrow" markerHeight="12.5" markerWidth="12.5" refX="152" refY="3" viewBox="0.0,0.0,157.21,92.25"><polygon class="black" points="0,30.75 157.21,0 104.81,92.25 63.79,54.82 0,30.75" /></marker><symbol id="grid.base" preserveAspectRatio="xMidYMax meet" viewBox="0.0,0.0,266.4,156.32"><polygon class="gdarker" points="133.2,0 0,78.16 133.2,156.32 266.4,78.16" /></symbol><style type="text/css"><![CDATA[.dark{fill: currentColor;}.darker{filter: url(#brightness)}.2darker{filter: url(#darker)}text{font-family:Arial, Helvetica, sans-serif; fill: #672064;}.white{fill:#fff;}.gray{fill:#d1d1d1;}.gdarker{fill:#bababa}.black{fill:#000}.lgray{fill:#ccc},.gray2{fill:#6d6d6d}]]></style><symbol id="loadbalance.medium" preserveAspectRatio="xMidYMax meet" viewBox="0.0,0.0,188.28,99.11"><polygon class="darker" points="188.28,41.53 169.91,30.61 128.52,34.44 132.16,8.2 118.36,0 113.02,38.54 26.61,90.42 41.09,99.11 125.77,48.28 188.28,41.53" /><polygon points="34.83,87.44 53.33,83.78 47.16,94.77 42.34,90.31 34.83,87.44" /><polygon points="58.72,72.57 77.22,68.91 71.05,79.89 66.23,75.43 58.72,72.57" /><polygon points="80.44,59.94 98.93,56.28 92.77,67.27 87.94,62.81 80.44,59.94" /><polygon class="dark" points="18.58,83.78 0,72.62 0,54.03 18.58,65.19 18.58,83.78" /><polygon class="light" points="18.58,83.78 100.13,35.35 100.13,16.77 18.58,65.19 18.58,83.78" /><polygon class="darker" points="81.54,5.6 0,54.03 18.58,65.19 100.13,16.77 81.54,5.6" /><polygon points="102.02,46.59 120.52,42.93 114.35,53.92 109.53,49.46 102.02,46.59" /><polygon points="115.95,24.69 124.31,12.12 128.63,24.69 123.06,23.53 115.95,24.69" /><polygon points="141.73,34.63 155.38,38.78 142.05,45.57 143.9,39.97 141.73,34.63" /><polygon class="dark" points="80.69,21.06 71.74,15.75 71.74,7.59 80.69,12.9 80.69,21.06" /><polygon class="light" points="80.69,21.06 89.64,15.75 89.64,7.59 80.69,12.9 80.69,21.06" /><polygon class="darker" points="80.69,2.27 71.74,7.59 80.69,12.9 89.64,7.59 80.69,2.27" /><path class="white" d="M72.94,13.07l6.32,3.75V13.6L72.94,9.85Zm4.3-.06,1.52.91V16l-1.52-.9Zm-1.93-1.14,1.5.89v2.09L75.31,14Zm-1.9-1.14,1.47.88v2.1l-1.47-.88Z" /></symbol><style type="text/css"><![CDATA[.aws{color: #f58536;fill: #c4692c;}]]></style><symbol id="boundaries_box.front" preserveAspectRatio="xMidYMax meet" viewBox="0.0,0.0,265.58,292.78"><polygon class="gdarker" fill-opacity="0.3" points="132.79,0 0,77.92 132.79,155.84 265.58,77.92 132.79,0" /><polygon class="lgray" fill-opacity="0.2" points="132.79,155.84 132.79,292.78 0,214.86 0,77.92 132.79,155.84" /><polygon class="lgray" fill-opacity="0.2" points="265.58,77.92 265.58,214.86 132.79,292.78 132.79,155.84 265.58,77.92" /></symbol><style type="text/css"><![CDATA[.dark{fill: currentColor;}.darker{filter: url(#brightness)}.2darker{filter: url(#darker)}text{font-family:Arial, Helvetica, sans-serif; fill: #672064;}.white{fill:#fff;}.gray{fill:#d1d1d1;}.gdarker{fill:#bababa}.black{fill:#000}.lgray{fill:#ccc},.gray2{fill:#6d6d6d}]]></style><g id="tool-5b340835b3bad96ea3a82eff"><text x="0" y="0"><tspan class="name">lb 2</tspan><tspan class="dc">aws</tspan><tspan class="family">Loadbalance</tspan></text></g></defs><rect fill="#eaeaea" height="125.46338331717229" width="300.0" x="0" y="0" /><polyline fill="#ccc" fill-opacity="0.2" points="0.0,96.1285575522506 50.0,66.79373178732891 100.0,96.1285575522506 50.0,125.46338331717229" /><use class="default" fill-opacity="0.4" height="190.0" width="100" x="0.0" xlink:href="#grid.base" y="-64.53661668282771" /><use class="aws" height="190.0" width="83.0" x="8.5" xlink:href="#loadbalance.medium" y="-69.52353706286439" /><use class="default boundaries" height="190.0" id="5b340835b3bad96ea3a82eff" width="100" x="0.0" xlink:href="#boundaries_box.front" y="-64.53661668282771" /><text font-size="16.0" transform="translate(15.0, -64.53661668282771) skewY(-30.404) skewX(41.0) translate(-138.86, 288.73661668282773)" x="0.0" y="-64.53661668282771">lb 2</text></svg>