<?xml version="1.0" encoding="utf-8" ?>
<svg baseProfile="full" height="899.9027835111049" id="graph" version="1.1" viewBox="0,0,1420.0000000000002,899.9027835111049" width="1420.0000000000002" xmlns="http://www.w3.org/2000/svg" xmlns:ev="http://www.w3.org/2001/xml-events" xmlns:xlink="http://www.w3.org/1999/xlink"><defs><filter id="brightness"><feComponentTransfer in="SourceGraphic"><feFuncR slope="0.6" type="linear" /><feFuncG slope="0.6" type="linear" /><feFuncB slope="0.6" type="linear" /></feComponentTransfer></filter><filter id="darker"><feComponentTransfer in="SourceGraphic"><feFuncR slope="0.4" type="linear" /><feFuncG slope="0.4" type="linear" /><feFuncB slope="0.4" type="linear" /></feComponentTransfer></filter><marker id="markers.arrow" markerHeight="12.5" markerWidth="12.5" refX="152" refY="3" viewBox="0.0,0.0,157.21,92.25"><polygon class="black" points="0,30.75 157.21,0 104.81,92.25 63.79,54.82 0,30.75" /></marker><g id="0-1"><path class="conector" d="M405.00000000000006 468.680844766756 455.00000000000006 468.680844766756 660.0000000000001 577.2197000969663 685.0000000000001 562.5522872145054" fill="none" marker-end="url(#markers.arrow)" opacity="0.8" stroke="black" stroke-width="1" /><path class="conector_h conn-5b68a0ecea0637002f6a4e34" d="M405.00000000000006 468.680844766756 455.00000000000006 468.680844766756 660.0000000000001 577.2197000969663 685.0000000000001 562.5522872145054" fill="none" opacity="0" stroke="black" stroke-width="18" /><text display="none" x="0" y="0">None</text></g><g id="0-0"><path class="conector" d="M405.00000000000006 468.680844766756 455.00000000000006 468.680844766756 826.6666666666667 685.6174857331453 716.6666666666667 750.154102415973 880.0000000000001 835.3661668282771 905.0000000000001 820.6987539458162" fill="none" marker-end="url(#markers.arrow)" opacity="0.8" stroke="black" stroke-width="1" /><path class="conector_h conn-5b68a0ecea0637002f6a4e34" d="M405.00000000000006 468.680844766756 455.00000000000006 468.680844766756 826.6666666666667 685.6174857331453 716.6666666666667 750.154102415973 880.0000000000001 835.3661668282771 905.0000000000001 820.6987539458162" fill="none" opacity="0" stroke="black" stroke-width="18" /><text display="none" x="0" y="0">None</text></g><g id="0-1"><path class="conector" d="M405.00000000000006 468.680844766756 405.00000000000006 439.34601900183435 330.00000000000006 383.6098500484831 355.00000000000006 368.9424371660223" fill="none" marker-end="url(#markers.arrow)" opacity="0.8" stroke="black" stroke-width="1" /><path class="conector_h conn-5b68a0ecea0637002f6a4e34" d="M405.00000000000006 468.680844766756 405.00000000000006 439.34601900183435 330.00000000000006 383.6098500484831 355.00000000000006 368.9424371660223" fill="none" opacity="0" stroke="black" stroke-width="18" /><text display="none" x="0" y="0">None</text></g><g id="0-1"><path class="conector" d="M405.00000000000006 468.680844766756 405.00000000000006 439.34601900183435 110.0 254.5366166828277 135.0 239.86920380036688" fill="none" marker-end="url(#markers.arrow)" opacity="0.8" stroke="black" stroke-width="1" /><path class="conector_h conn-5b68a0ecea0637002f6a4e34" d="M405.00000000000006 468.680844766756 405.00000000000006 439.34601900183435 110.0 254.5366166828277 135.0 239.86920380036688" fill="none" opacity="0" stroke="black" stroke-width="18" /><text display="none" x="0" y="0">None</text></g><g id="0-1"><path class="conector" d="M405.00000000000006 468.680844766756 455.00000000000006 468.680844766756 550.0000000000001 512.6830834141385 575.0000000000001 498.0156705316777" fill="none" marker-end="url(#markers.arrow)" opacity="0.8" stroke="black" stroke-width="1" /><path class="conector_h conn-5b68a0ecea0637002f6a4e34" d="M405.00000000000006 468.680844766756 455.00000000000006 468.680844766756 550.0000000000001 512.6830834141385 575.0000000000001 498.0156705316777" fill="none" opacity="0" stroke="black" stroke-width="18" /><text display="none" x="0" y="0">None</text></g><g id="1-0"><path class="conector" d="M1065.0 726.8273114980668 1065.0 697.4924857331451 936.6666666666667 621.0808690503176 716.6666666666667 750.154102415973 880.0000000000001 835.3661668282771 905.0000000000001 820.6987539458162" fill="none" marker-end="url(#markers.arrow)" opacity="0.8" stroke="black" stroke-width="1" /><path class="conector_h conn-5b6cc2caea0637002f6a4e41" d="M1065.0 726.8273114980668 1065.0 697.4924857331451 936.6666666666667 621.0808690503176 716.6666666666667 750.154102415973 880.0000000000001 835.3661668282771 905.0000000000001 820.6987539458162" fill="none" opacity="0" stroke="black" stroke-width="18" /><text display="none" x="0" y="0">None</text></g><g id="1-2"><path class="conector" d="M1065.0 726.8273114980668 1065.0 697.4924857331451 550.0000000000001 383.6098500484831 575.0000000000001 368.9424371660223" fill="none" marker-end="url(#markers.arrow)" opacity="0.8" stroke="black" stroke-width="1" /><path class="conector_h conn-5b6cc2caea0637002f6a4e41" d="M1065.0 726.8273114980668 1065.0 697.4924857331451 550.0000000000001 383.6098500484831 575.0000000000001 368.9424371660223" fill="none" opacity="0" stroke="black" stroke-width="18" /><text display="none" x="0" y="0">None</text></g><g id="1-2"><path class="conector" d="M1175.0000000000002 791.3639281808946 1210.0000000000002 770.8295501454495 1235.0000000000002 756.1621372629886" fill="none" marker-end="url(#markers.arrow)" opacity="0.8" stroke="black" stroke-width="1" /><path class="conector_h conn-5b7208c27550fe6fac1d9f30" d="M1175.0000000000002 791.3639281808946 1210.0000000000002 770.8295501454495 1235.0000000000002 756.1621372629886" fill="none" opacity="0" stroke="black" stroke-width="18" /><text display="none" x="0" y="0">None</text></g><g id="1-1"><path class="conector" d="M185.0 210.5343780354452 235.0 210.5343780354452 276.6666666666667 233.86116895335118 166.66666666666666 298.3977856361789 330.00000000000006 383.6098500484831 355.00000000000006 368.9424371660223" fill="none" marker-end="url(#markers.arrow)" opacity="0.8" stroke="black" stroke-width="1" /><path class="conector_h conn-5b689a7aea0637002f6a4e32" d="M185.0 210.5343780354452 235.0 210.5343780354452 276.6666666666667 233.86116895335118 166.66666666666666 298.3977856361789 330.00000000000006 383.6098500484831 355.00000000000006 368.9424371660223" fill="none" opacity="0" stroke="black" stroke-width="18" /><text display="none" x="0" y="0">rest</text></g><g id="0-1"><path class="conector" d="M955.0000000000001 791.3639281808946 955.0000000000001 762.0291024159728 660.0000000000001 577.2197000969663 685.0000000000001 562.5522872145054" fill="none" marker-end="url(#markers.arrow)" opacity="0.8" stroke="black" stroke-width="1" /><path class="conector_h conn-5b68a0f7ea0637002f6a4e36" d="M955.0000000000001 791.3639281808946 955.0000000000001 762.0291024159728 660.0000000000001 577.2197000969663 685.0000000000001 562.5522872145054" fill="none" opacity="0" stroke="black" stroke-width="18" /><text display="none" x="0" y="0">None</text></g><g id="0-1"><path class="conector" d="M955.0000000000001 791.3639281808946 955.0000000000001 762.0291024159728 880.0000000000001 706.2929334626219 905.0000000000001 691.625520580161" fill="none" marker-end="url(#markers.arrow)" opacity="0.8" stroke="black" stroke-width="1" /><path class="conector_h conn-5b68a0f7ea0637002f6a4e36" d="M955.0000000000001 791.3639281808946 955.0000000000001 762.0291024159728 880.0000000000001 706.2929334626219 905.0000000000001 691.625520580161" fill="none" opacity="0" stroke="black" stroke-width="18" /><text display="none" x="0" y="0">None</text></g><g id="0-1"><path class="conector" d="M955.0000000000001 791.3639281808946 990.0000000000001 770.8295501454495 1015.0000000000001 756.1621372629886" fill="none" marker-end="url(#markers.arrow)" opacity="0.8" stroke="black" stroke-width="1" /><path class="conector_h conn-5b68a0f7ea0637002f6a4e36" d="M955.0000000000001 791.3639281808946 990.0000000000001 770.8295501454495 1015.0000000000001 756.1621372629886" fill="none" opacity="0" stroke="black" stroke-width="18" /><text display="none" x="0" y="0">rest</text></g><g id="0-1"><path class="conector" d="M955.0000000000001 791.3639281808946 1005.0000000000001 791.3639281808945 1100.0000000000002 835.3661668282773 1125.0000000000002 820.6987539458164" fill="none" marker-end="url(#markers.arrow)" opacity="0.8" stroke="black" stroke-width="1" /><path class="conector_h conn-5b68a0f7ea0637002f6a4e36" d="M955.0000000000001 791.3639281808946 1005.0000000000001 791.3639281808945 1100.0000000000002 835.3661668282773 1125.0000000000002 820.6987539458164" fill="none" opacity="0" stroke="black" stroke-width="18" /><text display="none" x="0" y="0">rest</text></g><g id="1-0"><path class="conector" d="M625.0000000000001 468.680844766756 625.0000000000001 439.34601900183435 166.66666666666666 169.3245522705235 -53.33333333333335 298.3977856361789 330.00000000000006 512.6830834141385 355.00000000000006 498.0156705316777" fill="none" marker-end="url(#markers.arrow)" opacity="0.8" stroke="black" stroke-width="1" /><path class="conector_h conn-5b68b7787430c30009b54ccb" d="M625.0000000000001 468.680844766756 625.0000000000001 439.34601900183435 166.66666666666666 169.3245522705235 -53.33333333333335 298.3977856361789 330.00000000000006 512.6830834141385 355.00000000000006 498.0156705316777" fill="none" opacity="0" stroke="black" stroke-width="18" /><text display="none" x="0" y="0">None</text></g><g id="1-2"><path class="conector" d="M405.00000000000006 339.6076114011006 405.00000000000006 310.2727856361789 330.00000000000006 254.5366166828277 355.00000000000006 239.86920380036688" fill="none" marker-end="url(#markers.arrow)" opacity="0.8" stroke="black" stroke-width="1" /><path class="conector_h conn-5b68a0f1ea0637002f6a4e35" d="M405.00000000000006 339.6076114011006 405.00000000000006 310.2727856361789 330.00000000000006 254.5366166828277 355.00000000000006 239.86920380036688" fill="none" opacity="0" stroke="black" stroke-width="18" /><text display="none" x="0" y="0">None</text></g><g id="1-3"><path class="conector" d="M405.00000000000006 339.6076114011006 405.00000000000006 310.2727856361789 273.0 233.86116895335118 358.00000000000006 183.99196515298433 330.00000000000006 125.46338331717229 355.00000000000006 110.79597043471145" fill="none" marker-end="url(#markers.arrow)" opacity="0.8" stroke="black" stroke-width="1" /><path class="conector_h conn-5b68a0f1ea0637002f6a4e35" d="M405.00000000000006 339.6076114011006 405.00000000000006 310.2727856361789 273.0 233.86116895335118 358.00000000000006 183.99196515298433 330.00000000000006 125.46338331717229 355.00000000000006 110.79597043471145" fill="none" opacity="0" stroke="black" stroke-width="18" /><text display="none" x="0" y="0">rest</text></g><g id="1-2"><path class="conector" d="M405.00000000000006 339.6076114011006 455.00000000000006 339.60761140110066 550.0000000000001 383.6098500484831 575.0000000000001 368.9424371660223" fill="none" marker-end="url(#markers.arrow)" opacity="0.8" stroke="black" stroke-width="1" /><path class="conector_h conn-5b68a0f1ea0637002f6a4e35" d="M405.00000000000006 339.6076114011006 455.00000000000006 339.60761140110066 550.0000000000001 383.6098500484831 575.0000000000001 368.9424371660223" fill="none" opacity="0" stroke="black" stroke-width="18" /><text display="none" x="0" y="0">None</text></g><symbol id="grid.entry" preserveAspectRatio="xMidYMax meet" viewBox="0.0,0.0,208.98,126.7"><path class="dark-gray" d="M209,0H118.66l10.8,6.34H95.74l15.35,9a149.84,149.84,0,0,0-18.57-1.14C41.42,14.21,0,39.39,0,70.46S41.42,126.7,92.52,126.7,185,101.52,185,70.46a35.82,35.82,0,0,0-2.58-13.24L199,66.94V47.15L209,53Z" /></symbol><style type="text/css"><![CDATA[.dark{fill: currentColor;}.darker{filter: url(#brightness)}.2darker{filter: url(#darker)}text{font-family:Arial, Helvetica, sans-serif; fill: #672064;}.white{fill:#fff;}.gray{fill:#d1d1d1;}.gdarker{fill:#bababa}.black{fill:#000}.lgray{fill:#ccc},.gray2{fill:#6d6d6d}.dark-gray2{fill:#757575}.little-white{fill:#efefef}.light-gray{fill:#f2f2f2;}]]></style><g id="-1-0"><path class="conector" d="M295.00000000000006 533.2174614495837 330.00000000000006 512.6830834141385 355.00000000000006 498.0156705316777" fill="none" marker-end="url(#markers.arrow)" opacity="0.8" stroke="black" stroke-width="1" /><path class="conector_h conn-5b68a0ecea0637002f6a4e34" d="M295.00000000000006 533.2174614495837 330.00000000000006 512.6830834141385 355.00000000000006 498.0156705316777" fill="none" opacity="0" stroke="black" stroke-width="18" /><text display="none" x="0" y="0">{}</text></g><symbol id="grid.base" preserveAspectRatio="xMidYMax meet" viewBox="0.0,0.0,266.4,156.32"><polygon class="gdarker" points="133.2,0 0,78.16 133.2,156.32 266.4,78.16" /></symbol><symbol id="application.small" preserveAspectRatio="xMidYMax meet" viewBox="0.0,0.0,266.4,259.12"><polygon class="dark" points="133.2,259.12 0,180.96 0,85.52 133.2,163.68 133.2,259.12" /><polygon class="light" points="133.2,259.12 266.4,180.96 266.4,85.52 133.2,163.68 133.2,259.12" /><polygon class="darker" points="133.2,7.36 0,85.52 133.2,163.68 266.4,85.52 133.2,7.36" /><path class="white" d="M51.15,163.52l70,41V169.35l-70-41Zm47.62-.61,16.85,9.89v22.9l-16.85-9.89ZM77.4,150.37,94,160.11V183l-16.6-9.73ZM56.36,138l16.34,9.62v22.91l-16.34-9.6Z" /><polygon class="dark" points="133.2,99.81 80.39,68.82 80.39,30.99 133.2,61.97 133.2,99.81" /><polygon class="light" points="133.2,99.81 186.01,68.82 186.01,30.99 133.2,61.97 133.2,99.81" /><polygon class="darker" points="133.2,0 80.39,30.99 133.2,61.97 186.01,30.99 133.2,0" /></symbol><style type="text/css"><![CDATA[.premise{color: #5b5b5b;fill: #8e8e8e;}]]></style><symbol id="boundaries_box.front" preserveAspectRatio="xMidYMax meet" viewBox="0.0,0.0,265.58,292.78"><polygon class="gdarker" fill-opacity="0.3" points="132.79,0 0,77.92 132.79,155.84 265.58,77.92 132.79,0" /><polygon class="lgray" fill-opacity="0.2" points="132.79,155.84 132.79,292.78 0,214.86 0,77.92 132.79,155.84" /><polygon class="lgray" fill-opacity="0.2" points="265.58,77.92 265.58,214.86 132.79,292.78 132.79,155.84 265.58,77.92" /></symbol><style type="text/css"><![CDATA[.dark{fill: currentColor;}.darker{filter: url(#brightness)}.2darker{filter: url(#darker)}text{font-family:Arial, Helvetica, sans-serif; fill: #672064;}.white{fill:#fff;}.gray{fill:#d1d1d1;}.gdarker{fill:#bababa}.black{fill:#000}.lgray{fill:#ccc},.gray2{fill:#6d6d6d}.dark-gray2{fill:#757575}.little-white{fill:#efefef}.light-gray{fill:#f2f2f2;}]]></style><g id="tool-5b68a0ecea0637002f6a4e34"><text x="0" y="0"><tspan class="name">app4</tspan><tspan class="dc">premise</tspan><tspan class="family">Application</tspan></text></g><symbol id="loadbalance.medium" preserveAspectRatio="xMidYMax meet" viewBox="0.0,0.0,265.58,155.84"><polygon class="light-gray" points="132.79,0 0,77.92 132.79,155.84 265.58,77.92 132.79,0" /><polygon class="light-black" points="244.14,65.23 233.09,71.79 161.21,69.62 206.26,43.14 195.45,36.8 150.2,63.01 146.39,21.15 138,16.16 146.39,21.15 157.44,14.59 146.39,8.03 135.35,14.59 135.35,14.59 139.12,69.55 61.78,114.21 72.94,120.72 150.17,76.18 244.14,78.35 255.18,71.79 244.14,65.23" /><polygon class="dark-gray2" points="243.04,64.59 232,71.15 160.12,68.98 205.16,42.5 194.36,36.16 149.1,62.37 145.3,20.51 136.91,15.53 145.3,20.51 156.34,13.95 145.3,7.39 134.26,13.95 134.26,13.95 138.03,68.91 60.69,113.57 71.85,120.08 149.08,75.54 243.04,77.71 254.09,71.15 243.04,64.59" /><polygon class="dark" points="81.48,97.33 64.08,87.12 64.08,41.27 81.48,51.48 81.48,97.33" /><path class="white" d="M66.28,62.29l12.3,7.21V63.31L66.28,56.1Zm8.37-.11,3,1.74v4l-3-1.74ZM70.89,60l2.92,1.71v4L70.89,64Zm-3.7-2.18,2.87,1.69v4l-2.87-1.69Z" /><polygon class="light" points="81.48,97.33 98.88,87.12 98.88,41.27 81.48,51.48 81.48,97.33" /><polygon class="darker" points="81.48,31.06 64.08,41.27 81.48,51.48 98.88,41.27 81.48,31.06" /><path class="white" d="M66.41,54.55l12.3,7.21V55.57l-12.3-7.21Zm8.37-.11,3,1.74v4l-3-1.74ZM71,52.24,73.94,54v4L71,56.26Zm-3.7-2.18,2.88,1.69v4l-2.88-1.69Z" /><polygon class="dark" points="69.46,104.57 60.51,99.26 60.51,91.1 69.46,96.41 69.46,104.57" /><polygon class="light" points="69.46,104.57 78.41,99.26 78.41,91.1 69.46,96.41 69.46,104.57" /><polygon class="darker" points="69.46,85.78 60.51,91.1 69.46,96.41 78.41,91.1 69.46,85.78" /><path class="white" d="M61.71,96.58,68,100.34V97.11l-6.32-3.75Zm4.3,0,1.53.9v2.1L66,98.62Zm-1.93-1.15,1.5.89v2.1l-1.5-.9Zm-1.9-1.13,1.48.88v2.09l-1.48-.88Z" /><polygon class="dark" points="143.83,20.4 134.88,15.09 134.88,6.93 143.83,12.24 143.83,20.4" /><polygon class="light" points="143.83,20.4 152.77,15.09 152.77,6.93 143.83,12.24 143.83,20.4" /><polygon class="darker" points="143.83,1.61 134.88,6.93 143.83,12.24 152.77,6.93 143.83,1.61" /><path class="white" d="M136.07,12.41l6.33,3.76V13l-6.33-3.76Zm4.31-.05,1.52.9v2.1l-1.52-.91Zm-1.93-1.15,1.5.89v2.1l-1.5-.9Zm-1.91-1.13L138,11v2.09l-1.48-.88Z" /><polygon class="dark" points="241.4,77.29 232.45,71.97 232.45,63.81 241.4,69.13 241.4,77.29" /><polygon class="light" points="241.4,77.29 250.35,71.97 250.35,63.81 241.4,69.13 241.4,77.29" /><polygon class="darker" points="241.4,58.5 232.45,63.81 241.4,69.13 250.35,63.81 241.4,58.5" /><path class="white" d="M233.65,69.3,240,73.05V69.83l-6.32-3.75Zm4.3-.06,1.53.91v2.09l-1.53-.9ZM236,68.1l1.5.89v2.09l-1.5-.89ZM234.12,67l1.48.88v2.1l-1.48-.88Z" /><polygon class="dark" points="193.61,48.51 184.66,43.19 184.66,35.03 193.61,40.35 193.61,48.51" /><polygon class="light" points="193.61,48.51 202.56,43.19 202.56,35.03 193.61,40.35 193.61,48.51" /><polygon class="darker" points="193.61,29.72 184.66,35.03 193.61,40.35 202.56,35.03 193.61,29.72" /><path class="white" d="M185.86,40.52l6.32,3.75V41.05l-6.32-3.76Zm4.3-.06,1.53.91v2.09l-1.53-.9Zm-1.93-1.15,1.5.89v2.1l-1.5-.89Zm-1.9-1.13,1.48.88v2.1l-1.48-.88Z" /><polygon class="little-white" points="69.46,110.64 80.61,108.44 76.89,115.06 73.98,112.37 69.46,110.64" /><polygon class="little-white" points="90.96,97.25 102.11,95.04 98.39,101.66 95.48,98.98 90.96,97.25" /><polygon class="little-white" points="111.13,86.36 122.27,84.16 118.56,90.78 115.65,88.09 111.13,86.36" /><polygon class="little-white" points="131.63,74.45 142.77,72.24 139.06,78.86 136.15,76.18 131.63,74.45" /><polygon class="little-white" points="154.96,60.71 166.11,58.5 162.39,65.12 159.49,62.43 154.96,60.71" /><polygon class="little-white" points="173.52,49.92 184.66,47.71 180.95,54.33 178.04,51.64 173.52,49.92" /><polygon class="little-white" points="140.08,59.22 142.47,52.98 145.47,57.86 142.99,57.96 140.08,59.22" /><polygon class="little-white" points="170.69,69.92 176.83,72.66 170.2,75.06 171.4,72.55 170.69,69.92" /><polygon class="little-white" points="193.76,70.54 199.9,73.28 193.27,75.68 194.46,73.17 193.76,70.54" /><polygon class="little-white" points="214.53,71.08 220.67,73.82 214.04,76.22 215.23,73.71 214.53,71.08" /><polygon class="little-white" points="138.44,42.79 140.83,36.55 143.83,41.43 141.35,41.53 138.44,42.79" /><polygon class="little-white" points="137.39,27.8 139.78,21.56 142.77,26.44 140.3,26.54 137.39,27.8" /></symbol><style type="text/css"><![CDATA[.aws{color: #f58536;fill: #c4692c;}]]></style><g id="tool-5b68b7787430c30009b54cce"><text x="0" y="0"><tspan class="name">US-AECP-DEVQA36CA-MOCK-ELB1</tspan><tspan class="dc">aws</tspan><tspan class="family">Loadbalance</tspan><tspan class="provider">ELB (AWS)</tspan></text></g><symbol id="database.medium" preserveAspectRatio="xMidYMax meet" viewBox="0.0,0.0,401.82,427.9"><polygon class="dark" points="209.95,427.9 26.89,320.49 26.89,115.56 209.95,222.98 209.95,427.9" /><polygon class="light" points="209.95,427.9 393.01,320.49 393.01,115.56 209.95,222.98 209.95,427.9" /><polygon class="darker" points="209.95,8.14 26.89,115.56 209.95,222.98 393.01,115.56 209.95,8.14" /><path class="white" d="M285.61,228.58l-64.7,37.93V234l64.7-38Zm-44-.57L226,237.15v21.18l15.57-9.14Zm19.76-11.59-15.34,9V246.6l15.34-9ZM280.79,205l-15.11,8.89V235l15.11-8.87Z" /><polygon class="dark" points="43.23,380.68 0,355.31 0,316.36 43.23,341.73 43.23,380.68" /><polygon class="light" points="43.23,380.68 86.46,355.31 86.46,316.36 43.23,341.73 43.23,380.68" /><polygon class="darker" points="43.23,291 0,316.36 43.23,341.73 86.46,316.36 43.23,291" /><path class="white" d="M5.78,342.54l30.56,17.92V345.09L5.78,327.16Zm20.79-.27,7.36,4.32v10l-7.36-4.31Zm-9.33-5.47,7.25,4.25v10l-7.25-4.25Zm-9.19-5.41,7.14,4.2v10l-7.14-4.2Z" /><polygon class="dark" points="368.53,217.16 335.24,197.63 335.24,167.63 368.53,187.17 368.53,217.16" /><polygon class="light" points="368.53,217.16 401.82,197.63 401.82,167.63 368.53,187.17 368.53,217.16" /><polygon class="darker" points="368.53,148.1 335.24,167.63 368.53,187.17 401.82,167.63 368.53,148.1" /><polygon class="dark" points="204.15,99.73 156.07,71.52 156.07,28.21 204.15,56.42 204.15,99.73" /><polygon class="light" points="204.15,99.73 252.22,71.52 252.22,28.21 204.15,56.42 204.15,99.73" /><polygon class="darker" points="204.15,0 156.07,28.21 204.15,56.42 252.22,28.21 204.15,0" /><polygon class="dark" points="43.23,328.48 0,303.11 0,264.16 43.23,289.53 43.23,328.48" /><polygon class="light" points="43.23,328.48 86.46,303.11 86.46,264.16 43.23,289.53 43.23,328.48" /><polygon class="darker" points="43.23,238.79 0,264.16 43.23,289.53 86.46,264.16 43.23,238.79" /><path class="white" d="M5.78,290.34l30.56,17.91V292.88L5.78,275Zm20.79-.27,7.36,4.32v10l-7.36-4.32Zm-9.33-5.48,7.25,4.26v10l-7.25-4.25Zm-9.19-5.4,7.14,4.2v10L8.05,289.2Z" /></symbol><g id="tool-5b689a7aea0637002f6a4e32"><text x="0" y="0"><tspan class="name">saikat-neptune-test-off-333</tspan><tspan class="dc">aws</tspan><tspan class="family">Database</tspan><tspan class="provider">RDS (AWS)</tspan></text></g><g id="tool-5b6cc2caea0637002f6a4e41"><text x="0" y="0"><tspan class="name">app8</tspan><tspan class="dc">premise</tspan><tspan class="family">Application</tspan></text></g><symbol id="broker.medium" preserveAspectRatio="xMidYMax meet" viewBox="0.0,0.0,266.4,156.32"><polygon class="light-gray" points="133.2,0 0,78.16 133.2,156.32 266.4,78.16 133.2,0" /><path class="light-black" d="M158.51,27.57l7.08-3.85-30.83-5.21,5.89,18.75L147,33.83c5.27,10.92-3.56,26.16-23.92,38S76.2,88.75,57.2,85.34l7.3-4.19L32,76.56l7.92,18.66,5.86-3.36c24.75,6.68,60.61,1.33,87.12-14.2C159.15,62.28,168.73,41.72,158.51,27.57Z" /><path class="light-black" d="M136,136.16l-8.53-18.69-7,4.19c-6.15-11,2.16-26.28,22.38-38.19s45.81-16.9,64.07-13.57l-5.75,3.67,31.24,4-8.6-18.42-6.43,4.11c-23.54-6.36-58.17-.93-84.4,14.45C106.41,93.19,97.49,114,109.4,128.21l-5.66,3.36Z" /><polygon class="dark" points="180.87,54.8 171.92,49.49 171.92,41.33 180.87,46.65 180.87,54.8" /><polygon class="light" points="180.87,54.8 189.82,49.49 189.82,41.33 180.87,46.65 180.87,54.8" /><polygon class="darker" points="180.87,36.02 171.92,41.33 180.87,46.65 189.82,41.33 180.87,36.02" /><path class="white" d="M173.12,46.81l6.32,3.76V47.35l-6.32-3.76Zm4.3-.05,1.52.9v2.1l-1.52-.91Zm-1.93-1.15,1.5.89v2.1l-1.5-.89Zm-1.9-1.13,1.47.88v2.09l-1.47-.87Z" /><path class="dark-gray2" d="M156.64,26l7.08-3.85L132.88,17l5.89,18.75,6.33-3.43c5.27,10.92-3.55,26.16-23.91,38S74.33,87.21,55.33,83.79l7.29-4.18L30.15,75l7.92,18.66,5.86-3.36c24.74,6.68,60.6,1.32,87.12-14.2C157.28,60.74,166.85,40.18,156.64,26Z" /><path class="dark-gray2" d="M134.11,134.62l-8.53-18.69-7,4.19c-6.15-11,2.16-26.28,22.39-38.19S186.72,65,205,68.36L199.24,72l31.23,4-8.59-18.42-6.43,4.11c-23.55-6.36-58.17-.93-84.4,14.45-26.52,15.52-35.43,36.33-23.52,50.55L101.87,130Z" /><polygon class="little-white" points="150.9,40.52 153.25,33.06 156.02,37.5 153.44,38.36 150.9,40.52" /><polygon class="little-white" points="146.16,53.17 151.38,47.35 152.07,52.53 149.36,52.25 146.16,53.17" /><polygon class="little-white" points="136.76,63.41 144.14,60.81 142.26,65.69 140.02,64.15 136.76,63.41" /><polygon class="little-white" points="63.54,92.18 56.78,87.07 62.31,85.86 62.26,88.81 63.54,92.18" /><polygon class="little-white" points="88.77,90.35 80.57,88.24 85.2,84.99 86.29,87.73 88.77,90.35" /><polygon class="little-white" points="114.54,82.67 106.08,82.3 109.94,78.16 111.57,80.62 114.54,82.67" /><polygon class="little-white" points="112.69,111.15 111.85,119.58 107.93,115.49 110.48,114 112.69,111.15" /><polygon class="little-white" points="117.93,98.19 111.16,103.28 111.51,97.63 114.33,98.49 117.93,98.19" /><polygon class="little-white" points="129.06,87.54 121.05,90.3 123.12,85.04 125.54,86.72 129.06,87.54" /><polygon class="little-white" points="198.03,60.85 202.61,65.24 198.39,65.66 198.69,63.47 198.03,60.85" /><polygon class="little-white" points="173.91,63.12 180.02,64.81 176.51,67.19 175.73,65.11 173.91,63.12" /><polygon class="little-white" points="148.25,71.25 154.57,71.77 151.56,74.75 150.41,72.87 148.25,71.25" /><polygon class="dark" points="118.15,58.98 106.66,52.24 106.66,21.97 118.15,28.71 118.15,58.98" /><path class="white" d="M108.11,35.85l8.12,4.76V36.52l-8.12-4.76Zm5.53-.07,2,1.14v2.66l-2-1.15Zm-2.48-1.46,1.92,1.13v2.66L111.16,37Zm-2.44-1.44L110.61,34v2.66l-1.89-1.12Z" /><polygon class="light" points="118.15,58.98 129.64,52.24 129.64,21.97 118.15,28.71 118.15,58.98" /><polygon class="darker" points="118.15,15.23 106.66,21.97 118.15,28.71 129.64,21.97 118.15,15.23" /><path class="white" d="M108.2,30.74l8.12,4.76V31.41l-8.12-4.76Zm5.52-.08,2,1.15v2.66l-2-1.15Zm-2.48-1.45,1.93,1.13V33l-1.93-1.13Zm-2.44-1.44,1.9,1.12v2.66l-1.9-1.12Z" /></symbol><g id="tool-5b7208c27550fe6fac1d9f30"><text x="0" y="0"><tspan class="name">bkr</tspan><tspan class="dc">Aws</tspan><tspan class="family">Broker</tspan><tspan class="servers">2</tspan></text></g><g id="tool-5b68b7787430c3000a620f37"><text x="0" y="0"><tspan class="name">US-AECP-DEVQA36CA-MGW-ALB1</tspan><tspan class="dc">aws</tspan><tspan class="family">Loadbalance</tspan><tspan class="provider">ELB (AWS)</tspan></text></g><g id="tool-5b68b7787430c30009b54ccd"><text x="0" y="0"><tspan class="name">US-AECP-DEVQA36CA-RABBITMQ-ELB1</tspan><tspan class="dc">aws</tspan><tspan class="family">Loadbalance</tspan><tspan class="provider">ELB (AWS)</tspan></text></g><symbol id="application.medium" preserveAspectRatio="xMidYMax meet" viewBox="0.0,0.0,266.4,291.76"><polygon class="dark" points="133.2,291.76 0,213.6 0,78.16 133.2,156.32 133.2,291.76" /><polygon class="light" points="133.2,291.76 266.4,213.6 266.4,78.16 133.2,156.32 133.2,291.76" /><polygon class="darker" points="133.2,0 0,78.16 133.2,156.32 266.4,78.16 133.2,0" /><path class="white" d="M14.24,142.62l75.41,44.22V148.9L14.24,104.65ZM65.56,142l18.16,10.65v24.69L65.56,166.65Zm-23-13.52L60.42,139v24.68L42.53,153.14ZM19.85,115.1l17.61,10.38v24.68L19.85,139.82Z" /><polygon class="dark" points="103.31,111.32 50.51,80.33 50.5,42.49 103.31,73.48 103.31,111.32" /><polygon class="light" points="103.31,111.32 156.12,80.33 156.12,42.49 103.31,73.48 103.31,111.32" /><polygon class="darker" points="103.31,11.51 50.5,42.49 103.31,73.48 156.12,42.49 103.31,11.51" /></symbol><symbol id="application.micro" preserveAspectRatio="xMidYMax meet" viewBox="0.0,0.0,266.4,251.76"><polygon class="dark" points="133.2,251.76 0,173.6 0,78.16 133.2,156.32 133.2,251.76" /><polygon class="light" points="133.2,251.76 266.4,173.6 266.4,78.16 133.2,156.32 133.2,251.76" /><polygon class="darker" points="133.2,0 0,78.16 133.2,156.32 266.4,78.16 133.2,0" /><path class="white" d="M257.42,130l-70,41V135.8l70-41.05Zm-47.62-.61L193,139.25v22.91l16.84-9.89Zm21.37-12.54-16.59,9.74v22.9l16.59-9.74Zm21-12.38-16.34,9.62V137l16.34-9.59Z" /></symbol><style type="text/css"><![CDATA[.linode{color: #08a830;fill: #037720;}]]></style><style type="text/css"><![CDATA[.ocean{color: #0080FF;fill: #046cce;}]]></style><g id="tool-5b68a0f7ea0637002f6a4e36"><text x="0" y="0"><tspan class="name">app6</tspan><tspan class="dc">Digital ocean, Aws, Linode</tspan><tspan class="family">Application</tspan><tspan class="servers">6</tspan></text></g><g id="2-3"><path class="conector" d="M295.0 145.9977613526175 330.00000000000006 125.46338331717229 355.00000000000006 110.79597043471145" fill="none" marker-end="url(#markers.arrow)" opacity="0.8" stroke="black" stroke-width="1" /><path class="conector_h conn-5b97f3583cdad83c6c25aa56" d="M295.0 145.9977613526175 330.00000000000006 125.46338331717229 355.00000000000006 110.79597043471145" fill="none" opacity="0" stroke="black" stroke-width="18" /><text display="none" x="0" y="0">{}</text></g><g id="tool-5b97f3583cdad83c6c25aa56"><text x="0" y="0"><tspan class="name">root</tspan><tspan class="dc">premise</tspan><tspan class="family">Application</tspan></text></g><g id="tool-5b68b7787430c30009b54ccb"><text x="0" y="0"><tspan class="name">US-AECP-DEVQA36CA-MGM-ELB1</tspan><tspan class="dc">aws</tspan><tspan class="family">Loadbalance</tspan><tspan class="provider">ELB (AWS)</tspan></text></g><g id="tool-5b68a0f1ea0637002f6a4e35"><text x="0" y="0"><tspan class="name">app5</tspan><tspan class="dc">premise</tspan><tspan class="family">Application</tspan></text></g><symbol id="default" preserveAspectRatio="xMidYMax meet" viewBox="0.0,0.0,266.4,291.76"><polygon class="dark" points="133.2,291.76 0,213.6 0,78.16 133.2,156.32 133.2,291.76" /><polygon class="light" points="133.2,291.76 266.4,213.6 266.4,78.16 133.2,156.32 133.2,291.76" /><polygon class="darker" points="133.2,0 0,78.16 133.2,156.32 266.4,78.16 133.2,0" /><path class="white" d="M14.24,142.62l75.41,44.22V148.9L14.24,104.65ZM65.56,142l18.16,10.65v24.69L65.56,166.65Zm-23-13.52L60.42,139v24.68L42.53,153.14ZM19.85,115.1l17.61,10.38v24.68L19.85,139.82Z" /><polygon class="dark" points="103.31,111.32 50.51,80.33 50.5,42.49 103.31,73.48 103.31,111.32" /><polygon class="light" points="103.31,111.32 156.12,80.33 156.12,42.49 103.31,73.48 103.31,111.32" /><polygon class="darker" points="103.31,11.51 50.5,42.49 103.31,73.48 156.12,42.49 103.31,11.51" /></symbol><g id="tool-5b68b77b7430c30009b54df8"><text x="0" y="0"><tspan class="name">rndsecuredetails</tspan><tspan class="dc">aws</tspan><tspan class="family">ObjectStorage</tspan><tspan class="provider">S3 (AWS)</tspan></text></g><g id="tool-5b68b7787430c3000a620f38"><text x="0" y="0"><tspan class="name">US-AECP-DEVQA36CA-3PGW-ALB1</tspan><tspan class="dc">aws</tspan><tspan class="family">Loadbalance</tspan><tspan class="provider">ELB (AWS)</tspan></text></g></defs><rect fill="#eaeaea" height="899.9027835111049" width="1420.0000000000002" x="0" y="0" /><g id="0-1"><path class="conector" d="M405.00000000000006 468.680844766756 455.00000000000006 468.680844766756 660.0000000000001 577.2197000969663 685.0000000000001 562.5522872145054" fill="none" marker-end="url(#markers.arrow)" opacity="0.8" stroke="black" stroke-width="1" /><path class="conector_h conn-5b68a0ecea0637002f6a4e34" d="M405.00000000000006 468.680844766756 455.00000000000006 468.680844766756 660.0000000000001 577.2197000969663 685.0000000000001 562.5522872145054" fill="none" opacity="0" stroke="black" stroke-width="18" /><text display="none" x="0" y="0">None</text></g><g id="0-0"><path class="conector" d="M405.00000000000006 468.680844766756 455.00000000000006 468.680844766756 826.6666666666667 685.6174857331453 716.6666666666667 750.154102415973 880.0000000000001 835.3661668282771 905.0000000000001 820.6987539458162" fill="none" marker-end="url(#markers.arrow)" opacity="0.8" stroke="black" stroke-width="1" /><path class="conector_h conn-5b68a0ecea0637002f6a4e34" d="M405.00000000000006 468.680844766756 455.00000000000006 468.680844766756 826.6666666666667 685.6174857331453 716.6666666666667 750.154102415973 880.0000000000001 835.3661668282771 905.0000000000001 820.6987539458162" fill="none" opacity="0" stroke="black" stroke-width="18" /><text display="none" x="0" y="0">None</text></g><g id="0-1"><path class="conector" d="M405.00000000000006 468.680844766756 405.00000000000006 439.34601900183435 330.00000000000006 383.6098500484831 355.00000000000006 368.9424371660223" fill="none" marker-end="url(#markers.arrow)" opacity="0.8" stroke="black" stroke-width="1" /><path class="conector_h conn-5b68a0ecea0637002f6a4e34" d="M405.00000000000006 468.680844766756 405.00000000000006 439.34601900183435 330.00000000000006 383.6098500484831 355.00000000000006 368.9424371660223" fill="none" opacity="0" stroke="black" stroke-width="18" /><text display="none" x="0" y="0">None</text></g><g id="0-1"><path class="conector" d="M405.00000000000006 468.680844766756 405.00000000000006 439.34601900183435 110.0 254.5366166828277 135.0 239.86920380036688" fill="none" marker-end="url(#markers.arrow)" opacity="0.8" stroke="black" stroke-width="1" /><path class="conector_h conn-5b68a0ecea0637002f6a4e34" d="M405.00000000000006 468.680844766756 405.00000000000006 439.34601900183435 110.0 254.5366166828277 135.0 239.86920380036688" fill="none" opacity="0" stroke="black" stroke-width="18" /><text display="none" x="0" y="0">None</text></g><g id="0-1"><path class="conector" d="M405.00000000000006 468.680844766756 455.00000000000006 468.680844766756 550.0000000000001 512.6830834141385 575.0000000000001 498.0156705316777" fill="none" marker-end="url(#markers.arrow)" opacity="0.8" stroke="black" stroke-width="1" /><path class="conector_h conn-5b68a0ecea0637002f6a4e34" d="M405.00000000000006 468.680844766756 455.00000000000006 468.680844766756 550.0000000000001 512.6830834141385 575.0000000000001 498.0156705316777" fill="none" opacity="0" stroke="black" stroke-width="18" /><text display="none" x="0" y="0">None</text></g><g id="1-0"><path class="conector" d="M1065.0 726.8273114980668 1065.0 697.4924857331451 936.6666666666667 621.0808690503176 716.6666666666667 750.154102415973 880.0000000000001 835.3661668282771 905.0000000000001 820.6987539458162" fill="none" marker-end="url(#markers.arrow)" opacity="0.8" stroke="black" stroke-width="1" /><path class="conector_h conn-5b6cc2caea0637002f6a4e41" d="M1065.0 726.8273114980668 1065.0 697.4924857331451 936.6666666666667 621.0808690503176 716.6666666666667 750.154102415973 880.0000000000001 835.3661668282771 905.0000000000001 820.6987539458162" fill="none" opacity="0" stroke="black" stroke-width="18" /><text display="none" x="0" y="0">None</text></g><g id="1-2"><path class="conector" d="M1065.0 726.8273114980668 1065.0 697.4924857331451 550.0000000000001 383.6098500484831 575.0000000000001 368.9424371660223" fill="none" marker-end="url(#markers.arrow)" opacity="0.8" stroke="black" stroke-width="1" /><path class="conector_h conn-5b6cc2caea0637002f6a4e41" d="M1065.0 726.8273114980668 1065.0 697.4924857331451 550.0000000000001 383.6098500484831 575.0000000000001 368.9424371660223" fill="none" opacity="0" stroke="black" stroke-width="18" /><text display="none" x="0" y="0">None</text></g><g id="1-2"><path class="conector" d="M1175.0000000000002 791.3639281808946 1210.0000000000002 770.8295501454495 1235.0000000000002 756.1621372629886" fill="none" marker-end="url(#markers.arrow)" opacity="0.8" stroke="black" stroke-width="1" /><path class="conector_h conn-5b7208c27550fe6fac1d9f30" d="M1175.0000000000002 791.3639281808946 1210.0000000000002 770.8295501454495 1235.0000000000002 756.1621372629886" fill="none" opacity="0" stroke="black" stroke-width="18" /><text display="none" x="0" y="0">None</text></g><g id="1-1"><path class="conector" d="M185.0 210.5343780354452 235.0 210.5343780354452 276.6666666666667 233.86116895335118 166.66666666666666 298.3977856361789 330.00000000000006 383.6098500484831 355.00000000000006 368.9424371660223" fill="none" marker-end="url(#markers.arrow)" opacity="0.8" stroke="black" stroke-width="1" /><path class="conector_h conn-5b689a7aea0637002f6a4e32" d="M185.0 210.5343780354452 235.0 210.5343780354452 276.6666666666667 233.86116895335118 166.66666666666666 298.3977856361789 330.00000000000006 383.6098500484831 355.00000000000006 368.9424371660223" fill="none" opacity="0" stroke="black" stroke-width="18" /><text display="none" x="0" y="0">rest</text></g><g id="0-1"><path class="conector" d="M955.0000000000001 791.3639281808946 955.0000000000001 762.0291024159728 660.0000000000001 577.2197000969663 685.0000000000001 562.5522872145054" fill="none" marker-end="url(#markers.arrow)" opacity="0.8" stroke="black" stroke-width="1" /><path class="conector_h conn-5b68a0f7ea0637002f6a4e36" d="M955.0000000000001 791.3639281808946 955.0000000000001 762.0291024159728 660.0000000000001 577.2197000969663 685.0000000000001 562.5522872145054" fill="none" opacity="0" stroke="black" stroke-width="18" /><text display="none" x="0" y="0">None</text></g><g id="0-1"><path class="conector" d="M955.0000000000001 791.3639281808946 955.0000000000001 762.0291024159728 880.0000000000001 706.2929334626219 905.0000000000001 691.625520580161" fill="none" marker-end="url(#markers.arrow)" opacity="0.8" stroke="black" stroke-width="1" /><path class="conector_h conn-5b68a0f7ea0637002f6a4e36" d="M955.0000000000001 791.3639281808946 955.0000000000001 762.0291024159728 880.0000000000001 706.2929334626219 905.0000000000001 691.625520580161" fill="none" opacity="0" stroke="black" stroke-width="18" /><text display="none" x="0" y="0">None</text></g><g id="0-1"><path class="conector" d="M955.0000000000001 791.3639281808946 990.0000000000001 770.8295501454495 1015.0000000000001 756.1621372629886" fill="none" marker-end="url(#markers.arrow)" opacity="0.8" stroke="black" stroke-width="1" /><path class="conector_h conn-5b68a0f7ea0637002f6a4e36" d="M955.0000000000001 791.3639281808946 990.0000000000001 770.8295501454495 1015.0000000000001 756.1621372629886" fill="none" opacity="0" stroke="black" stroke-width="18" /><text display="none" x="0" y="0">rest</text></g><g id="0-1"><path class="conector" d="M955.0000000000001 791.3639281808946 1005.0000000000001 791.3639281808945 1100.0000000000002 835.3661668282773 1125.0000000000002 820.6987539458164" fill="none" marker-end="url(#markers.arrow)" opacity="0.8" stroke="black" stroke-width="1" /><path class="conector_h conn-5b68a0f7ea0637002f6a4e36" d="M955.0000000000001 791.3639281808946 1005.0000000000001 791.3639281808945 1100.0000000000002 835.3661668282773 1125.0000000000002 820.6987539458164" fill="none" opacity="0" stroke="black" stroke-width="18" /><text display="none" x="0" y="0">rest</text></g><g id="1-0"><path class="conector" d="M625.0000000000001 468.680844766756 625.0000000000001 439.34601900183435 166.66666666666666 169.3245522705235 -53.33333333333335 298.3977856361789 330.00000000000006 512.6830834141385 355.00000000000006 498.0156705316777" fill="none" marker-end="url(#markers.arrow)" opacity="0.8" stroke="black" stroke-width="1" /><path class="conector_h conn-5b68b7787430c30009b54ccb" d="M625.0000000000001 468.680844766756 625.0000000000001 439.34601900183435 166.66666666666666 169.3245522705235 -53.33333333333335 298.3977856361789 330.00000000000006 512.6830834141385 355.00000000000006 498.0156705316777" fill="none" opacity="0" stroke="black" stroke-width="18" /><text display="none" x="0" y="0">None</text></g><g id="1-2"><path class="conector" d="M405.00000000000006 339.6076114011006 405.00000000000006 310.2727856361789 330.00000000000006 254.5366166828277 355.00000000000006 239.86920380036688" fill="none" marker-end="url(#markers.arrow)" opacity="0.8" stroke="black" stroke-width="1" /><path class="conector_h conn-5b68a0f1ea0637002f6a4e35" d="M405.00000000000006 339.6076114011006 405.00000000000006 310.2727856361789 330.00000000000006 254.5366166828277 355.00000000000006 239.86920380036688" fill="none" opacity="0" stroke="black" stroke-width="18" /><text display="none" x="0" y="0">None</text></g><g id="1-3"><path class="conector" d="M405.00000000000006 339.6076114011006 405.00000000000006 310.2727856361789 273.0 233.86116895335118 358.00000000000006 183.99196515298433 330.00000000000006 125.46338331717229 355.00000000000006 110.79597043471145" fill="none" marker-end="url(#markers.arrow)" opacity="0.8" stroke="black" stroke-width="1" /><path class="conector_h conn-5b68a0f1ea0637002f6a4e35" d="M405.00000000000006 339.6076114011006 405.00000000000006 310.2727856361789 273.0 233.86116895335118 358.00000000000006 183.99196515298433 330.00000000000006 125.46338331717229 355.00000000000006 110.79597043471145" fill="none" opacity="0" stroke="black" stroke-width="18" /><text display="none" x="0" y="0">rest</text></g><g id="1-2"><path class="conector" d="M405.00000000000006 339.6076114011006 455.00000000000006 339.60761140110066 550.0000000000001 383.6098500484831 575.0000000000001 368.9424371660223" fill="none" marker-end="url(#markers.arrow)" opacity="0.8" stroke="black" stroke-width="1" /><path class="conector_h conn-5b68a0f1ea0637002f6a4e35" d="M405.00000000000006 339.6076114011006 455.00000000000006 339.60761140110066 550.0000000000001 383.6098500484831 575.0000000000001 368.9424371660223" fill="none" opacity="0" stroke="black" stroke-width="18" /><text display="none" x="0" y="0">None</text></g><g id="-1-0"><path class="conector" d="M295.00000000000006 533.2174614495837 330.00000000000006 512.6830834141385 355.00000000000006 498.0156705316777" fill="none" marker-end="url(#markers.arrow)" opacity="0.8" stroke="black" stroke-width="1" /><path class="conector_h conn-5b68a0ecea0637002f6a4e34" d="M295.00000000000006 533.2174614495837 330.00000000000006 512.6830834141385 355.00000000000006 498.0156705316777" fill="none" opacity="0" stroke="black" stroke-width="18" /><text display="none" x="0" y="0">{}</text></g><use class="default" height="190.0" width="100" x="220.00000000000006" xlink:href="#grid.entry" y="387.2197000969662" /><polyline fill="#ccc" fill-opacity="0.2" points="0.0,289.73840760073375 50.0,260.4035818358121 760.0000000000001,676.9581076977 710.0000000000001,706.2929334626217" /><use class="default" fill-opacity="0.4" height="190.0" width="100" x="330.00000000000006" xlink:href="#grid.base" y="322.68308341413854" /><use class="premise" height="95.0" width="36.0" x="362.00000000000006" xlink:href="#application.small" y="398.9087949245887" /><use class="default boundaries" height="190.0" id="5b68a0ecea0637002f6a4e34" width="100" x="330.00000000000006" xlink:href="#boundaries_box.front" y="322.68308341413854" /><text font-size="16.0" transform="translate(345.00000000000006, 322.68308341413854) skewY(-30.404) skewX(41.0) translate(-468.86000000000007, -98.48308341413855)" x="330.00000000000006" y="322.68308341413854">app4</text><polyline fill="#ccc" fill-opacity="0.2" points="330.00000000000006,225.20179091790604 380.00000000000006,195.86696515298433 430.00000000000006,225.20179091790604 380.00000000000006,254.5366166828277" /><use class="default" fill-opacity="0.4" height="190.0" width="100" x="330.00000000000006" xlink:href="#grid.base" y="64.53661668282771" /><use class="aws" height="190.0" width="83.0" x="338.50000000000006" xlink:href="#loadbalance.medium" y="59.54969630279103" /><use class="default boundaries" height="190.0" id="5b68b7787430c30009b54cce" width="100" x="330.00000000000006" xlink:href="#boundaries_box.front" y="64.53661668282771" /><text font-size="16.0" transform="translate(345.00000000000006, 64.53661668282771) skewY(-30.404) skewX(41.0) translate(-491.9000000000001, 159.66338331717228)" x="330.00000000000006" y="64.53661668282771">US-AECP-DE</text><polyline fill="#ccc" fill-opacity="0.2" points="110.00000000000001,225.20179091790604 160.0,195.86696515298433 210.0,225.20179091790604 160.0,254.5366166828277" /><use class="default" fill-opacity="0.4" height="190.0" width="100" x="110.00000000000001" xlink:href="#grid.base" y="64.53661668282771" /><use class="aws" height="190.0" width="83.0" x="118.50000000000001" xlink:href="#database.medium" y="59.54969630279103" /><use class="default boundaries" height="190.0" id="5b689a7aea0637002f6a4e32" width="100" x="110.00000000000001" xlink:href="#boundaries_box.front" y="64.53661668282771" /><text font-size="16.0" transform="translate(125.00000000000001, 64.53661668282771) skewY(-30.404) skewX(41.0) translate(-271.90000000000003, 159.66338331717228)" x="110.00000000000001" y="64.53661668282771">saikat-nep</text><polyline fill="#ccc" fill-opacity="0.2" points="990.0000000000001,741.4947243805277 1040.0,712.159898615606 1090.0,741.4947243805277 1040.0,770.8295501454494" /><use class="default" fill-opacity="0.4" height="190.0" width="100" x="990.0000000000001" xlink:href="#grid.base" y="580.8295501454494" /><use class="premise" height="95.0" width="36.0" x="1022.0000000000001" xlink:href="#application.small" y="657.0552616558996" /><use class="default boundaries" height="190.0" id="5b6cc2caea0637002f6a4e41" width="100" x="990.0000000000001" xlink:href="#boundaries_box.front" y="580.8295501454494" /><text font-size="16.0" transform="translate(1005.0000000000001, 580.8295501454494) skewY(-30.404) skewX(41.0) translate(-1128.8600000000001, -356.6295501454494)" x="990.0000000000001" y="580.8295501454494">app8</text><polyline fill="#ccc" fill-opacity="0.2" points="1100.0000000000002,806.0313410633555 1150.0000000000002,776.6965152984338 1200.0000000000002,806.0313410633555 1150.0000000000002,835.3661668282772" /><use class="default" fill-opacity="0.4" height="190.0" width="100" x="1100.0000000000002" xlink:href="#grid.base" y="645.3661668282772" /><use class="aws" height="190.0" width="83.0" x="1108.5000000000002" xlink:href="#broker.medium" y="640.3792464482405" /><use class="default boundaries" height="190.0" id="5b7208c27550fe6fac1d9f30" width="100" x="1100.0000000000002" xlink:href="#boundaries_box.front" y="645.3661668282772" /><text font-size="16.0" transform="translate(1115.0000000000002, 645.3661668282772) skewY(-30.404) skewX(41.0) translate(-1235.0200000000002, -421.1661668282772)" x="1100.0000000000002" y="645.3661668282772">bkr</text><polyline fill="#ccc" fill-opacity="0.2" points="660.0000000000001,547.8848743320445 710.0000000000001,518.5500485671229 760.0000000000001,547.8848743320445 710.0000000000001,577.2197000969662" /><use class="default" fill-opacity="0.4" height="190.0" width="100" x="660.0000000000001" xlink:href="#grid.base" y="387.2197000969662" /><use class="aws" height="190.0" width="83.0" x="668.5000000000001" xlink:href="#loadbalance.medium" y="382.23277971692954" /><use class="default boundaries" height="190.0" id="5b68b7787430c3000a620f37" width="100" x="660.0000000000001" xlink:href="#boundaries_box.front" y="387.2197000969662" /><text font-size="16.0" transform="translate(675.0000000000001, 387.2197000969662) skewY(-30.404) skewX(41.0) translate(-821.9000000000001, -163.01970009696623)" x="660.0000000000001" y="387.2197000969662">US-AECP-DE</text><polyline fill="#ccc" fill-opacity="0.2" points="550.0000000000001,354.27502428356144 600.0000000000001,324.94019851863976 650.0000000000001,354.27502428356144 600.0000000000001,383.6098500484831" /><use class="default" fill-opacity="0.4" height="190.0" width="100" x="550.0000000000001" xlink:href="#grid.base" y="193.6098500484831" /><use class="aws" height="190.0" width="83.0" x="558.5000000000001" xlink:href="#loadbalance.medium" y="188.62292966844643" /><use class="default boundaries" height="190.0" id="5b68b7787430c30009b54ccd" width="100" x="550.0000000000001" xlink:href="#boundaries_box.front" y="193.6098500484831" /><text font-size="16.0" transform="translate(565.0000000000001, 193.6098500484831) skewY(-30.404) skewX(41.0) translate(-711.9000000000001, 30.590149951516878)" x="550.0000000000001" y="193.6098500484831">US-AECP-DE</text><polyline fill="#ccc" fill-opacity="0.2" points="770.0000000000001,741.4947243805278 820.0000000000001,712.1598986156062 1090.0,870.5679577461832 1040.0,899.9027835111049" /><use class="default" fill-opacity="0.4" height="190.0" width="100" x="880.0000000000001" xlink:href="#grid.base" y="645.3661668282771" /><use class="aws" height="63.333333333333336" width="24.333333333333336" x="917.8333333333335" xlink:href="#application.medium" y="730.2795981562052" /><use class="aws" height="63.333333333333336" width="24.333333333333336" x="934.5000000000001" xlink:href="#application.medium" y="740.0578734111791" /><use class="aws" height="63.333333333333336" width="24.333333333333336" x="951.1666666666667" xlink:href="#application.medium" y="749.836148666153" /><use class="aws" height="63.333333333333336" width="24.333333333333336" x="901.1666666666667" xlink:href="#application.micro" y="740.0578734111791" /><use class="linode" height="63.333333333333336" width="24.333333333333336" x="917.8333333333335" xlink:href="#application.micro" y="749.836148666153" /><use class="digital ocean" height="63.333333333333336" width="24.333333333333336" x="934.5000000000001" xlink:href="#application.micro" y="759.6144239211269" /><use class="default boundaries" height="190.0" id="5b68a0f7ea0637002f6a4e36" width="100" x="880.0000000000001" xlink:href="#boundaries_box.front" y="645.3661668282771" /><text font-size="16.0" transform="translate(895.0000000000001, 645.3661668282771) skewY(-30.404) skewX(41.0) translate(-1018.8600000000001, -421.1661668282771)" x="880.0000000000001" y="645.3661668282771">app6</text><g id="2-3"><path class="conector" d="M295.0 145.9977613526175 330.00000000000006 125.46338331717229 355.00000000000006 110.79597043471145" fill="none" marker-end="url(#markers.arrow)" opacity="0.8" stroke="black" stroke-width="1" /><path class="conector_h conn-5b97f3583cdad83c6c25aa56" d="M295.0 145.9977613526175 330.00000000000006 125.46338331717229 355.00000000000006 110.79597043471145" fill="none" opacity="0" stroke="black" stroke-width="18" /><text display="none" x="0" y="0">{}</text></g><use class="default" height="190.0" width="100" x="220.00000000000003" xlink:href="#grid.entry" y="0.0" /><polyline fill="#ccc" fill-opacity="0.2" points="330.00000000000006,96.1285575522506 380.00000000000006,66.79373178732891 430.00000000000006,96.1285575522506 380.00000000000006,125.46338331717229" /><use class="default" fill-opacity="0.4" height="190.0" width="100" x="330.00000000000006" xlink:href="#grid.base" y="-64.53661668282771" /><use class="premise" height="95.0" width="36.0" x="362.00000000000006" xlink:href="#application.small" y="11.689094827622414" /><use class="default boundaries" height="190.0" id="5b97f3583cdad83c6c25aa56" width="100" x="330.00000000000006" xlink:href="#boundaries_box.front" y="-64.53661668282771" /><text font-size="16.0" transform="translate(345.00000000000006, -64.53661668282771) skewY(-30.404) skewX(41.0) translate(-468.86000000000007, 288.73661668282773)" x="330.00000000000006" y="-64.53661668282771">root</text><polyline fill="#ccc" fill-opacity="0.2" points="550.0000000000001,483.34825764921686 600.0000000000001,454.0134318842952 650.0000000000001,483.34825764921686 600.0000000000001,512.6830834141385" /><use class="default" fill-opacity="0.4" height="190.0" width="100" x="550.0000000000001" xlink:href="#grid.base" y="322.68308341413854" /><use class="aws" height="190.0" width="83.0" x="558.5000000000001" xlink:href="#loadbalance.medium" y="317.69616303410186" /><use class="default boundaries" height="190.0" id="5b68b7787430c30009b54ccb" width="100" x="550.0000000000001" xlink:href="#boundaries_box.front" y="322.68308341413854" /><text font-size="16.0" transform="translate(565.0000000000001, 322.68308341413854) skewY(-30.404) skewX(41.0) translate(-711.9000000000001, -98.48308341413855)" x="550.0000000000001" y="322.68308341413854">US-AECP-DE</text><polyline fill="#ccc" fill-opacity="0.2" points="220.00000000000003,289.73840760073375 270.0,260.4035818358121 540.0,418.8116409663892 490.00000000000006,448.14646673131085" /><use class="default" fill-opacity="0.4" height="190.0" width="100" x="330.00000000000006" xlink:href="#grid.base" y="193.60985004848314" /><use class="premise" height="95.0" width="36.0" x="362.00000000000006" xlink:href="#application.small" y="269.83556155893325" /><use class="default boundaries" height="190.0" id="5b68a0f1ea0637002f6a4e35" width="100" x="330.00000000000006" xlink:href="#boundaries_box.front" y="193.60985004848314" /><text font-size="16.0" transform="translate(345.00000000000006, 193.60985004848314) skewY(-30.404) skewX(41.0) translate(-468.86000000000007, 30.59014995151685)" x="330.00000000000006" y="193.60985004848314">app5</text><polyline fill="#ccc" fill-opacity="0.2" points="880.0000000000001,676.9581076977001 930.0000000000001,647.6232819327785 980.0000000000001,676.9581076977001 930.0000000000001,706.2929334626218" /><use class="default" fill-opacity="0.4" height="190.0" width="100" x="880.0000000000001" xlink:href="#grid.base" y="516.2929334626218" /><use class="aws" height="190.0" width="83.0" x="888.5000000000001" xlink:href="#default" y="511.30601308258514" /><use class="default boundaries" height="190.0" id="5b68b77b7430c30009b54df8" width="100" x="880.0000000000001" xlink:href="#boundaries_box.front" y="516.2929334626218" /><text font-size="16.0" transform="translate(895.0000000000001, 516.2929334626218) skewY(-30.404) skewX(41.0) translate(-1041.9, -292.09293346262183)" x="880.0000000000001" y="516.2929334626218">rndsecured</text><polyline fill="#ccc" fill-opacity="0.2" points="1210.0000000000002,741.4947243805278 1260.0000000000002,712.1598986156062 1310.0000000000002,741.4947243805278 1260.0000000000002,770.8295501454495" /><use class="default" fill-opacity="0.4" height="190.0" width="100" x="1210.0000000000002" xlink:href="#grid.base" y="580.8295501454495" /><use class="aws" height="190.0" width="83.0" x="1218.5000000000002" xlink:href="#loadbalance.medium" y="575.8426297654128" /><use class="default boundaries" height="190.0" id="5b68b7787430c3000a620f38" width="100" x="1210.0000000000002" xlink:href="#boundaries_box.front" y="580.8295501454495" /><text font-size="16.0" transform="translate(1225.0000000000002, 580.8295501454495) skewY(-30.404) skewX(41.0) translate(-1371.9000000000003, -356.6295501454495)" x="1210.0000000000002" y="580.8295501454495">US-AECP-DE</text></svg>