<?xml version="1.0" encoding="utf-8" ?>
<svg baseProfile="full" height="448.14646673131085" id="graph" version="1.1" viewBox="0,0,650.0000000000001,448.14646673131085" width="650.0000000000001" xmlns="http://www.w3.org/2000/svg" xmlns:ev="http://www.w3.org/2001/xml-events" xmlns:xlink="http://www.w3.org/1999/xlink"><defs><filter id="brightness"><feComponentTransfer in="SourceGraphic"><feFuncR slope="0.6" type="linear" /><feFuncG slope="0.6" type="linear" /><feFuncB slope="0.6" type="linear" /></feComponentTransfer></filter><filter id="darker"><feComponentTransfer in="SourceGraphic"><feFuncR slope="0.4" type="linear" /><feFuncG slope="0.4" type="linear" /><feFuncB slope="0.4" type="linear" /></feComponentTransfer></filter><marker id="markers.arrow" markerHeight="12.5" markerWidth="12.5" refX="152" refY="3" viewBox="0.0,0.0,157.21,92.25"><polygon class="black" points="0,30.75 157.21,0 104.81,92.25 63.79,54.82 0,30.75" /></marker><g id="2-4"><path class="conector" d="M295.0 210.5343780354452 320.0 195.86696515298436 320.0 195.86696515298436 405.00000000000006 145.9977613526175 440.00000000000006 125.46338331717229 465.00000000000006 110.79597043471145" fill="none" marker-end="url(#markers.arrow)" opacity="0.8" stroke="black" stroke-width="1" /><path class="conector_h conn-5bc8c4e939f34a229d490b73" d="M295.0 210.5343780354452 320.0 195.86696515298436 320.0 195.86696515298436 405.00000000000006 145.9977613526175 440.00000000000006 125.46338331717229 465.00000000000006 110.79597043471145" fill="none" opacity="0" stroke="black" stroke-width="18" /><text display="none" x="0" y="0">None</text></g><g id="0-2"><path class="conector" d="M185.0 404.14422808392834 210.0 389.4768152014675 210.0 389.4768152014675 295.0 339.6076114011006 220.00000000000003 254.5366166828277 245.00000000000003 239.86920380036688" fill="none" marker-end="url(#markers.arrow)" opacity="0.8" stroke="black" stroke-width="1" /><path class="conector_h conn-5bc8c4f039f34a229d490b74" d="M185.0 404.14422808392834 210.0 389.4768152014675 210.0 389.4768152014675 295.0 339.6076114011006 220.00000000000003 254.5366166828277 245.00000000000003 239.86920380036688" fill="none" opacity="0" stroke="black" stroke-width="18" /><text display="none" x="0" y="0">None</text></g><symbol id="grid.entry" preserveAspectRatio="xMidYMax meet" viewBox="0.0,0.0,266.4,156.32"><polygon class="bg-gray" points="133.2,0 0,78.16 133.2,156.32 266.4,78.16 133.2,0" /><ellipse class="dark-gray" cx="107.32" cy="96.53" rx="52.1" ry="31.67" /><polygon class="dark-gray" points="200.47,39.41 137.82,51.66 146.03,54.76 118.35,60.17 148.64,71.6 168.11,89.37 176.97,73.78 179.59,76.17 200.47,39.41" /></symbol><style type="text/css"><![CDATA[.dark{fill: currentColor;}.darker{filter: url(#brightness)}.2darker{filter: url(#darker)}text{font-family:Arial, Helvetica, sans-serif; fill: #672064;}.white{fill:#fff;}.gray{fill:#d1d1d1;}.gdarker{fill:#bababa}.black{fill:#000}.lgray{fill:#ccc},.gray2{fill:#6d6d6d}.dark-gray2{fill:#757575}.little-white{fill:#efefef}.light-gray{fill:#f2f2f2;}.light-black{fill:#212121;}.bg-gray{fill:#fbfbfb;}.yellow{fill:#ecba16;}.dark-yellow{fill:#c69710;}.strblack{fill:none;stroke:#000;stroke-miterlimit:10;}]]></style><g id="-1-0"><path class="conector" d="M-35.000000000000014 404.14422808392834 0.0 383.6098500484831 25.0 368.9424371660223" fill="none" marker-end="url(#markers.arrow)" opacity="0.8" stroke="black" stroke-width="1" /><path class="conector_h conn-5bc8c4f839f34a229d490b76" d="M-35.000000000000014 404.14422808392834 0.0 383.6098500484831 25.0 368.9424371660223" fill="none" opacity="0" stroke="black" stroke-width="18" /><text display="none" x="0" y="0">{}</text></g><symbol id="grid.base" preserveAspectRatio="xMidYMax meet" viewBox="0.0,0.0,266.4,156.32"><polygon class="gdarker" points="133.2,0 0,78.16 133.2,156.32 266.4,78.16" /></symbol><symbol id="application.micro" preserveAspectRatio="xMidYMax meet" viewBox="0.0,0.0,266.4,251.76"><polygon class="dark" points="133.2,251.76 0,173.6 0,78.16 133.2,156.32 133.2,251.76" /><polygon class="light" points="133.2,251.76 266.4,173.6 266.4,78.16 133.2,156.32 133.2,251.76" /><polygon class="darker" points="133.2,0 0,78.16 133.2,156.32 266.4,78.16 133.2,0" /><path class="white" d="M257.42,130l-70,41V135.8l70-41.05Zm-47.62-.61L193,139.25v22.91l16.84-9.89Zm21.37-12.54-16.59,9.74v22.9l16.59-9.74Zm21-12.38-16.34,9.62V137l16.34-9.59Z" /></symbol><style type="text/css"><![CDATA[.aws{color: #f58536;fill: #c4692c;}]]></style><symbol id="boundaries_box.front" preserveAspectRatio="xMidYMax meet" viewBox="0.0,0.0,265.58,292.78"><polygon class="gdarker" fill-opacity="0.3" points="132.79,0 0,77.92 132.79,155.84 265.58,77.92 132.79,0" /><polygon class="lgray" fill-opacity="0.2" points="132.79,155.84 132.79,292.78 0,214.86 0,77.92 132.79,155.84" /><polygon class="lgray" fill-opacity="0.2" points="265.58,77.92 265.58,214.86 132.79,292.78 132.79,155.84 265.58,77.92" /></symbol><style type="text/css"><![CDATA[.dark{fill: currentColor;}.darker{filter: url(#brightness)}.2darker{filter: url(#darker)}text{font-family:Arial, Helvetica, sans-serif; fill: #672064;}.white{fill:#fff;}.gray{fill:#d1d1d1;}.gdarker{fill:#bababa}.black{fill:#000}.lgray{fill:#ccc},.gray2{fill:#6d6d6d}.dark-gray2{fill:#757575}.little-white{fill:#efefef}.light-gray{fill:#f2f2f2;}.light-black{fill:#212121;}.bg-gray{fill:#fbfbfb;}.yellow{fill:#ecba16;}.dark-yellow{fill:#c69710;}.strblack{fill:none;stroke:#000;stroke-miterlimit:10;}]]></style><g id="tool-5bc8c4f839f34a229d490b76"><text x="0" y="0"><tspan class="name">app5</tspan><tspan class="dc">Aws</tspan><tspan class="family">Application</tspan><tspan class="servers">1</tspan></text></g><g id="1-2"><path class="conector" d="M185.0 275.0709947182729 220.00000000000003 254.5366166828277 245.00000000000003 239.86920380036688" fill="none" marker-end="url(#markers.arrow)" opacity="0.8" stroke="black" stroke-width="1" /><path class="conector_h conn-5bc8c4e939f34a229d490b73" d="M185.0 275.0709947182729 220.00000000000003 254.5366166828277 245.00000000000003 239.86920380036688" fill="none" opacity="0" stroke="black" stroke-width="18" /><text display="none" x="0" y="0">{}</text></g><symbol id="application.medium" preserveAspectRatio="xMidYMax meet" viewBox="0.0,0.0,266.4,291.76"><polygon class="dark" points="133.2,291.76 0,213.6 0,78.16 133.2,156.32 133.2,291.76" /><polygon class="light" points="133.2,291.76 266.4,213.6 266.4,78.16 133.2,156.32 133.2,291.76" /><polygon class="darker" points="133.2,0 0,78.16 133.2,156.32 266.4,78.16 133.2,0" /><path class="white" d="M14.24,142.62l75.41,44.22V148.9L14.24,104.65ZM65.56,142l18.16,10.65v24.69L65.56,166.65Zm-23-13.52L60.42,139v24.68L42.53,153.14ZM19.85,115.1l17.61,10.38v24.68L19.85,139.82Z" /><polygon class="dark" points="103.31,111.32 50.51,80.33 50.5,42.49 103.31,73.48 103.31,111.32" /><polygon class="light" points="103.31,111.32 156.12,80.33 156.12,42.49 103.31,73.48 103.31,111.32" /><polygon class="darker" points="103.31,11.51 50.5,42.49 103.31,73.48 156.12,42.49 103.31,11.51" /></symbol><style type="text/css"><![CDATA[.premise{color: #5b5b5b;fill: #8e8e8e;}]]></style><g id="tool-5bc8c4e939f34a229d490b73"><text x="0" y="0"><tspan class="name">app4</tspan><tspan class="dc">premise</tspan><tspan class="family">Application</tspan></text></g><g id="3-4"><path class="conector" d="M405.00000000000006 145.9977613526175 440.00000000000006 125.46338331717229 465.00000000000006 110.79597043471145" fill="none" marker-end="url(#markers.arrow)" opacity="0.8" stroke="black" stroke-width="1" /><path class="conector_h conn-5bc8c4f439f34a229d490b75" d="M405.00000000000006 145.9977613526175 440.00000000000006 125.46338331717229 465.00000000000006 110.79597043471145" fill="none" opacity="0" stroke="black" stroke-width="18" /><text display="none" x="0" y="0">{}</text></g><g id="tool-5bc8c4f439f34a229d490b75"><text x="0" y="0"><tspan class="name">app1</tspan><tspan class="dc">premise</tspan><tspan class="family">Application</tspan></text></g><g id="-1-0"><path class="conector" d="M75.0 468.680844766756 110.0 448.14646673131085 135.0 433.47905384885" fill="none" marker-end="url(#markers.arrow)" opacity="0.8" stroke="black" stroke-width="1" /><path class="conector_h conn-5bc8c4f039f34a229d490b74" d="M75.0 468.680844766756 110.0 448.14646673131085 135.0 433.47905384885" fill="none" opacity="0" stroke="black" stroke-width="18" /><text display="none" x="0" y="0">{}</text></g><g id="tool-5bc8c4f039f34a229d490b74"><text x="0" y="0"><tspan class="name">app2</tspan><tspan class="dc">premise</tspan><tspan class="family">Application</tspan></text></g></defs><rect fill="#fbfbfb" height="448.14646673131085" width="650.0000000000001" x="0" y="0" /><g id="2-4"><path class="conector" d="M295.0 210.5343780354452 320.0 195.86696515298436 320.0 195.86696515298436 405.00000000000006 145.9977613526175 440.00000000000006 125.46338331717229 465.00000000000006 110.79597043471145" fill="none" marker-end="url(#markers.arrow)" opacity="0.8" stroke="black" stroke-width="1" /><path class="conector_h conn-5bc8c4e939f34a229d490b73" d="M295.0 210.5343780354452 320.0 195.86696515298436 320.0 195.86696515298436 405.00000000000006 145.9977613526175 440.00000000000006 125.46338331717229 465.00000000000006 110.79597043471145" fill="none" opacity="0" stroke="black" stroke-width="18" /><text display="none" x="0" y="0">None</text></g><g id="0-2"><path class="conector" d="M185.0 404.14422808392834 210.0 389.4768152014675 210.0 389.4768152014675 295.0 339.6076114011006 220.00000000000003 254.5366166828277 245.00000000000003 239.86920380036688" fill="none" marker-end="url(#markers.arrow)" opacity="0.8" stroke="black" stroke-width="1" /><path class="conector_h conn-5bc8c4f039f34a229d490b74" d="M185.0 404.14422808392834 210.0 389.4768152014675 210.0 389.4768152014675 295.0 339.6076114011006 220.00000000000003 254.5366166828277 245.00000000000003 239.86920380036688" fill="none" opacity="0" stroke="black" stroke-width="18" /><text display="none" x="0" y="0">None</text></g><g id="-1-0"><path class="conector" d="M-35.000000000000014 404.14422808392834 0.0 383.6098500484831 25.0 368.9424371660223" fill="none" marker-end="url(#markers.arrow)" opacity="0.8" stroke="black" stroke-width="1" /><path class="conector_h conn-5bc8c4f839f34a229d490b76" d="M-35.000000000000014 404.14422808392834 0.0 383.6098500484831 25.0 368.9424371660223" fill="none" opacity="0" stroke="black" stroke-width="18" /><text display="none" x="0" y="0">{}</text></g><use class="default" height="190.0" width="100" x="-110.00000000000001" xlink:href="#grid.entry" y="258.14646673131085" /><polyline fill="#ccc" fill-opacity="0.2" points="0.0,354.2750242835615 50.0,324.9401985186398 100.0,354.2750242835615 50.0,383.60985004848317" /><use class="default" fill-opacity="0.4" height="190.0" width="100" x="0.0" xlink:href="#grid.base" y="193.60985004848314" /><use class="aws" height="95.0" width="36.0" x="32.0" xlink:href="#application.micro" y="269.83556155893325" /><use class="default boundaries" height="190.0" id="5bc8c4f839f34a229d490b76" width="100" x="0.0" xlink:href="#boundaries_box.front" y="193.60985004848314" /><text font-size="16.0" transform="translate(15.0, 193.60985004848314) skewY(-30.404) skewX(41.0) translate(-138.86, 30.59014995151685)" x="0.0" y="193.60985004848314">app5</text><g id="1-2"><path class="conector" d="M185.0 275.0709947182729 220.00000000000003 254.5366166828277 245.00000000000003 239.86920380036688" fill="none" marker-end="url(#markers.arrow)" opacity="0.8" stroke="black" stroke-width="1" /><path class="conector_h conn-5bc8c4e939f34a229d490b73" d="M185.0 275.0709947182729 220.00000000000003 254.5366166828277 245.00000000000003 239.86920380036688" fill="none" opacity="0" stroke="black" stroke-width="18" /><text display="none" x="0" y="0">{}</text></g><use class="default" height="190.0" width="100" x="110.00000000000001" xlink:href="#grid.entry" y="129.07323336565543" /><polyline fill="#ccc" fill-opacity="0.2" points="220.00000000000003,225.20179091790604 270.0,195.86696515298433 320.0,225.20179091790604 270.0,254.5366166828277" /><use class="default" fill-opacity="0.4" height="190.0" width="100" x="220.00000000000003" xlink:href="#grid.base" y="64.53661668282771" /><use class="premise" height="95.0" width="36.0" x="252.00000000000003" xlink:href="#application.medium" y="140.76232819327785" /><use class="default boundaries" height="190.0" id="5bc8c4e939f34a229d490b73" width="100" x="220.00000000000003" xlink:href="#boundaries_box.front" y="64.53661668282771" /><text font-size="16.0" transform="translate(235.00000000000003, 64.53661668282771) skewY(-30.404) skewX(41.0) translate(-358.86, 159.66338331717228)" x="220.00000000000003" y="64.53661668282771">app4</text><g id="3-4"><path class="conector" d="M405.00000000000006 145.9977613526175 440.00000000000006 125.46338331717229 465.00000000000006 110.79597043471145" fill="none" marker-end="url(#markers.arrow)" opacity="0.8" stroke="black" stroke-width="1" /><path class="conector_h conn-5bc8c4f439f34a229d490b75" d="M405.00000000000006 145.9977613526175 440.00000000000006 125.46338331717229 465.00000000000006 110.79597043471145" fill="none" opacity="0" stroke="black" stroke-width="18" /><text display="none" x="0" y="0">{}</text></g><use class="default" height="190.0" width="100" x="330.00000000000006" xlink:href="#grid.entry" y="0.0" /><polyline fill="#ccc" fill-opacity="0.2" points="440.00000000000006,96.1285575522506 490.00000000000006,66.79373178732891 540.0,96.1285575522506 490.00000000000006,125.46338331717229" /><use class="default" fill-opacity="0.4" height="190.0" width="100" x="440.00000000000006" xlink:href="#grid.base" y="-64.53661668282771" /><use class="premise" height="95.0" width="36.0" x="472.00000000000006" xlink:href="#application.medium" y="11.689094827622414" /><use class="default boundaries" height="190.0" id="5bc8c4f439f34a229d490b75" width="100" x="440.00000000000006" xlink:href="#boundaries_box.front" y="-64.53661668282771" /><text font-size="16.0" transform="translate(455.00000000000006, -64.53661668282771) skewY(-30.404) skewX(41.0) translate(-578.8600000000001, 288.73661668282773)" x="440.00000000000006" y="-64.53661668282771">app1</text><g id="-1-0"><path class="conector" d="M75.0 468.680844766756 110.0 448.14646673131085 135.0 433.47905384885" fill="none" marker-end="url(#markers.arrow)" opacity="0.8" stroke="black" stroke-width="1" /><path class="conector_h conn-5bc8c4f039f34a229d490b74" d="M75.0 468.680844766756 110.0 448.14646673131085 135.0 433.47905384885" fill="none" opacity="0" stroke="black" stroke-width="18" /><text display="none" x="0" y="0">{}</text></g><use class="default" height="190.0" width="100" x="0.0" xlink:href="#grid.entry" y="322.68308341413854" /><polyline fill="#ccc" fill-opacity="0.2" points="110.00000000000001,418.8116409663892 160.0,389.4768152014675 210.0,418.8116409663892 160.0,448.14646673131085" /><use class="default" fill-opacity="0.4" height="190.0" width="100" x="110.00000000000001" xlink:href="#grid.base" y="258.14646673131085" /><use class="premise" height="95.0" width="36.0" x="142.0" xlink:href="#application.medium" y="334.372178241761" /><use class="default boundaries" height="190.0" id="5bc8c4f039f34a229d490b74" width="100" x="110.00000000000001" xlink:href="#boundaries_box.front" y="258.14646673131085" /><text font-size="16.0" transform="translate(125.00000000000001, 258.14646673131085) skewY(-30.404) skewX(41.0) translate(-248.86, -33.94646673131086)" x="110.00000000000001" y="258.14646673131085">app2</text></svg>