<?xml version="1.0" encoding="utf-8" ?>
<svg baseProfile="full" height="319.0732333656554" id="graph" version="1.1" viewBox="0,0,530.0,319.0732333656554" width="530.0" xmlns="http://www.w3.org/2000/svg" xmlns:ev="http://www.w3.org/2001/xml-events" xmlns:xlink="http://www.w3.org/1999/xlink"><defs><filter id="brightness"><feComponentTransfer in="SourceGraphic"><feFuncR slope="0.6" type="linear" /><feFuncG slope="0.6" type="linear" /><feFuncB slope="0.6" type="linear" /></feComponentTransfer></filter><filter id="darker"><feComponentTransfer in="SourceGraphic"><feFuncR slope="0.4" type="linear" /><feFuncG slope="0.4" type="linear" /><feFuncB slope="0.4" type="linear" /></feComponentTransfer></filter><marker id="markers.arrow" markerHeight="12.5" markerWidth="12.5" refX="152" refY="3" viewBox="0.0,0.0,157.21,92.25"><polygon class="black" points="0,30.75 157.21,0 104.81,92.25 63.79,54.82 0,30.75" /></marker><g id="0-1"><path class="conector" d="M185.0 275.0709947182729 220.00000000000003 254.5366166828277 245.00000000000003 239.86920380036688" fill="none" marker-end="url(#markers.arrow)" opacity="0.8" stroke="black" stroke-width="1" /><path class="conector_h conn-5b26c6c3ee4773b4e99e0314" d="M185.0 275.0709947182729 220.00000000000003 254.5366166828277 245.00000000000003 239.86920380036688" fill="none" opacity="0" stroke="black" stroke-width="18" /><text display="none" x="0" y="0">rest</text></g><g id="1-2"><path class="conector" d="M295.0 210.5343780354452 330.00000000000006 190.0 355.00000000000006 175.33258711753916" fill="none" marker-end="url(#markers.arrow)" opacity="0.8" stroke="black" stroke-width="1" /><path class="conector_h conn-5b3ec43306f9e50f2f36acc7" d="M295.0 210.5343780354452 330.00000000000006 190.0 355.00000000000006 175.33258711753916" fill="none" opacity="0" stroke="black" stroke-width="18" /><text display="none" x="0" y="0">rest</text></g><symbol id="grid.entry" preserveAspectRatio="xMidYMax meet" viewBox="0.0,0.0,266.4,156.32"><polygon class="gray" points="133.2,0 0,78.16 133.2,156.32 266.4,78.16 133.2,0" /><polygon class="dark-gray" points="200.47,39.41 137.82,51.66 146.03,54.76 118.35,60.17 148.64,71.6 168.11,89.37 176.97,73.78 179.59,76.17 200.47,39.41" /></symbol><style type="text/css"><![CDATA[.dark{fill: currentColor;}.darker{filter: url(#brightness)}.2darker{filter: url(#darker)}text{font-family:Arial, Helvetica, sans-serif; fill: #672064;}.white{fill:#fff;}.gray{fill:#d1d1d1;}.gdarker{fill:#bababa}.black{fill:#000}.lgray{fill:#ccc},.gray2{fill:#6d6d6d}.dark-gray2{fill:#757575}.little-white{fill:#efefef}.light-gray{fill:#f2f2f2;}]]></style><g id="-1-0"><path class="conector" d="M-35.000000000000014 275.0709947182729 0.0 254.5366166828277 25.0 239.86920380036688" fill="none" marker-end="url(#markers.arrow)" opacity="0.8" stroke="black" stroke-width="1" /><path class="conector_h conn-5b340835b3bad96ea3a82eff" d="M-35.000000000000014 275.0709947182729 0.0 254.5366166828277 25.0 239.86920380036688" fill="none" opacity="0" stroke="black" stroke-width="18" /><text display="none" x="0" y="0">{}</text></g><symbol id="grid.base" preserveAspectRatio="xMidYMax meet" viewBox="0.0,0.0,266.4,156.32"><polygon class="gdarker" points="133.2,0 0,78.16 133.2,156.32 266.4,78.16" /></symbol><symbol id="loadbalance.medium" preserveAspectRatio="xMidYMax meet" viewBox="0.0,0.0,265.58,155.84"><polygon class="light-gray" points="132.79,0 0,77.92 132.79,155.84 265.58,77.92 132.79,0" /><polygon class="light-black" points="244.14,65.23 233.09,71.79 161.21,69.62 206.26,43.14 195.45,36.8 150.2,63.01 146.39,21.15 138,16.16 146.39,21.15 157.44,14.59 146.39,8.03 135.35,14.59 135.35,14.59 139.12,69.55 61.78,114.21 72.94,120.72 150.17,76.18 244.14,78.35 255.18,71.79 244.14,65.23" /><polygon class="dark-gray2" points="243.04,64.59 232,71.15 160.12,68.98 205.16,42.5 194.36,36.16 149.1,62.37 145.3,20.51 136.91,15.53 145.3,20.51 156.34,13.95 145.3,7.39 134.26,13.95 134.26,13.95 138.03,68.91 60.69,113.57 71.85,120.08 149.08,75.54 243.04,77.71 254.09,71.15 243.04,64.59" /><polygon class="dark" points="81.48,97.33 64.08,87.12 64.08,41.27 81.48,51.48 81.48,97.33" /><path class="white" d="M66.28,62.29l12.3,7.21V63.31L66.28,56.1Zm8.37-.11,3,1.74v4l-3-1.74ZM70.89,60l2.92,1.71v4L70.89,64Zm-3.7-2.18,2.87,1.69v4l-2.87-1.69Z" /><polygon class="light" points="81.48,97.33 98.88,87.12 98.88,41.27 81.48,51.48 81.48,97.33" /><polygon class="darker" points="81.48,31.06 64.08,41.27 81.48,51.48 98.88,41.27 81.48,31.06" /><path class="white" d="M66.41,54.55l12.3,7.21V55.57l-12.3-7.21Zm8.37-.11,3,1.74v4l-3-1.74ZM71,52.24,73.94,54v4L71,56.26Zm-3.7-2.18,2.88,1.69v4l-2.88-1.69Z" /><polygon class="dark" points="69.46,104.57 60.51,99.26 60.51,91.1 69.46,96.41 69.46,104.57" /><polygon class="light" points="69.46,104.57 78.41,99.26 78.41,91.1 69.46,96.41 69.46,104.57" /><polygon class="darker" points="69.46,85.78 60.51,91.1 69.46,96.41 78.41,91.1 69.46,85.78" /><path class="white" d="M61.71,96.58,68,100.34V97.11l-6.32-3.75Zm4.3,0,1.53.9v2.1L66,98.62Zm-1.93-1.15,1.5.89v2.1l-1.5-.9Zm-1.9-1.13,1.48.88v2.09l-1.48-.88Z" /><polygon class="dark" points="143.83,20.4 134.88,15.09 134.88,6.93 143.83,12.24 143.83,20.4" /><polygon class="light" points="143.83,20.4 152.77,15.09 152.77,6.93 143.83,12.24 143.83,20.4" /><polygon class="darker" points="143.83,1.61 134.88,6.93 143.83,12.24 152.77,6.93 143.83,1.61" /><path class="white" d="M136.07,12.41l6.33,3.76V13l-6.33-3.76Zm4.31-.05,1.52.9v2.1l-1.52-.91Zm-1.93-1.15,1.5.89v2.1l-1.5-.9Zm-1.91-1.13L138,11v2.09l-1.48-.88Z" /><polygon class="dark" points="241.4,77.29 232.45,71.97 232.45,63.81 241.4,69.13 241.4,77.29" /><polygon class="light" points="241.4,77.29 250.35,71.97 250.35,63.81 241.4,69.13 241.4,77.29" /><polygon class="darker" points="241.4,58.5 232.45,63.81 241.4,69.13 250.35,63.81 241.4,58.5" /><path class="white" d="M233.65,69.3,240,73.05V69.83l-6.32-3.75Zm4.3-.06,1.53.91v2.09l-1.53-.9ZM236,68.1l1.5.89v2.09l-1.5-.89ZM234.12,67l1.48.88v2.1l-1.48-.88Z" /><polygon class="dark" points="193.61,48.51 184.66,43.19 184.66,35.03 193.61,40.35 193.61,48.51" /><polygon class="light" points="193.61,48.51 202.56,43.19 202.56,35.03 193.61,40.35 193.61,48.51" /><polygon class="darker" points="193.61,29.72 184.66,35.03 193.61,40.35 202.56,35.03 193.61,29.72" /><path class="white" d="M185.86,40.52l6.32,3.75V41.05l-6.32-3.76Zm4.3-.06,1.53.91v2.09l-1.53-.9Zm-1.93-1.15,1.5.89v2.1l-1.5-.89Zm-1.9-1.13,1.48.88v2.1l-1.48-.88Z" /><polygon class="little-white" points="69.46,110.64 80.61,108.44 76.89,115.06 73.98,112.37 69.46,110.64" /><polygon class="little-white" points="90.96,97.25 102.11,95.04 98.39,101.66 95.48,98.98 90.96,97.25" /><polygon class="little-white" points="111.13,86.36 122.27,84.16 118.56,90.78 115.65,88.09 111.13,86.36" /><polygon class="little-white" points="131.63,74.45 142.77,72.24 139.06,78.86 136.15,76.18 131.63,74.45" /><polygon class="little-white" points="154.96,60.71 166.11,58.5 162.39,65.12 159.49,62.43 154.96,60.71" /><polygon class="little-white" points="173.52,49.92 184.66,47.71 180.95,54.33 178.04,51.64 173.52,49.92" /><polygon class="little-white" points="140.08,59.22 142.47,52.98 145.47,57.86 142.99,57.96 140.08,59.22" /><polygon class="little-white" points="170.69,69.92 176.83,72.66 170.2,75.06 171.4,72.55 170.69,69.92" /><polygon class="little-white" points="193.76,70.54 199.9,73.28 193.27,75.68 194.46,73.17 193.76,70.54" /><polygon class="little-white" points="214.53,71.08 220.67,73.82 214.04,76.22 215.23,73.71 214.53,71.08" /><polygon class="little-white" points="138.44,42.79 140.83,36.55 143.83,41.43 141.35,41.53 138.44,42.79" /><polygon class="little-white" points="137.39,27.8 139.78,21.56 142.77,26.44 140.3,26.54 137.39,27.8" /></symbol><style type="text/css"><![CDATA[.openstack{color: #ce081f;fill: #af071a;}]]></style><symbol id="boundaries_box.front" preserveAspectRatio="xMidYMax meet" viewBox="0.0,0.0,265.58,292.78"><polygon class="gdarker" fill-opacity="0.3" points="132.79,0 0,77.92 132.79,155.84 265.58,77.92 132.79,0" /><polygon class="lgray" fill-opacity="0.2" points="132.79,155.84 132.79,292.78 0,214.86 0,77.92 132.79,155.84" /><polygon class="lgray" fill-opacity="0.2" points="265.58,77.92 265.58,214.86 132.79,292.78 132.79,155.84 265.58,77.92" /></symbol><style type="text/css"><![CDATA[.dark{fill: currentColor;}.darker{filter: url(#brightness)}.2darker{filter: url(#darker)}text{font-family:Arial, Helvetica, sans-serif; fill: #672064;}.white{fill:#fff;}.gray{fill:#d1d1d1;}.gdarker{fill:#bababa}.black{fill:#000}.lgray{fill:#ccc},.gray2{fill:#6d6d6d}.dark-gray2{fill:#757575}.little-white{fill:#efefef}.light-gray{fill:#f2f2f2;}]]></style><g id="tool-5b340835b3bad96ea3a82eff"><text x="0" y="0"><tspan class="name">lb 2</tspan><tspan class="dc">Openstack, Aws</tspan><tspan class="family">Loadbalance</tspan><tspan class="servers">2</tspan></text></g><g id="-1-0"><path class="conector" d="M75.0 339.6076114011006 110.0 319.0732333656554 135.0 304.4058204831946" fill="none" marker-end="url(#markers.arrow)" opacity="0.8" stroke="black" stroke-width="1" /><path class="conector_h conn-5b26c6c3ee4773b4e99e0314" d="M75.0 339.6076114011006 110.0 319.0732333656554 135.0 304.4058204831946" fill="none" opacity="0" stroke="black" stroke-width="18" /><text display="none" x="0" y="0">{}</text></g><style type="text/css"><![CDATA[.premise{color: #5b5b5b;fill: #8e8e8e;}]]></style><g id="tool-5b26c6c3ee4773b4e99e0314"><text x="0" y="0"><tspan class="name">lb - maestro</tspan><tspan class="dc">premise</tspan><tspan class="family">Loadbalance</tspan></text></g><symbol id="application.small" preserveAspectRatio="xMidYMax meet" viewBox="0.0,0.0,266.4,259.12"><polygon class="dark" points="133.2,259.12 0,180.96 0,85.52 133.2,163.68 133.2,259.12" /><polygon class="light" points="133.2,259.12 266.4,180.96 266.4,85.52 133.2,163.68 133.2,259.12" /><polygon class="darker" points="133.2,7.36 0,85.52 133.2,163.68 266.4,85.52 133.2,7.36" /><path class="white" d="M51.15,163.52l70,41V169.35l-70-41Zm47.62-.61,16.85,9.89v22.9l-16.85-9.89ZM77.4,150.37,94,160.11V183l-16.6-9.73ZM56.36,138l16.34,9.62v22.91l-16.34-9.6Z" /><polygon class="dark" points="133.2,99.81 80.39,68.82 80.39,30.99 133.2,61.97 133.2,99.81" /><polygon class="light" points="133.2,99.81 186.01,68.82 186.01,30.99 133.2,61.97 133.2,99.81" /><polygon class="darker" points="133.2,0 80.39,30.99 133.2,61.97 186.01,30.99 133.2,0" /></symbol><g id="tool-5b3ec43306f9e50f2f36acc7"><text x="0" y="0"><tspan class="name">app1</tspan><tspan class="dc">premise</tspan><tspan class="family">Application</tspan></text></g><symbol id="database.medium" preserveAspectRatio="xMidYMax meet" viewBox="0.0,0.0,401.82,427.9"><polygon class="dark" points="209.95,427.9 26.89,320.49 26.89,115.56 209.95,222.98 209.95,427.9" /><polygon class="light" points="209.95,427.9 393.01,320.49 393.01,115.56 209.95,222.98 209.95,427.9" /><polygon class="darker" points="209.95,8.14 26.89,115.56 209.95,222.98 393.01,115.56 209.95,8.14" /><path class="white" d="M285.61,228.58l-64.7,37.93V234l64.7-38Zm-44-.57L226,237.15v21.18l15.57-9.14Zm19.76-11.59-15.34,9V246.6l15.34-9ZM280.79,205l-15.11,8.89V235l15.11-8.87Z" /><polygon class="dark" points="43.23,380.68 0,355.31 0,316.36 43.23,341.73 43.23,380.68" /><polygon class="light" points="43.23,380.68 86.46,355.31 86.46,316.36 43.23,341.73 43.23,380.68" /><polygon class="darker" points="43.23,291 0,316.36 43.23,341.73 86.46,316.36 43.23,291" /><path class="white" d="M5.78,342.54l30.56,17.92V345.09L5.78,327.16Zm20.79-.27,7.36,4.32v10l-7.36-4.31Zm-9.33-5.47,7.25,4.25v10l-7.25-4.25Zm-9.19-5.41,7.14,4.2v10l-7.14-4.2Z" /><polygon class="dark" points="368.53,217.16 335.24,197.63 335.24,167.63 368.53,187.17 368.53,217.16" /><polygon class="light" points="368.53,217.16 401.82,197.63 401.82,167.63 368.53,187.17 368.53,217.16" /><polygon class="darker" points="368.53,148.1 335.24,167.63 368.53,187.17 401.82,167.63 368.53,148.1" /><polygon class="dark" points="204.15,99.73 156.07,71.52 156.07,28.21 204.15,56.42 204.15,99.73" /><polygon class="light" points="204.15,99.73 252.22,71.52 252.22,28.21 204.15,56.42 204.15,99.73" /><polygon class="darker" points="204.15,0 156.07,28.21 204.15,56.42 252.22,28.21 204.15,0" /><polygon class="dark" points="43.23,328.48 0,303.11 0,264.16 43.23,289.53 43.23,328.48" /><polygon class="light" points="43.23,328.48 86.46,303.11 86.46,264.16 43.23,289.53 43.23,328.48" /><polygon class="darker" points="43.23,238.79 0,264.16 43.23,289.53 86.46,264.16 43.23,238.79" /><path class="white" d="M5.78,290.34l30.56,17.91V292.88L5.78,275Zm20.79-.27,7.36,4.32v10l-7.36-4.32Zm-9.33-5.48,7.25,4.26v10l-7.25-4.25Zm-9.19-5.4,7.14,4.2v10L8.05,289.2Z" /></symbol><g id="tool-5b2c6ead61de951c159d44d0"><text x="0" y="0"><tspan class="name">mysql1</tspan><tspan class="dc">premise</tspan><tspan class="family">Database</tspan></text></g></defs><rect fill="#eaeaea" height="319.0732333656554" width="530.0" x="0" y="0" /><g id="0-1"><path class="conector" d="M185.0 275.0709947182729 220.00000000000003 254.5366166828277 245.00000000000003 239.86920380036688" fill="none" marker-end="url(#markers.arrow)" opacity="0.8" stroke="black" stroke-width="1" /><path class="conector_h conn-5b26c6c3ee4773b4e99e0314" d="M185.0 275.0709947182729 220.00000000000003 254.5366166828277 245.00000000000003 239.86920380036688" fill="none" opacity="0" stroke="black" stroke-width="18" /><text display="none" x="0" y="0">rest</text></g><g id="1-2"><path class="conector" d="M295.0 210.5343780354452 330.00000000000006 190.0 355.00000000000006 175.33258711753916" fill="none" marker-end="url(#markers.arrow)" opacity="0.8" stroke="black" stroke-width="1" /><path class="conector_h conn-5b3ec43306f9e50f2f36acc7" d="M295.0 210.5343780354452 330.00000000000006 190.0 355.00000000000006 175.33258711753916" fill="none" opacity="0" stroke="black" stroke-width="18" /><text display="none" x="0" y="0">rest</text></g><g id="-1-0"><path class="conector" d="M-35.000000000000014 275.0709947182729 0.0 254.5366166828277 25.0 239.86920380036688" fill="none" marker-end="url(#markers.arrow)" opacity="0.8" stroke="black" stroke-width="1" /><path class="conector_h conn-5b340835b3bad96ea3a82eff" d="M-35.000000000000014 275.0709947182729 0.0 254.5366166828277 25.0 239.86920380036688" fill="none" opacity="0" stroke="black" stroke-width="18" /><text display="none" x="0" y="0">{}</text></g><use class="default" height="190.0" width="100" x="-110.00000000000001" xlink:href="#grid.entry" y="129.07323336565543" /><polyline fill="#ccc" fill-opacity="0.2" points="0.0,225.20179091790604 50.0,195.86696515298433 100.0,225.20179091790604 50.0,254.5366166828277" /><use class="default" fill-opacity="0.4" height="190.0" width="100" x="0.0" xlink:href="#grid.base" y="64.53661668282771" /><use class="openstack" height="190.0" width="83.0" x="8.5" xlink:href="#loadbalance.medium" y="59.54969630279103" /><use class="default boundaries" height="190.0" id="5b340835b3bad96ea3a82eff" width="100" x="0.0" xlink:href="#boundaries_box.front" y="64.53661668282771" /><text font-size="16.0" transform="translate(15.0, 64.53661668282771) skewY(-30.404) skewX(41.0) translate(-138.86, 159.66338331717228)" x="0.0" y="64.53661668282771">lb 2</text><g id="-1-0"><path class="conector" d="M75.0 339.6076114011006 110.0 319.0732333656554 135.0 304.4058204831946" fill="none" marker-end="url(#markers.arrow)" opacity="0.8" stroke="black" stroke-width="1" /><path class="conector_h conn-5b26c6c3ee4773b4e99e0314" d="M75.0 339.6076114011006 110.0 319.0732333656554 135.0 304.4058204831946" fill="none" opacity="0" stroke="black" stroke-width="18" /><text display="none" x="0" y="0">{}</text></g><use class="default" height="190.0" width="100" x="0.0" xlink:href="#grid.entry" y="193.60985004848314" /><polyline fill="#ccc" fill-opacity="0.2" points="110.00000000000001,289.73840760073375 160.0,260.4035818358121 210.0,289.73840760073375 160.0,319.0732333656554" /><use class="default" fill-opacity="0.4" height="190.0" width="100" x="110.00000000000001" xlink:href="#grid.base" y="129.07323336565543" /><use class="premise" height="190.0" width="83.0" x="118.50000000000001" xlink:href="#loadbalance.medium" y="124.08631298561875" /><use class="default boundaries" height="190.0" id="5b26c6c3ee4773b4e99e0314" width="100" x="110.00000000000001" xlink:href="#boundaries_box.front" y="129.07323336565543" /><text font-size="16.0" transform="translate(125.00000000000001, 129.07323336565543) skewY(-30.404) skewX(41.0) translate(-271.90000000000003, 95.12676663434456)" x="110.00000000000001" y="129.07323336565543">lb - maest</text><polyline fill="#ccc" fill-opacity="0.2" points="220.00000000000003,225.20179091790604 270.0,195.86696515298433 320.0,225.20179091790604 270.0,254.5366166828277" /><use class="default" fill-opacity="0.4" height="190.0" width="100" x="220.00000000000003" xlink:href="#grid.base" y="64.53661668282771" /><use class="premise" height="95.0" width="36.0" x="252.00000000000003" xlink:href="#application.small" y="140.76232819327785" /><use class="default boundaries" height="190.0" id="5b3ec43306f9e50f2f36acc7" width="100" x="220.00000000000003" xlink:href="#boundaries_box.front" y="64.53661668282771" /><text font-size="16.0" transform="translate(235.00000000000003, 64.53661668282771) skewY(-30.404) skewX(41.0) translate(-358.86, 159.66338331717228)" x="220.00000000000003" y="64.53661668282771">app1</text><polyline fill="#ccc" fill-opacity="0.2" points="330.00000000000006,160.66517423507833 380.00000000000006,131.33034847015662 430.00000000000006,160.66517423507833 380.00000000000006,190.0" /><use class="default" fill-opacity="0.4" height="190.0" width="100" x="330.00000000000006" xlink:href="#grid.base" y="0.0" /><use class="premise" height="190.0" width="83.0" x="338.50000000000006" xlink:href="#database.medium" y="-4.986920380036685" /><use class="default boundaries" height="190.0" id="5b2c6ead61de951c159d44d0" width="100" x="330.00000000000006" xlink:href="#boundaries_box.front" y="0.0" /><text font-size="16.0" transform="translate(345.00000000000006, 0.0) skewY(-30.404) skewX(41.0) translate(-476.5400000000001, 224.2)" x="330.00000000000006" y="0.0">mysql1</text></svg>