<?xml version="1.0" encoding="utf-8" ?>
<svg baseProfile="full" height="1028.9760168767602" id="graph" version="1.1" viewBox="0,0,1440.0000000000002,1028.9760168767602" width="1440.0000000000002" xmlns="http://www.w3.org/2000/svg" xmlns:ev="http://www.w3.org/2001/xml-events" xmlns:xlink="http://www.w3.org/1999/xlink"><defs><filter id="brightness"><feComponentTransfer in="SourceGraphic"><feFuncR slope="0.6" type="linear" /><feFuncG slope="0.6" type="linear" /><feFuncB slope="0.6" type="linear" /></feComponentTransfer></filter><filter id="darker"><feComponentTransfer in="SourceGraphic"><feFuncR slope="0.4" type="linear" /><feFuncG slope="0.4" type="linear" /><feFuncB slope="0.4" type="linear" /></feComponentTransfer></filter><marker id="markers.arrow" markerHeight="12.5" markerWidth="12.5" refX="152" refY="3" viewBox="0.0,0.0,157.21,92.25"><polygon class="black" points="0,30.75 157.21,0 104.81,92.25 63.79,54.82 0,30.75" /></marker><g id="3-4"><path class="conector" d="M1285.0000000000002 855.9005448637224 1285.0000000000002 826.5657190988006 1210.0000000000002 770.8295501454495 1235.0000000000002 756.1621372629886" fill="none" marker-end="url(#markers.arrow)" opacity="0.8" stroke="black" stroke-width="1" /><path class="conector_h conn-5b68a0f7ea0637002f6a4e36" d="M1285.0000000000002 855.9005448637224 1285.0000000000002 826.5657190988006 1210.0000000000002 770.8295501454495 1235.0000000000002 756.1621372629886" fill="none" opacity="0" stroke="black" stroke-width="18" /><text display="none" x="0" y="0">None</text></g><g id="3-4"><path class="conector" d="M1285.0000000000002 855.9005448637224 1320.0000000000002 835.3661668282773 1345.0000000000002 820.6987539458164" fill="none" marker-end="url(#markers.arrow)" opacity="0.8" stroke="black" stroke-width="1" /><path class="conector_h conn-5b68a0f7ea0637002f6a4e36" d="M1285.0000000000002 855.9005448637224 1320.0000000000002 835.3661668282773 1345.0000000000002 820.6987539458164" fill="none" opacity="0" stroke="black" stroke-width="18" /><text display="none" x="0" y="0">rest</text></g><g id="3-4"><path class="conector" d="M1285.0000000000002 855.9005448637224 1335.0000000000002 855.9005448637223 1430.0000000000002 899.9027835111049 1455.0000000000002 885.235370628644" fill="none" marker-end="url(#markers.arrow)" opacity="0.8" stroke="black" stroke-width="1" /><path class="conector_h conn-5b68a0f7ea0637002f6a4e36" d="M1285.0000000000002 855.9005448637224 1335.0000000000002 855.9005448637223 1430.0000000000002 899.9027835111049 1455.0000000000002 885.235370628644" fill="none" opacity="0" stroke="black" stroke-width="18" /><text display="none" x="0" y="0">rest</text></g><g id="3-4"><path class="conector" d="M735.0000000000001 533.2174614495837 735.0000000000001 503.88263568466203 440.00000000000006 319.0732333656554 465.00000000000006 304.4058204831946" fill="none" marker-end="url(#markers.arrow)" opacity="0.8" stroke="black" stroke-width="1" /><path class="conector_h conn-5b68a0ecea0637002f6a4e34" d="M735.0000000000001 533.2174614495837 735.0000000000001 503.88263568466203 440.00000000000006 319.0732333656554 465.00000000000006 304.4058204831946" fill="none" opacity="0" stroke="black" stroke-width="18" /><text display="none" x="0" y="0">None</text></g><g id="3-3"><path class="conector" d="M735.0000000000001 533.2174614495837 785.0000000000001 533.2174614495837 1156.666666666667 750.1541024159728 1046.6666666666667 814.6907190988006 1210.0000000000002 899.9027835111049 1235.0000000000002 885.235370628644" fill="none" marker-end="url(#markers.arrow)" opacity="0.8" stroke="black" stroke-width="1" /><path class="conector_h conn-5b68a0ecea0637002f6a4e34" d="M735.0000000000001 533.2174614495837 785.0000000000001 533.2174614495837 1156.666666666667 750.1541024159728 1046.6666666666667 814.6907190988006 1210.0000000000002 899.9027835111049 1235.0000000000002 885.235370628644" fill="none" opacity="0" stroke="black" stroke-width="18" /><text display="none" x="0" y="0">None</text></g><g id="3-4"><path class="conector" d="M735.0000000000001 533.2174614495837 785.0000000000001 533.2174614495837 880.0000000000001 577.2197000969663 905.0000000000001 562.5522872145054" fill="none" marker-end="url(#markers.arrow)" opacity="0.8" stroke="black" stroke-width="1" /><path class="conector_h conn-5b68a0ecea0637002f6a4e34" d="M735.0000000000001 533.2174614495837 785.0000000000001 533.2174614495837 880.0000000000001 577.2197000969663 905.0000000000001 562.5522872145054" fill="none" opacity="0" stroke="black" stroke-width="18" /><text display="none" x="0" y="0">None</text></g><g id="3-4"><path class="conector" d="M735.0000000000001 533.2174614495837 735.0000000000001 503.88263568466203 660.0000000000001 448.14646673131085 685.0000000000001 433.47905384885" fill="none" marker-end="url(#markers.arrow)" opacity="0.8" stroke="black" stroke-width="1" /><path class="conector_h conn-5b68a0ecea0637002f6a4e34" d="M735.0000000000001 533.2174614495837 735.0000000000001 503.88263568466203 660.0000000000001 448.14646673131085 685.0000000000001 433.47905384885" fill="none" opacity="0" stroke="black" stroke-width="18" /><text display="none" x="0" y="0">None</text></g><g id="3-5"><path class="conector" d="M735.0000000000001 533.2174614495837 735.0000000000001 503.88263568466203 383.00000000000006 298.3977856361789 468.00000000000006 248.52858183581202 770.0000000000001 383.60985004848317 795.0000000000001 368.94243716602233" fill="none" marker-end="url(#markers.arrow)" opacity="0.8" stroke="black" stroke-width="1" /><path class="conector_h conn-5b68a0ecea0637002f6a4e34" d="M735.0000000000001 533.2174614495837 735.0000000000001 503.88263568466203 383.00000000000006 298.3977856361789 468.00000000000006 248.52858183581202 770.0000000000001 383.60985004848317 795.0000000000001 368.94243716602233" fill="none" opacity="0" stroke="black" stroke-width="18" /><text display="none" x="0" y="0">None</text></g><g id="4-5"><path class="conector" d="M735.0000000000001 404.14422808392834 770.0000000000001 383.60985004848317 795.0000000000001 368.94243716602233" fill="none" marker-end="url(#markers.arrow)" opacity="0.8" stroke="black" stroke-width="1" /><path class="conector_h conn-5b689a7aea0637002f6a4e32" d="M735.0000000000001 404.14422808392834 770.0000000000001 383.60985004848317 795.0000000000001 368.94243716602233" fill="none" opacity="0" stroke="black" stroke-width="18" /><text display="none" x="0" y="0">rest</text></g><g id="5-6"><path class="conector" d="M845.0000000000001 339.60761140110066 880.0000000000001 319.0732333656554 905.0000000000001 304.4058204831946" fill="none" marker-end="url(#markers.arrow)" opacity="0.8" stroke="black" stroke-width="1" /><path class="conector_h conn-5b68a0f1ea0637002f6a4e35" d="M845.0000000000001 339.60761140110066 880.0000000000001 319.0732333656554 905.0000000000001 304.4058204831946" fill="none" opacity="0" stroke="black" stroke-width="18" /><text display="none" x="0" y="0">None</text></g><g id="5-7"><path class="conector" d="M845.0000000000001 339.60761140110066 845.0000000000001 310.272785636179 760.0000000000001 260.40358183581213 845.0000000000001 210.53437803544523 770.0000000000001 125.46338331717226 795.0000000000001 110.79597043471142" fill="none" marker-end="url(#markers.arrow)" opacity="0.8" stroke="black" stroke-width="1" /><path class="conector_h conn-5b68a0f1ea0637002f6a4e35" d="M845.0000000000001 339.60761140110066 845.0000000000001 310.272785636179 760.0000000000001 260.40358183581213 845.0000000000001 210.53437803544523 770.0000000000001 125.46338331717226 795.0000000000001 110.79597043471142" fill="none" opacity="0" stroke="black" stroke-width="18" /><text display="none" x="0" y="0">rest</text></g><g id="5-6"><path class="conector" d="M845.0000000000001 339.60761140110066 895.0000000000001 339.60761140110066 990.0000000000002 383.6098500484831 1015.0000000000002 368.9424371660223" fill="none" marker-end="url(#markers.arrow)" opacity="0.8" stroke="black" stroke-width="1" /><path class="conector_h conn-5b68a0f1ea0637002f6a4e35" d="M845.0000000000001 339.60761140110066 895.0000000000001 339.60761140110066 990.0000000000002 383.6098500484831 1015.0000000000002 368.9424371660223" fill="none" opacity="0" stroke="black" stroke-width="18" /><text display="none" x="0" y="0">None</text></g><g id="4-3"><path class="conector" d="M1395.0000000000002 791.3639281808946 1395.0000000000002 762.029102415973 1266.666666666667 685.6174857331451 1046.6666666666667 814.6907190988006 1210.0000000000002 899.9027835111049 1235.0000000000002 885.235370628644" fill="none" marker-end="url(#markers.arrow)" opacity="0.8" stroke="black" stroke-width="1" /><path class="conector_h conn-5b6cc2caea0637002f6a4e41" d="M1395.0000000000002 791.3639281808946 1395.0000000000002 762.029102415973 1266.666666666667 685.6174857331451 1046.6666666666667 814.6907190988006 1210.0000000000002 899.9027835111049 1235.0000000000002 885.235370628644" fill="none" opacity="0" stroke="black" stroke-width="18" /><text display="none" x="0" y="0">None</text></g><g id="4-6"><path class="conector" d="M1395.0000000000002 791.3639281808946 1420.0000000000002 776.6965152984337 1420.0000000000002 776.6965152984337 1505.0000000000002 726.827311498067 990.0000000000002 383.6098500484831 1015.0000000000002 368.9424371660223" fill="none" marker-end="url(#markers.arrow)" opacity="0.8" stroke="black" stroke-width="1" /><path class="conector_h conn-5b6cc2caea0637002f6a4e41" d="M1395.0000000000002 791.3639281808946 1420.0000000000002 776.6965152984337 1420.0000000000002 776.6965152984337 1505.0000000000002 726.827311498067 990.0000000000002 383.6098500484831 1015.0000000000002 368.9424371660223" fill="none" opacity="0" stroke="black" stroke-width="18" /><text display="none" x="0" y="0">None</text></g><g id="4-3"><path class="conector" d="M955.0000000000001 533.2174614495837 955.0000000000001 503.88263568466203 496.6666666666667 233.86116895335118 276.6666666666667 362.93440231900667 660.0000000000001 577.2197000969663 685.0000000000001 562.5522872145054" fill="none" marker-end="url(#markers.arrow)" opacity="0.8" stroke="black" stroke-width="1" /><path class="conector_h conn-5b68b7787430c30009b54ccb" d="M955.0000000000001 533.2174614495837 955.0000000000001 503.88263568466203 496.6666666666667 233.86116895335118 276.6666666666667 362.93440231900667 660.0000000000001 577.2197000969663 685.0000000000001 562.5522872145054" fill="none" opacity="0" stroke="black" stroke-width="18" /><text display="none" x="0" y="0">None</text></g><g id="4-5"><path class="conector" d="M1505.0000000000002 855.9005448637222 1540.0000000000002 835.3661668282771 1565.0000000000002 820.6987539458162" fill="none" marker-end="url(#markers.arrow)" opacity="0.8" stroke="black" stroke-width="1" /><path class="conector_h conn-5b7208c27550fe6fac1d9f30" d="M1505.0000000000002 855.9005448637222 1540.0000000000002 835.3661668282771 1565.0000000000002 820.6987539458162" fill="none" opacity="0" stroke="black" stroke-width="18" /><text display="none" x="0" y="0">None</text></g><symbol id="grid.base" preserveAspectRatio="xMidYMax meet" viewBox="0.0,0.0,266.4,156.32"><polygon class="gdarker" points="133.2,0 0,78.16 133.2,156.32 266.4,78.16" /></symbol><style type="text/css"><![CDATA[.dark{fill: currentColor;}.darker{filter: url(#brightness)}.2darker{filter: url(#darker)}text{font-family:Arial, Helvetica, sans-serif; fill: #672064;}.white{fill:#fff;}.gray{fill:#d1d1d1;}.gdarker{fill:#bababa}.black{fill:#000}.lgray{fill:#ccc},.gray2{fill:#6d6d6d}.dark-gray2{fill:#757575}.little-white{fill:#efefef}.light-gray{fill:#f2f2f2;}]]></style><symbol id="application.medium" preserveAspectRatio="xMidYMax meet" viewBox="0.0,0.0,266.4,291.76"><polygon class="dark" points="133.2,291.76 0,213.6 0,78.16 133.2,156.32 133.2,291.76" /><polygon class="light" points="133.2,291.76 266.4,213.6 266.4,78.16 133.2,156.32 133.2,291.76" /><polygon class="darker" points="133.2,0 0,78.16 133.2,156.32 266.4,78.16 133.2,0" /><path class="white" d="M14.24,142.62l75.41,44.22V148.9L14.24,104.65ZM65.56,142l18.16,10.65v24.69L65.56,166.65Zm-23-13.52L60.42,139v24.68L42.53,153.14ZM19.85,115.1l17.61,10.38v24.68L19.85,139.82Z" /><polygon class="dark" points="103.31,111.32 50.51,80.33 50.5,42.49 103.31,73.48 103.31,111.32" /><polygon class="light" points="103.31,111.32 156.12,80.33 156.12,42.49 103.31,73.48 103.31,111.32" /><polygon class="darker" points="103.31,11.51 50.5,42.49 103.31,73.48 156.12,42.49 103.31,11.51" /></symbol><style type="text/css"><![CDATA[.aws{color: #f58536;fill: #c4692c;}]]></style><symbol id="application.micro" preserveAspectRatio="xMidYMax meet" viewBox="0.0,0.0,266.4,251.76"><polygon class="dark" points="133.2,251.76 0,173.6 0,78.16 133.2,156.32 133.2,251.76" /><polygon class="light" points="133.2,251.76 266.4,173.6 266.4,78.16 133.2,156.32 133.2,251.76" /><polygon class="darker" points="133.2,0 0,78.16 133.2,156.32 266.4,78.16 133.2,0" /><path class="white" d="M257.42,130l-70,41V135.8l70-41.05Zm-47.62-.61L193,139.25v22.91l16.84-9.89Zm21.37-12.54-16.59,9.74v22.9l16.59-9.74Zm21-12.38-16.34,9.62V137l16.34-9.59Z" /></symbol><style type="text/css"><![CDATA[.linode{color: #08a830;fill: #037720;}]]></style><style type="text/css"><![CDATA[.ocean{color: #0080FF;fill: #046cce;}]]></style><symbol id="boundaries_box.front" preserveAspectRatio="xMidYMax meet" viewBox="0.0,0.0,265.58,292.78"><polygon class="gdarker" fill-opacity="0.3" points="132.79,0 0,77.92 132.79,155.84 265.58,77.92 132.79,0" /><polygon class="lgray" fill-opacity="0.2" points="132.79,155.84 132.79,292.78 0,214.86 0,77.92 132.79,155.84" /><polygon class="lgray" fill-opacity="0.2" points="265.58,77.92 265.58,214.86 132.79,292.78 132.79,155.84 265.58,77.92" /></symbol><style type="text/css"><![CDATA[.dark{fill: currentColor;}.darker{filter: url(#brightness)}.2darker{filter: url(#darker)}text{font-family:Arial, Helvetica, sans-serif; fill: #672064;}.white{fill:#fff;}.gray{fill:#d1d1d1;}.gdarker{fill:#bababa}.black{fill:#000}.lgray{fill:#ccc},.gray2{fill:#6d6d6d}.dark-gray2{fill:#757575}.little-white{fill:#efefef}.light-gray{fill:#f2f2f2;}]]></style><g id="tool-5b68a0f7ea0637002f6a4e36"><text x="0" y="0"><tspan class="name">app6</tspan><tspan class="dc">Linode, Aws, Digital ocean</tspan><tspan class="family">Application</tspan><tspan class="servers">6</tspan></text></g><symbol id="loadbalance.medium" preserveAspectRatio="xMidYMax meet" viewBox="0.0,0.0,265.58,155.84"><polygon class="light-gray" points="132.79,0 0,77.92 132.79,155.84 265.58,77.92 132.79,0" /><polygon class="dark" points="81.48,97.33 64.08,87.12 64.08,41.27 81.48,51.48 81.48,97.33" /><path class="white" d="M66.28,62.29l12.3,7.21V63.31L66.28,56.1Zm8.37-.11,3,1.74v4l-3-1.74ZM70.89,60l2.92,1.71v4L70.89,64Zm-3.7-2.18,2.87,1.69v4l-2.87-1.69Z" /><polygon class="light" points="81.48,97.33 98.88,87.12 98.88,41.27 81.48,51.48 81.48,97.33" /><polygon class="darker" points="81.48,31.06 64.08,41.27 81.48,51.48 98.88,41.27 81.48,31.06" /><path class="white" d="M66.41,54.55l12.3,7.21V55.57l-12.3-7.21Zm8.37-.11,3,1.74v4l-3-1.74ZM71,52.24,73.94,54v4L71,56.26Zm-3.7-2.18,2.88,1.69v4l-2.88-1.69Z" /><polygon class="dark" points="69.46,104.57 60.51,99.26 60.51,91.1 69.46,96.41 69.46,104.57" /><polygon class="light" points="69.46,104.57 78.41,99.26 78.41,91.1 69.46,96.41 69.46,104.57" /><polygon class="darker" points="69.46,85.78 60.51,91.1 69.46,96.41 78.41,91.1 69.46,85.78" /><path class="white" d="M61.71,96.58,68,100.34V97.11l-6.32-3.75Zm4.3,0,1.53.9v2.1L66,98.62Zm-1.93-1.15,1.5.89v2.1l-1.5-.9Zm-1.9-1.13,1.48.88v2.09l-1.48-.88Z" /><polygon class="dark-gray2" points="242.93,64.48 231.89,71.04 160,68.88 205.05,42.4 194.24,36.06 148.99,62.27 145.19,20.4 136.8,15.42 145.19,20.4 156.23,13.84 145.19,7.29 134.14,13.84 134.14,13.84 137.91,68.8 60.58,113.47 71.73,119.98 148.96,75.44 242.93,77.6 253.97,71.04 242.93,64.48" /><polygon class="dark" points="143.83,20.4 134.88,15.09 134.88,6.93 143.83,12.24 143.83,20.4" /><polygon class="light" points="143.83,20.4 152.77,15.09 152.77,6.93 143.83,12.24 143.83,20.4" /><polygon class="darker" points="143.83,1.61 134.88,6.93 143.83,12.24 152.77,6.93 143.83,1.61" /><path class="white" d="M136.07,12.41l6.33,3.76V13l-6.33-3.76Zm4.31-.05,1.52.9v2.1l-1.52-.91Zm-1.93-1.15,1.5.89v2.1l-1.5-.9Zm-1.91-1.13L138,11v2.09l-1.48-.88Z" /><polygon class="dark" points="241.4,77.29 232.45,71.97 232.45,63.81 241.4,69.13 241.4,77.29" /><polygon class="light" points="241.4,77.29 250.35,71.97 250.35,63.81 241.4,69.13 241.4,77.29" /><polygon class="darker" points="241.4,58.5 232.45,63.81 241.4,69.13 250.35,63.81 241.4,58.5" /><path class="white" d="M233.65,69.3,240,73.05V69.83l-6.32-3.75Zm4.3-.06,1.53.91v2.09l-1.53-.9ZM236,68.1l1.5.89v2.09l-1.5-.89ZM234.12,67l1.48.88v2.1l-1.48-.88Z" /><polygon class="dark" points="193.61,48.51 184.66,43.19 184.66,35.03 193.61,40.35 193.61,48.51" /><polygon class="light" points="193.61,48.51 202.56,43.19 202.56,35.03 193.61,40.35 193.61,48.51" /><polygon class="darker" points="193.61,29.72 184.66,35.03 193.61,40.35 202.56,35.03 193.61,29.72" /><path class="white" d="M185.86,40.52l6.32,3.75V41.05l-6.32-3.76Zm4.3-.06,1.53.91v2.09l-1.53-.9Zm-1.93-1.15,1.5.89v2.1l-1.5-.89Zm-1.9-1.13,1.48.88v2.1l-1.48-.88Z" /><polygon class="little-white" points="69.46,110.64 80.61,108.44 76.89,115.06 73.98,112.37 69.46,110.64" /><polygon class="little-white" points="90.96,97.25 102.11,95.04 98.39,101.66 95.48,98.98 90.96,97.25" /><polygon class="little-white" points="111.13,86.36 122.27,84.16 118.56,90.78 115.65,88.09 111.13,86.36" /><polygon class="little-white" points="131.63,74.45 142.77,72.24 139.06,78.86 136.15,76.18 131.63,74.45" /><polygon class="little-white" points="154.96,60.71 166.11,58.5 162.39,65.12 159.49,62.43 154.96,60.71" /><polygon class="little-white" points="173.52,49.92 184.66,47.71 180.95,54.33 178.04,51.64 173.52,49.92" /><polygon class="little-white" points="140.08,59.22 142.47,52.98 145.47,57.86 142.99,57.96 140.08,59.22" /><polygon class="little-white" points="170.69,69.92 176.83,72.66 170.2,75.06 171.4,72.55 170.69,69.92" /><polygon class="little-white" points="193.76,70.54 199.9,73.28 193.27,75.68 194.46,73.17 193.76,70.54" /><polygon class="little-white" points="214.53,71.08 220.67,73.82 214.04,76.22 215.23,73.71 214.53,71.08" /><polygon class="little-white" points="138.44,42.79 140.83,36.55 143.83,41.43 141.35,41.53 138.44,42.79" /><polygon class="little-white" points="137.39,27.8 139.78,21.56 142.77,26.44 140.3,26.54 137.39,27.8" /></symbol><g id="tool-5b68b7787430c30009b54cce"><text x="0" y="0"><tspan class="name">US-AECP-DEVQA36CA-MOCK-ELB1</tspan><tspan class="dc">aws</tspan><tspan class="family">Loadbalance</tspan><tspan class="provider">ELB (AWS)</tspan></text></g><g id="tool-5b68b7787430c30009b54ccd"><text x="0" y="0"><tspan class="name">US-AECP-DEVQA36CA-RABBITMQ-ELB1</tspan><tspan class="dc">aws</tspan><tspan class="family">Loadbalance</tspan><tspan class="provider">ELB (AWS)</tspan></text></g><symbol id="default" preserveAspectRatio="xMidYMax meet" viewBox="0.0,0.0,266.4,291.76"><polygon class="dark" points="133.2,291.76 0,213.6 0,78.16 133.2,156.32 133.2,291.76" /><polygon class="light" points="133.2,291.76 266.4,213.6 266.4,78.16 133.2,156.32 133.2,291.76" /><polygon class="darker" points="133.2,0 0,78.16 133.2,156.32 266.4,78.16 133.2,0" /><path class="white" d="M14.24,142.62l75.41,44.22V148.9L14.24,104.65ZM65.56,142l18.16,10.65v24.69L65.56,166.65Zm-23-13.52L60.42,139v24.68L42.53,153.14ZM19.85,115.1l17.61,10.38v24.68L19.85,139.82Z" /><polygon class="dark" points="103.31,111.32 50.51,80.33 50.5,42.49 103.31,73.48 103.31,111.32" /><polygon class="light" points="103.31,111.32 156.12,80.33 156.12,42.49 103.31,73.48 103.31,111.32" /><polygon class="darker" points="103.31,11.51 50.5,42.49 103.31,73.48 156.12,42.49 103.31,11.51" /></symbol><g id="tool-5b68b77b7430c30009b54df8"><text x="0" y="0"><tspan class="name">rndsecuredetails</tspan><tspan class="dc">aws</tspan><tspan class="family">ObjectStorage</tspan><tspan class="provider">S3 (AWS)</tspan></text></g><symbol id="application.small" preserveAspectRatio="xMidYMax meet" viewBox="0.0,0.0,266.4,259.12"><polygon class="dark" points="133.2,259.12 0,180.96 0,85.52 133.2,163.68 133.2,259.12" /><polygon class="light" points="133.2,259.12 266.4,180.96 266.4,85.52 133.2,163.68 133.2,259.12" /><polygon class="darker" points="133.2,7.36 0,85.52 133.2,163.68 266.4,85.52 133.2,7.36" /><path class="white" d="M51.15,163.52l70,41V169.35l-70-41Zm47.62-.61,16.85,9.89v22.9l-16.85-9.89ZM77.4,150.37,94,160.11V183l-16.6-9.73ZM56.36,138l16.34,9.62v22.91l-16.34-9.6Z" /><polygon class="dark" points="133.2,99.81 80.39,68.82 80.39,30.99 133.2,61.97 133.2,99.81" /><polygon class="light" points="133.2,99.81 186.01,68.82 186.01,30.99 133.2,61.97 133.2,99.81" /><polygon class="darker" points="133.2,0 80.39,30.99 133.2,61.97 186.01,30.99 133.2,0" /></symbol><style type="text/css"><![CDATA[.premise{color: #5b5b5b;fill: #8e8e8e;}]]></style><g id="tool-5b97f3583cdad83c6c25aa56"><text x="0" y="0"><tspan class="name">root</tspan><tspan class="dc">premise</tspan><tspan class="family">Application</tspan></text></g><g id="tool-5b68b7787430c3000a620f38"><text x="0" y="0"><tspan class="name">US-AECP-DEVQA36CA-3PGW-ALB1</tspan><tspan class="dc">aws</tspan><tspan class="family">Loadbalance</tspan><tspan class="provider">ELB (AWS)</tspan></text></g><symbol id="database.medium" preserveAspectRatio="xMidYMax meet" viewBox="0.0,0.0,401.82,427.9"><polygon class="dark" points="209.95,427.9 26.89,320.49 26.89,115.56 209.95,222.98 209.95,427.9" /><polygon class="light" points="209.95,427.9 393.01,320.49 393.01,115.56 209.95,222.98 209.95,427.9" /><polygon class="darker" points="209.95,8.14 26.89,115.56 209.95,222.98 393.01,115.56 209.95,8.14" /><path class="white" d="M285.61,228.58l-64.7,37.93V234l64.7-38Zm-44-.57L226,237.15v21.18l15.57-9.14Zm19.76-11.59-15.34,9V246.6l15.34-9ZM280.79,205l-15.11,8.89V235l15.11-8.87Z" /><polygon class="dark" points="43.23,380.68 0,355.31 0,316.36 43.23,341.73 43.23,380.68" /><polygon class="light" points="43.23,380.68 86.46,355.31 86.46,316.36 43.23,341.73 43.23,380.68" /><polygon class="darker" points="43.23,291 0,316.36 43.23,341.73 86.46,316.36 43.23,291" /><path class="white" d="M5.78,342.54l30.56,17.92V345.09L5.78,327.16Zm20.79-.27,7.36,4.32v10l-7.36-4.31Zm-9.33-5.47,7.25,4.25v10l-7.25-4.25Zm-9.19-5.41,7.14,4.2v10l-7.14-4.2Z" /><polygon class="dark" points="368.53,217.16 335.24,197.63 335.24,167.63 368.53,187.17 368.53,217.16" /><polygon class="light" points="368.53,217.16 401.82,197.63 401.82,167.63 368.53,187.17 368.53,217.16" /><polygon class="darker" points="368.53,148.1 335.24,167.63 368.53,187.17 401.82,167.63 368.53,148.1" /><polygon class="dark" points="204.15,99.73 156.07,71.52 156.07,28.21 204.15,56.42 204.15,99.73" /><polygon class="light" points="204.15,99.73 252.22,71.52 252.22,28.21 204.15,56.42 204.15,99.73" /><polygon class="darker" points="204.15,0 156.07,28.21 204.15,56.42 252.22,28.21 204.15,0" /><polygon class="dark" points="43.23,328.48 0,303.11 0,264.16 43.23,289.53 43.23,328.48" /><polygon class="light" points="43.23,328.48 86.46,303.11 86.46,264.16 43.23,289.53 43.23,328.48" /><polygon class="darker" points="43.23,238.79 0,264.16 43.23,289.53 86.46,264.16 43.23,238.79" /><path class="white" d="M5.78,290.34l30.56,17.91V292.88L5.78,275Zm20.79-.27,7.36,4.32v10l-7.36-4.32Zm-9.33-5.48,7.25,4.26v10l-7.25-4.25Zm-9.19-5.4,7.14,4.2v10L8.05,289.2Z" /></symbol><g id="tool-5b689a7aea0637002f6a4e32"><text x="0" y="0"><tspan class="name">saikat-neptune-test-off-333</tspan><tspan class="dc">aws</tspan><tspan class="family">Database</tspan><tspan class="provider">RDS (AWS)</tspan></text></g><g id="tool-5b68a0f1ea0637002f6a4e35"><text x="0" y="0"><tspan class="name">app5</tspan><tspan class="dc">premise</tspan><tspan class="family">Application</tspan></text></g><g id="tool-5b68b7787430c3000a620f37"><text x="0" y="0"><tspan class="name">US-AECP-DEVQA36CA-MGW-ALB1</tspan><tspan class="dc">aws</tspan><tspan class="family">Loadbalance</tspan><tspan class="provider">ELB (AWS)</tspan></text></g><g id="tool-5b68b7787430c30009b54ccb"><text x="0" y="0"><tspan class="name">US-AECP-DEVQA36CA-MGM-ELB1</tspan><tspan class="dc">aws</tspan><tspan class="family">Loadbalance</tspan><tspan class="provider">ELB (AWS)</tspan></text></g><g id="tool-5b6cc2caea0637002f6a4e41"><text x="0" y="0"><tspan class="name">app8</tspan><tspan class="dc">premise</tspan><tspan class="family">Application</tspan></text></g><g id="tool-5b68a0ecea0637002f6a4e34"><text x="0" y="0"><tspan class="name">app4</tspan><tspan class="dc">premise</tspan><tspan class="family">Application</tspan></text></g><symbol id="broker.medium" preserveAspectRatio="xMidYMax meet" viewBox="0.0,0.0,569.36,538.36"><polygon class="dark" points="105.41,424.17 0.2,362.48 0,157.16 105.41,263.85 105.41,424.17" /><polygon class="light" points="104.36,424.17 372.18,267.01 372.18,106.69 104.36,263.85 104.36,424.17" /><polygon class="darker" points="267.82,0 0,157.16 105.41,263.87 373.24,106.71 267.82,0" /><path class="white" d="M196.38,272.89l-64.7,37.93V278.28l64.7-38Zm-44-.57-15.58,9.15v21.18l15.58-9.15Zm19.75-11.59-15.34,9v21.18l15.34-9Zm19.46-11.45-15.11,8.9v21.18l15.11-8.88Z" /><path class="white" d="M201.46,360.82l-64.69,37.94V366.21l64.69-38Zm-44-.56-15.58,9.14v21.18l15.58-9.14Zm19.76-11.6-15.34,9v21.18l15.34-9Zm19.46-11.45-15.11,8.9v21.18l15.11-8.87Z" /><path class="white" d="M291,314.87l-64.7,37.93V280.26l64.7-38Zm-4.82,1.6V251.26l-54.79,32.19v65.18Z" /><polygon class="gray" points="404.93,284.66 137.1,441.81 198.14,478.04 465.96,320.88 404.93,284.66" /><polygon class="dark" points="301.53,538.36 240.5,502.13 240.5,441.81 301.53,478.04 301.53,538.36" /><polygon class="light" points="301.53,538.36 569.36,381.2 569.36,320.88 301.53,478.04 301.53,538.36" /><polygon class="darker" points="508.32,284.66 240.5,441.81 301.53,478.04 569.36,320.88 508.32,284.66" /><polygon class="dark" points="504.81,341.78 467.08,319.64 467.08,285.65 504.81,307.79 504.81,341.78" /><polygon class="light" points="504.81,341.78 542.53,319.64 542.53,285.65 504.81,307.79 504.81,341.78" /><polygon class="darker" points="504.81,263.51 467.08,285.65 504.81,307.79 542.53,285.65 504.81,263.51" /><path class="white" d="M472.12,308.49l26.67,15.64V310.72l-26.67-15.65Zm18.15-.23,6.42,3.77v8.73L490.27,317Zm-8.15-4.78,6.33,3.71v8.73l-6.33-3.71Zm-8-4.72,6.23,3.67v8.73l-6.23-3.66Z" /></symbol><g id="tool-5b7208c27550fe6fac1d9f30"><text x="0" y="0"><tspan class="name">bkr</tspan><tspan class="dc">Aws</tspan><tspan class="family">Broker</tspan><tspan class="servers">2</tspan></text></g></defs><rect fill="#eaeaea" height="1028.9760168767602" width="1440.0000000000002" x="0" y="0" /><g id="3-4"><path class="conector" d="M1285.0000000000002 855.9005448637224 1285.0000000000002 826.5657190988006 1210.0000000000002 770.8295501454495 1235.0000000000002 756.1621372629886" fill="none" marker-end="url(#markers.arrow)" opacity="0.8" stroke="black" stroke-width="1" /><path class="conector_h conn-5b68a0f7ea0637002f6a4e36" d="M1285.0000000000002 855.9005448637224 1285.0000000000002 826.5657190988006 1210.0000000000002 770.8295501454495 1235.0000000000002 756.1621372629886" fill="none" opacity="0" stroke="black" stroke-width="18" /><text display="none" x="0" y="0">None</text></g><g id="3-4"><path class="conector" d="M1285.0000000000002 855.9005448637224 1320.0000000000002 835.3661668282773 1345.0000000000002 820.6987539458164" fill="none" marker-end="url(#markers.arrow)" opacity="0.8" stroke="black" stroke-width="1" /><path class="conector_h conn-5b68a0f7ea0637002f6a4e36" d="M1285.0000000000002 855.9005448637224 1320.0000000000002 835.3661668282773 1345.0000000000002 820.6987539458164" fill="none" opacity="0" stroke="black" stroke-width="18" /><text display="none" x="0" y="0">rest</text></g><g id="3-4"><path class="conector" d="M1285.0000000000002 855.9005448637224 1335.0000000000002 855.9005448637223 1430.0000000000002 899.9027835111049 1455.0000000000002 885.235370628644" fill="none" marker-end="url(#markers.arrow)" opacity="0.8" stroke="black" stroke-width="1" /><path class="conector_h conn-5b68a0f7ea0637002f6a4e36" d="M1285.0000000000002 855.9005448637224 1335.0000000000002 855.9005448637223 1430.0000000000002 899.9027835111049 1455.0000000000002 885.235370628644" fill="none" opacity="0" stroke="black" stroke-width="18" /><text display="none" x="0" y="0">rest</text></g><g id="3-4"><path class="conector" d="M735.0000000000001 533.2174614495837 735.0000000000001 503.88263568466203 440.00000000000006 319.0732333656554 465.00000000000006 304.4058204831946" fill="none" marker-end="url(#markers.arrow)" opacity="0.8" stroke="black" stroke-width="1" /><path class="conector_h conn-5b68a0ecea0637002f6a4e34" d="M735.0000000000001 533.2174614495837 735.0000000000001 503.88263568466203 440.00000000000006 319.0732333656554 465.00000000000006 304.4058204831946" fill="none" opacity="0" stroke="black" stroke-width="18" /><text display="none" x="0" y="0">None</text></g><g id="3-3"><path class="conector" d="M735.0000000000001 533.2174614495837 785.0000000000001 533.2174614495837 1156.666666666667 750.1541024159728 1046.6666666666667 814.6907190988006 1210.0000000000002 899.9027835111049 1235.0000000000002 885.235370628644" fill="none" marker-end="url(#markers.arrow)" opacity="0.8" stroke="black" stroke-width="1" /><path class="conector_h conn-5b68a0ecea0637002f6a4e34" d="M735.0000000000001 533.2174614495837 785.0000000000001 533.2174614495837 1156.666666666667 750.1541024159728 1046.6666666666667 814.6907190988006 1210.0000000000002 899.9027835111049 1235.0000000000002 885.235370628644" fill="none" opacity="0" stroke="black" stroke-width="18" /><text display="none" x="0" y="0">None</text></g><g id="3-4"><path class="conector" d="M735.0000000000001 533.2174614495837 785.0000000000001 533.2174614495837 880.0000000000001 577.2197000969663 905.0000000000001 562.5522872145054" fill="none" marker-end="url(#markers.arrow)" opacity="0.8" stroke="black" stroke-width="1" /><path class="conector_h conn-5b68a0ecea0637002f6a4e34" d="M735.0000000000001 533.2174614495837 785.0000000000001 533.2174614495837 880.0000000000001 577.2197000969663 905.0000000000001 562.5522872145054" fill="none" opacity="0" stroke="black" stroke-width="18" /><text display="none" x="0" y="0">None</text></g><g id="3-4"><path class="conector" d="M735.0000000000001 533.2174614495837 735.0000000000001 503.88263568466203 660.0000000000001 448.14646673131085 685.0000000000001 433.47905384885" fill="none" marker-end="url(#markers.arrow)" opacity="0.8" stroke="black" stroke-width="1" /><path class="conector_h conn-5b68a0ecea0637002f6a4e34" d="M735.0000000000001 533.2174614495837 735.0000000000001 503.88263568466203 660.0000000000001 448.14646673131085 685.0000000000001 433.47905384885" fill="none" opacity="0" stroke="black" stroke-width="18" /><text display="none" x="0" y="0">None</text></g><g id="3-5"><path class="conector" d="M735.0000000000001 533.2174614495837 735.0000000000001 503.88263568466203 383.00000000000006 298.3977856361789 468.00000000000006 248.52858183581202 770.0000000000001 383.60985004848317 795.0000000000001 368.94243716602233" fill="none" marker-end="url(#markers.arrow)" opacity="0.8" stroke="black" stroke-width="1" /><path class="conector_h conn-5b68a0ecea0637002f6a4e34" d="M735.0000000000001 533.2174614495837 735.0000000000001 503.88263568466203 383.00000000000006 298.3977856361789 468.00000000000006 248.52858183581202 770.0000000000001 383.60985004848317 795.0000000000001 368.94243716602233" fill="none" opacity="0" stroke="black" stroke-width="18" /><text display="none" x="0" y="0">None</text></g><g id="4-5"><path class="conector" d="M735.0000000000001 404.14422808392834 770.0000000000001 383.60985004848317 795.0000000000001 368.94243716602233" fill="none" marker-end="url(#markers.arrow)" opacity="0.8" stroke="black" stroke-width="1" /><path class="conector_h conn-5b689a7aea0637002f6a4e32" d="M735.0000000000001 404.14422808392834 770.0000000000001 383.60985004848317 795.0000000000001 368.94243716602233" fill="none" opacity="0" stroke="black" stroke-width="18" /><text display="none" x="0" y="0">rest</text></g><g id="5-6"><path class="conector" d="M845.0000000000001 339.60761140110066 880.0000000000001 319.0732333656554 905.0000000000001 304.4058204831946" fill="none" marker-end="url(#markers.arrow)" opacity="0.8" stroke="black" stroke-width="1" /><path class="conector_h conn-5b68a0f1ea0637002f6a4e35" d="M845.0000000000001 339.60761140110066 880.0000000000001 319.0732333656554 905.0000000000001 304.4058204831946" fill="none" opacity="0" stroke="black" stroke-width="18" /><text display="none" x="0" y="0">None</text></g><g id="5-7"><path class="conector" d="M845.0000000000001 339.60761140110066 845.0000000000001 310.272785636179 760.0000000000001 260.40358183581213 845.0000000000001 210.53437803544523 770.0000000000001 125.46338331717226 795.0000000000001 110.79597043471142" fill="none" marker-end="url(#markers.arrow)" opacity="0.8" stroke="black" stroke-width="1" /><path class="conector_h conn-5b68a0f1ea0637002f6a4e35" d="M845.0000000000001 339.60761140110066 845.0000000000001 310.272785636179 760.0000000000001 260.40358183581213 845.0000000000001 210.53437803544523 770.0000000000001 125.46338331717226 795.0000000000001 110.79597043471142" fill="none" opacity="0" stroke="black" stroke-width="18" /><text display="none" x="0" y="0">rest</text></g><g id="5-6"><path class="conector" d="M845.0000000000001 339.60761140110066 895.0000000000001 339.60761140110066 990.0000000000002 383.6098500484831 1015.0000000000002 368.9424371660223" fill="none" marker-end="url(#markers.arrow)" opacity="0.8" stroke="black" stroke-width="1" /><path class="conector_h conn-5b68a0f1ea0637002f6a4e35" d="M845.0000000000001 339.60761140110066 895.0000000000001 339.60761140110066 990.0000000000002 383.6098500484831 1015.0000000000002 368.9424371660223" fill="none" opacity="0" stroke="black" stroke-width="18" /><text display="none" x="0" y="0">None</text></g><g id="4-3"><path class="conector" d="M1395.0000000000002 791.3639281808946 1395.0000000000002 762.029102415973 1266.666666666667 685.6174857331451 1046.6666666666667 814.6907190988006 1210.0000000000002 899.9027835111049 1235.0000000000002 885.235370628644" fill="none" marker-end="url(#markers.arrow)" opacity="0.8" stroke="black" stroke-width="1" /><path class="conector_h conn-5b6cc2caea0637002f6a4e41" d="M1395.0000000000002 791.3639281808946 1395.0000000000002 762.029102415973 1266.666666666667 685.6174857331451 1046.6666666666667 814.6907190988006 1210.0000000000002 899.9027835111049 1235.0000000000002 885.235370628644" fill="none" opacity="0" stroke="black" stroke-width="18" /><text display="none" x="0" y="0">None</text></g><g id="4-6"><path class="conector" d="M1395.0000000000002 791.3639281808946 1420.0000000000002 776.6965152984337 1420.0000000000002 776.6965152984337 1505.0000000000002 726.827311498067 990.0000000000002 383.6098500484831 1015.0000000000002 368.9424371660223" fill="none" marker-end="url(#markers.arrow)" opacity="0.8" stroke="black" stroke-width="1" /><path class="conector_h conn-5b6cc2caea0637002f6a4e41" d="M1395.0000000000002 791.3639281808946 1420.0000000000002 776.6965152984337 1420.0000000000002 776.6965152984337 1505.0000000000002 726.827311498067 990.0000000000002 383.6098500484831 1015.0000000000002 368.9424371660223" fill="none" opacity="0" stroke="black" stroke-width="18" /><text display="none" x="0" y="0">None</text></g><g id="4-3"><path class="conector" d="M955.0000000000001 533.2174614495837 955.0000000000001 503.88263568466203 496.6666666666667 233.86116895335118 276.6666666666667 362.93440231900667 660.0000000000001 577.2197000969663 685.0000000000001 562.5522872145054" fill="none" marker-end="url(#markers.arrow)" opacity="0.8" stroke="black" stroke-width="1" /><path class="conector_h conn-5b68b7787430c30009b54ccb" d="M955.0000000000001 533.2174614495837 955.0000000000001 503.88263568466203 496.6666666666667 233.86116895335118 276.6666666666667 362.93440231900667 660.0000000000001 577.2197000969663 685.0000000000001 562.5522872145054" fill="none" opacity="0" stroke="black" stroke-width="18" /><text display="none" x="0" y="0">None</text></g><g id="4-5"><path class="conector" d="M1505.0000000000002 855.9005448637222 1540.0000000000002 835.3661668282771 1565.0000000000002 820.6987539458162" fill="none" marker-end="url(#markers.arrow)" opacity="0.8" stroke="black" stroke-width="1" /><path class="conector_h conn-5b7208c27550fe6fac1d9f30" d="M1505.0000000000002 855.9005448637222 1540.0000000000002 835.3661668282771 1565.0000000000002 820.6987539458162" fill="none" opacity="0" stroke="black" stroke-width="18" /><text display="none" x="0" y="0">None</text></g><polyline fill="#ccc" fill-opacity="0.2" points="1100.0000000000002,806.0313410633554 1150.0000000000002,776.6965152984337 1420.0000000000002,935.1045744290108 1370.0000000000002,964.4394001939324" /><use class="default" fill-opacity="0.4" height="190.0" width="100" x="1210.0000000000002" xlink:href="#grid.base" y="709.9027835111049" /><use class="aws" height="63.333333333333336" width="24.333333333333336" x="1247.8333333333335" xlink:href="#application.medium" y="794.816214839033" /><use class="aws" height="63.333333333333336" width="24.333333333333336" x="1264.5000000000002" xlink:href="#application.medium" y="804.5944900940069" /><use class="aws" height="63.333333333333336" width="24.333333333333336" x="1281.166666666667" xlink:href="#application.medium" y="814.3727653489808" /><use class="aws" height="63.333333333333336" width="24.333333333333336" x="1231.166666666667" xlink:href="#application.micro" y="804.5944900940069" /><use class="linode" height="63.333333333333336" width="24.333333333333336" x="1247.8333333333335" xlink:href="#application.micro" y="814.3727653489808" /><use class="digital ocean" height="63.333333333333336" width="24.333333333333336" x="1264.5000000000002" xlink:href="#application.micro" y="824.1510406039547" /><use class="default boundaries" height="190.0" id="5b68a0f7ea0637002f6a4e36" width="100" x="1210.0000000000002" xlink:href="#boundaries_box.front" y="709.9027835111049" /><text font-size="16.0" transform="translate(1225.0000000000002, 709.9027835111049) skewY(-30.404) skewX(41.0) translate(-1348.8600000000001, -485.7027835111049)" x="1210.0000000000002" y="709.9027835111049">app6</text><polyline fill="#ccc" fill-opacity="0.2" points="880.0000000000001,289.73840760073375 930.0000000000001,260.4035818358121 980.0000000000001,289.73840760073375 930.0000000000001,319.0732333656554" /><use class="default" fill-opacity="0.4" height="190.0" width="100" x="880.0000000000001" xlink:href="#grid.base" y="129.07323336565543" /><use class="aws" height="190.0" width="83.0" x="888.5000000000001" xlink:href="#loadbalance.medium" y="124.08631298561875" /><use class="default boundaries" height="190.0" id="5b68b7787430c30009b54cce" width="100" x="880.0000000000001" xlink:href="#boundaries_box.front" y="129.07323336565543" /><text font-size="16.0" transform="translate(895.0000000000001, 129.07323336565543) skewY(-30.404) skewX(41.0) translate(-1041.9, 95.12676663434456)" x="880.0000000000001" y="129.07323336565543">US-AECP-DE</text><polyline fill="#ccc" fill-opacity="0.2" points="990.0000000000002,354.27502428356144 1040.0000000000002,324.94019851863976 1090.0000000000002,354.27502428356144 1040.0000000000002,383.6098500484831" /><use class="default" fill-opacity="0.4" height="190.0" width="100" x="990.0000000000002" xlink:href="#grid.base" y="193.6098500484831" /><use class="aws" height="190.0" width="83.0" x="998.5000000000002" xlink:href="#loadbalance.medium" y="188.62292966844643" /><use class="default boundaries" height="190.0" id="5b68b7787430c30009b54ccd" width="100" x="990.0000000000002" xlink:href="#boundaries_box.front" y="193.6098500484831" /><text font-size="16.0" transform="translate(1005.0000000000002, 193.6098500484831) skewY(-30.404) skewX(41.0) translate(-1151.9000000000003, 30.590149951516878)" x="990.0000000000002" y="193.6098500484831">US-AECP-DE</text><polyline fill="#ccc" fill-opacity="0.2" points="1210.0000000000002,741.4947243805277 1260.0000000000002,712.159898615606 1310.0000000000002,741.4947243805277 1260.0000000000002,770.8295501454494" /><use class="default" fill-opacity="0.4" height="190.0" width="100" x="1210.0000000000002" xlink:href="#grid.base" y="580.8295501454494" /><use class="aws" height="190.0" width="83.0" x="1218.5000000000002" xlink:href="#default" y="575.8426297654127" /><use class="default boundaries" height="190.0" id="5b68b77b7430c30009b54df8" width="100" x="1210.0000000000002" xlink:href="#boundaries_box.front" y="580.8295501454494" /><text font-size="16.0" transform="translate(1225.0000000000002, 580.8295501454494) skewY(-30.404) skewX(41.0) translate(-1371.9000000000003, -356.6295501454494)" x="1210.0000000000002" y="580.8295501454494">rndsecured</text><polyline fill="#ccc" fill-opacity="0.2" points="770.0000000000001,96.12855755225057 820.0000000000001,66.79373178732888 870.0000000000001,96.12855755225057 820.0000000000001,125.46338331717226" /><use class="default" fill-opacity="0.4" height="190.0" width="100" x="770.0000000000001" xlink:href="#grid.base" y="-64.53661668282774" /><use class="premise" height="95.0" width="36.0" x="802.0000000000001" xlink:href="#application.small" y="11.689094827622386" /><use class="default boundaries" height="190.0" id="5b97f3583cdad83c6c25aa56" width="100" x="770.0000000000001" xlink:href="#boundaries_box.front" y="-64.53661668282774" /><text font-size="16.0" transform="translate(785.0000000000001, -64.53661668282774) skewY(-30.404) skewX(41.0) translate(-908.8600000000001, 288.73661668282773)" x="770.0000000000001" y="-64.53661668282774">root</text><polyline fill="#ccc" fill-opacity="0.2" points="1540.0000000000002,806.0313410633554 1590.0000000000002,776.6965152984337 1640.0000000000002,806.0313410633554 1590.0000000000002,835.3661668282771" /><use class="default" fill-opacity="0.4" height="190.0" width="100" x="1540.0000000000002" xlink:href="#grid.base" y="645.3661668282771" /><use class="aws" height="190.0" width="83.0" x="1548.5000000000002" xlink:href="#loadbalance.medium" y="640.3792464482403" /><use class="default boundaries" height="190.0" id="5b68b7787430c3000a620f38" width="100" x="1540.0000000000002" xlink:href="#boundaries_box.front" y="645.3661668282771" /><text font-size="16.0" transform="translate(1555.0000000000002, 645.3661668282771) skewY(-30.404) skewX(41.0) translate(-1701.9000000000003, -421.1661668282771)" x="1540.0000000000002" y="645.3661668282771">US-AECP-DE</text><polyline fill="#ccc" fill-opacity="0.2" points="550.0000000000001,354.2750242835615 600.0000000000001,324.9401985186398 870.0000000000001,483.34825764921686 820.0000000000001,512.6830834141385" /><use class="default" fill-opacity="0.4" height="190.0" width="100" x="660.0000000000001" xlink:href="#grid.base" y="258.14646673131085" /><use class="aws" height="190.0" width="83.0" x="668.5000000000001" xlink:href="#database.medium" y="253.15954635127417" /><use class="default boundaries" height="190.0" id="5b689a7aea0637002f6a4e32" width="100" x="660.0000000000001" xlink:href="#boundaries_box.front" y="258.14646673131085" /><text font-size="16.0" transform="translate(675.0000000000001, 258.14646673131085) skewY(-30.404) skewX(41.0) translate(-821.9000000000001, -33.94646673131086)" x="660.0000000000001" y="258.14646673131085">saikat-nep</text><polyline fill="#ccc" fill-opacity="0.2" points="660.0000000000001,289.7384076007338 710.0000000000001,260.40358183581213 980.0000000000002,418.8116409663892 930.0000000000002,448.14646673131085" /><use class="default" fill-opacity="0.4" height="190.0" width="100" x="770.0000000000001" xlink:href="#grid.base" y="193.60985004848317" /><use class="premise" height="95.0" width="36.0" x="802.0000000000001" xlink:href="#application.small" y="269.8355615589333" /><use class="default boundaries" height="190.0" id="5b68a0f1ea0637002f6a4e35" width="100" x="770.0000000000001" xlink:href="#boundaries_box.front" y="193.60985004848317" /><text font-size="16.0" transform="translate(785.0000000000001, 193.60985004848317) skewY(-30.404) skewX(41.0) translate(-908.8600000000001, 30.59014995151682)" x="770.0000000000001" y="193.60985004848317">app5</text><polyline fill="#ccc" fill-opacity="0.2" points="440.00000000000006,289.73840760073375 490.00000000000006,260.4035818358121 540.0,289.73840760073375 490.00000000000006,319.0732333656554" /><use class="default" fill-opacity="0.4" height="190.0" width="100" x="440.00000000000006" xlink:href="#grid.base" y="129.07323336565543" /><use class="aws" height="190.0" width="83.0" x="448.50000000000006" xlink:href="#loadbalance.medium" y="124.08631298561875" /><use class="default boundaries" height="190.0" id="5b68b7787430c3000a620f37" width="100" x="440.00000000000006" xlink:href="#boundaries_box.front" y="129.07323336565543" /><text font-size="16.0" transform="translate(455.00000000000006, 129.07323336565543) skewY(-30.404) skewX(41.0) translate(-601.9000000000001, 95.12676663434456)" x="440.00000000000006" y="129.07323336565543">US-AECP-DE</text><polyline fill="#ccc" fill-opacity="0.2" points="880.0000000000001,547.8848743320445 930.0000000000001,518.5500485671229 980.0000000000001,547.8848743320445 930.0000000000001,577.2197000969662" /><use class="default" fill-opacity="0.4" height="190.0" width="100" x="880.0000000000001" xlink:href="#grid.base" y="387.2197000969662" /><use class="aws" height="190.0" width="83.0" x="888.5000000000001" xlink:href="#loadbalance.medium" y="382.23277971692954" /><use class="default boundaries" height="190.0" id="5b68b7787430c30009b54ccb" width="100" x="880.0000000000001" xlink:href="#boundaries_box.front" y="387.2197000969662" /><text font-size="16.0" transform="translate(895.0000000000001, 387.2197000969662) skewY(-30.404) skewX(41.0) translate(-1041.9, -163.01970009696623)" x="880.0000000000001" y="387.2197000969662">US-AECP-DE</text><polyline fill="#ccc" fill-opacity="0.2" points="1320.0000000000002,806.0313410633555 1370.0000000000002,776.6965152984338 1420.0000000000002,806.0313410633555 1370.0000000000002,835.3661668282772" /><use class="default" fill-opacity="0.4" height="190.0" width="100" x="1320.0000000000002" xlink:href="#grid.base" y="645.3661668282772" /><use class="premise" height="95.0" width="36.0" x="1352.0000000000002" xlink:href="#application.small" y="721.5918783387274" /><use class="default boundaries" height="190.0" id="5b6cc2caea0637002f6a4e41" width="100" x="1320.0000000000002" xlink:href="#boundaries_box.front" y="645.3661668282772" /><text font-size="16.0" transform="translate(1335.0000000000002, 645.3661668282772) skewY(-30.404) skewX(41.0) translate(-1458.8600000000001, -421.1661668282772)" x="1320.0000000000002" y="645.3661668282772">app8</text><polyline fill="#ccc" fill-opacity="0.2" points="330.00000000000006,354.2750242835615 380.00000000000006,324.9401985186398 1090.0000000000002,741.4947243805277 1040.0000000000002,770.8295501454494" /><use class="default" fill-opacity="0.4" height="190.0" width="100" x="660.0000000000001" xlink:href="#grid.base" y="387.2197000969662" /><use class="premise" height="95.0" width="36.0" x="692.0000000000001" xlink:href="#application.small" y="463.44541160741636" /><use class="default boundaries" height="190.0" id="5b68a0ecea0637002f6a4e34" width="100" x="660.0000000000001" xlink:href="#boundaries_box.front" y="387.2197000969662" /><text font-size="16.0" transform="translate(675.0000000000001, 387.2197000969662) skewY(-30.404) skewX(41.0) translate(-798.8600000000001, -163.01970009696623)" x="660.0000000000001" y="387.2197000969662">app4</text><polyline fill="#ccc" fill-opacity="0.2" points="1430.0000000000002,870.5679577461831 1480.0000000000002,841.2331319812614 1530.0000000000002,870.5679577461831 1480.0000000000002,899.9027835111048" /><use class="default" fill-opacity="0.4" height="190.0" width="100" x="1430.0000000000002" xlink:href="#grid.base" y="709.9027835111048" /><use class="aws" height="190.0" width="83.0" x="1438.5000000000002" xlink:href="#broker.medium" y="704.915863131068" /><use class="default boundaries" height="190.0" id="5b7208c27550fe6fac1d9f30" width="100" x="1430.0000000000002" xlink:href="#boundaries_box.front" y="709.9027835111048" /><text font-size="16.0" transform="translate(1445.0000000000002, 709.9027835111048) skewY(-30.404) skewX(41.0) translate(-1565.0200000000002, -485.70278351110477)" x="1430.0000000000002" y="709.9027835111048">bkr</text></svg>