<?xml version="1.0" encoding="utf-8" ?>
<svg baseProfile="full" height="899.9027835111049" id="graph" version="1.1" viewBox="0,0,1520.0000000000002,899.9027835111049" width="1520.0000000000002" xmlns="http://www.w3.org/2000/svg" xmlns:ev="http://www.w3.org/2001/xml-events" xmlns:xlink="http://www.w3.org/1999/xlink"><defs><filter id="brightness"><feComponentTransfer in="SourceGraphic"><feFuncR slope="0.6" type="linear" /><feFuncG slope="0.6" type="linear" /><feFuncB slope="0.6" type="linear" /></feComponentTransfer></filter><filter id="darker"><feComponentTransfer in="SourceGraphic"><feFuncR slope="0.4" type="linear" /><feFuncG slope="0.4" type="linear" /><feFuncB slope="0.4" type="linear" /></feComponentTransfer></filter><marker id="markers.arrow" markerHeight="12.5" markerWidth="12.5" refX="152" refY="3" viewBox="0.0,0.0,157.21,92.25"><polygon class="black" points="0,30.75 157.21,0 104.81,92.25 63.79,54.82 0,30.75" /></marker><symbol id="grid.entry" preserveAspectRatio="xMidYMax meet" viewBox="0.0,0.0,266.4,156.32"><polygon class="bg-gray" points="133.2,0 0,78.16 133.2,156.32 266.4,78.16 133.2,0" /><ellipse class="dark-gray" cx="107.32" cy="96.53" rx="52.1" ry="31.67" /><polygon class="dark-gray" points="200.47,39.41 137.82,51.66 146.03,54.76 118.35,60.17 148.64,71.6 168.11,89.37 176.97,73.78 179.59,76.17 200.47,39.41" /></symbol><style type="text/css"><![CDATA[.dark{fill: currentColor;}.darker{filter: url(#brightness)}.2darker{filter: url(#darker)}text{font-family:Arial, Helvetica, sans-serif; fill: #672064;}.white{fill:#fff;}.gray{fill:#d1d1d1;}.gdarker{fill:#bababa}.black{fill:#000}.lgray{fill:#ccc},.gray2{fill:#6d6d6d}.dark-gray2{fill:#757575}.little-white{fill:#efefef}.light-gray{fill:#f2f2f2;}.light-black{fill:#212121;}.bg-gray{fill:#fbfbfb;}.yellow{fill:#ecba16;}.dark-yellow{fill:#c69710;}.strblack{fill:none;stroke:#000;stroke-miterlimit:10;}]]></style><symbol id="grid.base" preserveAspectRatio="xMidYMax meet" viewBox="0.0,0.0,266.4,156.32"><polygon class="gdarker" points="133.2,0 0,78.16 133.2,156.32 266.4,78.16" /></symbol><symbol id="boundaries_box.front" preserveAspectRatio="xMidYMax meet" viewBox="0.0,0.0,265.58,292.78"><polygon class="gdarker" fill-opacity="0.3" points="132.79,0 0,77.92 132.79,155.84 265.58,77.92 132.79,0" /><polygon class="lgray" fill-opacity="0.2" points="132.79,155.84 132.79,292.78 0,214.86 0,77.92 132.79,155.84" /><polygon class="lgray" fill-opacity="0.2" points="265.58,77.92 265.58,214.86 132.79,292.78 132.79,155.84 265.58,77.92" /></symbol><style type="text/css"><![CDATA[.dark{fill: currentColor;}.darker{filter: url(#brightness)}.2darker{filter: url(#darker)}text{font-family:Arial, Helvetica, sans-serif; fill: #672064;}.white{fill:#fff;}.gray{fill:#d1d1d1;}.gdarker{fill:#bababa}.black{fill:#000}.lgray{fill:#ccc},.gray2{fill:#6d6d6d}.dark-gray2{fill:#757575}.little-white{fill:#efefef}.light-gray{fill:#f2f2f2;}.light-black{fill:#212121;}.bg-gray{fill:#fbfbfb;}.yellow{fill:#ecba16;}.dark-yellow{fill:#c69710;}.strblack{fill:none;stroke:#000;stroke-miterlimit:10;}]]></style><g id="tool-5bc8c4f839f34a229d490b76"><text x="0" y="0"><tspan class="name">app5</tspan><tspan class="dc">Premise</tspan><tspan class="family">Application</tspan><tspan class="servers">1</tspan></text></g><symbol id="application.medium" preserveAspectRatio="xMidYMax meet" viewBox="0.0,0.0,266.4,291.76"><polygon class="dark" points="133.2,291.76 0,213.6 0,78.16 133.2,156.32 133.2,291.76" /><polygon class="light" points="133.2,291.76 266.4,213.6 266.4,78.16 133.2,156.32 133.2,291.76" /><polygon class="darker" points="133.2,0 0,78.16 133.2,156.32 266.4,78.16 133.2,0" /><path class="white" d="M14.24,142.62l75.41,44.22V148.9L14.24,104.65ZM65.56,142l18.16,10.65v24.69L65.56,166.65Zm-23-13.52L60.42,139v24.68L42.53,153.14ZM19.85,115.1l17.61,10.38v24.68L19.85,139.82Z" /><polygon class="dark" points="103.31,111.32 50.51,80.33 50.5,42.49 103.31,73.48 103.31,111.32" /><polygon class="light" points="103.31,111.32 156.12,80.33 156.12,42.49 103.31,73.48 103.31,111.32" /><polygon class="darker" points="103.31,11.51 50.5,42.49 103.31,73.48 156.12,42.49 103.31,11.51" /></symbol><style type="text/css"><![CDATA[.premise{color: #5b5b5b;fill: #8e8e8e;}]]></style><g id="tool-5bd8dca4db1e3bc5ea6c9043"><text x="0" y="0"><tspan class="name">app6</tspan><tspan class="dc">premise</tspan><tspan class="family">Application</tspan></text></g><g id="tool-5be890a79150068433a0a53b"><text x="0" y="0"><tspan class="name">www1</tspan><tspan class="dc">premise</tspan><tspan class="family">Application</tspan></text></g><g id="tool-5be890aa9150068433a0a53c"><text x="0" y="0"><tspan class="name">www2</tspan><tspan class="dc">premise</tspan><tspan class="family">Application</tspan></text></g><style type="text/css"><![CDATA[.aws{color: #f58536;fill: #c4692c;}]]></style><g id="tool-5be890af9150068433a0a53d"><text x="0" y="0"><tspan class="name">www3</tspan><tspan class="dc">Premise, Aws</tspan><tspan class="family">Application</tspan><tspan class="servers">2</tspan></text></g><symbol id="application.micro" preserveAspectRatio="xMidYMax meet" viewBox="0.0,0.0,266.4,251.76"><polygon class="dark" points="133.2,251.76 0,173.6 0,78.16 133.2,156.32 133.2,251.76" /><polygon class="light" points="133.2,251.76 266.4,173.6 266.4,78.16 133.2,156.32 133.2,251.76" /><polygon class="darker" points="133.2,0 0,78.16 133.2,156.32 266.4,78.16 133.2,0" /><path class="white" d="M257.42,130l-70,41V135.8l70-41.05Zm-47.62-.61L193,139.25v22.91l16.84-9.89Zm21.37-12.54-16.59,9.74v22.9l16.59-9.74Zm21-12.38-16.34,9.62V137l16.34-9.59Z" /></symbol><g id="tool-5be890b69150068433a0a53e"><text x="0" y="0"><tspan class="name">www42</tspan><tspan class="dc">Aws</tspan><tspan class="family">Application</tspan><tspan class="servers">2</tspan></text></g><g id="tool-5bd8dcb0db1e3bc5ea6c9046"><text x="0" y="0"><tspan class="name">app9</tspan><tspan class="dc">premise</tspan><tspan class="family">Application</tspan></text></g><symbol id="database.medium" preserveAspectRatio="xMidYMax meet" viewBox="0.0,0.0,454.16,438.99"><polygon class="strblack" points="227.08,173.07 0.99,305.74 227.08,438.41 453.17,305.74 227.08,173.07" /><polygon class="dark" points="240.18,393.4 71.47,294.4 71.47,105.53 240.18,204.54 240.18,393.4" /><polygon class="light" points="240.18,393.4 408.9,294.4 408.9,105.53 240.18,204.54 240.18,393.4" /><polygon class="darker" points="240.18,6.54 71.47,105.53 240.18,204.54 408.9,105.53 240.18,6.54" /><polygon class="dark" points="86.53,350.67 46.69,327.29 46.69,291.39 86.53,314.77 86.53,350.67" /><polygon class="light" points="86.53,350.67 126.38,327.29 126.38,291.39 86.53,314.77 86.53,350.67" /><polygon class="darker" points="86.53,268.01 46.69,291.39 86.53,314.77 126.38,291.39 86.53,268.01" /><path class="white" d="M52,315.52,80.18,332V317.87L52,301.34Zm19.17-.25,6.78,4v9.22l-6.78-4Zm-8.6-5,6.68,3.92v9.22l-6.68-3.92Zm-8.47-5,6.58,3.88v9.22l-6.58-3.87Z" /><polygon class="dark" points="86.53,305 46.69,281.62 46.69,245.73 86.53,269.11 86.53,305" /><polygon class="light" points="86.53,305 126.38,281.62 126.38,245.73 86.53,269.11 86.53,305" /><polygon class="darker" points="86.53,222.35 46.69,245.73 86.53,269.11 126.38,245.73 86.53,222.35" /><path class="white" d="M52,269.85l28.17,16.52V272.2L52,255.67Zm19.17-.24,6.78,4v9.22l-6.78-4Zm-8.6-5.05,6.68,3.92v9.22l-6.68-3.92Zm-8.47-5,6.58,3.87v9.22l-6.58-3.86Z" /><path class="white" d="M311.05,208.63l.89-.38.89-.36.87-.35.88-.34.86-.32.86-.31.85-.3L318,206l.84-.28.83-.26.82-.25.81-.23.8-.22.79-.21.78-.2.78-.18.76-.17.75-.16.74-.14.74-.14.72-.12.71-.11.69-.1.69-.08.67-.07.66-.07.65,0,.63,0,.62,0h1.2l.58,0,.57,0,.55,0,.53.05.52.07.26,0,.25,0,.24,0,.24.05.24.05.24,0,.23.06.22.05.22.06.22.07.22.06.2.07.21.08.2.07.2.08.19.09.19.08.18.09.18.09.17.1.17.09.17.11.16.1.15.11.15.11.15.11.14.12.14.12.13.12.13.13.12.13.12.13.11.14.11.14.1.14.1.14.09.15.09.15.08.15.07.16.07.16.07.16.06.17.06.17.05.17,0,.18,0,.18,0,.18,0,.19,0,.19v.19l0,.2v.4l-.92,76.39v.41l0,.21,0,.21,0,.21,0,.22,0,.22,0,.22,0,.22-.05.23-.06.23-.07.23-.07.23-.07.23-.08.24-.09.24-.09.24-.09.24-.1.24-.11.25-.11.25-.12.25-.12.25-.12.25-.13.26-.13.26-.14.26-.15.26-.15.26-.15.26-.15.27-.17.26-.16.27-.18.27-.17.28-.18.27-.19.27-.19.28-.19.27-.2.28-.2.28-.2.28-.21.28-.21.28-.22.28-.23.29-.22.28-.23.29-.24.29-.24.29-.24.29-.24.29-.25.29-.26.29-.51.59-.54.59-.55.59-.56.59-.57.6-.59.6-.6.59-.62.6-.63.6-.64.61-.66.6-.66.6-.68.6-.69.6-.7.6-.71.6-.72.6-.74.6-.74.59-.75.59-.77.59-.77.59-.78.58-.79.58-.8.58-.8.57-.82.57-.82.56-.83.56-.84.55-.85.55-.85.54-.85.53-.87.53-.87.52-.87.51-.88.51-.89.5-.87.48-.87.47-.86.45-.86.44-.85.43-.84.41-.84.4-.83.38-.82.38-.81.35-.81.35-.8.32-.79.32-.77.3-.78.28-.76.27-.75.26-.74.24-.73.22-.72.22-.71.2-.69.18-.69.17-.68.15-.66.14-.65.12-.64.11-.63.1-.61.07-.6.07-.59.05-.57,0-.56,0h-1.07l-.51,0h-.26l-.24,0-.25,0-.24,0-.23,0-.23,0-.23,0-.23,0-.22-.06-.21,0-.21-.05-.21-.06-.21-.06-.19-.07-.2-.07-.19-.08-.19-.07-.18-.09-.18-.08-.17-.09-.17-.1-.17-.09-.15-.1-.16-.11-.15-.11-.15-.11-.14-.11-.13-.13-.14-.12-.12-.13-.13-.13-.11-.13-.11-.14-.11-.14-.11-.15-.1-.15-.09-.15-.09-.16-.08-.16-.08-.17-.07-.16-.07-.17-.06-.18-.06-.18-.05-.18,0-.19,0-.19,0-.2,0-.2,0-.2,0-.21,0-.21v-.43l.08-82.31v-.44l0-.23,0-.22,0-.23,0-.23,0-.24,0-.23.05-.23.05-.24.06-.23.06-.24.07-.24.07-.25.08-.24.09-.25.09-.24.09-.25.1-.25.11-.25.11-.25.11-.26.12-.25.13-.25.12-.26.14-.26.14-.26.14-.26.15-.26.15-.26.16-.27.16-.26.17-.26.17-.27.18-.26.18-.27.19-.26.19-.27.19-.27.2-.27.2-.27.21-.27.21-.27.22-.27.22-.27.22-.27.23-.27.23-.28.24-.27.24-.28.24-.27.25-.27.25-.27.26-.28.52-.55.54-.54.55-.55.57-.55.59-.54.59-.55.62-.55.62-.54.64-.54.65-.54.66-.54.68-.54.68-.53.7-.53.71-.52.73-.53.73-.52.74-.51.76-.52.76-.5.78-.51.78-.49.8-.5.8-.48.81-.49.82-.47.83-.48.84-.46.84-.46L304,212l.85-.44.87-.44.87-.43.88-.42.89-.42.89-.41.89-.39Zm-32.31,113V322l0,.09,0,.1,0,.09,0,.09,0,.09,0,.09,0,.09,0,.09.05.08.06.09.06.07.06.09.06.08.07.07.08.08.08.07.08.08.18.14.19.13.21.13.22.12.24.11.26.11.27.1.28.09.3.08.32.08.33.06.35.05.36.05.37,0,.39,0,.41,0h1.3l.46,0,.48,0,.49,0,.5-.05.52-.07.53-.07.54-.09.56-.1.57-.11.59-.13.6-.14.6-.15.63-.16.64-.17.65-.19.66-.21.67-.21.69-.23.7-.25.71-.26.73-.27.73-.29.75-.3.76-.31.77-.34.79-.35.79-.36.81-.38.82-.39.83-.42.84-.42.85-.44.87-.47.87-.47.89-.5.88-.5.88-.52.87-.51.86-.52.84-.52.83-.53.83-.53.81-.53.8-.53.79-.54.77-.53.77-.55.75-.54.74-.54.72-.54.72-.54.7-.54.7-.54.67-.54.67-.54.65-.53.64-.54.63-.54.61-.52.61-.53.58-.53.58-.52.56-.52.55-.51.53-.51.52-.5.51-.5.49-.5.48-.49.47-.48.45-.48.43-.47.43-.47.4-.46.39-.44.38-.45.37-.44.35-.42L337,294l.31-.41.31-.41.28-.39.28-.38.25-.38.25-.36.22-.35.21-.35.19-.33.18-.32.08-.15.08-.16.07-.15.07-.14.07-.15.06-.14.06-.14.05-.13,0-.14.05-.13,0-.12,0-.13,0-.11,0-.12,0-.11,0-.11,0-.11v-.29l.22-18.62-.27.39-.28.38-.29.4-.29.39-.3.39-.31.4-.33.4-.32.4-.34.4-.35.41-.35.41-.36.4-.37.41-.37.41-.39.41-.39.41-.4.42-.4.41-.42.42-.42.41-.43.42-.43.42-.44.41-.45.42-.45.42-.46.42-.47.41-.47.42-.48.42-.49.42-.49.42-.5.41-.5.42-.51.41-.52.42-.52.41-.52.42-.53.4-.54.41-.54.41-.55.41-.55.41-.56.4-.56.4-.57.4-.57.4-.57.4-.58.39-.58.39-.59.39-.59.39-.59.38-.6.39-.61.37-.6.38-.61.38-.62.36-.61.37-.62.36-.63.36-.62.36-.63.35-.63.35L309,295l-.63.33-.63.33-.63.31-.62.32-.62.3-.62.29-.61.3-.61.28-.6.27-.61.27-.6.26-.59.25-.59.25-.58.24-.59.23-.58.23-.57.22-.57.21-.56.2-.56.2-.56.19-.55.18-.54.18-.54.16-.54.16-.53.16-.52.14-.52.14-.51.13-.51.12-.5.12-.5.11-.49.1-.48.09-.48.09-.47.07-.46.08-.46.06-.46.06-.44.05-.44,0-.43,0-.43,0-.42,0h-2l-.37,0-.36,0-.36,0-.35-.05-.35-.06-.33-.06-.32-.07-.32-.08-.31-.08-.3-.09-.29-.11-.29-.11-.27-.11-.26-.12Zm0-27.28v.34l0,.1,0,.1,0,.09,0,.09,0,.09,0,.09,0,.09,0,.09.05.09.06.08.06.08.06.09.06.08.08.08.07.07.08.08.08.07.18.15.19.14.21.13.23.13.24.12.26.12.27.1.29.1.3.09.31.09.34.07.35.07.36.06.37,0,.39,0,.41,0h.42l.44,0h.91l.48,0,.49,0,.51,0,.52-.05.53-.07.55-.07.56-.08.57-.1.59-.11.6-.12.61-.13.63-.14.64-.16.65-.17.67-.19.67-.19.69-.21.7-.23.72-.23.73-.26.74-.27.75-.28.76-.29.77-.31.79-.32.8-.34.81-.36.83-.37.83-.39.84-.4.86-.42.87-.44.87-.45.89-.47.89-.48.89-.48.87-.49.86-.5.84-.5.84-.5.83-.51.81-.5.8-.51.8-.52.77-.51.77-.52.76-.52.74-.52.73-.52.72-.52.71-.52.69-.52.68-.52.67-.52.66-.52.64-.52.63-.51.62-.51.6-.51.59-.51.58-.51.56-.5.55-.49.54-.5.52-.49.51-.48.5-.48.47-.48.47-.47.46-.46.43-.46.43-.46.4-.44.4-.44.38-.44.37-.43.34-.41.34-.41.32-.4.3-.4.29-.38.27-.38.26-.36.24-.36.23-.35.21-.33.19-.33.18-.32.08-.15.08-.15.07-.15.07-.14.07-.15.06-.14.06-.14.06-.13.05-.13,0-.13,0-.12,0-.12,0-.12,0-.11,0-.11,0-.11v-.11l0-.1v-.2l.21-18.67-.27.38-.28.38-.28.39-.3.38-.3.39-.32.38-.32.39-.33.39-.34.4-.34.39-.36.4-.36.4-.37.39-.38.4-.38.4-.4.4-.4.4-.4.41-.42.4-.42.41-.43.4-.44.41-.44.4-.45.4-.46.41-.46.4-.47.41-.47.4-.48.41-.49.4-.5.4-.5.4-.5.41-.51.4-.52.4-.52.4-.53.39-.53.4-.54.39-.55.4-.55.39-.55.39-.56.39-.56.38-.57.39-.57.38-.58.38-.58.37-.58.38-.59.37-.6.37-.6.37-.6.36-.6.37-.61.36-.62.35-.61.35-.62.35-.62.35-.63.34-.63.33-.63.34-.63.33-1.28.65-.63.31-.63.3-.63.3-.63.3L306,270l-.62.28-.61.27-.61.27-.61.26-.61.25-.6.24-.59.24-.6.23-.58.22-.59.22-.58.21-.58.2-.57.19-.56.19-.57.18-.55.17-.56.17-.54.16-.54.15-.54.14-.53.14-.53.13-.52.12-.52.12-.51.11-.5.1-.5.09-.49.09-.48.08-.49.07-.47.07-.47.06-.46.05-.45,0-.45,0-.44,0-.43,0h-2.06l-.39,0-.39,0-.37,0-.37,0-.36-.05-.35-.06-.35-.06-.33-.08-.33-.08-.32-.09-.31-.09-.3-.1-.29-.11-.28-.12-.28-.12-.26-.13Zm0-27.34v.35l0,.1,0,.09,0,.09,0,.1,0,.09,0,.09,0,.09,0,.09.06.08.05.09.06.09.06.08.07.08.07.09.07.08.08.07.09.08.18.16.19.14.21.14.23.13.24.13.26.12.27.11.29.11.3.1.32.1.33.08.35.08.36.06.38.06.39.06.41,0,.43,0,.44,0,.45,0h1.44l.5,0,.53,0,.53-.05.55-.06.56-.06.58-.08.59-.09.6-.11.61-.11.63-.13.65-.14.65-.15.67-.16.68-.18.69-.19.71-.2.72-.22.73-.23.74-.25.75-.26.77-.27.78-.29.79-.3.8-.32.81-.33.83-.35.84-.36.85-.38.85-.39.88-.41.88-.43.89-.45.9-.45.88-.46.88-.47.86-.46.85-.48.84-.48.83-.48.82-.49.8-.48.8-.49.78-.49.77-.5.76-.5.75-.49.73-.5.72-.5.71-.51.7-.5.68-.5.67-.5.66-.49.65-.51.63-.49.62-.49.6-.5.6-.49.58-.49.56-.48.56-.48.53-.48.53-.48.51-.47.5-.47.48-.46.47-.46.45-.45.44-.44.43-.45.41-.43.39-.43.39-.42.36-.42.35-.41.34-.39.32-.4.3-.38.29-.38.28-.37.26-.36.24-.35.23-.34.21-.33.19-.32.18-.31.08-.15.08-.15.08-.15.07-.14.06-.14.07-.14.06-.13.05-.13.05-.14,0-.12,0-.13,0-.11,0-.12,0-.12,0-.1,0-.11,0-.11v-.29l.22-18.74-.27.37-.28.37-.29.38-.3.37-.3.38-.32.38-.32.38-.33.38-.34.39-.35.38-.36.38-.36.39-.37.39-.38.39-.39.39-.39.39-.4.39-.41.39-.42.39-.43.39-.43.4-.43.39-.45.39-.45.39-.46.39-.46.4-.47.39-.48.39-.48.39-.5.39-.49.38-.5.39-.51.39-.52.39-.52.38-.52.39-.53.38-.53.38-.54.38-.55.38-.55.37-.56.37-.56.37-.56.38-.58.37-.57.36-.58.36-.58.36-.59.36-.59.36-.6.35-.6.35-.6.35-.61.34-.61.34-.62.34-.62.34-.62.32-.62.33-.63.33-.63.32-.64.31-.63.31-.64.31-.64.3-.64.3-.63.29-.63.28-.63.27-.63.27-.62.26-.62.25-.61.25-.61.24-.61.24-.6.22-.6.22-.59.22-.59.2-.59.2-.59.19-.57.19-.58.18-.57.17-.56.16-.56.16-.56.15-.55.14-.54.14-.54.13-.53.12-.53.12-.52.1-.52.1-.51.09-.51.09-.5.08-.49.07-.49.07-.48.06-.48,0-.47.05-.46,0-.46,0-.44,0H285l-.4,0-.4,0-.39,0-.39,0-.38,0-.36-.06-.37-.06-.35-.07-.34-.07-.34-.08-.33-.09-.32-.1-.31-.1-.3-.11-.29-.12-.29-.12-.28-.14-.26-.13Zm30.4-52.94-.89.41-.88.42-.87.42-.86.44-.85.43-.83.44-.83.44-.81.44-.8.46-.78.45-.78.46-.77.46-.75.46-.73.46-.73.47-.72.47-.7.47-.69.47-.67.47-.66.48-.65.47-.64.47-.62.47-.61.48-.6.47-.58.46-.57.47-.55.47-.54.46-.53.47-.51.46-.5.45-.48.45-.48.45-.45.45-.44.44-.43.44-.41.43-.39.42-.38.43-.37.41-.35.41-.34.4-.32.39-.3.39-.29.38L281,235l-.26.36-.24.36-.23.35-.21.33-.19.33-.18.32-.08.16-.08.15-.07.15-.07.15-.07.15-.06.14-.06.14-.05.14-.05.14-.05.13,0,.13,0,.12,0,.13,0,.11,0,.12,0,.12v.11l0,.11v.4l0,.1v.1l0,.09,0,.1,0,.09,0,.09,0,.1,0,.09,0,.09.05.09,0,.09.06.08.07.09.06.09.07.09.07.08.08.08.08.08.18.16.19.15.21.15.22.14.25.14.25.12.28.13.28.12.31.1.32.11.33.09.35.09.36.08.38.07.4.07.41.05.42.05.44,0,.45,0,.47,0h2l.54,0,.55,0,.57-.05.58-.07.59-.07.61-.09.61-.09.64-.11.64-.12.66-.13.67-.15.69-.16.7-.17.71-.18.72-.19.74-.22.74-.22.76-.24.78-.25.78-.27.8-.27.8-.3.82-.31.84-.33.84-.34.86-.35.86-.37.88-.39.89-.4.9-.42.9-.43.89-.43.88-.44.86-.45.86-.45.84-.45.83-.46.82-.46.81-.46.8-.48.78-.47.78-.47.76-.48.75-.47.74-.48.72-.48.71-.48.7-.48.69-.48.67-.48.67-.48.65-.48.63-.48.62-.48.61-.47.6-.48.58-.47.57-.46.55-.47.54-.46.53-.47.51-.46.5-.44.48-.45.48-.45.45-.44.44-.43.43-.43L336,219l.4-.42.38-.41.37-.41.35-.4.34-.39.32-.38.31-.38.29-.36.27-.37.26-.34.25-.35.23-.34.21-.32.19-.31.18-.31.08-.15.08-.14.08-.15.07-.14.07-.14.06-.14.06-.13.05-.13.05-.13,0-.12,0-.12,0-.12,0-.12,0-.11,0-.11,0-.11v-.1l0-.1v-.56l0-.09,0-.09,0-.09,0-.08,0-.09,0-.09,0-.08L341,210l-.05-.09-.06-.07-.06-.08-.06-.08-.07-.08-.07-.08-.08-.07-.08-.08-.17-.14-.2-.14-.2-.13-.22-.13-.24-.12-.26-.12-.27-.11-.29-.1-.3-.1-.31-.09-.33-.09-.35-.07-.37-.07-.38-.07-.39,0-.41-.05-.42,0-.44,0-.45,0h-1.95l-.53,0-.53,0-.56,0-.56,0-.58.06-.6.07-.6.08-.62.09-.64.1-.64.12-.66.12-.68.14-.68.15-.7.16-.71.17-.73.18-.74.2-.74.21-.77.22-.77.24-.79.25-.8.26-.81.27-.82.29-.84.31-.84.32-.86.33-.87.35-.88.37-.89.38-.91.39Z" /><polygon class="dark" points="396.43,188.79 365.75,170.79 365.74,143.15 396.43,161.15 396.43,188.79" /><polygon class="light" points="396.43,188.79 427.11,170.79 427.11,143.15 396.43,161.15 396.43,188.79" /><polygon class="darker" points="396.43,125.15 365.74,143.15 396.43,161.15 427.11,143.15 396.43,125.15" /><polygon class="dark" points="242.15,87.8 199.82,62.96 199.82,24.84 242.15,49.67 242.15,87.8" /><polygon class="light" points="242.15,87.8 284.47,62.96 284.47,24.84 242.15,49.67 242.15,87.8" /><polygon class="darker" points="242.15,0 199.82,24.84 242.15,49.67 284.47,24.84 242.15,0" /></symbol><g id="tool-5bd8dd5adb1e3bc5ea6c904a"><text x="0" y="0"><tspan class="name">slave mysql - GRANDE NOMe</tspan><tspan class="dc">Aws</tspan><tspan class="family">Database</tspan><tspan class="Cluster">Master/Replica</tspan><tspan class="servers">1</tspan></text></g><g id="tool-5bc8c4f039f34a229d490b74"><text x="0" y="0"><tspan class="name">app2</tspan><tspan class="dc">premise</tspan><tspan class="family">Application</tspan></text></g><symbol id="broker.medium" preserveAspectRatio="xMidYMax meet" viewBox="0.0,0.0,266.4,156.32"><polygon class="light-gray" points="133.2,0 0,78.16 133.2,156.32 266.4,78.16 133.2,0" /><path class="light-black" d="M158.51,27.57l7.08-3.85-30.83-5.21,5.89,18.75L147,33.83c5.27,10.92-3.56,26.16-23.92,38S76.2,88.75,57.2,85.34l7.3-4.19L32,76.56l7.92,18.66,5.86-3.36c24.75,6.68,60.61,1.33,87.12-14.2C159.15,62.28,168.73,41.72,158.51,27.57Z" /><path class="light-black" d="M136,136.16l-8.53-18.69-7,4.19c-6.15-11,2.16-26.28,22.38-38.19s45.81-16.9,64.07-13.57l-5.75,3.67,31.24,4-8.6-18.42-6.43,4.11c-23.54-6.36-58.17-.93-84.4,14.45C106.41,93.19,97.49,114,109.4,128.21l-5.66,3.36Z" /><polygon class="dark" points="180.87,54.8 171.92,49.49 171.92,41.33 180.87,46.65 180.87,54.8" /><polygon class="light" points="180.87,54.8 189.82,49.49 189.82,41.33 180.87,46.65 180.87,54.8" /><polygon class="darker" points="180.87,36.02 171.92,41.33 180.87,46.65 189.82,41.33 180.87,36.02" /><path class="white" d="M173.12,46.81l6.32,3.76V47.35l-6.32-3.76Zm4.3-.05,1.52.9v2.1l-1.52-.91Zm-1.93-1.15,1.5.89v2.1l-1.5-.89Zm-1.9-1.13,1.47.88v2.09l-1.47-.87Z" /><path class="dark-gray2" d="M156.64,26l7.08-3.85L132.88,17l5.89,18.75,6.33-3.43c5.27,10.92-3.55,26.16-23.91,38S74.33,87.21,55.33,83.79l7.29-4.18L30.15,75l7.92,18.66,5.86-3.36c24.74,6.68,60.6,1.32,87.12-14.2C157.28,60.74,166.85,40.18,156.64,26Z" /><path class="dark-gray2" d="M134.11,134.62l-8.53-18.69-7,4.19c-6.15-11,2.16-26.28,22.39-38.19S186.72,65,205,68.36L199.24,72l31.23,4-8.59-18.42-6.43,4.11c-23.55-6.36-58.17-.93-84.4,14.45-26.52,15.52-35.43,36.33-23.52,50.55L101.87,130Z" /><polygon class="little-white" points="150.9,40.52 153.25,33.06 156.02,37.5 153.44,38.36 150.9,40.52" /><polygon class="little-white" points="146.16,53.17 151.38,47.35 152.07,52.53 149.36,52.25 146.16,53.17" /><polygon class="little-white" points="136.76,63.41 144.14,60.81 142.26,65.69 140.02,64.15 136.76,63.41" /><polygon class="little-white" points="63.54,92.18 56.78,87.07 62.31,85.86 62.26,88.81 63.54,92.18" /><polygon class="little-white" points="88.77,90.35 80.57,88.24 85.2,84.99 86.29,87.73 88.77,90.35" /><polygon class="little-white" points="114.54,82.67 106.08,82.3 109.94,78.16 111.57,80.62 114.54,82.67" /><polygon class="little-white" points="112.69,111.15 111.85,119.58 107.93,115.49 110.48,114 112.69,111.15" /><polygon class="little-white" points="117.93,98.19 111.16,103.28 111.51,97.63 114.33,98.49 117.93,98.19" /><polygon class="little-white" points="129.06,87.54 121.05,90.3 123.12,85.04 125.54,86.72 129.06,87.54" /><polygon class="little-white" points="198.03,60.85 202.61,65.24 198.39,65.66 198.69,63.47 198.03,60.85" /><polygon class="little-white" points="173.91,63.12 180.02,64.81 176.51,67.19 175.73,65.11 173.91,63.12" /><polygon class="little-white" points="148.25,71.25 154.57,71.77 151.56,74.75 150.41,72.87 148.25,71.25" /><polygon class="dark" points="118.15,58.98 106.66,52.24 106.66,21.97 118.15,28.71 118.15,58.98" /><path class="white" d="M108.11,35.85l8.12,4.76V36.52l-8.12-4.76Zm5.53-.07,2,1.14v2.66l-2-1.15Zm-2.48-1.46,1.92,1.13v2.66L111.16,37Zm-2.44-1.44L110.61,34v2.66l-1.89-1.12Z" /><polygon class="light" points="118.15,58.98 129.64,52.24 129.64,21.97 118.15,28.71 118.15,58.98" /><polygon class="darker" points="118.15,15.23 106.66,21.97 118.15,28.71 129.64,21.97 118.15,15.23" /><path class="white" d="M108.2,30.74l8.12,4.76V31.41l-8.12-4.76Zm5.52-.08,2,1.15v2.66l-2-1.15Zm-2.48-1.45,1.93,1.13V33l-1.93-1.13Zm-2.44-1.44,1.9,1.12v2.66l-1.9-1.12Z" /></symbol><g id="tool-5bd8dcc1db1e3bc5ea6c9048"><text x="0" y="0"><tspan class="name">broker</tspan><tspan class="dc">Aws</tspan><tspan class="family">Broker</tspan><tspan class="servers">1</tspan></text></g><g id="tool-5bd8dcacdb1e3bc5ea6c9045"><text x="0" y="0"><tspan class="name">app8</tspan><tspan class="dc">premise</tspan><tspan class="family">Application</tspan></text></g><g id="tool-5bc8c4f439f34a229d490b75"><text x="0" y="0"><tspan class="name">app1</tspan><tspan class="dc">premise</tspan><tspan class="family">Application</tspan></text></g><symbol id="database.32xlarge" preserveAspectRatio="xMidYMax meet" viewBox="0.0,0.0,454.16,478.38"><polygon class="strblack" points="227.08,212.46 0.99,345.13 227.08,477.8 453.17,345.13 227.08,212.46" /><polygon class="dark" points="240.18,432.79 71.47,333.79 71.47,144.93 240.18,243.93 240.18,432.79" /><polygon class="light" points="240.18,432.79 408.9,333.79 408.9,144.93 240.18,243.93 240.18,432.79" /><polygon class="darker" points="240.18,45.93 71.47,144.93 240.18,243.93 408.9,144.93 240.18,45.93" /><polygon class="dark" points="86.53,390.06 46.69,366.68 46.69,330.79 86.53,354.17 86.53,390.06" /><polygon class="light" points="86.53,390.06 126.38,366.68 126.38,330.79 86.53,354.17 86.53,390.06" /><polygon class="darker" points="86.53,307.41 46.69,330.79 86.53,354.17 126.38,330.79 86.53,307.41" /><path class="white" d="M52,354.91l28.17,16.51V357.26L52,340.73Zm19.17-.24,6.78,4v9.22l-6.78-4Zm-8.6-5.05,6.68,3.92v9.22l-6.68-3.92Zm-8.47-5,6.58,3.88v9.22l-6.58-3.87Z" /><polygon class="dark" points="86.53,344.39 46.69,321.01 46.69,285.12 86.53,308.5 86.53,344.39" /><polygon class="light" points="86.53,344.39 126.38,321.01 126.38,285.12 86.53,308.5 86.53,344.39" /><polygon class="darker" points="86.53,261.74 46.69,285.12 86.53,308.5 126.38,285.12 86.53,261.74" /><path class="white" d="M52,309.25l28.17,16.51V311.59L52,295.07ZM71.18,309,78,313v9.22l-6.78-4ZM62.58,304l6.68,3.92v9.22l-6.68-3.92Zm-8.47-5,6.58,3.87v9.22l-6.58-3.86Z" /><path class="white" d="M311.05,248l.89-.37.89-.37.87-.35.88-.34.86-.32.86-.31.85-.3.84-.28.84-.28.83-.25.82-.25.81-.24.8-.22.79-.21.78-.19.78-.19.76-.17.75-.16.74-.14.74-.14.72-.12.71-.11.69-.1.69-.08.67-.07.66-.06.65-.05.63,0,.62,0h1.2l.58,0,.57,0,.55,0,.53,0,.52.07.26,0,.25,0,.24,0,.24,0,.24.05.24.05.23.06.22,0,.22.07.22.06.22.07.2.06.21.08.2.07.2.08.19.09.19.08.18.09.18.09.17.1.17.1.17.1.16.1.15.11.15.11.15.11.14.12.14.12.13.12.13.13.12.13.12.13.11.14.11.14.1.14.1.14.09.15.09.15.08.16.07.15.07.16.07.16.06.17.06.17.05.17,0,.18,0,.18,0,.19,0,.18,0,.19v.19l0,.2v.4l-.92,76.39v.41l0,.21,0,.21,0,.22,0,.21,0,.22,0,.22,0,.23-.05.22-.06.23-.07.23-.07.23-.07.23-.08.24-.09.24-.09.24-.09.24-.1.25-.11.24-.11.25-.12.25-.12.25-.12.26-.13.25-.13.26-.14.26-.15.26-.15.26-.15.26-.15.27-.17.27-.16.26-.18.27-.17.28-.18.27-.19.27-.19.28-.19.27-.2.28-.2.28-.2.28-.21.28-.21.28-.22.29-.23.28-.22.29-.23.28-.24.29-.24.29-.24.29-.24.29-.25.29-.26.29-.51.59-.54.59-.55.59-.56.59-.57.6-.59.6-.6.59-.62.6-.63.6-.64.61-.66.6-.66.6-.68.6-.69.6-.7.6-.71.6-.72.6-.74.6-.74.59-.75.6-.77.58-.77.59-.78.58-.79.58-.8.58-.8.57-.82.57-.82.56-.83.56-.84.55-.85.55-.85.54-.85.53-.87.53-.87.52-.87.52-.88.5-.89.5-.87.48-.87.47-.86.45-.86.45-.85.42-.84.41-.84.4-.83.39-.82.37-.81.35-.81.35-.8.32-.79.32-.77.3-.78.28-.76.27-.75.26-.74.24-.73.22-.72.22-.71.2-.69.18-.69.17-.68.15-.66.14-.65.12-.64.11-.63.1-.61.07-.6.07-.59.05-.57,0-.56,0h-1.07l-.51,0h-.26l-.24,0-.25,0-.24,0-.23,0-.23,0-.23,0-.23,0-.22-.05-.21-.06-.21-.05-.21-.06-.21-.06-.19-.07-.2-.07-.19-.08-.19-.07-.18-.09-.18-.08-.17-.09-.17-.1L278,368l-.15-.1-.16-.11-.15-.11-.15-.11-.14-.11-.13-.12-.14-.13-.12-.13-.13-.13-.11-.13-.11-.14-.11-.14-.11-.15-.1-.15-.09-.15L276,366l-.08-.16-.08-.16-.07-.17-.07-.17-.06-.18-.06-.18-.05-.18,0-.19,0-.19,0-.2,0-.19,0-.21,0-.21,0-.21v-.43l.08-82.31v-.44l0-.23,0-.22,0-.23,0-.23,0-.23,0-.24.05-.23.05-.24.06-.23.06-.24.07-.24.07-.24.08-.25.09-.24.09-.25.09-.25.1-.25.11-.25.11-.25.11-.26.12-.25.13-.25.12-.26.14-.26.14-.26.14-.26.15-.26.15-.26.16-.26.16-.26.17-.27.17-.26.18-.27.18-.27.19-.26.19-.27.19-.27.2-.27.2-.27.21-.27.21-.27.22-.27.22-.27.22-.27.23-.27.23-.28.24-.27.24-.27.24-.28.25-.27.25-.27.26-.28.52-.55.54-.54.55-.55.57-.55.59-.54.59-.55.62-.54.62-.55.64-.54.65-.54.66-.54.68-.53.68-.54.7-.53.71-.52.73-.53.73-.51.74-.52.76-.52.76-.5.78-.51.78-.49.8-.5.8-.48.81-.49.82-.47.83-.47.84-.47.84-.46.86-.45.85-.44.87-.44.87-.43.88-.42.89-.42.89-.41.89-.39ZM278.74,361v.34l0,.09,0,.1,0,.09,0,.1,0,.08,0,.09,0,.09,0,.09.05.08.06.09.06.08.06.08.06.08.07.07.08.08.08.07.08.08.18.14.19.13.21.13.22.12.24.12.26.1.27.1.28.09.3.08.32.08.33.06.35.06.36.05.37,0,.39,0,.41,0h1.3l.46,0,.48,0,.49,0,.5-.05.52-.07.53-.07.54-.09.56-.1.57-.11.59-.13.6-.14.6-.14.63-.17.64-.17.65-.19.66-.21.67-.21L296,362l.7-.25.71-.26.73-.27.73-.29.75-.3.76-.31.77-.34.79-.35.79-.36.81-.38.82-.39.83-.41.84-.43.85-.44.87-.47.87-.47.89-.5.88-.5.88-.51.87-.52.86-.52.84-.52.83-.53.83-.53.81-.53.8-.53.79-.54.77-.53.77-.55.75-.54.74-.54.72-.54.72-.54.7-.54.7-.54.67-.54.67-.54.65-.53.64-.54.63-.53.61-.53.61-.53.58-.52.58-.53.56-.51.55-.52.53-.51.52-.5.51-.5.49-.5.48-.49.47-.48.45-.48.43-.47.43-.46.4-.46.39-.45.38-.45.37-.44.35-.42.33-.42.31-.41.31-.41.28-.39.28-.38.25-.38.25-.36.22-.35.21-.35.19-.33.18-.32.08-.15.08-.16.07-.15.07-.14.07-.15.06-.14.06-.14.05-.13,0-.14.05-.13,0-.12,0-.12,0-.12,0-.12,0-.11,0-.11,0-.1v-.3l.22-18.62-.27.39-.28.39-.29.39-.29.39-.3.4-.31.39-.33.4-.32.4-.34.41-.35.4-.35.41-.36.4-.37.41-.37.41-.39.41-.39.42-.4.41-.4.42-.42.41-.42.41-.43.42-.43.42-.44.41-.45.42-.45.42-.46.42-.47.41L330,320l-.48.41-.49.42-.49.42-.5.41-.5.42-.51.41-.52.42-.52.41-.52.42-.53.4-.54.41-.54.41-.55.41-.55.41-.56.4-.56.4-.57.4-.57.4-.57.4-.58.39-.58.39-.59.39-.59.39-.59.38-.6.39-.61.37-.6.38-.61.38-.62.36-.61.37-.62.36-.63.36-.62.36-.63.35-.63.35-1.27.68-.63.33-.63.33-.63.32-.62.31-.62.3-.62.3-.61.29-.61.28-.6.27-.61.27-.6.26-.59.26-.59.24-.58.24-.59.24-.58.22-.57.22-.57.21-.56.21-.56.19-.56.19-.55.18-.54.18-.54.16-.54.16-.53.16-.52.14-.52.14-.51.13-.51.12-.5.12-.5.11-.49.1-.48.09-.48.09-.47.08-.46.07-.46.06-.46.06-.44.05-.44,0-.43,0-.43,0-.42,0h-2l-.37,0-.36,0-.36,0-.35-.05-.35,0-.33-.07-.32-.07-.32-.08-.31-.08-.3-.09-.29-.1-.29-.11-.27-.12-.26-.12Zm0-27.28v.35l0,.09,0,.1,0,.09,0,.09,0,.09,0,.09,0,.09,0,.09.05.09.06.08.06.08.06.09.06.08.08.08.07.07.08.08.08.08.18.14.19.14.21.14.23.12.24.12.26.12.27.1.29.1.3.09.31.09.34.07.35.07.36.06.37,0,.39,0,.41,0,.42,0h1.83l.49,0,.51,0,.52-.05.53-.06.55-.08.56-.08.57-.09.59-.12.6-.12.61-.13.63-.14.64-.16.65-.17.67-.18.67-.2.69-.21.7-.22.72-.24.73-.26.74-.26.75-.29.76-.29.77-.31L302,333l.8-.34.81-.36.83-.37.83-.39.84-.4.86-.42.87-.43.87-.46.89-.47.89-.48.89-.48.87-.49.86-.5.84-.49.84-.51.83-.51.81-.5.8-.51.8-.52.77-.51.77-.52.76-.52.74-.52.73-.52.72-.52.71-.52.69-.52.68-.52.67-.52.66-.52.64-.51.63-.52.62-.51.6-.51.59-.51.58-.5.56-.51.55-.49.54-.5.52-.49.51-.48.5-.48.47-.48.47-.47.46-.46.43-.46.43-.46.4-.44.4-.44.38-.44.37-.42.34-.42.34-.41.32-.4.3-.39.29-.39.27-.38.26-.36.24-.36.23-.35.21-.33.19-.33.18-.32.08-.15.08-.15.07-.15.07-.14.07-.15.06-.14.06-.13.06-.14.05-.12,0-.14,0-.12,0-.12,0-.12,0-.11,0-.11,0-.11v-.11l0-.1v-.19l.21-18.68-.27.38-.28.38-.28.39-.3.38-.3.39-.32.38-.32.39-.33.4-.34.39-.34.39-.36.4-.36.4-.37.39-.38.4-.38.41-.4.4-.4.39-.4.41-.42.4-.42.41-.43.4-.44.41-.44.4-.45.4-.46.41-.46.4-.47.41-.47.4-.48.41-.49.4-.5.4-.5.4-.5.41-.51.4-.52.4-.52.4-.53.39-.53.4-.54.39-.55.4-.55.39-.55.39-.56.39-.56.38-.57.39-.57.38-.58.38-.58.38-.58.37-.59.37-.6.37-.6.37-.6.37-.6.36-.61.36-.62.35-.61.35-.62.35-.62.35-.63.34-.63.33-.63.34-.63.33-1.28.65-.63.31-.63.31-.63.3-.63.29-.62.28-.62.28-.61.27-.61.27-.61.26-.61.25-.6.24-.59.24-.6.23-.58.22-.59.22-.58.21-.58.2-.57.19-.56.19-.57.18-.55.17-.56.17-.54.16-.54.15-.54.14-.53.14-.53.13-.52.12-.52.12-.51.11-.5.1-.5.09-.49.09-.48.08-.49.07-.47.07-.47.06-.46.05-.45,0-.45,0-.44,0-.43,0h-2.06l-.39,0-.39,0-.37,0-.37,0-.36-.05-.35-.06-.35-.06-.33-.08-.33-.08-.32-.08-.31-.1-.3-.1-.29-.11-.28-.11-.28-.13-.26-.13Zm0-27.33v.34l0,.1,0,.09,0,.09,0,.1,0,.09,0,.09,0,.09,0,.09.06.09.05.08.06.09.06.08.07.09.07.08.07.08.08.08.09.08.18.15.19.14.21.14.23.14.24.12.26.12.27.12.29.1.3.1.32.1.33.08.35.08.36.06.38.07.39.05.41,0,.43,0,.44,0,.45,0h.94l.5,0,.5,0,.53,0,.53-.05.55-.06.56-.06.58-.08.59-.09.6-.1.61-.12.63-.13.65-.14.65-.15.67-.16.68-.18.69-.19.71-.2.72-.22.73-.23.74-.25.75-.26.77-.27.78-.29.79-.3.8-.32.81-.33.83-.35.84-.36.85-.38.85-.39.88-.41.88-.43.89-.44.9-.46.88-.46.88-.46.86-.47.85-.48.84-.48.83-.48.82-.48.8-.49.8-.49.78-.49.77-.5.76-.5.75-.49.73-.5.72-.5.71-.5.7-.5.68-.51.67-.5.66-.49.65-.5.63-.5.62-.49.6-.5.6-.49.58-.49.56-.48.56-.48.53-.48.53-.48.51-.47.5-.47.48-.46L334,286l.45-.46.44-.44.43-.44.41-.44.39-.43.39-.42.36-.42.35-.4.34-.4.32-.4.3-.38.29-.38.28-.37.26-.36.24-.35.23-.34.21-.33.19-.32.18-.31.08-.15.08-.15.08-.15.07-.14.06-.14.07-.14.06-.13.05-.13.05-.13,0-.13,0-.12,0-.12,0-.12,0-.11,0-.11,0-.11,0-.11v-.29l.22-18.74-.27.37-.28.37-.29.38-.3.37-.3.38-.32.38-.32.38-.33.39-.34.38-.35.38-.36.39-.36.38-.37.39-.38.39-.39.39-.39.39-.4.39-.41.39-.42.39-.43.4-.43.39-.43.39-.45.39-.45.39-.46.4-.46.39-.47.39-.48.39-.48.39-.5.39-.49.39-.5.38-.51.39-.52.39-.52.38-.52.39-.53.38-.53.38-.54.38-.55.38-.55.37-.56.37-.56.37-.56.38-.58.37L321,275l-.58.36-.58.37-.59.35-.59.36-.6.35-.6.35-.6.35-.61.34-.61.34-.62.34-.62.34-.62.32-.62.33-.63.33-.63.32-.64.31-.63.31-.64.31-.64.3-.64.3L308,282l-.63.28-.63.27-.63.27-.62.26-.62.26-.61.24-.61.24-.61.24-.6.23-.6.21-.59.22-.59.2-.59.2-.59.2-.57.18-.58.18-.57.17-.56.16-.56.16-.56.15-.55.14-.54.14-.54.13-.53.12-.53.12-.52.1-.52.11-.51.09-.51.08-.5.08-.49.07-.49.07-.48.06-.48,0-.47.05-.46,0-.46,0-.44,0H285l-.4,0-.4,0-.39,0-.39,0-.38,0-.36-.06-.37-.06-.35-.07-.34-.07-.34-.08-.33-.09-.32-.1-.31-.1-.3-.11-.29-.12-.29-.12-.28-.13-.26-.14Zm30.4-53-.89.42-.88.41-.87.42-.86.44-.85.43L304,256l-.83.44-.81.44-.8.46-.78.45-.78.46-.77.46-.75.46-.73.46-.73.47-.72.47-.7.47-.69.47-.67.47-.66.48L293,263l-.64.47-.62.47-.61.48-.6.47-.58.46-.57.47-.55.47-.54.46-.53.47-.51.46-.5.45-.48.45-.48.45-.45.45-.44.44-.43.44-.41.43-.39.42-.38.43-.37.41-.35.41-.34.4-.32.4-.3.38-.29.38-.27.38-.26.36-.24.36-.23.35-.21.34-.19.32-.18.33-.08.15-.08.15-.07.15-.07.16-.07.14-.06.15-.06.13-.05.14-.05.14-.05.13,0,.13,0,.12,0,.13,0,.12,0,.12,0,.11v.11l0,.11v.4l0,.1v.1l0,.09,0,.1,0,.09,0,.09,0,.1,0,.09,0,.09.05.09,0,.09.06.09.07.08.06.09.07.09.07.08.08.08.08.08.18.16.19.15.21.15.22.14.25.14.25.13.28.12.28.12.31.11.32.1.33.09.35.09.36.08.38.07.4.07.41.06.42,0,.44,0,.45,0,.47,0h2l.54,0,.55,0,.57-.05.58-.07.59-.07.61-.09.61-.09.64-.11.64-.12.66-.13.67-.14.69-.16.7-.18.71-.18.72-.19.74-.22.74-.22.76-.23.78-.26.78-.26.8-.28.8-.3.82-.31.84-.32.84-.35.86-.35.86-.37.88-.39.89-.4.9-.42.9-.43.89-.43.88-.44.86-.44.86-.46.84-.45.83-.46.82-.46.81-.46.8-.48.78-.47L320,271l.76-.47.75-.48.74-.47.72-.49.71-.48.7-.48.69-.48.67-.48.67-.48.65-.48.63-.48.62-.48.61-.47.6-.48.58-.46.57-.47.55-.47.54-.46.53-.47.51-.45.5-.45.48-.45.48-.45.45-.44.44-.43.43-.43.41-.42.4-.42.38-.41.37-.41.35-.4.34-.39.32-.38.31-.37.29-.37.27-.36.26-.35.25-.35.23-.33.21-.33.19-.31.18-.31.08-.15.08-.14.08-.14.07-.15.07-.14.06-.13.06-.14.05-.13.05-.12,0-.13,0-.12,0-.12,0-.12,0-.11,0-.11,0-.11v-.1l0-.1v-.56l0-.09,0-.09,0-.09,0-.08,0-.09,0-.08,0-.09-.05-.08-.05-.08-.06-.08-.06-.08-.06-.08-.07-.08-.07-.08-.08-.07-.08-.07-.17-.15-.2-.14-.2-.13-.22-.13-.24-.12-.26-.12-.27-.11-.29-.1-.3-.1-.31-.09-.33-.08-.35-.08-.37-.07-.38-.06-.39-.06-.41-.05-.42,0-.44,0-.45,0-.47,0h-1.48l-.53,0-.53,0-.56,0-.56.05-.58.06-.6.07-.6.08-.62.09-.64.1-.64.12-.66.12-.68.14-.68.15-.7.16-.71.17-.73.18-.74.2-.74.21-.77.22-.77.24-.79.25-.8.26-.81.27-.82.29-.84.31-.84.32-.86.33-.87.35-.88.37-.89.38-.91.39Z" /><polygon class="dark" points="86.53,298.24 46.69,274.86 46.69,238.97 86.53,262.35 86.53,298.24" /><polygon class="light" points="86.53,298.24 126.38,274.86 126.38,238.97 86.53,262.35 86.53,298.24" /><polygon class="darker" points="86.53,215.59 46.69,238.97 86.53,262.35 126.38,238.97 86.53,215.59" /><path class="white" d="M52,263.09,80.18,279.6V265.43L52,248.91Zm19.17-.25,6.78,4V276l-6.78-4Zm-8.6-5,6.68,3.92v9.22L62.58,267Zm-8.47-5,6.58,3.88v9.22L54.11,262Z" /><polygon class="dark" points="86.53,250.63 46.69,227.25 46.69,191.35 86.53,214.73 86.53,250.63" /><polygon class="light" points="86.53,250.63 126.38,227.25 126.38,191.35 86.53,214.73 86.53,250.63" /><polygon class="darker" points="86.53,167.97 46.69,191.35 86.53,214.73 126.38,191.35 86.53,167.97" /><path class="white" d="M52,215.48,80.18,232V217.82L52,201.3Zm19.17-.25,6.78,4v9.22l-6.78-4Zm-8.6-5,6.68,3.92v9.22l-6.68-3.92Zm-8.47-5,6.58,3.87v9.22l-6.58-3.86Z" /><polygon class="dark" points="135.62,418.45 95.78,395.07 95.78,359.18 135.62,382.56 135.62,418.45" /><polygon class="light" points="135.62,418.45 175.47,395.07 175.47,359.18 135.62,382.56 135.62,418.45" /><polygon class="darker" points="135.62,335.8 95.78,359.18 135.62,382.56 175.47,359.18 135.62,335.8" /><path class="white" d="M101.1,383.3l28.17,16.51V385.65L101.1,369.12Zm19.17-.24,6.78,4v9.22l-6.78-4Zm-8.6-5.05,6.68,3.92v9.22l-6.68-3.92Zm-8.47-5,6.58,3.88v9.22l-6.58-3.87Z" /><polygon class="dark" points="135.62,372.79 95.78,349.41 95.78,313.51 135.62,336.89 135.62,372.79" /><polygon class="light" points="135.62,372.79 175.47,349.41 175.47,313.51 135.62,336.89 135.62,372.79" /><polygon class="darker" points="135.62,290.13 95.78,313.51 135.62,336.89 175.47,313.51 135.62,290.13" /><path class="white" d="M101.1,337.64l28.17,16.51V340L101.1,323.46Zm19.17-.25,6.78,4v9.22l-6.78-4Zm-8.6-5.05,6.68,3.92v9.22l-6.68-3.92Zm-8.47-5,6.58,3.87v9.22l-6.58-3.86Z" /><polygon class="dark" points="135.62,326.63 95.78,303.25 95.78,267.36 135.62,290.74 135.62,326.63" /><polygon class="light" points="135.62,326.63 175.47,303.25 175.47,267.36 135.62,290.74 135.62,326.63" /><polygon class="darker" points="135.62,243.97 95.78,267.36 135.62,290.74 175.47,267.36 135.62,243.97" /><path class="white" d="M101.1,291.48,129.27,308V293.83L101.1,277.3Zm19.17-.25,6.78,4v9.22l-6.78-4Zm-8.6-5,6.68,3.92v9.22l-6.68-3.92Zm-8.47-5,6.58,3.88v9.22l-6.58-3.87Z" /><polygon class="dark" points="135.62,279.02 95.78,255.64 95.78,219.74 135.62,243.12 135.62,279.02" /><polygon class="light" points="135.62,279.02 175.47,255.64 175.47,219.74 135.62,243.12 135.62,279.02" /><polygon class="darker" points="135.62,196.36 95.78,219.74 135.62,243.12 175.47,219.74 135.62,196.36" /><path class="white" d="M101.1,243.87l28.17,16.51V246.21L101.1,229.69Zm19.17-.25,6.78,4v9.22l-6.78-4Zm-8.6-5.05,6.68,3.92v9.22l-6.68-3.92Zm-8.47-5,6.58,3.87v9.22l-6.58-3.86Z" /><polygon class="dark" points="186.2,447.9 146.35,424.52 146.35,388.62 186.2,412 186.2,447.9" /><polygon class="light" points="186.2,447.9 226.04,424.52 226.04,388.62 186.2,412 186.2,447.9" /><polygon class="darker" points="186.2,365.24 146.35,388.62 186.2,412 226.04,388.62 186.2,365.24" /><path class="white" d="M151.68,412.75l28.16,16.51V415.09l-28.16-16.52Zm19.17-.25,6.78,4v9.22l-6.78-4Zm-8.61-5.05,6.68,3.92v9.22l-6.68-3.92Zm-8.47-5,6.58,3.87v9.22l-6.58-3.86Z" /><polygon class="dark" points="186.2,402.23 146.35,378.85 146.35,342.95 186.2,366.33 186.2,402.23" /><polygon class="light" points="186.2,402.23 226.04,378.85 226.04,342.95 186.2,366.33 186.2,402.23" /><polygon class="darker" points="186.2,319.57 146.35,342.95 186.2,366.33 226.04,342.95 186.2,319.57" /><path class="white" d="M151.68,367.08l28.16,16.51V369.42L151.68,352.9Zm19.17-.25,6.78,4V380l-6.78-4Zm-8.61-5,6.68,3.92v9.22L162.24,371Zm-8.47-5,6.58,3.88v9.22L153.77,366Z" /><polygon class="dark" points="186.2,356.07 146.35,332.69 146.35,296.8 186.2,320.18 186.2,356.07" /><polygon class="light" points="186.2,356.07 226.04,332.69 226.04,296.8 186.2,320.18 186.2,356.07" /><polygon class="darker" points="186.2,273.42 146.35,296.8 186.2,320.18 226.04,296.8 186.2,273.42" /><path class="white" d="M151.68,320.92l28.16,16.52V323.27l-28.16-16.53Zm19.17-.24,6.78,4v9.22l-6.78-4Zm-8.61-5.05,6.68,3.92v9.22l-6.68-3.92Zm-8.47-5,6.58,3.87v9.22l-6.58-3.86Z" /><polygon class="dark" points="186.2,308.46 146.35,285.08 146.35,249.19 186.2,272.57 186.2,308.46" /><polygon class="light" points="186.2,308.46 226.04,285.08 226.04,249.19 186.2,272.57 186.2,308.46" /><polygon class="darker" points="186.2,225.81 146.35,249.19 186.2,272.57 226.04,249.19 186.2,225.81" /><path class="white" d="M151.68,273.31l28.16,16.51V275.66l-28.16-16.53Zm19.17-.25,6.78,4v9.22l-6.78-4Zm-8.61-5,6.68,3.92v9.22l-6.68-3.92Zm-8.47-5,6.58,3.88v9.22l-6.58-3.87Z" /><polygon class="dark" points="396.43,352.5 365.75,334.5 365.74,306.86 396.43,324.86 396.43,352.5" /><polygon class="light" points="396.43,352.5 427.11,334.5 427.11,306.86 396.43,324.86 396.43,352.5" /><polygon class="darker" points="396.43,288.86 365.74,306.86 396.43,324.86 427.11,306.86 396.43,288.86" /><polygon class="dark" points="396.43,312.98 365.75,294.98 365.74,267.34 396.43,285.34 396.43,312.98" /><polygon class="light" points="396.43,312.98 427.11,294.98 427.11,267.34 396.43,285.34 396.43,312.98" /><polygon class="darker" points="396.43,249.33 365.74,267.34 396.43,285.34 427.11,267.34 396.43,249.33" /><polygon class="dark" points="396.43,272.11 365.75,254.11 365.74,226.47 396.43,244.47 396.43,272.11" /><polygon class="light" points="396.43,272.11 427.11,254.11 427.11,226.47 396.43,244.47 396.43,272.11" /><polygon class="darker" points="396.43,208.46 365.74,226.47 396.43,244.47 427.11,226.47 396.43,208.46" /><polygon class="dark" points="396.43,228.19 365.75,210.18 365.74,182.54 396.43,200.54 396.43,228.19" /><polygon class="light" points="396.43,228.19 427.11,210.18 427.11,182.54 396.43,200.54 396.43,228.19" /><polygon class="darker" points="396.43,164.54 365.74,182.54 396.43,200.54 427.11,182.54 396.43,164.54" /><polygon class="dark" points="240.18,186.1 150.48,133.46 150.48,52.64 240.18,105.28 240.18,186.1" /><polygon class="light" points="240.18,186.1 329.89,133.46 329.89,52.64 240.18,105.28 240.18,186.1" /><polygon class="darker" points="240.18,0 150.48,52.64 240.18,105.28 329.89,52.64 240.18,0" /><path class="white" d="M162.46,107l63.41,37.17V112.24L162.46,75Zm43.16-.56,15.27,9v20.76l-15.27-9ZM186.25,95l15,8.82v20.76l-15-8.82ZM167.19,83.82,182,92.54V113.3l-14.8-8.7Z" /><polygon class="dark" points="314.03,137.1 283.35,119.1 283.35,91.46 314.03,109.46 314.03,137.1" /><polygon class="light" points="314.03,137.1 344.71,119.1 344.71,91.46 314.03,109.46 314.03,137.1" /><polygon class="darker" points="314.03,73.46 283.35,91.46 314.03,109.46 344.71,91.46 314.03,73.46" /></symbol><g id="tool-5bd8dce0db1e3bc5ea6c9049"><text x="0" y="0"><tspan class="name">mysql</tspan><tspan class="dc">Premise, Aws</tspan><tspan class="env">Production</tspan><tspan class="family">Database</tspan><tspan class="servers">2</tspan></text></g><g id="tool-5bc8c4e939f34a229d490b73"><text x="0" y="0"><tspan class="name">app4</tspan><tspan class="dc">premise</tspan><tspan class="family">Application</tspan></text></g><g id="tool-5bd8dca8db1e3bc5ea6c9044"><text x="0" y="0"><tspan class="name">app7</tspan><tspan class="dc">premise</tspan><tspan class="family">Application</tspan></text></g></defs><g id="7-3"><path class="conector" d="M1010.0000000000001 178.26606969403133 955.0000000000001 116.66293558769578 826.6666666666667 40.251318904868036 276.6666666666667 362.93440231900667 330.00000000000006 383.6098500484831 355.00000000000006 368.9424371660223" fill="none" marker-end="url(#markers.arrow)" opacity="0.8" stroke="black" stroke-width="1" /><path class="conector_h conn-5bc8c4e939f34a229d490b73" d="M1010.0000000000001 178.26606969403133 955.0000000000001 116.66293558769578 826.6666666666667 40.251318904868036 276.6666666666667 362.93440231900667 330.00000000000006 383.6098500484831 355.00000000000006 368.9424371660223" fill="none" opacity="0" stroke="black" stroke-width="18" /><text display="none" x="0" y="0">None</text></g><g id="7-3"><path class="conector" d="M1010.0000000000001 178.26606969403133 1060.0 178.26606969403133 1486.666666666667 427.47101900183435 936.6666666666667 750.1541024159728 990.0000000000002 770.8295501454495 1015.0000000000002 756.1621372629886" fill="none" marker-end="url(#markers.arrow)" opacity="0.8" stroke="black" stroke-width="1" /><path class="conector_h conn-5bc8c4e939f34a229d490b73" d="M1010.0000000000001 178.26606969403133 1060.0 178.26606969403133 1486.666666666667 427.47101900183435 936.6666666666667 750.1541024159728 990.0000000000002 770.8295501454495 1015.0000000000002 756.1621372629886" fill="none" opacity="0" stroke="black" stroke-width="18" /><text display="none" x="0" y="0">None</text></g><g id="7-6"><path class="conector" d="M1010.0000000000001 178.26606969403133 1060.0 178.26606969403133 1156.666666666667 233.86116895335118 936.6666666666669 362.93440231900667 990.0000000000002 383.6098500484831 1015.0000000000002 368.9424371660223" fill="none" marker-end="url(#markers.arrow)" opacity="0.8" stroke="black" stroke-width="1" /><path class="conector_h conn-5bc8c4e939f34a229d490b73" d="M1010.0000000000001 178.26606969403133 1060.0 178.26606969403133 1156.666666666667 233.86116895335118 936.6666666666669 362.93440231900667 990.0000000000002 383.6098500484831 1015.0000000000002 368.9424371660223" fill="none" opacity="0" stroke="black" stroke-width="18" /><text display="none" x="0" y="0">None</text></g><g id="3-4"><path class="conector" d="M955.0000000000002 662.2906948152392 990.0000000000002 641.7563167797941 1015.0000000000002 627.0889038973332" fill="none" marker-end="url(#markers.arrow)" opacity="0.8" stroke="black" stroke-width="1" /><path class="conector_h conn-5be890af9150068433a0a53d" d="M955.0000000000002 662.2906948152392 990.0000000000002 641.7563167797941 1015.0000000000002 627.0889038973332" fill="none" opacity="0" stroke="black" stroke-width="18" /><text display="none" x="0" y="0">rest</text></g><g id="4-5"><path class="conector" d="M1065.0000000000002 597.7540781324115 1100.0000000000002 577.2197000969663 1125.0000000000002 562.5522872145054" fill="none" marker-end="url(#markers.arrow)" opacity="0.8" stroke="black" stroke-width="1" /><path class="conector_h conn-5be890b69150068433a0a53e" d="M1065.0000000000002 597.7540781324115 1100.0000000000002 577.2197000969663 1125.0000000000002 562.5522872145054" fill="none" opacity="0" stroke="black" stroke-width="18" /><text display="none" x="0" y="0">rest</text></g><g id="3-2"><path class="conector" d="M1065.0000000000002 726.8273114980668 1115.0000000000002 726.8273114980668 1156.666666666667 750.1541024159728 936.6666666666667 879.2273357816283 990.0000000000001 899.9027835111049 1015.0000000000001 885.235370628644" fill="none" marker-end="url(#markers.arrow)" opacity="0.8" stroke="black" stroke-width="1" /><path class="conector_h conn-5bd8dcc1db1e3bc5ea6c9048" d="M1065.0000000000002 726.8273114980668 1115.0000000000002 726.8273114980668 1156.666666666667 750.1541024159728 936.6666666666667 879.2273357816283 990.0000000000001 899.9027835111049 1015.0000000000001 885.235370628644" fill="none" opacity="0" stroke="black" stroke-width="18" /><text display="none" x="0" y="0">amqp</text></g><g id="6-2"><path class="conector" d="M1065.0000000000002 339.6076114011006 1115.0000000000002 339.6076114011006 1156.666666666667 362.93440231900655 606.6666666666667 685.6174857331451 715.0000000000001 738.5612418040355 740.0000000000001 723.8938289215746" fill="none" marker-end="url(#markers.arrow)" opacity="0.8" stroke="black" stroke-width="1" /><path class="conector_h conn-5bd8dcacdb1e3bc5ea6c9045" d="M1065.0000000000002 339.6076114011006 1115.0000000000002 339.6076114011006 1156.666666666667 362.93440231900655 606.6666666666667 685.6174857331451 715.0000000000001 738.5612418040355 740.0000000000001 723.8938289215746" fill="none" opacity="0" stroke="black" stroke-width="18" /><text display="none" x="0" y="0">None</text></g><g id="2-3"><path class="conector" d="M790.0000000000001 694.559003156653 840.0000000000001 694.5590031566529 880.0000000000002 706.2929334626217 905.0000000000002 691.6255205801608" fill="none" marker-end="url(#markers.arrow)" opacity="0.8" stroke="black" stroke-width="1" /><path class="conector_h conn-5be890a79150068433a0a53b" d="M790.0000000000001 694.559003156653 840.0000000000001 694.5590031566529 880.0000000000002 706.2929334626217 905.0000000000002 691.6255205801608" fill="none" opacity="0" stroke="black" stroke-width="18" /><text display="none" x="0" y="0">None</text></g><g id="2-3"><path class="conector" d="M790.0000000000001 694.559003156653 790.0000000000001 665.2241773917312 770.0000000000001 641.7563167797939 795.0000000000001 627.088903897333" fill="none" marker-end="url(#markers.arrow)" opacity="0.8" stroke="black" stroke-width="1" /><path class="conector_h conn-5be890a79150068433a0a53b" d="M790.0000000000001 694.559003156653 790.0000000000001 665.2241773917312 770.0000000000001 641.7563167797939 795.0000000000001 627.088903897333" fill="none" opacity="0" stroke="black" stroke-width="18" /><text display="none" x="0" y="0">None</text></g><g id="3-4"><path class="conector" d="M405.00000000000006 339.6076114011006 440.00000000000006 319.0732333656554 465.00000000000006 304.4058204831946" fill="none" marker-end="url(#markers.arrow)" opacity="0.8" stroke="black" stroke-width="1" /><path class="conector_h conn-5bc8c4f839f34a229d490b76" d="M405.00000000000006 339.6076114011006 440.00000000000006 319.0732333656554 465.00000000000006 304.4058204831946" fill="none" opacity="0" stroke="black" stroke-width="18" /><text display="none" x="0" y="0">rest</text></g><g id="0-7"><path class="conector" d="M295.0 662.2906948152392 320.0 647.6232819327784 320.0 647.6232819327784 955.0000000000001 275.0709947182729 935.0000000000001 222.26830834141384 960.0000000000001 207.600895458953" fill="none" marker-end="url(#markers.arrow)" opacity="0.8" stroke="black" stroke-width="1" /><path class="conector_h conn-5bc8c4f039f34a229d490b74" d="M295.0 662.2906948152392 320.0 647.6232819327784 320.0 647.6232819327784 955.0000000000001 275.0709947182729 935.0000000000001 222.26830834141384 960.0000000000001 207.600895458953" fill="none" opacity="0" stroke="black" stroke-width="18" /><text display="none" x="0" y="0">None</text></g><g id="0-3"><path class="conector" d="M515.0 791.3639281808946 430.00000000000006 712.1598986156059 625.0000000000001 597.7540781324115 990.0000000000002 770.8295501454495 1015.0000000000002 756.1621372629886" fill="none" marker-end="url(#markers.arrow)" opacity="0.8" stroke="black" stroke-width="1" /><path class="conector_h conn-5bc8c4f439f34a229d490b75" d="M515.0 791.3639281808946 430.00000000000006 712.1598986156059 625.0000000000001 597.7540781324115 990.0000000000002 770.8295501454495 1015.0000000000002 756.1621372629886" fill="none" opacity="0" stroke="black" stroke-width="18" /><text display="none" x="0" y="0">None</text></g><g id="0-1"><path class="conector" d="M515.0 791.3639281808946 550.0000000000001 770.8295501454495 575.0000000000001 756.1621372629886" fill="none" marker-end="url(#markers.arrow)" opacity="0.8" stroke="black" stroke-width="1" /><path class="conector_h conn-5bc8c4f439f34a229d490b75" d="M515.0 791.3639281808946 550.0000000000001 770.8295501454495 575.0000000000001 756.1621372629886" fill="none" opacity="0" stroke="black" stroke-width="18" /><text display="none" x="0" y="0">None</text></g><g id="0-6"><path class="conector" d="M515.0 791.3639281808946 515.0 762.0291024159728 430.00000000000006 712.1598986156059 955.0000000000002 404.14422808392834 990.0000000000002 383.6098500484831 1015.0000000000002 368.9424371660223" fill="none" marker-end="url(#markers.arrow)" opacity="0.8" stroke="black" stroke-width="1" /><path class="conector_h conn-5bc8c4f439f34a229d490b75" d="M515.0 791.3639281808946 515.0 762.0291024159728 430.00000000000006 712.1598986156059 955.0000000000002 404.14422808392834 990.0000000000002 383.6098500484831 1015.0000000000002 368.9424371660223" fill="none" opacity="0" stroke="black" stroke-width="18" /><text display="none" x="0" y="0">None</text></g><g id="0-5"><path class="conector" d="M515.0 791.3639281808946 515.0 762.0291024159728 430.00000000000006 712.1598986156059 845.0000000000001 468.680844766756 1100.0000000000002 577.2197000969663 1125.0000000000002 562.5522872145054" fill="none" marker-end="url(#markers.arrow)" opacity="0.8" stroke="black" stroke-width="1" /><path class="conector_h conn-5bc8c4f439f34a229d490b75" d="M515.0 791.3639281808946 515.0 762.0291024159728 430.00000000000006 712.1598986156059 845.0000000000001 468.680844766756 1100.0000000000002 577.2197000969663 1125.0000000000002 562.5522872145054" fill="none" opacity="0" stroke="black" stroke-width="18" /><text display="none" x="0" y="0">None</text></g><g id="0-1"><path class="conector" d="M515.0 791.3639281808946 565.0 791.3639281808945 660.0000000000001 835.3661668282773 685.0000000000001 820.6987539458164" fill="none" marker-end="url(#markers.arrow)" opacity="0.8" stroke="black" stroke-width="1" /><path class="conector_h conn-5bc8c4f439f34a229d490b75" d="M515.0 791.3639281808946 565.0 791.3639281808945 660.0000000000001 835.3661668282773 685.0000000000001 820.6987539458164" fill="none" opacity="0" stroke="black" stroke-width="18" /><text display="none" x="0" y="0">None</text></g><g id="0-7"><path class="conector" d="M515.0 791.3639281808946 515.0 762.0291024159728 430.00000000000006 712.1598986156059 1065.0000000000002 339.6076114011006 935.0000000000001 222.26830834141384 960.0000000000001 207.600895458953" fill="none" marker-end="url(#markers.arrow)" opacity="0.8" stroke="black" stroke-width="1" /><path class="conector_h conn-5bc8c4f439f34a229d490b75" d="M515.0 791.3639281808946 515.0 762.0291024159728 430.00000000000006 712.1598986156059 1065.0000000000002 339.6076114011006 935.0000000000001 222.26830834141384 960.0000000000001 207.600895458953" fill="none" opacity="0" stroke="black" stroke-width="18" /><text display="none" x="0" y="0">None</text></g><g id="1-7"><path class="conector" d="M735.0000000000001 791.3639281808946 760.0000000000001 776.6965152984337 760.0000000000001 776.6965152984337 1285.0000000000002 468.6808447667561 935.0000000000001 222.26830834141384 960.0000000000001 207.600895458953" fill="none" marker-end="url(#markers.arrow)" opacity="0.8" stroke="black" stroke-width="1" /><path class="conector_h conn-5bd8dca8db1e3bc5ea6c9044" d="M735.0000000000001 791.3639281808946 760.0000000000001 776.6965152984337 760.0000000000001 776.6965152984337 1285.0000000000002 468.6808447667561 935.0000000000001 222.26830834141384 960.0000000000001 207.600895458953" fill="none" opacity="0" stroke="black" stroke-width="18" /><text display="none" x="0" y="0">None</text></g><g id="1-2"><path class="conector" d="M625.0000000000001 726.8273114980668 675.0000000000001 726.8273114980668 990.0000000000001 899.9027835111049 1015.0000000000001 885.235370628644" fill="none" marker-end="url(#markers.arrow)" opacity="0.8" stroke="black" stroke-width="1" /><path class="conector_h conn-5bd8dce0db1e3bc5ea6c9049" d="M625.0000000000001 726.8273114980668 675.0000000000001 726.8273114980668 990.0000000000001 899.9027835111049 1015.0000000000001 885.235370628644" fill="none" opacity="0" stroke="black" stroke-width="18" /><text display="none" x="0" y="0">None</text></g><g id="2-3"><path class="conector" d="M295.0 404.14422808392834 330.00000000000006 383.6098500484831 355.00000000000006 368.9424371660223" fill="none" marker-end="url(#markers.arrow)" opacity="0.8" stroke="black" stroke-width="1" /><path class="conector_h conn-5bc8c4f839f34a229d490b76" d="M295.0 404.14422808392834 330.00000000000006 383.6098500484831 355.00000000000006 368.9424371660223" fill="none" opacity="0" stroke="black" stroke-width="18" /><text display="none" x="0" y="0">None</text></g><use class="default" height="190.0" width="100" x="220.00000000000003" xlink:href="#grid.entry" y="258.14646673131085" /><polyline fill="#ccc" fill-opacity="0.2" points="330.00000000000006,354.2750242835615 380.00000000000006,324.9401985186398 430.00000000000006,354.2750242835615 380.00000000000006,383.60985004848317" /><use class="default" fill-opacity="0.4" height="190.0" width="100" x="330.00000000000006" xlink:href="#grid.base" y="193.60985004848314" /><use class="default boundaries" height="190.0" id="5bc8c4f839f34a229d490b76" width="100" x="330.00000000000006" xlink:href="#boundaries_box.front" y="193.60985004848314" /><text font-size="16.0" transform="translate(345.00000000000006, 193.60985004848314) skewY(-30.404) skewX(41.0) translate(-468.86000000000007, 30.59014995151685)" x="330.00000000000006" y="193.60985004848314">app5</text><polyline fill="#ccc" fill-opacity="0.2" points="440.00000000000006,289.73840760073375 490.00000000000006,260.4035818358121 540.0,289.73840760073375 490.00000000000006,319.0732333656554" /><use class="default" fill-opacity="0.4" height="190.0" width="100" x="440.00000000000006" xlink:href="#grid.base" y="129.07323336565543" /><use class="premise" height="95.0" width="36.0" x="472.00000000000006" xlink:href="#application.medium" y="205.29894487610557" /><use class="default boundaries" height="190.0" id="5bd8dca4db1e3bc5ea6c9043" width="100" x="440.00000000000006" xlink:href="#boundaries_box.front" y="129.07323336565543" /><text font-size="16.0" transform="translate(455.00000000000006, 129.07323336565543) skewY(-30.404) skewX(41.0) translate(-578.8600000000001, 95.12676663434456)" x="440.00000000000006" y="129.07323336565543">app6</text><polyline fill="#ccc" fill-opacity="0.2" points="660.0000000000001,676.9581076977 710.0000000000001,647.6232819327784 870.0000000000001,741.4947243805278 820.0000000000001,770.8295501454495" /><use class="default" fill-opacity="0.4" height="190.0" width="100" x="715.0000000000001" xlink:href="#grid.base" y="548.5612418040355" /><use class="premise" height="95.0" width="36.0" x="747.0000000000001" xlink:href="#application.medium" y="624.7869533144856" /><use class="default boundaries" height="190.0" id="5be890a79150068433a0a53b" width="100" x="715.0000000000001" xlink:href="#boundaries_box.front" y="548.5612418040355" /><text font-size="16.0" transform="translate(730.0000000000001, 548.5612418040355) skewY(-30.404) skewX(41.0) translate(-853.8600000000001, -324.3612418040355)" x="715.0000000000001" y="548.5612418040355">www1</text><polyline fill="#ccc" fill-opacity="0.2" points="770.0000000000001,612.4214910148722 820.0000000000001,583.0866652499506 870.0000000000001,612.4214910148722 820.0000000000001,641.7563167797939" /><use class="default" fill-opacity="0.4" height="190.0" width="100" x="770.0000000000001" xlink:href="#grid.base" y="451.7563167797939" /><use class="premise" height="95.0" width="36.0" x="802.0000000000001" xlink:href="#application.medium" y="527.982028290244" /><use class="default boundaries" height="190.0" id="5be890aa9150068433a0a53c" width="100" x="770.0000000000001" xlink:href="#boundaries_box.front" y="451.7563167797939" /><text font-size="16.0" transform="translate(785.0000000000001, 451.7563167797939) skewY(-30.404) skewX(41.0) translate(-908.8600000000001, -227.55631677979392)" x="770.0000000000001" y="451.7563167797939">www2</text><polyline fill="#ccc" fill-opacity="0.2" points="880.0000000000002,676.9581076977 930.0000000000002,647.6232819327784 980.0000000000002,676.9581076977 930.0000000000002,706.2929334626217" /><use class="default" fill-opacity="0.4" height="190.0" width="100" x="880.0000000000002" xlink:href="#grid.base" y="516.2929334626217" /><use class="aws" height="95.0" width="36.0" x="912.0000000000002" xlink:href="#application.medium" y="577.851232090611" /><use class="default boundaries" height="190.0" id="5be890af9150068433a0a53d" width="100" x="880.0000000000002" xlink:href="#boundaries_box.front" y="516.2929334626217" /><text font-size="16.0" transform="translate(895.0000000000002, 516.2929334626217) skewY(-30.404) skewX(41.0) translate(-1018.8600000000002, -292.0929334626217)" x="880.0000000000002" y="516.2929334626217">www3</text><polyline fill="#ccc" fill-opacity="0.2" points="990.0000000000002,612.4214910148723 1040.0000000000002,583.0866652499507 1090.0000000000002,612.4214910148723 1040.0000000000002,641.756316779794" /><use class="default" fill-opacity="0.4" height="190.0" width="100" x="990.0000000000002" xlink:href="#grid.base" y="451.756316779794" /><use class="aws" height="95.0" width="36.0" x="1022.0000000000002" xlink:href="#application.medium" y="513.3146154077833" /><use class="aws" height="95.0" width="36.0" x="1047.0000000000002" xlink:href="#application.micro" y="527.9820282902441" /><use class="default boundaries" height="190.0" id="5be890b69150068433a0a53e" width="100" x="990.0000000000002" xlink:href="#boundaries_box.front" y="451.756316779794" /><text font-size="16.0" transform="translate(1005.0000000000002, 451.756316779794) skewY(-30.404) skewX(41.0) translate(-1132.7000000000003, -227.55631677979403)" x="990.0000000000002" y="451.756316779794">www42</text><polyline fill="#ccc" fill-opacity="0.2" points="1100.0000000000002,547.8848743320447 1150.0000000000002,518.550048567123 1200.0000000000002,547.8848743320447 1150.0000000000002,577.2197000969663" /><use class="default" fill-opacity="0.4" height="190.0" width="100" x="1100.0000000000002" xlink:href="#grid.base" y="387.21970009696633" /><use class="premise" height="95.0" width="36.0" x="1132.0000000000002" xlink:href="#application.medium" y="463.4454116074165" /><use class="default boundaries" height="190.0" id="5bd8dcb0db1e3bc5ea6c9046" width="100" x="1100.0000000000002" xlink:href="#boundaries_box.front" y="387.21970009696633" /><text font-size="16.0" transform="translate(1115.0000000000002, 387.21970009696633) skewY(-30.404) skewX(41.0) translate(-1238.8600000000001, -163.01970009696635)" x="1100.0000000000002" y="387.21970009696633">app9</text><polyline fill="#ccc" fill-opacity="0.2" points="990.0000000000001,870.5679577461832 1040.0,841.2331319812615 1090.0,870.5679577461832 1040.0,899.9027835111049" /><use class="default" fill-opacity="0.4" height="190.0" width="100" x="990.0000000000001" xlink:href="#grid.base" y="709.9027835111049" /><use class="aws" height="190.0" width="83.0" x="998.5000000000001" xlink:href="#database.medium" y="704.9158631310681" /><use class="default boundaries" height="190.0" id="5bd8dd5adb1e3bc5ea6c904a" width="100" x="990.0000000000001" xlink:href="#boundaries_box.front" y="709.9027835111049" /><text font-size="16.0" transform="translate(1005.0000000000001, 709.9027835111049) skewY(-30.404) skewX(41.0) translate(-1151.9, -485.7027835111049)" x="990.0000000000001" y="709.9027835111049">slave mysq</text><g id="-1-0"><path class="conector" d="M185.0 726.8273114980668 220.00000000000003 706.2929334626217 245.00000000000003 691.6255205801608" fill="none" marker-end="url(#markers.arrow)" opacity="0.8" stroke="black" stroke-width="1" /><path class="conector_h conn-5bc8c4f039f34a229d490b74" d="M185.0 726.8273114980668 220.00000000000003 706.2929334626217 245.00000000000003 691.6255205801608" fill="none" opacity="0" stroke="black" stroke-width="18" /><text display="none" x="0" y="0">None</text></g><use class="default" height="190.0" width="100" x="110.00000000000001" xlink:href="#grid.entry" y="580.8295501454494" /><polyline fill="#ccc" fill-opacity="0.2" points="220.00000000000003,676.9581076977 270.0,647.6232819327784 320.0,676.9581076977 270.0,706.2929334626217" /><use class="default" fill-opacity="0.4" height="190.0" width="100" x="220.00000000000003" xlink:href="#grid.base" y="516.2929334626217" /><use class="premise" height="95.0" width="36.0" x="252.00000000000003" xlink:href="#application.medium" y="592.5186449730718" /><use class="default boundaries" height="190.0" id="5bc8c4f039f34a229d490b74" width="100" x="220.00000000000003" xlink:href="#boundaries_box.front" y="516.2929334626217" /><text font-size="16.0" transform="translate(235.00000000000003, 516.2929334626217) skewY(-30.404) skewX(41.0) translate(-358.86, -292.0929334626217)" x="220.00000000000003" y="516.2929334626217">app2</text><polyline fill="#ccc" fill-opacity="0.2" points="990.0000000000002,741.4947243805277 1040.0000000000002,712.159898615606 1090.0000000000002,741.4947243805277 1040.0000000000002,770.8295501454494" /><use class="default" fill-opacity="0.4" height="190.0" width="100" x="990.0000000000002" xlink:href="#grid.base" y="580.8295501454494" /><use class="aws" height="190.0" width="83.0" x="998.5000000000002" xlink:href="#broker.medium" y="575.8426297654127" /><use class="default boundaries" height="190.0" id="5bd8dcc1db1e3bc5ea6c9048" width="100" x="990.0000000000002" xlink:href="#boundaries_box.front" y="580.8295501454494" /><text font-size="16.0" transform="translate(1005.0000000000002, 580.8295501454494) skewY(-30.404) skewX(41.0) translate(-1136.5400000000002, -356.6295501454494)" x="990.0000000000002" y="580.8295501454494">broker</text><polyline fill="#ccc" fill-opacity="0.2" points="990.0000000000002,354.27502428356144 1040.0000000000002,324.94019851863976 1090.0000000000002,354.27502428356144 1040.0000000000002,383.6098500484831" /><use class="default" fill-opacity="0.4" height="190.0" width="100" x="990.0000000000002" xlink:href="#grid.base" y="193.6098500484831" /><use class="premise" height="95.0" width="36.0" x="1022.0000000000002" xlink:href="#application.medium" y="269.83556155893325" /><use class="default boundaries" height="190.0" id="5bd8dcacdb1e3bc5ea6c9045" width="100" x="990.0000000000002" xlink:href="#boundaries_box.front" y="193.6098500484831" /><text font-size="16.0" transform="translate(1005.0000000000002, 193.6098500484831) skewY(-30.404) skewX(41.0) translate(-1128.8600000000001, 30.590149951516878)" x="990.0000000000002" y="193.6098500484831">app8</text><g id="-1-0"><path class="conector" d="M405.00000000000006 855.9005448637222 440.00000000000006 835.3661668282771 465.00000000000006 820.6987539458162" fill="none" marker-end="url(#markers.arrow)" opacity="0.8" stroke="black" stroke-width="1" /><path class="conector_h conn-5bc8c4f439f34a229d490b75" d="M405.00000000000006 855.9005448637222 440.00000000000006 835.3661668282771 465.00000000000006 820.6987539458162" fill="none" opacity="0" stroke="black" stroke-width="18" /><text display="none" x="0" y="0">None</text></g><use class="default" height="190.0" width="100" x="330.00000000000006" xlink:href="#grid.entry" y="709.9027835111048" /><polyline fill="#ccc" fill-opacity="0.2" points="330.00000000000006,741.4947243805277 380.00000000000006,712.159898615606 650.0000000000001,870.5679577461832 600.0000000000001,899.9027835111049" /><use class="default" fill-opacity="0.4" height="190.0" width="100" x="440.00000000000006" xlink:href="#grid.base" y="645.3661668282771" /><use class="premise" height="95.0" width="36.0" x="472.00000000000006" xlink:href="#application.medium" y="721.5918783387272" /><use class="default boundaries" height="190.0" id="5bc8c4f439f34a229d490b75" width="100" x="440.00000000000006" xlink:href="#boundaries_box.front" y="645.3661668282771" /><text font-size="16.0" transform="translate(455.00000000000006, 645.3661668282771) skewY(-30.404) skewX(41.0) translate(-578.8600000000001, -421.1661668282771)" x="440.00000000000006" y="645.3661668282771">app1</text><polyline fill="#ccc" fill-opacity="0.2" points="550.0000000000001,741.4947243805277 600.0000000000001,712.159898615606 650.0000000000001,741.4947243805277 600.0000000000001,770.8295501454494" /><use class="default" fill-opacity="0.4" height="190.0" width="100" x="550.0000000000001" xlink:href="#grid.base" y="580.8295501454494" /><use class="premise" height="190.0" width="83.0" x="558.5000000000001" xlink:href="#database.32xlarge" y="575.8426297654127" /><use class="default boundaries" height="190.0" id="5bd8dce0db1e3bc5ea6c9049" width="100" x="550.0000000000001" xlink:href="#boundaries_box.front" y="580.8295501454494" /><text font-size="16.0" transform="translate(565.0000000000001, 580.8295501454494) skewY(-30.404) skewX(41.0) translate(-692.7, -356.6295501454494)" x="550.0000000000001" y="580.8295501454494">mysql</text><polyline fill="#ccc" fill-opacity="0.2" points="880.0000000000001,160.66517423507833 930.0000000000001,131.33034847015662 1090.0,225.201790917906 1040.0,254.53661668282768" /><use class="default" fill-opacity="0.4" height="190.0" width="100" x="935.0000000000001" xlink:href="#grid.base" y="32.26830834141384" /><use class="premise" height="95.0" width="36.0" x="967.0000000000001" xlink:href="#application.medium" y="108.49401985186397" /><use class="default boundaries" height="190.0" id="5bc8c4e939f34a229d490b73" width="100" x="935.0000000000001" xlink:href="#boundaries_box.front" y="32.26830834141384" /><text font-size="16.0" transform="translate(950.0000000000001, 32.26830834141384) skewY(-30.404) skewX(41.0) translate(-1073.8600000000001, 191.93169165858615)" x="935.0000000000001" y="32.26830834141384">app4</text><polyline fill="#ccc" fill-opacity="0.2" points="660.0000000000001,806.0313410633555 710.0000000000001,776.6965152984338 760.0000000000001,806.0313410633555 710.0000000000001,835.3661668282772" /><use class="default" fill-opacity="0.4" height="190.0" width="100" x="660.0000000000001" xlink:href="#grid.base" y="645.3661668282772" /><use class="premise" height="95.0" width="36.0" x="692.0000000000001" xlink:href="#application.medium" y="721.5918783387274" /><use class="default boundaries" height="190.0" id="5bd8dca8db1e3bc5ea6c9044" width="100" x="660.0000000000001" xlink:href="#boundaries_box.front" y="645.3661668282772" /><text font-size="16.0" transform="translate(675.0000000000001, 645.3661668282772) skewY(-30.404) skewX(41.0) translate(-798.8600000000001, -421.1661668282772)" x="660.0000000000001" y="645.3661668282772">app7</text></svg>