<svg xmlns="http://www.w3.org/2000/svg" viewBox="0 0 266.3 336.69"><defs><style>.a{fill:#c4692c;}.b{fill:#f58536;}.c{fill:#a0501a;}</style></defs><title>Asset 186</title><polygon class="a" points="134.81 336.69 3.31 259.53 3.31 221.06 134.81 298.22 134.81 336.69"/><polygon class="b" points="134.81 336.69 266.3 259.53 266.3 221.06 134.81 298.22 134.81 336.69"/><polygon class="c" points="134.81 143.9 3.31 221.06 134.81 298.22 266.3 221.06 134.81 143.9"/><polygon class="c" points="36.85 280.36 46.65 163.53 226.15 169.28 222.2 282.68 36.85 280.36"/><polygon class="b" points="36.85 256.27 46.65 139.44 226.15 145.19 222.2 258.59 36.85 256.27"/><polygon class="a" points="131.5 269.12 0 191.96 0 153.5 131.5 230.66 131.5 269.12"/><polygon class="b" points="131.5 269.12 263 191.96 263 153.5 131.5 230.66 131.5 269.12"/><polygon class="c" points="131.5 76.33 0 153.5 131.5 230.66 263 153.5 131.5 76.33"/><polygon class="a" points="172.28 152.67 98.69 109.52 98.6 15.3 172.19 58.45 172.28 152.67"/><polygon class="b" points="172.19 152.67 198.68 137.15 198.68 43.13 172.19 58.45 172.19 152.67"/><polygon class="c" points="125.09 0 98.6 15.3 172.19 58.45 198.68 43.15 125.09 0"/><polygon class="a" points="126.18 178.01 52.59 134.87 52.5 40.65 126.09 83.8 126.18 178.01"/><polygon class="b" points="126.09 178.01 152.59 162.5 152.59 68.48 126.09 83.8 126.09 178.01"/><polygon class="c" points="79 25.35 52.5 40.65 126.09 83.8 152.59 68.5 79 25.35"/></svg>